<?xml version="1.0" encoding="UTF-8" standalone="no"?>
<svg
   width="7.2508044cm"
   height="5.7555981cm"
   viewBox="0 0 72.508044 57.555981"
   version="1.1"
   id="svg8"
   xml:space="preserve"
   xmlns:xlink="http://www.w3.org/1999/xlink"
   xmlns="http://www.w3.org/2000/svg"
   xmlns:svg="http://www.w3.org/2000/svg"
   xmlns:rdf="http://www.w3.org/1999/02/22-rdf-syntax-ns#"
   xmlns:cc="http://creativecommons.org/ns#"
   xmlns:dc="http://purl.org/dc/elements/1.1/"
   xmlns:ns1="http://www.iki.fi/pav/software/textext/"><defs
     id="defs2"><linearGradient
       id="linearGradient2440"><stop
         style="stop-color:#710080;stop-opacity:1;"
         offset="0"
         id="stop2437" /><stop
         style="stop-color:#710080;stop-opacity:1;"
         offset="0.5"
         id="stop2438" /><stop
         style="stop-color:#880099;stop-opacity:1;"
         offset="0.5"
         id="stop2439" /><stop
         style="stop-color:#880099;stop-opacity:1;"
         offset="1"
         id="stop2440" /></linearGradient><linearGradient
       id="linearGradient602"><stop
         style="stop-color:#886600;stop-opacity:1;"
         offset="0"
         id="stop599" /><stop
         style="stop-color:#886600;stop-opacity:1;"
         offset="0.5"
         id="stop600" /><stop
         style="stop-color:#997300;stop-opacity:1;"
         offset="0.5"
         id="stop601" /><stop
         style="stop-color:#997200;stop-opacity:1;"
         offset="1"
         id="stop602" /></linearGradient><linearGradient
       xlink:href="#linearGradient602"
       id="linearGradient769"
       gradientUnits="userSpaceOnUse"
       gradientTransform="matrix(0,1,1,0,679.99999,79.99979)"
       x1="570.00018"
       y1="49.99979"
       x2="575.00018"
       y2="49.99979"
       spreadMethod="repeat" /><linearGradient
       xlink:href="#linearGradient602"
       id="linearGradient770"
       gradientUnits="userSpaceOnUse"
       gradientTransform="matrix(1,0,0,-1,149.99979,740.00001)"
       x1="570.00018"
       y1="49.99979"
       x2="575.00018"
       y2="49.99979"
       spreadMethod="repeat" /><linearGradient
       xlink:href="#linearGradient2440"
       id="linearGradient771"
       gradientUnits="userSpaceOnUse"
       gradientTransform="matrix(0,1,1,0,710,110.00742)"
       x1="570.00159"
       y1="49.996727"
       x2="575.00079"
       y2="50.000004"
       spreadMethod="repeat" /></defs><metadata
     id="metadata5"><rdf:RDF><cc:Work
         rdf:about=""><dc:format>image/svg+xml</dc:format><dc:type
           rdf:resource="http://purl.org/dc/dcmitype/StillImage" /></cc:Work></rdf:RDF></metadata><g
     id="layer1"
     transform="translate(-727.49194,-659.86774)"><path
       style="color:#000000;display:inline;fill:url(#linearGradient771);stroke:none;stroke-width:0.26;stroke-dasharray:none"
       d="m 750,690 50,0.008 V 710 l -50,-0.008 z"
       id="path758" /><path
       style="color:#000000;display:inline;fill:url(#linearGradient770);stroke:none;stroke-width:0.26;stroke-dasharray:none"
       d="m 730,690 v -30 h 20 v 30 z"
       id="path759" /><path
       style="color:#000000;display:inline;fill:url(#linearGradient769);stroke:none;stroke-width:0.26;stroke-dasharray:none"
       d="m 730,660 h 70 v 20 h -50 z"
       id="path760" /><path
       style="color:#000000;display:inline;fill:#0066ff;stroke:#ffffff;stroke-width:0.26;stroke-dasharray:none"
       d="m 750,690 h -20 v 20 h 20 z"
       id="path764" /><path
       style="fill:none;stroke:#ffffff;stroke-width:0.264583px;stroke-linecap:butt;stroke-linejoin:miter;stroke-opacity:1"
       d="M 730.00001,690.00002 V 660 H 800"
       id="path765" /><path
       style="fill:none;stroke:#ffffff;stroke-width:0.264583px;stroke-linecap:butt;stroke-linejoin:miter;stroke-opacity:1"
       d="m 750.00002,690.00022 v -10 L 800,680"
       id="path766" /><path
       style="fill:none;stroke:#ffffff;stroke-width:0.264583px;stroke-linecap:butt;stroke-linejoin:miter;stroke-opacity:1"
       d="M 750.00002,710 H 800"
       id="path767" /><path
       style="fill:none;stroke:#ffffff;stroke-width:0.264583px;stroke-linecap:butt;stroke-linejoin:miter;stroke-opacity:1"
       d="m 750,690 h 49.99998"
       id="path783" /><circle
       style="display:inline;fill:#ffffff;fill-opacity:1;fill-rule:evenodd;stroke:none;stroke-width:0.26;stroke-miterlimit:1.5;stroke-dasharray:none;stroke-opacity:1"
       id="circle783"
       cx="730"
       cy="710"
       r="0.99999994" /><g
       transform="matrix(0.705556,0,0,0.705556,727.49179,712.59705)"
       ns1:version="1.10.0"
       ns1:texconverter="pdflatex"
       ns1:pdfconverter="inkscape"
       ns1:text="$P$"
       ns1:preamble="/home/hayastl/.config/inkscape/extensions/textext/default_packages.tex"
       ns1:scale="2.0"
       ns1:alignment="middle center"
       ns1:stroke-to-path="0"
       ns1:inkscapeversion="1.3.2"
       id="g789"
       ns1:jacobian_sqrt="0.705556"
       style="display:inline;fill:#ffffff;stroke-width:0"><defs
   id="defs785"
   style="fill:#ffffff;stroke-width:0" />
  <g
   id="g788"
   transform="translate(-149.118,-127.953)"
   style="fill:#ffffff;stroke-width:0">
    <g
   style="fill:#ffffff;fill-opacity:1;stroke-width:0"
   id="g787">
      <g
   transform="translate(148.712,134.765)"
   id="g786"
   style="fill:#ffffff;stroke-width:0"><path
   style="fill:#ffffff;stroke:#ffffff;stroke-width:0"
   d="M 3.015625,-3.15625 H 4.71875 c 1.40625,0 2.796875,-1.03125 2.796875,-2.140625 0,-0.78125 -0.65625,-1.515625 -1.96875,-1.515625 h -3.21875 c -0.1875,0 -0.296875,0 -0.296875,0.1875 0,0.125 0.078125,0.125 0.28125,0.125 0.125,0 0.3125,0.015625 0.421875,0.015625 0.171875,0.03125 0.21875,0.046875 0.21875,0.171875 0,0.03125 0,0.0625 -0.03125,0.1875 l -1.34375,5.34375 c -0.09375,0.390625 -0.109375,0.46875 -0.90625,0.46875 -0.15625,0 -0.265625,0 -0.265625,0.1875 C 0.40625,0 0.515625,0 0.546875,0 0.828125,0 1.53125,-0.03125 1.8125,-0.03125 c 0.21875,0 0.4375,0.015625 0.640625,0.015625 0.21875,0 0.4375,0.015625 0.640625,0.015625 0.078125,0 0.203125,0 0.203125,-0.203125 0,-0.109375 -0.09375,-0.109375 -0.28125,-0.109375 -0.359375,0 -0.640625,0 -0.640625,-0.171875 0,-0.0625 0.015625,-0.109375 0.03125,-0.171875 z M 3.734375,-6.125 C 3.828125,-6.46875 3.84375,-6.5 4.28125,-6.5 h 0.953125 c 0.828125,0 1.359375,0.265625 1.359375,0.953125 0,0.390625 -0.203125,1.25 -0.59375,1.609375 -0.5,0.453125 -1.09375,0.53125 -1.53125,0.53125 H 3.0625 Z m 0,0"
   id="path786" />
      </g></g>
  </g>
</g><circle
       style="display:inline;fill:#ffffff;fill-opacity:1;fill-rule:evenodd;stroke:none;stroke-width:0.26;stroke-miterlimit:1.5;stroke-dasharray:none;stroke-opacity:1"
       id="circle789"
       cx="750"
       cy="710"
       r="0.99999994" /><g
       transform="matrix(0.705556,0,0,0.705556,750.94279,711.0959)"
       ns1:version="1.10.0"
       ns1:texconverter="pdflatex"
       ns1:pdfconverter="inkscape"
       ns1:text="$Q$"
       ns1:preamble="/home/hayastl/.config/inkscape/extensions/textext/default_packages.tex"
       ns1:scale="2.0"
       ns1:alignment="middle center"
       ns1:stroke-to-path="0"
       ns1:inkscapeversion="1.3.2"
       id="g794"
       ns1:jacobian_sqrt="0.705556"
       style="display:inline;fill:#ffffff;stroke-width:0"><defs
   id="defs790"
   style="fill:#ffffff;stroke-width:0" />
  <g
   id="g793"
   transform="translate(-149.196,-127.734)"
   style="fill:#ffffff;stroke-width:0">
    <g
   style="fill:#ffffff;fill-opacity:1;stroke-width:0"
   id="g792">
      <g
   transform="translate(148.712,134.765)"
   id="g791"
   style="fill:#ffffff;stroke-width:0"><path
   style="fill:#ffffff;stroke:#ffffff;stroke-width:0"
   d="M 4.359375,-0.0625 C 5.90625,-0.640625 7.375,-2.421875 7.375,-4.34375 c 0,-1.609375 -1.0625,-2.6875 -2.546875,-2.6875 -2.140625,0 -4.34375,2.265625 -4.34375,4.59375 0,1.65625 1.125,2.65625 2.5625,2.65625 0.25,0 0.578125,-0.046875 0.96875,-0.15625 -0.03125,0.625 -0.03125,0.640625 -0.03125,0.78125 0,0.3125 0,1.09375 0.828125,1.09375 1.171875,0 1.65625,-1.828125 1.65625,-1.9375 0,-0.0625 -0.0625,-0.09375 -0.109375,-0.09375 -0.078125,0 -0.09375,0.046875 -0.125,0.109375 C 6,0.71875 5.421875,0.96875 5.078125,0.96875 c -0.46875,0 -0.609375,-0.265625 -0.71875,-1.03125 z m -1.875,-0.078125 c -0.78125,-0.3125 -1.125,-1.078125 -1.125,-1.984375 0,-0.6875 0.265625,-2.109375 1.015625,-3.171875 C 3.109375,-6.3125 4.046875,-6.78125 4.78125,-6.78125 5.765625,-6.78125 6.5,-6 6.5,-4.671875 c 0,1 -0.515625,3.34375 -2.1875,4.265625 -0.046875,-0.34375 -0.140625,-1.0625 -0.875,-1.0625 -0.53125,0 -1.015625,0.484375 -1.015625,1.015625 0,0.1875 0.0625,0.296875 0.0625,0.3125 z M 3.09375,-0.03125 c -0.140625,0 -0.453125,0 -0.453125,-0.421875 0,-0.40625 0.375,-0.796875 0.796875,-0.796875 0.421875,0 0.609375,0.234375 0.609375,0.84375 0,0.140625 -0.015625,0.15625 -0.109375,0.203125 C 3.671875,-0.09375 3.375,-0.03125 3.09375,-0.03125 Z m 0,0"
   id="path791" />
      </g></g>
  </g>
</g><circle
       style="display:inline;fill:#ffffff;fill-opacity:1;fill-rule:evenodd;stroke:none;stroke-width:0.26;stroke-miterlimit:1.5;stroke-dasharray:none;stroke-opacity:1"
       id="circle794"
       cx="790"
       cy="710"
       r="0.99999994" /><g
       transform="matrix(0.705556,0,0,0.705556,790.94279,711.0959)"
       ns1:version="1.10.0"
       ns1:texconverter="pdflatex"
       ns1:pdfconverter="inkscape"
       ns1:text="$Q$"
       ns1:preamble="/home/hayastl/.config/inkscape/extensions/textext/default_packages.tex"
       ns1:scale="2.0"
       ns1:alignment="middle center"
       ns1:stroke-to-path="0"
       ns1:inkscapeversion="1.3.2"
       id="g799"
       ns1:jacobian_sqrt="0.705556"
       style="display:inline;fill:#ffffff;stroke-width:0"><defs
   id="defs795"
   style="fill:#ffffff;stroke-width:0" />
  <g
   id="g798"
   transform="translate(-149.196,-127.734)"
   style="fill:#ffffff;stroke-width:0">
    <g
   style="fill:#ffffff;fill-opacity:1;stroke-width:0"
   id="g797">
      <g
   transform="translate(148.712,134.765)"
   id="g796"
   style="fill:#ffffff;stroke-width:0"><path
   style="fill:#ffffff;stroke:#ffffff;stroke-width:0"
   d="M 4.359375,-0.0625 C 5.90625,-0.640625 7.375,-2.421875 7.375,-4.34375 c 0,-1.609375 -1.0625,-2.6875 -2.546875,-2.6875 -2.140625,0 -4.34375,2.265625 -4.34375,4.59375 0,1.65625 1.125,2.65625 2.5625,2.65625 0.25,0 0.578125,-0.046875 0.96875,-0.15625 -0.03125,0.625 -0.03125,0.640625 -0.03125,0.78125 0,0.3125 0,1.09375 0.828125,1.09375 1.171875,0 1.65625,-1.828125 1.65625,-1.9375 0,-0.0625 -0.0625,-0.09375 -0.109375,-0.09375 -0.078125,0 -0.09375,0.046875 -0.125,0.109375 C 6,0.71875 5.421875,0.96875 5.078125,0.96875 c -0.46875,0 -0.609375,-0.265625 -0.71875,-1.03125 z m -1.875,-0.078125 c -0.78125,-0.3125 -1.125,-1.078125 -1.125,-1.984375 0,-0.6875 0.265625,-2.109375 1.015625,-3.171875 C 3.109375,-6.3125 4.046875,-6.78125 4.78125,-6.78125 5.765625,-6.78125 6.5,-6 6.5,-4.671875 c 0,1 -0.515625,3.34375 -2.1875,4.265625 -0.046875,-0.34375 -0.140625,-1.0625 -0.875,-1.0625 -0.53125,0 -1.015625,0.484375 -1.015625,1.015625 0,0.1875 0.0625,0.296875 0.0625,0.3125 z M 3.09375,-0.03125 c -0.140625,0 -0.453125,0 -0.453125,-0.421875 0,-0.40625 0.375,-0.796875 0.796875,-0.796875 0.421875,0 0.609375,0.234375 0.609375,0.84375 0,0.140625 -0.015625,0.15625 -0.109375,0.203125 C 3.671875,-0.09375 3.375,-0.03125 3.09375,-0.03125 Z m 0,0"
   id="path796" />
      </g></g>
  </g>
</g><path
       style="display:inline;opacity:0.5;fill:none;stroke:#ffffff;stroke-width:0.13;stroke-linecap:butt;stroke-linejoin:miter;stroke-dasharray:none;stroke-dashoffset:0;stroke-opacity:1"
       d="M 750,680 730.0336,660"
       id="path842" /></g></svg>
