<?xml version="1.0" encoding="UTF-8" standalone="no"?>
<!-- Created with Inkscape (http://www.inkscape.org/) -->

<svg
   width="76.547523mm"
   height="76.547523mm"
   viewBox="0 0 76.547523 76.547523"
   version="1.1"
   id="svg1"
   xml:space="preserve"
   xmlns:inkscape="http://www.inkscape.org/namespaces/inkscape"
   xmlns:sodipodi="http://sodipodi.sourceforge.net/DTD/sodipodi-0.dtd"
   xmlns="http://www.w3.org/2000/svg"
   xmlns:svg="http://www.w3.org/2000/svg"><sodipodi:namedview
     id="namedview1"
     pagecolor="#ffffff"
     bordercolor="#666666"
     borderopacity="1.0"
     inkscape:showpageshadow="2"
     inkscape:pageopacity="0.0"
     inkscape:pagecheckerboard="0"
     inkscape:deskcolor="#d1d1d1"
     inkscape:document-units="mm" /><defs
     id="defs1" /><g
     inkscape:label="Layer 1"
     inkscape:groupmode="layer"
     id="layer1"
     transform="translate(-124.15771,-316.03112)"><path
       style="fill:none;stroke:#00aaaa;stroke-width:0.264583px;stroke-linecap:butt;stroke-linejoin:miter;stroke-opacity:1"
       d="m 124.25127,316.12469 76.36042,76.36043"
       id="path15"
       inkscape:export-filename="rotation-cipher.svg"
       inkscape:export-xdpi="95.9"
       inkscape:export-ydpi="95.9" /><path
       style="fill:none;stroke:#00aaaa;stroke-width:0.264583px;stroke-linecap:butt;stroke-linejoin:miter;stroke-opacity:1"
       d="m 200.61169,316.12469 -76.36043,76.36042"
       id="path16" /><path
       style="font-size:15.8045px;line-height:1.25;font-family:'Noto Sans Mono';-inkscape-font-specification:'Noto Sans Mono';letter-spacing:0px;word-spacing:0px;fill:#00aaaa;stroke-width:0.265"
       d="m 162.97236,332.30964 q -1.76721,0 -2.67782,-1.48938 -0.91061,-1.49711 -0.91061,-4.32155 0,-5.80321 3.58843,-5.80321 1.79035,0 2.70096,1.4971 0.91833,1.48939 0.91833,4.30611 0,5.81093 -3.61929,5.81093 z m 0,-1.19614 q 1.1344,0 1.66688,-1.08038 0.53247,-1.08811 0.53247,-3.53441 0,-2.43086 -0.53247,-3.51125 -0.53248,-1.0881 -1.66688,-1.0881 -1.11897,0 -1.64373,1.08038 -0.51705,1.07267 -0.51705,3.51897 0,2.45402 0.51705,3.53441 0.52476,1.08038 1.64373,1.08038 z"
       id="text16"
       aria-label="0" /><path
       style="font-size:15.8045px;line-height:1.25;font-family:'Noto Sans Mono';-inkscape-font-specification:'Noto Sans Mono';letter-spacing:0px;word-spacing:0px;fill:#00aaaa;stroke-width:0.265"
       d="m 166.49738,390.2139 h -7.03022 v -1.20386 l 2.70096,-2.94019 q 1.50482,-1.64373 1.98328,-2.44631 0.47846,-0.81028 0.47846,-1.78263 0,-0.87203 -0.49389,-1.37363 -0.48618,-0.50933 -1.31962,-0.50933 -1.23472,0 -2.45402,1.05724 l -0.78714,-0.91833 q 1.48168,-1.32733 3.2566,-1.32733 1.4971,0 2.36141,0.818 0.86431,0.81801 0.86431,2.19936 0,0.91833 -0.45531,1.88296 -0.4553,0.96463 -2.24566,2.89389 l -2.16848,2.30739 v 0.0617 h 5.30932 z"
       id="text17"
       aria-label="2" /><path
       style="font-size:15.8045px;line-height:1.25;font-family:'Noto Sans Mono';-inkscape-font-specification:'Noto Sans Mono';letter-spacing:0px;word-spacing:0px;fill:#00aaaa;stroke-width:0.265"
       d="m 196.91323,353.9294 v 0.0463 q 2.78585,0.3627 2.78585,2.68553 0,1.56656 -1.06495,2.46946 -1.06495,0.89517 -3.0791,0.89517 -1.86752,0 -2.9865,-0.60964 v -1.3119 q 1.41994,0.74083 2.95563,0.74083 2.73183,0 2.73183,-2.23022 0,-1.991 -2.94019,-1.991 h -1.02637 v -1.16527 h 1.02637 q 1.23473,0 1.91383,-0.5865 0.6791,-0.58649 0.6791,-1.55112 0,-0.78714 -0.52476,-1.24244 -0.52476,-0.46303 -1.4045,-0.46303 -1.37364,0 -2.65467,0.93377 l -0.70996,-0.96463 q 1.44308,-1.15756 3.36463,-1.15756 1.58971,0 2.47717,0.76399 0.89517,0.76398 0.89517,2.0373 0,1.06495 -0.63279,1.78263 -0.6328,0.71769 -1.80579,0.91833 z"
       id="text18"
       aria-label="3" /><path
       style="font-size:15.8045px;line-height:1.25;font-family:'Noto Sans Mono';-inkscape-font-specification:'Noto Sans Mono';letter-spacing:0px;word-spacing:0px;fill:#00aaaa;stroke-width:0.265"
       d="m 131.56563,359.87317 h -1.35819 v -7.04566 q 0,-0.94148 0.0617,-2.78585 -0.30096,0.33183 -0.93376,0.87202 l -1.1344,0.93377 -0.74856,-0.9492 2.95563,-2.30739 h 1.15755 z"
       id="text19"
       aria-label="1" /><path
       style="font-size:8.10257px;line-height:1.25;font-family:'Noto Sans Mono';-inkscape-font-specification:'Noto Sans Mono';letter-spacing:0px;word-spacing:0px;fill:#00aaaa;stroke-width:0.265"
       d="m 160.95713,346.06332 q -0.906,0 -1.37284,-0.76357 -0.46685,-0.76753 -0.46685,-2.21555 0,-2.97516 1.83969,-2.97516 0.91787,0 1.38472,0.76753 0.4708,0.76357 0.4708,2.20763 0,2.97912 -1.85552,2.97912 z m 0,-0.61323 q 0.58158,0 0.85457,-0.55389 0.27299,-0.55784 0.27299,-1.812 0,-1.24624 -0.27299,-1.80013 -0.27299,-0.55784 -0.85457,-0.55784 -0.57366,0 -0.8427,0.55388 -0.26507,0.54993 -0.26507,1.80409 0,1.25811 0.26507,1.812 0.26904,0.55389 0.8427,0.55389 z m 4.87025,-5.33314 q 0.51037,0 0.87831,0.3719 0.37189,0.36793 0.37189,0.8783 0,0.51037 -0.36794,0.87435 -0.36794,0.36398 -0.88226,0.36398 -0.51828,0 -0.88226,-0.36398 -0.36399,-0.36794 -0.36399,-0.87435 0,-0.51037 0.36399,-0.8783 0.36794,-0.3719 0.88226,-0.3719 z m 0,2.0019 q 0.31255,0 0.53806,-0.22155 0.22551,-0.22155 0.22551,-0.53015 0,-0.32046 -0.22947,-0.54597 -0.22551,-0.22551 -0.5341,-0.22551 -0.31255,0 -0.53806,0.22946 -0.22156,0.22551 -0.22156,0.54202 0,0.3086 0.22156,0.53015 0.22155,0.22155 0.53806,0.22155 z"
       id="text20"
       aria-label="0째" /><path
       style="font-size:8.10257px;line-height:1.25;font-family:'Noto Sans Mono';-inkscape-font-specification:'Noto Sans Mono';letter-spacing:0px;word-spacing:0px;fill:#00aaaa;stroke-width:0.265"
       d="m 143.60773,357.39109 v -0.61719 q 0.26508,0.0989 0.65676,0.0989 0.88621,0 1.32932,-0.55784 0.44707,-0.55784 0.48663,-1.76848 h -0.0475 q -0.37981,0.67257 -1.21855,0.67257 -0.76753,0 -1.20669,-0.46684 -0.43519,-0.46685 -0.43519,-1.28977 0,-0.90204 0.47476,-1.42428 0.47871,-0.52223 1.28185,-0.52223 0.87039,0 1.3768,0.67653 0.51037,0.67653 0.51037,1.8753 0,3.39454 -2.5281,3.39454 -0.41541,0 -0.68049,-0.0712 z m 0.26112,-3.92864 q 0,0.57367 0.26903,0.88227 0.27299,0.30859 0.77544,0.30859 0.50246,0 0.8427,-0.32046 0.34025,-0.32442 0.34025,-0.73193 0,-0.5974 -0.31651,-1.03655 -0.31651,-0.43916 -0.8427,-0.43916 -0.50641,0 -0.78731,0.3442 -0.2809,0.3442 -0.2809,0.99304 z m 5.97802,3.99986 q -0.906,0 -1.37285,-0.76358 -0.46684,-0.76753 -0.46684,-2.21554 0,-2.97517 1.83969,-2.97517 0.91787,0 1.38472,0.76753 0.4708,0.76358 0.4708,2.20764 0,2.97912 -1.85552,2.97912 z m 0,-0.61324 q 0.58158,0 0.85457,-0.55388 0.27299,-0.55785 0.27299,-1.812 0,-1.24625 -0.27299,-1.80013 -0.27299,-0.55785 -0.85457,-0.55785 -0.57367,0 -0.8427,0.55389 -0.26507,0.54993 -0.26507,1.80409 0,1.25811 0.26507,1.812 0.26903,0.55388 0.8427,0.55388 z m 4.87025,-5.33313 q 0.51036,0 0.8783,0.37189 0.3719,0.36794 0.3719,0.87831 0,0.51037 -0.36794,0.87435 -0.36794,0.36398 -0.88226,0.36398 -0.51828,0 -0.88227,-0.36398 -0.36398,-0.36794 -0.36398,-0.87435 0,-0.51037 0.36398,-0.87831 0.36794,-0.37189 0.88227,-0.37189 z m 0,2.0019 q 0.31255,0 0.53806,-0.22155 0.22551,-0.22156 0.22551,-0.53015 0,-0.32046 -0.22947,-0.54598 -0.22551,-0.22551 -0.5341,-0.22551 -0.31255,0 -0.53806,0.22947 -0.22156,0.22551 -0.22156,0.54202 0,0.30859 0.22156,0.53015 0.22155,0.22155 0.53806,0.22155 z"
       id="text21"
       aria-label="90째" /><path
       style="font-size:8.10257px;line-height:1.25;font-family:'Noto Sans Mono';-inkscape-font-specification:'Noto Sans Mono';letter-spacing:0px;word-spacing:0px;fill:#00aaaa;stroke-width:0.265"
       d="m 156.16589,370.79517 h -0.69631 v -3.61214 q 0,-0.48267 0.0316,-1.42823 -0.1543,0.17012 -0.47872,0.44706 l -0.58158,0.47872 -0.38376,-0.48663 1.51527,-1.18294 h 0.59345 z m 4.88607,-3.06221 q 1.22251,0.63302 1.22251,1.55484 0,0.7161 -0.4985,1.1513 -0.4985,0.43519 -1.31746,0.43519 -0.85456,0 -1.33328,-0.4075 -0.47872,-0.41146 -0.47872,-1.14734 0,-1.01677 1.11569,-1.55483 -0.92974,-0.57763 -0.92974,-1.45989 0,-0.63697 0.45894,-1.00887 0.46289,-0.37585 1.16711,-0.37585 0.72797,0 1.17899,0.37585 0.45102,0.37586 0.45102,1.01678 0,0.90996 -1.03656,1.42032 z m -0.58553,-0.29276 q 0.91787,-0.40751 0.91787,-1.09986 0,-0.39959 -0.24925,-0.60928 -0.24925,-0.20969 -0.68445,-0.20969 -0.41937,0 -0.66862,0.20969 -0.24529,0.20969 -0.24529,0.60928 0,0.35607 0.19386,0.60531 0.19781,0.2453 0.73588,0.49455 z m -0.11078,0.60136 q -1.00491,0.47871 -1.00491,1.28581 0,0.94952 1.09195,0.94952 0.53806,0 0.83083,-0.25717 0.29672,-0.26111 0.29672,-0.724 0,-0.35607 -0.24925,-0.62906 -0.24925,-0.27694 -0.84665,-0.56971 z m 4.95728,2.83273 q -0.906,0 -1.37284,-0.76357 -0.46685,-0.76753 -0.46685,-2.21555 0,-2.97516 1.83969,-2.97516 0.91787,0 1.38472,0.76753 0.4708,0.76357 0.4708,2.20763 0,2.97912 -1.85552,2.97912 z m 0,-0.61323 q 0.58158,0 0.85457,-0.55389 0.27299,-0.55784 0.27299,-1.812 0,-1.24624 -0.27299,-1.80013 -0.27299,-0.55784 -0.85457,-0.55784 -0.57366,0 -0.8427,0.55389 -0.26507,0.54993 -0.26507,1.80408 0,1.25812 0.26507,1.812 0.26904,0.55389 0.8427,0.55389 z m 4.87025,-5.33314 q 0.51037,0 0.8783,0.3719 0.3719,0.36794 0.3719,0.87831 0,0.51036 -0.36794,0.87435 -0.36794,0.36398 -0.88226,0.36398 -0.51828,0 -0.88226,-0.36398 -0.36399,-0.36794 -0.36399,-0.87435 0,-0.51037 0.36399,-0.87831 0.36794,-0.3719 0.88226,-0.3719 z m 0,2.00191 q 0.31255,0 0.53806,-0.22156 0.22551,-0.22155 0.22551,-0.53014 0,-0.32047 -0.22947,-0.54598 -0.22551,-0.22551 -0.5341,-0.22551 -0.31255,0 -0.53806,0.22947 -0.22156,0.22551 -0.22156,0.54202 0,0.30859 0.22156,0.53014 0.22155,0.22156 0.53806,0.22156 z"
       id="text22"
       aria-label="180째" /><path
       style="font-size:8.10257px;line-height:1.25;font-family:'Noto Sans Mono';-inkscape-font-specification:'Noto Sans Mono';letter-spacing:0px;word-spacing:0px;fill:#00aaaa;stroke-width:0.265"
       d="m 171.85232,357.47015 h -3.60422 v -0.61718 l 1.38472,-1.50737 q 0.77148,-0.8427 1.01678,-1.25415 0.24529,-0.41542 0.24529,-0.91392 0,-0.44706 -0.25321,-0.70422 -0.24925,-0.26112 -0.67653,-0.26112 -0.63301,0 -1.25811,0.54202 l -0.40355,-0.47081 q 0.75962,-0.68049 1.66957,-0.68049 0.76753,0 1.21064,0.41937 0.44311,0.41937 0.44311,1.12756 0,0.4708 -0.23342,0.96534 -0.23343,0.49455 -1.1513,1.48363 l -1.11173,1.18294 v 0.0317 h 2.72196 z m 1.95443,0 2.22741,-5.1274 h -2.98307 V 351.686 h 3.71895 v 0.57366 l -2.19576,5.21049 z m 5.96219,0.0791 q -0.906,0 -1.37285,-0.76357 -0.46684,-0.76753 -0.46684,-2.21555 0,-2.97516 1.83969,-2.97516 0.91787,0 1.38472,0.76753 0.4708,0.76357 0.4708,2.20763 0,2.97912 -1.85552,2.97912 z m 0,-0.61323 q 0.58158,0 0.85457,-0.55389 0.27299,-0.55784 0.27299,-1.812 0,-1.24624 -0.27299,-1.80013 -0.27299,-0.55784 -0.85457,-0.55784 -0.57367,0 -0.8427,0.55388 -0.26507,0.54993 -0.26507,1.80409 0,1.25812 0.26507,1.812 0.26903,0.55389 0.8427,0.55389 z m 4.87025,-5.33314 q 0.51036,0 0.8783,0.3719 0.3719,0.36794 0.3719,0.8783 0,0.51037 -0.36794,0.87435 -0.36794,0.36399 -0.88226,0.36399 -0.51828,0 -0.88226,-0.36399 -0.36399,-0.36794 -0.36399,-0.87435 0,-0.51036 0.36399,-0.8783 0.36793,-0.3719 0.88226,-0.3719 z m 0,2.00191 q 0.31255,0 0.53806,-0.22156 0.22551,-0.22155 0.22551,-0.53015 0,-0.32046 -0.22947,-0.54597 -0.22551,-0.22551 -0.5341,-0.22551 -0.31255,0 -0.53806,0.22947 -0.22156,0.22551 -0.22156,0.54201 0,0.3086 0.22156,0.53015 0.22155,0.22156 0.53806,0.22156 z"
       id="text23"
       aria-label="270째" /></g></svg>
