<?xml version="1.0" encoding="UTF-8" standalone="no"?>
<!-- Created with Inkscape (http://www.inkscape.org/) -->

<svg
   width="466.0629"
   height="405.08975"
   viewBox="0 0 123.31247 107.18"
   version="1.1"
   id="svg1"
   xml:space="preserve"
   inkscape:version="1.3.2 (1:1.3.2+202311252150+091e20ef0f)"
   sodipodi:docname="fractallia-meta.svg"
   xmlns:inkscape="http://www.inkscape.org/namespaces/inkscape"
   xmlns:sodipodi="http://sodipodi.sourceforge.net/DTD/sodipodi-0.dtd"
   xmlns="http://www.w3.org/2000/svg"
   xmlns:svg="http://www.w3.org/2000/svg"
   xmlns:ns1="http://www.iki.fi/pav/software/textext/"><sodipodi:namedview
     id="namedview1"
     pagecolor="#ffffff"
     bordercolor="#666666"
     borderopacity="1.0"
     inkscape:showpageshadow="2"
     inkscape:pageopacity="0.0"
     inkscape:pagecheckerboard="0"
     inkscape:deskcolor="#000033"
     inkscape:document-units="px"
     showgrid="true"
     inkscape:zoom="1"
     inkscape:cx="867"
     inkscape:cy="2164"
     inkscape:window-width="1848"
     inkscape:window-height="1016"
     inkscape:window-x="72"
     inkscape:window-y="27"
     inkscape:window-maximized="1"
     inkscape:current-layer="layer1" /><defs
     id="defs1"><marker
       style="overflow:visible"
       id="Triangle"
       refX="0"
       refY="0"
       orient="auto-start-reverse"
       inkscape:stockid="Triangle arrow"
       markerWidth="0.69999999"
       markerHeight="0.69999999"
       viewBox="0 0 1 1"
       inkscape:isstock="true"
       inkscape:collect="always"
       preserveAspectRatio="xMidYMid"><path
         transform="scale(0.5)"
         style="fill:context-stroke;fill-rule:evenodd;stroke:context-stroke;stroke-width:1pt"
         d="M 5.77,0 -2.88,5 V -5 Z"
         id="path135" /></marker></defs><g
     inkscape:label="Layer 1"
     inkscape:groupmode="layer"
     id="layer1"
     transform="translate(-62.743081,-519.53735)"><path
       sodipodi:type="star"
       style="fill:#ffff00;fill-opacity:1;fill-rule:evenodd;stroke:#000000;stroke-width:0.206591;stroke-dasharray:none"
       id="path41"
       inkscape:flatsided="true"
       sodipodi:sides="3"
       sodipodi:cx="37.012825"
       sodipodi:cy="327.42908"
       sodipodi:r1="9.1612978"
       sodipodi:r2="4.5806494"
       sodipodi:arg1="0.52359878"
       sodipodi:arg2="1.5707963"
       inkscape:rounded="0"
       inkscape:randomized="0"
       d="m 44.946742,332.00973 -15.867834,0 7.933917,-13.74195 z"
       inkscape:transform-center-y="-9.1612953"
       transform="matrix(3.8422897,0,0,3.8419745,-48.299072,-649.64936)"
       inkscape:export-filename="../hunts/fractallia/rules.svg"
       inkscape:export-xdpi="95.9"
       inkscape:export-ydpi="95.9" /><path
       sodipodi:type="star"
       style="fill:#ffff00;fill-opacity:1;fill-rule:evenodd;stroke:#000000;stroke-width:0.206591;stroke-dasharray:none"
       id="path42"
       inkscape:flatsided="true"
       sodipodi:sides="3"
       sodipodi:cx="37.012825"
       sodipodi:cy="327.42908"
       sodipodi:r1="9.1612978"
       sodipodi:r2="4.5806494"
       sodipodi:arg1="0.52359878"
       sodipodi:arg2="1.5707963"
       inkscape:rounded="0"
       inkscape:randomized="0"
       d="m 44.946742,332.00973 -15.867834,0 7.933917,-13.74195 z"
       inkscape:transform-center-y="-9.1612953"
       transform="matrix(3.8422897,0,0,3.8419745,12.669712,-649.64936)" /><path
       sodipodi:type="star"
       style="fill:#ffff00;fill-opacity:1;fill-rule:evenodd;stroke:#000000;stroke-width:0.206591;stroke-dasharray:none"
       id="path43"
       inkscape:flatsided="true"
       sodipodi:sides="3"
       sodipodi:cx="37.012825"
       sodipodi:cy="327.42908"
       sodipodi:r1="9.1612978"
       sodipodi:r2="4.5806494"
       sodipodi:arg1="0.52359878"
       sodipodi:arg2="1.5707963"
       inkscape:rounded="0"
       inkscape:randomized="0"
       d="m 44.946742,332.00973 -15.867834,0 7.933917,-13.74195 z"
       inkscape:transform-center-y="-9.1612938"
       transform="matrix(3.8422897,0,0,3.8419745,-17.81466,-702.44559)" /><path
       sodipodi:type="star"
       style="fill:#ffffff;fill-opacity:0.805576;fill-rule:evenodd;stroke:#000000;stroke-width:0.206591;stroke-dasharray:none"
       id="path44"
       inkscape:flatsided="true"
       sodipodi:sides="3"
       sodipodi:cx="37.012825"
       sodipodi:cy="327.42908"
       sodipodi:r1="9.1612978"
       sodipodi:r2="4.5806494"
       sodipodi:arg1="0.52359878"
       sodipodi:arg2="1.5707963"
       inkscape:rounded="0"
       inkscape:randomized="0"
       d="m 44.946742,332.00973 -15.867834,0 7.933917,-13.74195 z"
       inkscape:transform-center-y="9.1613042"
       transform="matrix(-3.8422897,0,0,-3.8419745,266.61333,1848.7003)"
       inkscape:transform-center-x="-6.6333158e-06" /><g
       transform="matrix(2.0416991,0,0,2.0416991,118.72661,586.18708)"
       ns1:version="1.10.0"
       ns1:texconverter="pdflatex"
       ns1:pdfconverter="inkscape"
       ns1:text="$$n$$"
       ns1:preamble="/home/hayastl/.config/inkscape/extensions/textext"
       ns1:scale="1.478915215614537"
       ns1:alignment="middle center"
       ns1:stroke-to-path="0"
       ns1:inkscapeversion="1.3.2"
       id="g8719"
       ns1:jacobian_sqrt="0.521729"
       style="stroke-width:0.255537"><defs
   id="id-10011a38-7504-4794-872e-8efe70505dd7" />
  <g
   id="id-52f7ddc9-37b2-4131-b82a-bea0b9139b4a"
   transform="translate(-302.931,-142.314)"
   style="stroke-width:0.255537">
    <g
   style="fill:#000000;fill-opacity:1;stroke-width:0.255537"
   id="id-6754d9a8-48e9-4bd7-99d9-6a4edbe2c3c2">
      <g
   transform="translate(302.634,146.72)"
   id="g7686"
   style="stroke-width:0.255537"><path
   style="stroke:none;stroke-width:0"
   d="m 0.875,-0.59375 c -0.03125,0.15625 -0.09375,0.390625 -0.09375,0.4375 0,0.171875 0.140625,0.265625 0.296875,0.265625 0.125,0 0.296875,-0.078125 0.375,-0.28125 0,-0.015625 0.125,-0.484375 0.1875,-0.734375 l 0.21875,-0.890625 C 1.90625,-2.03125 1.96875,-2.25 2.03125,-2.46875 c 0.03125,-0.171875 0.109375,-0.46875 0.125,-0.5 0.140625,-0.3125 0.671875,-1.21875 1.625,-1.21875 0.453125,0 0.53125,0.375 0.53125,0.703125 0,0.609375 -0.484375,1.890625 -0.640625,2.3125 C 3.578125,-0.9375 3.5625,-0.8125 3.5625,-0.703125 c 0,0.46875 0.359375,0.8125 0.828125,0.8125 0.9375,0 1.296875,-1.453125 1.296875,-1.53125 0,-0.109375 -0.078125,-0.109375 -0.109375,-0.109375 -0.109375,0 -0.109375,0.03125 -0.15625,0.1875 -0.203125,0.671875 -0.53125,1.234375 -1.015625,1.234375 -0.171875,0 -0.234375,-0.09375 -0.234375,-0.328125 0,-0.25 0.078125,-0.484375 0.171875,-0.703125 0.1875,-0.53125 0.609375,-1.625 0.609375,-2.203125 0,-0.65625 -0.421875,-1.0625 -1.140625,-1.0625 -0.90625,0 -1.390625,0.640625 -1.5625,0.875 -0.046875,-0.5625 -0.453125,-0.875 -0.921875,-0.875 -0.453125,0 -0.640625,0.390625 -0.734375,0.5625 C 0.421875,-3.5 0.296875,-2.90625 0.296875,-2.875 c 0,0.109375 0.09375,0.109375 0.109375,0.109375 0.109375,0 0.109375,-0.015625 0.171875,-0.234375 0.171875,-0.703125 0.375,-1.1875 0.734375,-1.1875 0.1875,0 0.296875,0.125 0.296875,0.453125 0,0.21875 -0.03125,0.328125 -0.15625,0.84375 z m 0,0"
   id="id-9f933f9b-7641-4fbd-87df-15a50df7178b" />
      </g></g>
  </g>
</g><path
       style="fill:none;stroke:#000000;stroke-width:1.32292;stroke-linecap:butt;stroke-linejoin:miter;stroke-dasharray:none;stroke-opacity:1;marker-end:url(#Triangle)"
       d="M 124.39934,580.93363 V 555.8905"
       id="path45"
       sodipodi:nodetypes="cc" /><text
       xml:space="preserve"
       style="font-size:3.88056px;line-height:1.25;font-family:'Noto Sans';-inkscape-font-specification:'Noto Sans';text-align:center;letter-spacing:0px;word-spacing:0px;writing-mode:lr-tb;text-anchor:middle;stroke-width:0.264583"
       x="124.15187"
       y="540.80151"
       id="text45"><tspan
         sodipodi:role="line"
         style="font-size:3.88056px;stroke-width:0.264583"
         x="124.15187"
         y="540.80151"
         id="tspan46">Cube and</tspan><tspan
         sodipodi:role="line"
         style="font-size:3.88056px;stroke-width:0.264583"
         x="124.15187"
         y="545.65222"
         id="tspan47">multiply by 2</tspan><tspan
         sodipodi:role="line"
         style="font-size:3.88056px;stroke-width:0.264583"
         x="124.15187"
         y="550.50293"
         id="tspan48">(mod 29)</tspan></text><path
       style="fill:none;stroke:#000000;stroke-width:1.32292;stroke-linecap:butt;stroke-linejoin:miter;stroke-dasharray:none;stroke-opacity:1;marker-end:url(#Triangle)"
       d="M 115.60291,595.80323 93.914924,608.3248"
       id="path48"
       sodipodi:nodetypes="cc" /><text
       xml:space="preserve"
       style="font-size:3.88056px;line-height:1.25;font-family:'Noto Sans';-inkscape-font-specification:'Noto Sans';text-align:center;letter-spacing:0px;word-spacing:0px;writing-mode:lr-tb;text-anchor:middle;stroke-width:0.264583"
       x="82.394409"
       y="614.22052"
       id="text51"><tspan
         sodipodi:role="line"
         style="font-size:3.88056px;stroke-width:0.264583"
         x="82.394409"
         y="614.22052"
         id="tspan50">Cube</tspan><tspan
         sodipodi:role="line"
         style="font-size:3.88056px;stroke-width:0.264583"
         x="82.394409"
         y="619.07123"
         id="tspan51">(mod 29)</tspan></text><path
       style="fill:none;stroke:#000000;stroke-width:1.32292;stroke-linecap:butt;stroke-linejoin:miter;stroke-dasharray:none;stroke-opacity:1;marker-end:url(#Triangle)"
       d="m 133.19572,596.16517 21.68799,12.52156"
       id="path52"
       sodipodi:nodetypes="cc" /><text
       xml:space="preserve"
       style="font-size:3.88056px;line-height:1.25;font-family:'Noto Sans';-inkscape-font-specification:'Noto Sans';text-align:center;letter-spacing:0px;word-spacing:0px;writing-mode:lr-tb;text-anchor:middle;stroke-width:0.264583"
       x="164.95955"
       y="613.81995"
       id="text54"><tspan
         sodipodi:role="line"
         style="font-size:3.88056px;stroke-width:0.264583"
         x="164.95955"
         y="613.81995"
         id="tspan52">Cube and</tspan><tspan
         sodipodi:role="line"
         style="font-size:3.88056px;stroke-width:0.264583"
         x="164.95955"
         y="618.67065"
         id="tspan53">multiply by 4</tspan><tspan
         sodipodi:role="line"
         style="font-size:3.88056px;stroke-width:0.264583"
         x="164.95955"
         y="623.52136"
         id="tspan54">(mod 29)</tspan></text></g></svg>
