<?xml version="1.0" encoding="UTF-8" standalone="no"?>
<svg
   width="4.953218cm"
   height="5.7378249cm"
   viewBox="0 0 49.53218 57.378249"
   version="1.1"
   id="svg8"
   xml:space="preserve"
   xmlns="http://www.w3.org/2000/svg"
   xmlns:svg="http://www.w3.org/2000/svg"
   xmlns:rdf="http://www.w3.org/1999/02/22-rdf-syntax-ns#"
   xmlns:cc="http://creativecommons.org/ns#"
   xmlns:dc="http://purl.org/dc/elements/1.1/"
   xmlns:ns1="http://www.iki.fi/pav/software/textext/"><defs
     id="defs2"><marker
       style="overflow:visible"
       id="Triangle"
       refX="2"
       refY="0"
       orient="auto-start-reverse"
       markerWidth="1"
       markerHeight="1"
       viewBox="0 0 1 1"
       preserveAspectRatio="xMidYMid"><path
         transform="scale(0.5)"
         style="fill:context-stroke;fill-rule:evenodd;stroke:context-stroke;stroke-width:1pt"
         d="M 5.77,0 -2.88,5 V -5 Z"
         id="path135" /></marker></defs><metadata
     id="metadata5"><rdf:RDF><cc:Work
         rdf:about=""><dc:format>image/svg+xml</dc:format><dc:type
           rdf:resource="http://purl.org/dc/dcmitype/StillImage" /></cc:Work></rdf:RDF></metadata><g
     id="layer1"
     transform="translate(-615.35919,-511.04913)"><path
       style="color:#000000;display:inline;fill:#0066ff;stroke:#000000;stroke-width:0.26;stroke-dasharray:none"
       d="m 660,560 v -40 h -20 v 40 z"
       id="path1324" /><path
       style="color:#000000;display:inline;fill:#0066ff;stroke:#000000;stroke-width:0.26;stroke-dasharray:none"
       d="m 640,540 v -20 h -20 v 20 z"
       id="path1325" /><g
       transform="matrix(0.705556,0,0,0.705556,647.58109,537.24702)"
       ns1:version="1.10.0"
       ns1:texconverter="pdflatex"
       ns1:pdfconverter="inkscape"
       ns1:text="$\\underline{\\sf A}$"
       ns1:preamble="/home/hayastl/.config/inkscape/extensions/textext/default_packages.tex"
       ns1:scale="2.0"
       ns1:alignment="middle center"
       ns1:stroke-to-path="0"
       ns1:inkscapeversion="1.3.2"
       id="g1331"
       ns1:jacobian_sqrt="0.705556"
       style="display:inline"><defs
   id="defs1327" />
  <g
   id="g1330"
   transform="translate(-148.711,-127.843)">
    <g
   style="fill:#000000;fill-opacity:1"
   id="g1329">
      <g
   transform="translate(148.712,134.765)"
   id="g1328"><path
   style="stroke:none"
   d="M 3.765625,-6.921875 H 2.875 L 0.28125,0 H 1.015625 L 1.78125,-2.03125 H 4.6875 L 5.4375,0 H 6.359375 Z M 4.46875,-2.59375 H 2 l 0.640625,-1.796875 c 0.203125,-0.59375 0.515625,-1.4375 0.59375,-1.8125 0.03125,0.140625 0.09375,0.390625 0.328125,1.046875 z m 0,0"
   id="path1328" />
      </g></g>
    <path
   style="fill:none;stroke:#000000;stroke-width:0.398;stroke-linecap:butt;stroke-linejoin:miter;stroke-miterlimit:10;stroke-opacity:1"
   d="M -0.0010625,-0.00115625 H 6.643469"
   transform="matrix(1,0,0,-1,148.712,136.159)"
   id="path1329" />
  </g>
</g><g
       transform="matrix(0.705556,0,0,0.705556,627.23918,526.90074)"
       ns1:version="1.10.0"
       ns1:texconverter="pdflatex"
       ns1:pdfconverter="inkscape"
       ns1:text="$\\underline{\\sf B}$"
       ns1:preamble="/home/hayastl/.config/inkscape/extensions/textext/default_packages.tex"
       ns1:scale="2.0"
       ns1:alignment="middle center"
       ns1:stroke-to-path="0"
       ns1:inkscapeversion="1.3.2"
       id="g1589"
       ns1:jacobian_sqrt="0.705556"
       style="stroke-width:0"><defs
   id="id-82e77b80-d4df-4d9d-8cdd-1d8517035199"
   style="stroke-width:0" />
  <g
   id="id-c60ad858-f06e-42d3-9ff1-dbe424b89d21"
   transform="translate(-148.711,-127.843)"
   style="stroke-width:0">
    <g
   style="fill:#000000;fill-opacity:1;stroke-width:0"
   id="id-e61c4c16-be8d-4116-8c5c-04df11a2f82b">
      <g
   transform="translate(148.712,134.765)"
   id="g1226"
   style="stroke-width:0"><path
   style="stroke:none;stroke-width:0"
   d="M 0.96875,-6.921875 V 0 h 2.625 c 1.4375,0 2.484375,-0.890625 2.484375,-1.875 0,-0.859375 -0.859375,-1.578125 -1.921875,-1.75 0.90625,-0.21875 1.65625,-0.796875 1.65625,-1.5625 0,-0.90625 -1.0625,-1.734375 -2.484375,-1.734375 z m 0.828125,3.03125 v -2.46875 h 1.25 c 1.109375,0 1.984375,0.53125 1.984375,1.1875 0,0.59375 -0.703125,1.28125 -2.078125,1.28125 z m 0,3.328125 v -2.734375 h 1.4375 c 1.0625,0 2.046875,0.609375 2.046875,1.40625 0,0.75 -0.890625,1.328125 -1.96875,1.328125 z m 0,0"
   id="id-0b6b6bb0-0c67-4edd-9942-85f8313b927d" />
      </g></g>
    <path
   style="fill:none;stroke:#000000;stroke-width:0.398;stroke-linecap:butt;stroke-linejoin:miter;stroke-miterlimit:10;stroke-opacity:1"
   d="M -0.0010625,-0.00115625 H 6.643469"
   transform="matrix(1,0,0,-1,148.712,136.159)"
   id="id-41a13207-e04b-4923-ae43-5a3b129d6aa9" />
  </g>
</g><circle
       style="display:inline;fill:#ffffff;fill-opacity:1;fill-rule:evenodd;stroke:none;stroke-width:0.26;stroke-miterlimit:1.5;stroke-dasharray:none;stroke-opacity:1"
       id="circle1597"
       cx="620"
       cy="540"
       r="0.99999994" /><circle
       style="display:inline;fill:#ffffff;fill-opacity:1;fill-rule:evenodd;stroke:none;stroke-width:0.26;stroke-miterlimit:1.5;stroke-dasharray:none;stroke-opacity:1"
       id="circle1598"
       cx="640"
       cy="540"
       r="0.99999994" /><circle
       style="display:inline;fill:#ffffff;fill-opacity:1;fill-rule:evenodd;stroke:none;stroke-width:0.26;stroke-miterlimit:1.5;stroke-dasharray:none;stroke-opacity:1"
       id="circle1599"
       cx="640"
       cy="560"
       r="0.99999994" /><circle
       style="display:inline;fill:#ffffff;fill-opacity:1;fill-rule:evenodd;stroke:none;stroke-width:0.26;stroke-miterlimit:1.5;stroke-dasharray:none;stroke-opacity:1"
       id="circle1600"
       cx="660"
       cy="560"
       r="0.99999994" /><g
       transform="matrix(0.705556,0,0,0.705556,659.87516,561.63735)"
       ns1:version="1.10.0"
       ns1:texconverter="pdflatex"
       ns1:pdfconverter="inkscape"
       ns1:text="$P$"
       ns1:preamble="/home/hayastl/.config/inkscape/extensions/textext/default_packages.tex"
       ns1:scale="2.0"
       ns1:alignment="middle center"
       ns1:stroke-to-path="0"
       ns1:inkscapeversion="1.3.2"
       id="g1605"
       ns1:jacobian_sqrt="0.705556"
       style="display:inline;fill:#ffffff;stroke-width:0"><defs
   id="defs1601"
   style="fill:#ffffff;stroke-width:0" />
  <g
   id="g1604"
   transform="translate(-149.118,-127.953)"
   style="fill:#ffffff;stroke-width:0">
    <g
   style="fill:#ffffff;fill-opacity:1;stroke-width:0"
   id="g1603">
      <g
   transform="translate(148.712,134.765)"
   id="g1602"
   style="fill:#ffffff;stroke-width:0"><path
   style="fill:#ffffff;stroke:#ffffff;stroke-width:0"
   d="M 3.015625,-3.15625 H 4.71875 c 1.40625,0 2.796875,-1.03125 2.796875,-2.140625 0,-0.78125 -0.65625,-1.515625 -1.96875,-1.515625 h -3.21875 c -0.1875,0 -0.296875,0 -0.296875,0.1875 0,0.125 0.078125,0.125 0.28125,0.125 0.125,0 0.3125,0.015625 0.421875,0.015625 0.171875,0.03125 0.21875,0.046875 0.21875,0.171875 0,0.03125 0,0.0625 -0.03125,0.1875 l -1.34375,5.34375 c -0.09375,0.390625 -0.109375,0.46875 -0.90625,0.46875 -0.15625,0 -0.265625,0 -0.265625,0.1875 C 0.40625,0 0.515625,0 0.546875,0 0.828125,0 1.53125,-0.03125 1.8125,-0.03125 c 0.21875,0 0.4375,0.015625 0.640625,0.015625 0.21875,0 0.4375,0.015625 0.640625,0.015625 0.078125,0 0.203125,0 0.203125,-0.203125 0,-0.109375 -0.09375,-0.109375 -0.28125,-0.109375 -0.359375,0 -0.640625,0 -0.640625,-0.171875 0,-0.0625 0.015625,-0.109375 0.03125,-0.171875 z M 3.734375,-6.125 C 3.828125,-6.46875 3.84375,-6.5 4.28125,-6.5 h 0.953125 c 0.828125,0 1.359375,0.265625 1.359375,0.953125 0,0.390625 -0.203125,1.25 -0.59375,1.609375 -0.5,0.453125 -1.09375,0.53125 -1.53125,0.53125 H 3.0625 Z m 0,0"
   id="path1602" />
      </g></g>
  </g>
</g><g
       transform="matrix(0.705556,0,0,0.705556,633.61573,562.09962)"
       ns1:version="1.10.0"
       ns1:texconverter="pdflatex"
       ns1:pdfconverter="inkscape"
       ns1:text="$Q$"
       ns1:preamble="/home/hayastl/.config/inkscape/extensions/textext/default_packages.tex"
       ns1:scale="2.0"
       ns1:alignment="middle center"
       ns1:stroke-to-path="0"
       ns1:inkscapeversion="1.3.2"
       id="g1610"
       ns1:jacobian_sqrt="0.705556"
       style="display:inline;fill:#ffffff;stroke-width:0"><defs
   id="defs1606"
   style="fill:#ffffff;stroke-width:0" />
  <g
   id="g1609"
   transform="translate(-149.196,-127.734)"
   style="fill:#ffffff;stroke-width:0">
    <g
   style="fill:#ffffff;fill-opacity:1;stroke-width:0"
   id="g1608">
      <g
   transform="translate(148.712,134.765)"
   id="g1607"
   style="fill:#ffffff;stroke-width:0"><path
   style="fill:#ffffff;stroke:#ffffff;stroke-width:0"
   d="M 4.359375,-0.0625 C 5.90625,-0.640625 7.375,-2.421875 7.375,-4.34375 c 0,-1.609375 -1.0625,-2.6875 -2.546875,-2.6875 -2.140625,0 -4.34375,2.265625 -4.34375,4.59375 0,1.65625 1.125,2.65625 2.5625,2.65625 0.25,0 0.578125,-0.046875 0.96875,-0.15625 -0.03125,0.625 -0.03125,0.640625 -0.03125,0.78125 0,0.3125 0,1.09375 0.828125,1.09375 1.171875,0 1.65625,-1.828125 1.65625,-1.9375 0,-0.0625 -0.0625,-0.09375 -0.109375,-0.09375 -0.078125,0 -0.09375,0.046875 -0.125,0.109375 C 6,0.71875 5.421875,0.96875 5.078125,0.96875 c -0.46875,0 -0.609375,-0.265625 -0.71875,-1.03125 z m -1.875,-0.078125 c -0.78125,-0.3125 -1.125,-1.078125 -1.125,-1.984375 0,-0.6875 0.265625,-2.109375 1.015625,-3.171875 C 3.109375,-6.3125 4.046875,-6.78125 4.78125,-6.78125 5.765625,-6.78125 6.5,-6 6.5,-4.671875 c 0,1 -0.515625,3.34375 -2.1875,4.265625 -0.046875,-0.34375 -0.140625,-1.0625 -0.875,-1.0625 -0.53125,0 -1.015625,0.484375 -1.015625,1.015625 0,0.1875 0.0625,0.296875 0.0625,0.3125 z M 3.09375,-0.03125 c -0.140625,0 -0.453125,0 -0.453125,-0.421875 0,-0.40625 0.375,-0.796875 0.796875,-0.796875 0.421875,0 0.609375,0.234375 0.609375,0.84375 0,0.140625 -0.015625,0.15625 -0.109375,0.203125 C 3.671875,-0.09375 3.375,-0.03125 3.09375,-0.03125 Z m 0,0"
   id="path1607" />
      </g></g>
  </g>
</g><g
       transform="matrix(0.705556,0,0,0.705556,633.01349,541.49693)"
       ns1:version="1.10.0"
       ns1:texconverter="pdflatex"
       ns1:pdfconverter="inkscape"
       ns1:text="$R$"
       ns1:preamble="/home/hayastl/.config/inkscape/extensions/textext/default_packages.tex"
       ns1:scale="2.0"
       ns1:alignment="middle center"
       ns1:stroke-to-path="0"
       ns1:inkscapeversion="1.3.2"
       id="g1615"
       ns1:jacobian_sqrt="0.705556"
       style="display:inline;fill:#ffffff;stroke-width:0"><defs
   id="defs1611"
   style="fill:#ffffff;stroke-width:0" />
  <g
   id="g1614"
   transform="translate(-149.118,-127.953)"
   style="fill:#ffffff;stroke-width:0">
    <g
   style="fill:#ffffff;fill-opacity:1;stroke-width:0"
   id="g1613">
      <g
   transform="translate(148.712,134.765)"
   id="g1612"
   style="fill:#ffffff;stroke-width:0"><path
   style="fill:#ffffff;stroke:#ffffff;stroke-width:0"
   d="m 3.734375,-6.125 c 0.0625,-0.234375 0.09375,-0.328125 0.28125,-0.359375 C 4.109375,-6.5 4.421875,-6.5 4.625,-6.5 c 0.703125,0 1.8125,0 1.8125,0.984375 0,0.34375 -0.15625,1.03125 -0.546875,1.421875 -0.265625,0.25 -0.78125,0.578125 -1.6875,0.578125 H 3.09375 Z m 1.4375,2.734375 c 1.015625,-0.21875 2.1875,-0.921875 2.1875,-1.921875 0,-0.859375 -0.890625,-1.5 -2.203125,-1.5 H 2.328125 c -0.203125,0 -0.296875,0 -0.296875,0.203125 C 2.03125,-6.5 2.125,-6.5 2.3125,-6.5 c 0.015625,0 0.203125,0 0.375,0.015625 0.1875,0.03125 0.265625,0.03125 0.265625,0.171875 0,0.03125 0,0.0625 -0.03125,0.1875 l -1.34375,5.34375 C 1.484375,-0.390625 1.46875,-0.3125 0.671875,-0.3125 0.5,-0.3125 0.40625,-0.3125 0.40625,-0.109375 0.40625,0 0.53125,0 0.546875,0 c 0.28125,0 0.984375,-0.03125 1.25,-0.03125 0.28125,0 1,0.03125 1.28125,0.03125 0.078125,0 0.1875,0 0.1875,-0.203125 0,-0.109375 -0.078125,-0.109375 -0.28125,-0.109375 -0.359375,0 -0.640625,0 -0.640625,-0.171875 0,-0.0625 0.015625,-0.109375 0.03125,-0.171875 l 0.65625,-2.640625 h 1.1875 c 0.90625,0 1.078125,0.5625 1.078125,0.90625 0,0.140625 -0.078125,0.453125 -0.140625,0.6875 C 5.09375,-1.421875 5,-1.0625 5,-0.859375 5,0.21875 6.203125,0.21875 6.328125,0.21875 c 0.84375,0 1.203125,-1 1.203125,-1.140625 0,-0.125 -0.109375,-0.125 -0.125,-0.125 -0.09375,0 -0.109375,0.0625 -0.125,0.140625 C 7.03125,-0.171875 6.59375,0 6.375,0 6.046875,0 5.96875,-0.21875 5.96875,-0.609375 c 0,-0.3125 0.0625,-0.8125 0.109375,-1.140625 0.015625,-0.140625 0.03125,-0.328125 0.03125,-0.46875 0,-0.765625 -0.671875,-1.078125 -0.9375,-1.171875 z m 0,0"
   id="path1612" />
      </g></g>
  </g>
</g><g
       transform="matrix(0.705556,0,0,0.705556,615.35943,541.98652)"
       ns1:version="1.10.0"
       ns1:texconverter="pdflatex"
       ns1:pdfconverter="inkscape"
       ns1:text="$S$"
       ns1:preamble="/home/hayastl/.config/inkscape/extensions/textext/default_packages.tex"
       ns1:scale="2.0"
       ns1:alignment="middle center"
       ns1:stroke-to-path="0"
       ns1:inkscapeversion="1.3.2"
       id="g1620"
       ns1:jacobian_sqrt="0.705556"
       style="fill:#ffffff;stroke-width:0"><defs
   id="id-557cf055-540f-4baf-bee6-bde3925e6798"
   style="fill:#ffffff;stroke-width:0" />
  <g
   id="id-b6e2e0a4-8150-43e5-9f9e-ff92883d51a4"
   transform="translate(-149.228,-127.734)"
   style="fill:#ffffff;stroke-width:0">
    <g
   style="fill:#ffffff;fill-opacity:1;stroke-width:0"
   id="id-dd9b7fd6-aed8-4849-aaab-5a61413b5df7">
      <g
   transform="translate(148.712,134.765)"
   id="g3264"
   style="fill:#ffffff;stroke-width:0"><path
   style="fill:#ffffff;stroke:#ffffff;stroke-width:0"
   d="m 6.4375,-6.921875 c 0,-0.03125 -0.03125,-0.109375 -0.125,-0.109375 -0.046875,0 -0.046875,0.015625 -0.171875,0.15625 L 5.65625,-6.3125 c -0.25,-0.46875 -0.765625,-0.71875 -1.421875,-0.71875 -1.265625,0 -2.453125,1.15625 -2.453125,2.359375 0,0.796875 0.515625,1.265625 1.03125,1.40625 l 1.0625,0.28125 c 0.375,0.09375 0.921875,0.25 0.921875,1.0625 0,0.890625 -0.8125,1.828125 -1.796875,1.828125 -0.640625,0 -1.75,-0.21875 -1.75,-1.453125 0,-0.234375 0.0625,-0.484375 0.0625,-0.53125 0.015625,-0.046875 0.015625,-0.0625 0.015625,-0.078125 0,-0.09375 -0.0625,-0.109375 -0.109375,-0.109375 -0.046875,0 -0.078125,0.015625 -0.109375,0.046875 -0.03125,0.03125 -0.59375,2.3125 -0.59375,2.34375 0,0.046875 0.046875,0.09375 0.109375,0.09375 0.046875,0 0.0625,-0.015625 0.1875,-0.15625 L 1.296875,-0.5 c 0.421875,0.578125 1.109375,0.71875 1.6875,0.71875 1.359375,0 2.53125,-1.328125 2.53125,-2.5625 0,-0.6875 -0.34375,-1.03125 -0.484375,-1.171875 C 4.796875,-3.734375 4.640625,-3.78125 3.765625,-4 3.53125,-4.0625 3.1875,-4.171875 3.09375,-4.1875 2.828125,-4.28125 2.484375,-4.5625 2.484375,-5.09375 c 0,-0.8125 0.796875,-1.65625 1.75,-1.65625 0.8125,0 1.421875,0.4375 1.421875,1.546875 0,0.3125 -0.03125,0.5 -0.03125,0.5625 0,0 0,0.09375 0.109375,0.09375 0.109375,0 0.125,-0.03125 0.15625,-0.203125 z m 0,0"
   id="id-d8f84638-2b08-43f7-aefd-cbf3e93e4131" />
      </g></g>
  </g>
</g><path
       style="display:inline;fill:none;stroke:#dd00dd;stroke-width:0.26;stroke-linecap:butt;stroke-linejoin:miter;stroke-dasharray:none;stroke-opacity:1;marker-start:url(#Triangle);marker-end:url(#Triangle)"
       d="m 640,518.08215 -20,-10e-6"
       id="path1620" /><g
       transform="matrix(0.79649937,0,0,0.79649937,627.96121,512.37657)"
       ns1:version="1.10.0"
       ns1:texconverter="pdflatex"
       ns1:pdfconverter="inkscape"
       ns1:text="$1$"
       ns1:preamble="/home/hayastl/.config/inkscape/extensions/textext/default_packages.tex"
       ns1:scale="1.0535525084058583"
       ns1:alignment="middle center"
       ns1:stroke-to-path="0"
       ns1:inkscapeversion="1.3.2"
       id="g1626"
       ns1:jacobian_sqrt="0.37167"
       style="display:inline;fill:#dd00dd;fill-opacity:1;stroke-width:0"><defs
   id="defs1622"
   style="fill:#dd00dd;fill-opacity:1;stroke-width:0" />
  <g
   id="g1625"
   transform="translate(-149.603,-128.124)"
   style="fill:#dd00dd;fill-opacity:1;stroke-width:0">
    <g
   style="fill:#dd00dd;fill-opacity:1;stroke-width:0"
   id="g1624">
      <g
   transform="translate(148.712,134.765)"
   id="g1623"
   style="fill:#dd00dd;fill-opacity:1;stroke-width:0"><path
   style="fill:#dd00dd;fill-opacity:1;stroke:#dd00dd;stroke-width:0"
   d="m 2.9375,-8.041967 c 0,-0.25 0,-0.265625 -0.234375,-0.265625 -0.625,0.640625 -1.5,0.640625 -1.8125,0.640625 v 0.3125 c 0.203125,0 0.78125,0 1.296875,-0.265625 v 5.171875 c 0,0.359375 -0.03125,0.46875 -0.921875,0.46875 h -0.3125 v 0.3125 c 0.34375,-0.03125 1.203125,-0.03125 1.609375,-0.03125 0.390625,0 1.265625,0 1.609375,0.03125 v -0.3125 h -0.3125 c -0.90625,0 -0.921875,-0.109375 -0.921875,-0.46875 z m 0,0"
   id="path1623" />
      </g></g>
  </g>
</g></g></svg>
