<?xml version="1.0" encoding="UTF-8" standalone="no"?>
<!-- Created with Inkscape (http://www.inkscape.org/) -->

<svg
   width="105.41845mm"
   height="44.86813mm"
   viewBox="0 0 105.41845 44.86813"
   version="1.1"
   id="svg1"
   xmlns:inkscape="http://www.inkscape.org/namespaces/inkscape"
   xmlns:sodipodi="http://sodipodi.sourceforge.net/DTD/sodipodi-0.dtd"
   xmlns="http://www.w3.org/2000/svg"
   xmlns:svg="http://www.w3.org/2000/svg"
   xmlns:ns4="http://www.iki.fi/pav/software/textext/">
  <sodipodi:namedview
     id="namedview1"
     pagecolor="#000033"
     bordercolor="#666666"
     borderopacity="1.0"
     inkscape:showpageshadow="2"
     inkscape:pageopacity="0.0"
     inkscape:pagecheckerboard="0"
     inkscape:deskcolor="#d1d1d1"
     inkscape:document-units="mm"
     inkscape:zoom="1"
     inkscape:cx="448"
     inkscape:cy="604"
     inkscape:window-width="1848"
     inkscape:window-height="1016"
     inkscape:window-x="72"
     inkscape:window-y="27"
     inkscape:window-maximized="1"
     inkscape:current-layer="layer1" />
  <defs
     id="defs1">
    <marker
       style="overflow:visible"
       id="Triangle"
       refX="3"
       refY="0"
       orient="auto-start-reverse"
       inkscape:stockid="Triangle arrow"
       markerWidth="1"
       markerHeight="1"
       viewBox="0 0 1 1"
       inkscape:isstock="true"
       inkscape:collect="always"
       preserveAspectRatio="xMidYMid">
      <path
         transform="scale(0.5)"
         style="fill:context-stroke;fill-rule:evenodd;stroke:context-stroke;stroke-width:1pt"
         d="M 5.77,0 -2.88,5 V -5 Z"
         id="path135" />
    </marker>
  </defs>
  <g
     inkscape:label="Layer 1"
     inkscape:groupmode="layer"
     id="layer1"
     transform="translate(-50.65183,-176.13409)">
    <path
       style="fill:none;stroke:#00aaaa;stroke-width:0.264583px;stroke-linecap:butt;stroke-linejoin:miter;stroke-opacity:1"
       d="m 50.79788,211.87865 30.7908,-30.7908 43.54476,-1e-5 30.79079,30.79079"
       id="path58"
       inkscape:export-filename="octagon-segment.svg"
       inkscape:export-xdpi="95.9"
       inkscape:export-ydpi="95.9" />
    <g
       transform="matrix(0.35517675,0,0,0.35517675,102.76738,176.13396)"
       ns4:version="1.10.0"
       ns4:texconverter="pdflatex"
       ns4:pdfconverter="inkscape"
       ns4:text="$1$"
       ns4:preamble="/home/hayastl/.config/inkscape/extensions/textext/default_packages.tex"
       ns4:scale="1.3424006650450726"
       ns4:alignment="middle center"
       ns4:stroke-to-path="0"
       id="g64"
       ns4:jacobian_sqrt="0.473569"
       style="fill:#aa00aa;fill-opacity:1;stroke:#aa00aa;stroke-width:0;stroke-opacity:1">
      <defs
         id="defs60"
         style="fill:#00aaaa;fill-opacity:1;stroke:#00aaaa;stroke-width:0;stroke-opacity:1" />
      <g
         id="g63"
         transform="translate(-149.603,-128.124)"
         style="fill:#aa00aa;fill-opacity:1;stroke:#aa00aa;stroke-width:0;stroke-opacity:1">
        <g
           style="fill:#aa00aa;fill-opacity:1;stroke:#aa00aa;stroke-width:0;stroke-opacity:1"
           id="g62">
          <g
             transform="translate(148.712,134.765)"
             id="g61"
             style="fill:#aa00aa;fill-opacity:1;stroke:#aa00aa;stroke-width:0;stroke-opacity:1">
            <path
               style="fill:#aa00aa;fill-opacity:1;stroke:#aa00aa;stroke-width:0;stroke-opacity:1"
               d="m 2.9375,-6.375 c 0,-0.25 0,-0.265625 -0.234375,-0.265625 C 2.078125,-6 1.203125,-6 0.890625,-6 v 0.3125 c 0.203125,0 0.78125,0 1.296875,-0.265625 v 5.171875 c 0,0.359375 -0.03125,0.46875 -0.921875,0.46875 h -0.3125 V 0 c 0.34375,-0.03125 1.203125,-0.03125 1.609375,-0.03125 0.390625,0 1.265625,0 1.609375,0.03125 v -0.3125 h -0.3125 c -0.90625,0 -0.921875,-0.109375 -0.921875,-0.46875 z m 0,0"
               id="path61" />
          </g>
        </g>
      </g>
    </g>
    <path
       style="fill:none;stroke:#00aaaa;stroke-width:0.264583px;stroke-linecap:butt;stroke-linejoin:miter;stroke-opacity:1"
       d="m 50.79788,211.87865 105.12635,-2e-5"
       id="path64" />
    <path
       style="fill:none;stroke:#00aaaa;stroke-width:0.265;stroke-linecap:butt;stroke-linejoin:miter;stroke-dasharray:0.53, 0.53;stroke-dashoffset:0;stroke-opacity:1"
       d="m 81.5887,211.87864 -2e-5,-30.79079"
       id="path65"
       sodipodi:nodetypes="cc" />
    <g
       transform="matrix(0.35517675,0,0,0.35517675,62.929993,191.91781)"
       ns4:version="1.10.0"
       ns4:texconverter="pdflatex"
       ns4:pdfconverter="inkscape"
       ns4:text="$1$"
       ns4:preamble="/home/hayastl/.config/inkscape/extensions/textext/default_packages.tex"
       ns4:scale="1.3424006650450726"
       ns4:alignment="middle center"
       ns4:stroke-to-path="0"
       id="g71"
       ns4:jacobian_sqrt="0.473569"
       style="fill:#aa00aa;fill-opacity:1;stroke:#aa00aa;stroke-width:0;stroke-opacity:1">
      <defs
         id="defs67"
         style="fill:#00aaaa;fill-opacity:1;stroke:#00aaaa;stroke-width:0;stroke-opacity:1" />
      <g
         id="g70"
         transform="translate(-149.603,-128.124)"
         style="fill:#aa00aa;fill-opacity:1;stroke:#aa00aa;stroke-width:0;stroke-opacity:1">
        <g
           style="fill:#aa00aa;fill-opacity:1;stroke:#aa00aa;stroke-width:0;stroke-opacity:1"
           id="g69">
          <g
             transform="translate(148.712,134.765)"
             id="g68"
             style="fill:#aa00aa;fill-opacity:1;stroke:#aa00aa;stroke-width:0;stroke-opacity:1">
            <path
               style="fill:#aa00aa;fill-opacity:1;stroke:#aa00aa;stroke-width:0;stroke-opacity:1"
               d="m 2.9375,-6.375 c 0,-0.25 0,-0.265625 -0.234375,-0.265625 C 2.078125,-6 1.203125,-6 0.890625,-6 v 0.3125 c 0.203125,0 0.78125,0 1.296875,-0.265625 v 5.171875 c 0,0.359375 -0.03125,0.46875 -0.921875,0.46875 h -0.3125 V 0 c 0.34375,-0.03125 1.203125,-0.03125 1.609375,-0.03125 0.390625,0 1.265625,0 1.609375,0.03125 v -0.3125 h -0.3125 c -0.90625,0 -0.921875,-0.109375 -0.921875,-0.46875 z m 0,0"
               id="path68" />
          </g>
        </g>
      </g>
    </g>
    <g
       transform="matrix(0.35517675,0,0,0.35517675,141.8637,191.91781)"
       ns4:version="1.10.0"
       ns4:texconverter="pdflatex"
       ns4:pdfconverter="inkscape"
       ns4:text="$1$"
       ns4:preamble="/home/hayastl/.config/inkscape/extensions/textext/default_packages.tex"
       ns4:scale="1.3424006650450726"
       ns4:alignment="middle center"
       ns4:stroke-to-path="0"
       id="g76"
       ns4:jacobian_sqrt="0.473569"
       style="fill:#aa00aa;fill-opacity:1;stroke:#aa00aa;stroke-width:0;stroke-opacity:1">
      <defs
         id="defs72"
         style="fill:#00aaaa;fill-opacity:1;stroke:#00aaaa;stroke-width:0;stroke-opacity:1" />
      <g
         id="g75"
         transform="translate(-149.603,-128.124)"
         style="fill:#aa00aa;fill-opacity:1;stroke:#aa00aa;stroke-width:0;stroke-opacity:1">
        <g
           style="fill:#aa00aa;fill-opacity:1;stroke:#aa00aa;stroke-width:0;stroke-opacity:1"
           id="g74">
          <g
             transform="translate(148.712,134.765)"
             id="g73"
             style="fill:#aa00aa;fill-opacity:1;stroke:#aa00aa;stroke-width:0;stroke-opacity:1">
            <path
               style="fill:#aa00aa;fill-opacity:1;stroke:#aa00aa;stroke-width:0;stroke-opacity:1"
               d="m 2.9375,-6.375 c 0,-0.25 0,-0.265625 -0.234375,-0.265625 C 2.078125,-6 1.203125,-6 0.890625,-6 v 0.3125 c 0.203125,0 0.78125,0 1.296875,-0.265625 v 5.171875 c 0,0.359375 -0.03125,0.46875 -0.921875,0.46875 h -0.3125 V 0 c 0.34375,-0.03125 1.203125,-0.03125 1.609375,-0.03125 0.390625,0 1.265625,0 1.609375,0.03125 v -0.3125 h -0.3125 c -0.90625,0 -0.921875,-0.109375 -0.921875,-0.46875 z m 0,0"
               id="path73" />
          </g>
        </g>
      </g>
    </g>
    <path
       style="fill:none;stroke:#00aaaa;stroke-width:0.265;stroke-linecap:butt;stroke-linejoin:miter;stroke-dasharray:0.53, 0.53;stroke-dashoffset:0;stroke-opacity:1"
       d="m 125.13347,211.87864 -2e-5,-30.79079"
       id="path76"
       sodipodi:nodetypes="cc" />
    <g
       transform="matrix(0.355177,0,0,0.355177,68.2178,203.23688)"
       ns4:version="1.10.0"
       ns4:texconverter="pdflatex"
       ns4:pdfconverter="inkscape"
       ns4:text="$$\\frac{\\sqrt{2}}{2}$$"
       ns4:preamble="/home/hayastl/.config/inkscape/extensions/textext/default_packages.tex"
       ns4:scale="1.0068004987838044"
       ns4:alignment="middle center"
       ns4:stroke-to-path="0"
       id="g82"
       ns4:jacobian_sqrt="0.355177"
       style="fill:#aa00aa;fill-opacity:1;stroke:#aa00aa;stroke-width:0;stroke-opacity:1">
      <defs
         id="id-a793ef8d-c0b5-497c-88d7-7b06e3c64603"
         style="fill:#00aaaa;fill-opacity:1;stroke:#00aaaa;stroke-width:0;stroke-opacity:1" />
      <g
         id="id-245bf5e3-8371-4d25-b389-b37ed9666e19"
         transform="translate(-298.98,-136.152)"
         style="fill:#aa00aa;fill-opacity:1;stroke:#aa00aa;stroke-width:0;stroke-opacity:1">
        <g
           style="fill:#aa00aa;fill-opacity:1;stroke:#aa00aa;stroke-width:0;stroke-opacity:1"
           id="id-4adc0945-a9d7-434b-a951-d45098f6ad85">
          <g
             transform="translate(298.982,136.558)"
             id="g6285"
             style="fill:#aa00aa;fill-opacity:1;stroke:#aa00aa;stroke-width:0;stroke-opacity:1">
            <path
               style="fill:#aa00aa;fill-opacity:1;stroke:#aa00aa;stroke-width:0;stroke-opacity:1"
               d="m 3.875,8.515625 -1.75,-3.875 C 2.046875,4.484375 2,4.484375 1.96875,4.484375 c 0,0 -0.0625,0 -0.171875,0.078125 l -0.9375,0.71875 c -0.125,0.109375 -0.125,0.125 -0.125,0.15625 0,0.0625 0.015625,0.109375 0.09375,0.109375 0.0625,0 0.234375,-0.140625 0.34375,-0.21875 C 1.21875,5.28125 1.375,5.171875 1.484375,5.09375 l 1.96875,4.3125 C 3.515625,9.5625 3.5625,9.5625 3.65625,9.5625 c 0.15625,0 0.1875,-0.046875 0.25,-0.1875 L 8.4375,0 C 8.5,-0.140625 8.5,-0.171875 8.5,-0.203125 8.5,-0.296875 8.421875,-0.40625 8.296875,-0.40625 c -0.078125,0 -0.140625,0.0625 -0.21875,0.21875 z m 0,0"
               id="id-082c8b84-7240-45a7-ae28-46341fc722c4" />
          </g>
        </g>
        <path
           style="fill:#aa00aa;fill-opacity:1;stroke:#aa00aa;stroke-width:0.398;stroke-linecap:butt;stroke-linejoin:miter;stroke-miterlimit:10;stroke-opacity:1"
           d="M 0.00115625,-3.75e-4 H 4.981625"
           transform="matrix(1,0,0,-1,307.284,136.359)"
           id="id-7cad6616-3fd4-4db4-a698-ae69ca09a061" />
        <g
           style="fill:#aa00aa;fill-opacity:1;stroke:#aa00aa;stroke-width:0;stroke-opacity:1"
           id="id-6c890c6c-322e-4761-81ea-86c77f19a12d">
          <g
             transform="translate(307.284,144.799)"
             id="g8865"
             style="fill:#aa00aa;fill-opacity:1;stroke:#aa00aa;stroke-width:0;stroke-opacity:1">
            <path
               style="fill:#aa00aa;fill-opacity:1;stroke:#aa00aa;stroke-width:0;stroke-opacity:1"
               d="m 1.265625,-0.765625 1.0625,-1.03125 c 1.546875,-1.375 2.140625,-1.90625 2.140625,-2.90625 0,-1.140625 -0.890625,-1.9375 -2.109375,-1.9375 -1.125,0 -1.859375,0.921875 -1.859375,1.8125 0,0.546875 0.5,0.546875 0.53125,0.546875 0.171875,0 0.515625,-0.109375 0.515625,-0.53125 0,-0.25 -0.1875,-0.515625 -0.53125,-0.515625 -0.078125,0 -0.09375,0 -0.125,0.015625 0.21875,-0.65625 0.765625,-1.015625 1.34375,-1.015625 0.90625,0 1.328125,0.8125 1.328125,1.625 C 3.5625,-3.90625 3.078125,-3.125 2.515625,-2.5 l -1.90625,2.125 C 0.5,-0.265625 0.5,-0.234375 0.5,0 H 4.203125 L 4.46875,-1.734375 H 4.234375 C 4.171875,-1.4375 4.109375,-1 4,-0.84375 3.9375,-0.765625 3.28125,-0.765625 3.0625,-0.765625 Z m 0,0"
               id="id-2b94136a-9a58-4f64-816a-4d4b491b3d00" />
          </g>
        </g>
        <path
           style="fill:#aa00aa;fill-opacity:1;stroke:#aa00aa;stroke-width:0.398;stroke-linecap:butt;stroke-linejoin:miter;stroke-miterlimit:10;stroke-opacity:1"
           d="M -0.00153125,0.001125 H 13.283625"
           transform="matrix(1,0,0,-1,298.982,149.048)"
           id="id-3771e9f3-ee56-4855-8f36-90a53550c53e" />
        <g
           style="fill:#aa00aa;fill-opacity:1;stroke:#aa00aa;stroke-width:0;stroke-opacity:1"
           id="id-98bc9d86-1189-441c-b10f-c4aeb2c4721f">
          <g
             transform="translate(303.133,158.373)"
             id="g8384"
             style="fill:#aa00aa;fill-opacity:1;stroke:#aa00aa;stroke-width:0;stroke-opacity:1">
            <path
               style="fill:#aa00aa;fill-opacity:1;stroke:#aa00aa;stroke-width:0;stroke-opacity:1"
               d="m 1.265625,-0.765625 1.0625,-1.03125 c 1.546875,-1.375 2.140625,-1.90625 2.140625,-2.90625 0,-1.140625 -0.890625,-1.9375 -2.109375,-1.9375 -1.125,0 -1.859375,0.921875 -1.859375,1.8125 0,0.546875 0.5,0.546875 0.53125,0.546875 0.171875,0 0.515625,-0.109375 0.515625,-0.53125 0,-0.25 -0.1875,-0.515625 -0.53125,-0.515625 -0.078125,0 -0.09375,0 -0.125,0.015625 0.21875,-0.65625 0.765625,-1.015625 1.34375,-1.015625 0.90625,0 1.328125,0.8125 1.328125,1.625 C 3.5625,-3.90625 3.078125,-3.125 2.515625,-2.5 l -1.90625,2.125 C 0.5,-0.265625 0.5,-0.234375 0.5,0 H 4.203125 L 4.46875,-1.734375 H 4.234375 C 4.171875,-1.4375 4.109375,-1 4,-0.84375 3.9375,-0.765625 3.28125,-0.765625 3.0625,-0.765625 Z m 0,0"
               id="id-2552cf55-8147-46b3-b88e-d60e4322e6ba" />
          </g>
        </g>
      </g>
    </g>
    <g
       transform="matrix(0.35517675,0,0,0.35517675,102.76738,207.89839)"
       ns4:version="1.10.0"
       ns4:texconverter="pdflatex"
       ns4:pdfconverter="inkscape"
       ns4:text="$1$"
       ns4:preamble="/home/hayastl/.config/inkscape/extensions/textext/default_packages.tex"
       ns4:scale="1.3424006650450726"
       ns4:alignment="middle center"
       ns4:stroke-to-path="0"
       id="g108"
       ns4:jacobian_sqrt="0.473569"
       style="fill:#aa00aa;fill-opacity:1;stroke:#aa00aa;stroke-width:0;stroke-opacity:1">
      <defs
         id="defs104"
         style="fill:#00aaaa;fill-opacity:1;stroke:#00aaaa;stroke-width:0;stroke-opacity:1" />
      <g
         id="g107"
         transform="translate(-149.603,-128.124)"
         style="fill:#aa00aa;fill-opacity:1;stroke:#aa00aa;stroke-width:0;stroke-opacity:1">
        <g
           style="fill:#aa00aa;fill-opacity:1;stroke:#aa00aa;stroke-width:0;stroke-opacity:1"
           id="g106">
          <g
             transform="translate(148.712,134.765)"
             id="g105"
             style="fill:#aa00aa;fill-opacity:1;stroke:#aa00aa;stroke-width:0;stroke-opacity:1">
            <path
               style="fill:#aa00aa;fill-opacity:1;stroke:#aa00aa;stroke-width:0;stroke-opacity:1"
               d="m 2.9375,-6.375 c 0,-0.25 0,-0.265625 -0.234375,-0.265625 C 2.078125,-6 1.203125,-6 0.890625,-6 v 0.3125 c 0.203125,0 0.78125,0 1.296875,-0.265625 v 5.171875 c 0,0.359375 -0.03125,0.46875 -0.921875,0.46875 h -0.3125 V 0 c 0.34375,-0.03125 1.203125,-0.03125 1.609375,-0.03125 0.390625,0 1.265625,0 1.609375,0.03125 v -0.3125 h -0.3125 c -0.90625,0 -0.921875,-0.109375 -0.921875,-0.46875 z m 0,0"
               id="path105" />
          </g>
        </g>
      </g>
    </g>
    <g
       transform="matrix(0.355177,0,0,0.355177,136.6347,203.23688)"
       ns4:version="1.10.0"
       ns4:texconverter="pdflatex"
       ns4:pdfconverter="inkscape"
       ns4:text="$$\\frac{\\sqrt{2}}{2}$$"
       ns4:preamble="/home/hayastl/.config/inkscape/extensions/textext/default_packages.tex"
       ns4:scale="1.0068004987838044"
       ns4:alignment="middle center"
       ns4:stroke-to-path="0"
       id="g119"
       ns4:jacobian_sqrt="0.355177"
       style="fill:#aa00aa;fill-opacity:1;stroke:#aa00aa;stroke-width:0;stroke-opacity:1">
      <defs
         id="defs111"
         style="fill:#00aaaa;fill-opacity:1;stroke:#00aaaa;stroke-width:0;stroke-opacity:1" />
      <g
         id="g118"
         transform="translate(-298.98,-136.152)"
         style="fill:#aa00aa;fill-opacity:1;stroke:#aa00aa;stroke-width:0;stroke-opacity:1">
        <g
           style="fill:#aa00aa;fill-opacity:1;stroke:#aa00aa;stroke-width:0;stroke-opacity:1"
           id="g113">
          <g
             transform="translate(298.982,136.558)"
             id="g112"
             style="fill:#aa00aa;fill-opacity:1;stroke:#aa00aa;stroke-width:0;stroke-opacity:1">
            <path
               style="fill:#aa00aa;fill-opacity:1;stroke:#aa00aa;stroke-width:0;stroke-opacity:1"
               d="m 3.875,8.515625 -1.75,-3.875 C 2.046875,4.484375 2,4.484375 1.96875,4.484375 c 0,0 -0.0625,0 -0.171875,0.078125 l -0.9375,0.71875 c -0.125,0.109375 -0.125,0.125 -0.125,0.15625 0,0.0625 0.015625,0.109375 0.09375,0.109375 0.0625,0 0.234375,-0.140625 0.34375,-0.21875 C 1.21875,5.28125 1.375,5.171875 1.484375,5.09375 l 1.96875,4.3125 C 3.515625,9.5625 3.5625,9.5625 3.65625,9.5625 c 0.15625,0 0.1875,-0.046875 0.25,-0.1875 L 8.4375,0 C 8.5,-0.140625 8.5,-0.171875 8.5,-0.203125 8.5,-0.296875 8.421875,-0.40625 8.296875,-0.40625 c -0.078125,0 -0.140625,0.0625 -0.21875,0.21875 z m 0,0"
               id="path112" />
          </g>
        </g>
        <path
           style="fill:#aa00aa;fill-opacity:1;stroke:#aa00aa;stroke-width:0.398;stroke-linecap:butt;stroke-linejoin:miter;stroke-miterlimit:10;stroke-opacity:1"
           d="M 0.00115625,-3.75e-4 H 4.981625"
           transform="matrix(1,0,0,-1,307.284,136.359)"
           id="path113" />
        <g
           style="fill:#aa00aa;fill-opacity:1;stroke:#aa00aa;stroke-width:0;stroke-opacity:1"
           id="g115">
          <g
             transform="translate(307.284,144.799)"
             id="g114"
             style="fill:#aa00aa;fill-opacity:1;stroke:#aa00aa;stroke-width:0;stroke-opacity:1">
            <path
               style="fill:#aa00aa;fill-opacity:1;stroke:#aa00aa;stroke-width:0;stroke-opacity:1"
               d="m 1.265625,-0.765625 1.0625,-1.03125 c 1.546875,-1.375 2.140625,-1.90625 2.140625,-2.90625 0,-1.140625 -0.890625,-1.9375 -2.109375,-1.9375 -1.125,0 -1.859375,0.921875 -1.859375,1.8125 0,0.546875 0.5,0.546875 0.53125,0.546875 0.171875,0 0.515625,-0.109375 0.515625,-0.53125 0,-0.25 -0.1875,-0.515625 -0.53125,-0.515625 -0.078125,0 -0.09375,0 -0.125,0.015625 0.21875,-0.65625 0.765625,-1.015625 1.34375,-1.015625 0.90625,0 1.328125,0.8125 1.328125,1.625 C 3.5625,-3.90625 3.078125,-3.125 2.515625,-2.5 l -1.90625,2.125 C 0.5,-0.265625 0.5,-0.234375 0.5,0 H 4.203125 L 4.46875,-1.734375 H 4.234375 C 4.171875,-1.4375 4.109375,-1 4,-0.84375 3.9375,-0.765625 3.28125,-0.765625 3.0625,-0.765625 Z m 0,0"
               id="path114" />
          </g>
        </g>
        <path
           style="fill:#aa00aa;fill-opacity:1;stroke:#aa00aa;stroke-width:0.398;stroke-linecap:butt;stroke-linejoin:miter;stroke-miterlimit:10;stroke-opacity:1"
           d="M -0.00153125,0.001125 H 13.283625"
           transform="matrix(1,0,0,-1,298.982,149.048)"
           id="path115" />
        <g
           style="fill:#aa00aa;fill-opacity:1;stroke:#aa00aa;stroke-width:0;stroke-opacity:1"
           id="g117">
          <g
             transform="translate(303.133,158.373)"
             id="g116"
             style="fill:#aa00aa;fill-opacity:1;stroke:#aa00aa;stroke-width:0;stroke-opacity:1">
            <path
               style="fill:#aa00aa;fill-opacity:1;stroke:#aa00aa;stroke-width:0;stroke-opacity:1"
               d="m 1.265625,-0.765625 1.0625,-1.03125 c 1.546875,-1.375 2.140625,-1.90625 2.140625,-2.90625 0,-1.140625 -0.890625,-1.9375 -2.109375,-1.9375 -1.125,0 -1.859375,0.921875 -1.859375,1.8125 0,0.546875 0.5,0.546875 0.53125,0.546875 0.171875,0 0.515625,-0.109375 0.515625,-0.53125 0,-0.25 -0.1875,-0.515625 -0.53125,-0.515625 -0.078125,0 -0.09375,0 -0.125,0.015625 0.21875,-0.65625 0.765625,-1.015625 1.34375,-1.015625 0.90625,0 1.328125,0.8125 1.328125,1.625 C 3.5625,-3.90625 3.078125,-3.125 2.515625,-2.5 l -1.90625,2.125 C 0.5,-0.265625 0.5,-0.234375 0.5,0 H 4.203125 L 4.46875,-1.734375 H 4.234375 C 4.171875,-1.4375 4.109375,-1 4,-0.84375 3.9375,-0.765625 3.28125,-0.765625 3.0625,-0.765625 Z m 0,0"
               id="path116" />
          </g>
        </g>
      </g>
    </g>
    <path
       style="fill:none;stroke:#aa00aa;stroke-width:0.265;stroke-linecap:butt;stroke-linejoin:miter;stroke-dasharray:none;stroke-opacity:1;marker-start:url(#Triangle);marker-end:url(#Triangle)"
       d="M 50.797864,215.24306 H 155.92425"
       id="path119" />
    <g
       transform="matrix(0.35517697,0,0,0.35517697,99.435111,217.46165)"
       ns4:version="1.10.0"
       ns4:texconverter="pdflatex"
       ns4:pdfconverter="inkscape"
       ns4:text="$\\sqrt{2} + 1$"
       ns4:preamble="/home/hayastl/.config/inkscape/extensions/textext/default_packages.tex"
       ns4:scale="0.991867682774059"
       ns4:alignment="middle center"
       ns4:stroke-to-path="0"
       id="g135"
       ns4:jacobian_sqrt="0.349909"
       style="fill:#aa00aa;fill-opacity:1;stroke:#aa00aa;stroke-width:0.985168;stroke-opacity:1">
      <defs
         id="defs125" />
      <g
         id="g134"
         transform="translate(-149.446,-126.117)"
         style="fill:#aa00aa;fill-opacity:1;stroke:#aa00aa;stroke-width:0.985168;stroke-opacity:1">
        <g
           style="fill:#aa00aa;fill-opacity:1;stroke:#aa00aa;stroke-width:0.985168;stroke-opacity:1"
           id="g127">
          <g
             transform="translate(148.712,126.523)"
             id="g126"
             style="fill:#aa00aa;fill-opacity:1;stroke:#aa00aa;stroke-width:0.985168;stroke-opacity:1">
            <path
               style="fill:#aa00aa;fill-opacity:1;stroke:#aa00aa;stroke-width:0;stroke-opacity:1"
               d="m 3.875,8.515625 -1.75,-3.875 C 2.046875,4.484375 2,4.484375 1.96875,4.484375 c 0,0 -0.0625,0 -0.171875,0.078125 l -0.9375,0.71875 c -0.125,0.109375 -0.125,0.125 -0.125,0.15625 0,0.0625 0.015625,0.109375 0.09375,0.109375 0.0625,0 0.234375,-0.140625 0.34375,-0.21875 C 1.21875,5.28125 1.375,5.171875 1.484375,5.09375 l 1.96875,4.3125 C 3.515625,9.5625 3.5625,9.5625 3.65625,9.5625 c 0.15625,0 0.1875,-0.046875 0.25,-0.1875 L 8.4375,0 C 8.5,-0.140625 8.5,-0.171875 8.5,-0.203125 8.5,-0.296875 8.421875,-0.40625 8.296875,-0.40625 c -0.078125,0 -0.140625,0.0625 -0.21875,0.21875 z m 0,0"
               id="path126" />
          </g>
        </g>
        <path
           style="fill:#aa00aa;fill-opacity:1;stroke:#aa00aa;stroke-width:0.392097;stroke-linecap:butt;stroke-linejoin:miter;stroke-miterlimit:10;stroke-opacity:1"
           d="M 6.25e-4,-2.1875e-4 H 4.981094"
           transform="matrix(1,0,0,-1,157.015,126.324)"
           id="path127" />
        <g
           style="fill:#aa00aa;fill-opacity:1;stroke:#aa00aa;stroke-width:0.985168;stroke-opacity:1"
           id="g129">
          <g
             transform="translate(157.015,134.765)"
             id="g128"
             style="fill:#aa00aa;fill-opacity:1;stroke:#aa00aa;stroke-width:0.985168;stroke-opacity:1">
            <path
               style="fill:#aa00aa;fill-opacity:1;stroke:#aa00aa;stroke-width:0;stroke-opacity:1"
               d="m 1.265625,-0.765625 1.0625,-1.03125 c 1.546875,-1.375 2.140625,-1.90625 2.140625,-2.90625 0,-1.140625 -0.890625,-1.9375 -2.109375,-1.9375 -1.125,0 -1.859375,0.921875 -1.859375,1.8125 0,0.546875 0.5,0.546875 0.53125,0.546875 0.171875,0 0.515625,-0.109375 0.515625,-0.53125 0,-0.25 -0.1875,-0.515625 -0.53125,-0.515625 -0.078125,0 -0.09375,0 -0.125,0.015625 0.21875,-0.65625 0.765625,-1.015625 1.34375,-1.015625 0.90625,0 1.328125,0.8125 1.328125,1.625 C 3.5625,-3.90625 3.078125,-3.125 2.515625,-2.5 l -1.90625,2.125 C 0.5,-0.265625 0.5,-0.234375 0.5,0 H 4.203125 L 4.46875,-1.734375 H 4.234375 C 4.171875,-1.4375 4.109375,-1 4,-0.84375 3.9375,-0.765625 3.28125,-0.765625 3.0625,-0.765625 Z m 0,0"
               id="path128" />
          </g>
        </g>
        <g
           style="fill:#aa00aa;fill-opacity:1;stroke:#aa00aa;stroke-width:0.985168;stroke-opacity:1"
           id="g131">
          <g
             transform="translate(164.208,134.765)"
             id="g130"
             style="fill:#aa00aa;fill-opacity:1;stroke:#aa00aa;stroke-width:0.985168;stroke-opacity:1">
            <path
               style="fill:#aa00aa;fill-opacity:1;stroke:#aa00aa;stroke-width:0;stroke-opacity:1"
               d="m 4.078125,-2.296875 h 2.78125 C 7,-2.296875 7.1875,-2.296875 7.1875,-2.5 7.1875,-2.6875 7,-2.6875 6.859375,-2.6875 h -2.78125 v -2.796875 c 0,-0.140625 0,-0.328125 -0.203125,-0.328125 -0.203125,0 -0.203125,0.1875 -0.203125,0.328125 V -2.6875 h -2.78125 c -0.140625,0 -0.328125,0 -0.328125,0.1875 0,0.203125 0.1875,0.203125 0.328125,0.203125 h 2.78125 V 0.5 c 0,0.140625 0,0.328125 0.203125,0.328125 0.203125,0 0.203125,-0.1875 0.203125,-0.328125 z m 0,0"
               id="path129" />
          </g>
        </g>
        <g
           style="fill:#aa00aa;fill-opacity:1;stroke:#aa00aa;stroke-width:0.985168;stroke-opacity:1"
           id="g133">
          <g
             transform="translate(174.169,134.765)"
             id="g132"
             style="fill:#aa00aa;fill-opacity:1;stroke:#aa00aa;stroke-width:0.985168;stroke-opacity:1">
            <path
               style="fill:#aa00aa;fill-opacity:1;stroke:#aa00aa;stroke-width:0;stroke-opacity:1"
               d="m 2.9375,-6.375 c 0,-0.25 0,-0.265625 -0.234375,-0.265625 C 2.078125,-6 1.203125,-6 0.890625,-6 v 0.3125 c 0.203125,0 0.78125,0 1.296875,-0.265625 v 5.171875 c 0,0.359375 -0.03125,0.46875 -0.921875,0.46875 h -0.3125 V 0 c 0.34375,-0.03125 1.203125,-0.03125 1.609375,-0.03125 0.390625,0 1.265625,0 1.609375,0.03125 v -0.3125 h -0.3125 c -0.90625,0 -0.921875,-0.109375 -0.921875,-0.46875 z m 0,0"
               id="path131" />
          </g>
        </g>
      </g>
    </g>
  </g>
</svg>
