<?xml version="1.0" encoding="UTF-8" standalone="no"?>
<!-- Created with Inkscape (http://www.inkscape.org/) -->

<svg
   width="112.14784mm"
   height="62.960808mm"
   viewBox="0 0 112.14784 62.960808"
   version="1.1"
   id="svg1"
   inkscape:version="1.3.2 (1:1.3.2+202311252150+091e20ef0f)"
   sodipodi:docname="scratch.svg"
   xmlns:inkscape="http://www.inkscape.org/namespaces/inkscape"
   xmlns:sodipodi="http://sodipodi.sourceforge.net/DTD/sodipodi-0.dtd"
   xmlns="http://www.w3.org/2000/svg"
   xmlns:svg="http://www.w3.org/2000/svg"
   xmlns:ns4="http://www.iki.fi/pav/software/textext/">
  <sodipodi:namedview
     id="namedview1"
     pagecolor="#000033"
     bordercolor="#666666"
     borderopacity="1.0"
     inkscape:showpageshadow="2"
     inkscape:pageopacity="0.0"
     inkscape:pagecheckerboard="0"
     inkscape:deskcolor="#d1d1d1"
     inkscape:document-units="mm"
     inkscape:zoom="1.41"
     inkscape:cx="1058.8652"
     inkscape:cy="896.4539"
     inkscape:window-width="1848"
     inkscape:window-height="1016"
     inkscape:window-x="72"
     inkscape:window-y="27"
     inkscape:window-maximized="1"
     inkscape:current-layer="layer1" />
  <defs
     id="defs1">
    <marker
       style="overflow:visible"
       id="Triangle"
       refX="3"
       refY="0"
       orient="auto-start-reverse"
       inkscape:stockid="Triangle arrow"
       markerWidth="1"
       markerHeight="1"
       viewBox="0 0 1 1"
       inkscape:isstock="true"
       inkscape:collect="always"
       preserveAspectRatio="xMidYMid">
      <path
         transform="scale(0.5)"
         style="fill:context-stroke;fill-rule:evenodd;stroke:context-stroke;stroke-width:1pt"
         d="M 5.77,0 -2.88,5 V -5 Z"
         id="path135" />
    </marker>
  </defs>
  <g
     inkscape:label="Layer 1"
     inkscape:groupmode="layer"
     id="layer1"
     transform="translate(-31.626202,-95.018331)">
    <rect
       style="fill:none;fill-rule:evenodd;stroke:#00aaaa;stroke-width:0.264999;stroke-opacity:1;paint-order:stroke fill markers"
       id="rect1"
       width="43.544765"
       height="43.544765"
       x="31.772238"
       y="104.54521"
       inkscape:export-filename="silver-rectangle.svg"
       inkscape:export-xdpi="95.9"
       inkscape:export-ydpi="95.9" />
    <rect
       style="fill:none;fill-rule:evenodd;stroke:#00aaaa;stroke-width:0.264999;stroke-opacity:1;paint-order:stroke fill markers"
       id="rect2"
       width="43.544765"
       height="43.544765"
       x="75.317001"
       y="104.54521" />
    <rect
       style="fill:none;fill-rule:evenodd;stroke:#00aaaa;stroke-width:0.264999;stroke-opacity:1;paint-order:stroke fill markers"
       id="rect4"
       width="18.036839"
       height="43.544765"
       x="118.86178"
       y="104.54521" />
    <path
       style="fill:none;stroke:#aa00aa;stroke-width:0.265;stroke-linecap:butt;stroke-linejoin:miter;stroke-dasharray:none;stroke-opacity:1;marker-start:url(#Triangle);marker-end:url(#Triangle)"
       d="M 31.772238,101.25753 H 136.89862"
       id="path4" />
    <g
       transform="matrix(0.35517697,0,0,0.35517697,80.409485,95.018417)"
       ns4:version="1.10.0"
       ns4:texconverter="pdflatex"
       ns4:pdfconverter="inkscape"
       ns4:text="$\\sqrt{2} + 1$"
       ns4:preamble="/home/hayastl/.config/inkscape/extensions/textext/default_packages.tex"
       ns4:scale="0.991867682774059"
       ns4:alignment="middle center"
       ns4:stroke-to-path="0"
       id="g8485"
       ns4:jacobian_sqrt="0.349909"
       style="fill:#aa00aa;fill-opacity:1;stroke:#aa00aa;stroke-width:0.985168;stroke-opacity:1">
      <defs
         id="id-455e29d6-0e9a-464a-b81b-63ff8ba85bdd" />
      <g
         id="id-56de87d7-5049-4f81-92ad-bcb55ce20c72"
         transform="translate(-149.446,-126.117)"
         style="fill:#aa00aa;fill-opacity:1;stroke:#aa00aa;stroke-width:0.985168;stroke-opacity:1">
        <g
           style="fill:#aa00aa;fill-opacity:1;stroke:#aa00aa;stroke-width:0.985168;stroke-opacity:1"
           id="id-3f28b21e-548c-4dcf-aa24-74d71bf6c4b6">
          <g
             transform="translate(148.712,126.523)"
             id="g4342"
             style="fill:#aa00aa;fill-opacity:1;stroke:#aa00aa;stroke-width:0.985168;stroke-opacity:1">
            <path
               style="fill:#aa00aa;fill-opacity:1;stroke:#aa00aa;stroke-width:0;stroke-opacity:1"
               d="m 3.875,8.515625 -1.75,-3.875 C 2.046875,4.484375 2,4.484375 1.96875,4.484375 c 0,0 -0.0625,0 -0.171875,0.078125 l -0.9375,0.71875 c -0.125,0.109375 -0.125,0.125 -0.125,0.15625 0,0.0625 0.015625,0.109375 0.09375,0.109375 0.0625,0 0.234375,-0.140625 0.34375,-0.21875 C 1.21875,5.28125 1.375,5.171875 1.484375,5.09375 l 1.96875,4.3125 C 3.515625,9.5625 3.5625,9.5625 3.65625,9.5625 c 0.15625,0 0.1875,-0.046875 0.25,-0.1875 L 8.4375,0 C 8.5,-0.140625 8.5,-0.171875 8.5,-0.203125 8.5,-0.296875 8.421875,-0.40625 8.296875,-0.40625 c -0.078125,0 -0.140625,0.0625 -0.21875,0.21875 z m 0,0"
               id="id-24bfe5b5-6c50-472c-85e0-0b6b6fd5bde4" />
          </g>
        </g>
        <path
           style="fill:#aa00aa;fill-opacity:1;stroke:#aa00aa;stroke-width:0.392097;stroke-linecap:butt;stroke-linejoin:miter;stroke-miterlimit:10;stroke-opacity:1"
           d="M 6.25e-4,-2.1875e-4 H 4.981094"
           transform="matrix(1,0,0,-1,157.015,126.324)"
           id="id-f467745d-b4f6-4407-8745-c78fc62ae557" />
        <g
           style="fill:#aa00aa;fill-opacity:1;stroke:#aa00aa;stroke-width:0.985168;stroke-opacity:1"
           id="id-3a960af1-3927-42f8-a39d-75b31fe528c2">
          <g
             transform="translate(157.015,134.765)"
             id="g8119"
             style="fill:#aa00aa;fill-opacity:1;stroke:#aa00aa;stroke-width:0.985168;stroke-opacity:1">
            <path
               style="fill:#aa00aa;fill-opacity:1;stroke:#aa00aa;stroke-width:0;stroke-opacity:1"
               d="m 1.265625,-0.765625 1.0625,-1.03125 c 1.546875,-1.375 2.140625,-1.90625 2.140625,-2.90625 0,-1.140625 -0.890625,-1.9375 -2.109375,-1.9375 -1.125,0 -1.859375,0.921875 -1.859375,1.8125 0,0.546875 0.5,0.546875 0.53125,0.546875 0.171875,0 0.515625,-0.109375 0.515625,-0.53125 0,-0.25 -0.1875,-0.515625 -0.53125,-0.515625 -0.078125,0 -0.09375,0 -0.125,0.015625 0.21875,-0.65625 0.765625,-1.015625 1.34375,-1.015625 0.90625,0 1.328125,0.8125 1.328125,1.625 C 3.5625,-3.90625 3.078125,-3.125 2.515625,-2.5 l -1.90625,2.125 C 0.5,-0.265625 0.5,-0.234375 0.5,0 H 4.203125 L 4.46875,-1.734375 H 4.234375 C 4.171875,-1.4375 4.109375,-1 4,-0.84375 3.9375,-0.765625 3.28125,-0.765625 3.0625,-0.765625 Z m 0,0"
               id="id-35a90e43-9cf0-43db-a3a2-4f1844e19146" />
          </g>
        </g>
        <g
           style="fill:#aa00aa;fill-opacity:1;stroke:#aa00aa;stroke-width:0.985168;stroke-opacity:1"
           id="id-50fc9293-ff75-4a93-9658-b366b2d86afa">
          <g
             transform="translate(164.208,134.765)"
             id="g6605"
             style="fill:#aa00aa;fill-opacity:1;stroke:#aa00aa;stroke-width:0.985168;stroke-opacity:1">
            <path
               style="fill:#aa00aa;fill-opacity:1;stroke:#aa00aa;stroke-width:0;stroke-opacity:1"
               d="m 4.078125,-2.296875 h 2.78125 C 7,-2.296875 7.1875,-2.296875 7.1875,-2.5 7.1875,-2.6875 7,-2.6875 6.859375,-2.6875 h -2.78125 v -2.796875 c 0,-0.140625 0,-0.328125 -0.203125,-0.328125 -0.203125,0 -0.203125,0.1875 -0.203125,0.328125 V -2.6875 h -2.78125 c -0.140625,0 -0.328125,0 -0.328125,0.1875 0,0.203125 0.1875,0.203125 0.328125,0.203125 h 2.78125 V 0.5 c 0,0.140625 0,0.328125 0.203125,0.328125 0.203125,0 0.203125,-0.1875 0.203125,-0.328125 z m 0,0"
               id="id-dc270ce5-2e15-446d-a0c4-ee2faff3d04a" />
          </g>
        </g>
        <g
           style="fill:#aa00aa;fill-opacity:1;stroke:#aa00aa;stroke-width:0.985168;stroke-opacity:1"
           id="id-b990d2e1-80d7-40b3-aa85-f26b4b1edf2a">
          <g
             transform="translate(174.169,134.765)"
             id="g2657"
             style="fill:#aa00aa;fill-opacity:1;stroke:#aa00aa;stroke-width:0.985168;stroke-opacity:1">
            <path
               style="fill:#aa00aa;fill-opacity:1;stroke:#aa00aa;stroke-width:0;stroke-opacity:1"
               d="m 2.9375,-6.375 c 0,-0.25 0,-0.265625 -0.234375,-0.265625 C 2.078125,-6 1.203125,-6 0.890625,-6 v 0.3125 c 0.203125,0 0.78125,0 1.296875,-0.265625 v 5.171875 c 0,0.359375 -0.03125,0.46875 -0.921875,0.46875 h -0.3125 V 0 c 0.34375,-0.03125 1.203125,-0.03125 1.609375,-0.03125 0.390625,0 1.265625,0 1.609375,0.03125 v -0.3125 h -0.3125 c -0.90625,0 -0.921875,-0.109375 -0.921875,-0.46875 z m 0,0"
               id="id-83840cf9-c123-4fa1-b381-83562fc23350" />
          </g>
        </g>
      </g>
    </g>
    <path
       style="fill:none;stroke:#aa00aa;stroke-width:0.265;stroke-linecap:butt;stroke-linejoin:miter;stroke-dasharray:none;stroke-opacity:1;marker-start:url(#Triangle);marker-end:url(#Triangle)"
       d="m 140.23992,104.54521 v 43.54477"
       id="path5"
       sodipodi:nodetypes="cc" />
    <g
       transform="matrix(0.35517675,0,0,0.35517675,142.60875,124.65914)"
       ns4:version="1.10.0"
       ns4:texconverter="pdflatex"
       ns4:pdfconverter="inkscape"
       ns4:text="$1$"
       ns4:preamble="/home/hayastl/.config/inkscape/extensions/textext/default_packages.tex"
       ns4:scale="1.3424006650450726"
       ns4:alignment="middle center"
       ns4:stroke-to-path="0"
       id="g36"
       ns4:jacobian_sqrt="0.473569"
       style="fill:#aa00aa;fill-opacity:1;stroke:#aa00aa;stroke-width:0;stroke-opacity:1">
      <defs
         id="id-612b417a-1e7b-40fc-b18d-dde6aa3573ab"
         style="fill:#00aaaa;fill-opacity:1;stroke:#00aaaa;stroke-width:0;stroke-opacity:1" />
      <g
         id="id-60fcab09-c387-481b-b4c2-585bbc7d3f62"
         transform="translate(-149.603,-128.124)"
         style="fill:#aa00aa;fill-opacity:1;stroke:#aa00aa;stroke-width:0;stroke-opacity:1">
        <g
           style="fill:#aa00aa;fill-opacity:1;stroke:#aa00aa;stroke-width:0;stroke-opacity:1"
           id="id-d6b0446e-69d2-454b-ba16-1b806c4875b7">
          <g
             transform="translate(148.712,134.765)"
             id="g9972"
             style="fill:#aa00aa;fill-opacity:1;stroke:#aa00aa;stroke-width:0;stroke-opacity:1">
            <path
               style="fill:#aa00aa;fill-opacity:1;stroke:#aa00aa;stroke-width:0;stroke-opacity:1"
               d="m 2.9375,-6.375 c 0,-0.25 0,-0.265625 -0.234375,-0.265625 C 2.078125,-6 1.203125,-6 0.890625,-6 v 0.3125 c 0.203125,0 0.78125,0 1.296875,-0.265625 v 5.171875 c 0,0.359375 -0.03125,0.46875 -0.921875,0.46875 h -0.3125 V 0 c 0.34375,-0.03125 1.203125,-0.03125 1.609375,-0.03125 0.390625,0 1.265625,0 1.609375,0.03125 v -0.3125 h -0.3125 c -0.90625,0 -0.921875,-0.109375 -0.921875,-0.46875 z m 0,0"
               id="id-c33da3f1-8205-4244-bcf2-a3f68c160502" />
          </g>
        </g>
      </g>
    </g>
    <path
       style="fill:none;stroke:#aa0000;stroke-width:0.264583px;stroke-linecap:butt;stroke-linejoin:miter;stroke-opacity:1"
       d="m 34.409396,107.18237 38.270446,38.27045"
       id="path36" />
    <path
       style="fill:none;stroke:#aa0000;stroke-width:0.264583px;stroke-linecap:butt;stroke-linejoin:miter;stroke-opacity:1"
       d="M 72.679845,107.18237 34.409393,145.45282"
       id="path37" />
    <path
       style="fill:none;stroke:#aa0000;stroke-width:0.264583px;stroke-linecap:butt;stroke-linejoin:miter;stroke-opacity:1"
       d="m 77.954161,107.18237 38.270449,38.27045"
       id="path38" />
    <path
       style="fill:none;stroke:#aa0000;stroke-width:0.264583px;stroke-linecap:butt;stroke-linejoin:miter;stroke-opacity:1"
       d="M 116.22461,107.18237 77.954158,145.45282"
       id="path39" />
    <path
       style="fill:none;stroke:#aa00aa;stroke-width:0.265;stroke-linecap:butt;stroke-linejoin:miter;stroke-dasharray:none;stroke-opacity:1;marker-start:url(#Triangle);marker-end:url(#Triangle)"
       d="m 118.86178,151.71762 h 18.03684"
       id="path40"
       sodipodi:nodetypes="cc" />
    <g
       transform="matrix(0.355177,0,0,0.355177,122.957,154.43855)"
       ns4:version="1.10.0"
       ns4:texconverter="pdflatex"
       ns4:pdfconverter="inkscape"
       ns4:text="$\\sqrt{2} - 1$"
       ns4:preamble="/home/hayastl/.config/inkscape/extensions/textext/default_packages.tex"
       ns4:scale="1.0068005058704161"
       ns4:alignment="middle center"
       ns4:stroke-to-path="0"
       id="g56"
       ns4:jacobian_sqrt="0.355177"
       style="fill:#aa00aa;fill-opacity:1;stroke:#aa00aa;stroke-width:0;stroke-opacity:1">
      <defs
         id="id-4a578f77-54d9-4359-91d3-ddf2914a3490"
         style="fill:#00aaaa;fill-opacity:1;stroke:#00aaaa;stroke-width:0;stroke-opacity:1" />
      <g
         id="id-fdbbc0de-2be9-4db4-bf95-cd19d81d252c"
         transform="translate(-149.446,-126.117)"
         style="fill:#aa00aa;fill-opacity:1;stroke:#aa00aa;stroke-width:0;stroke-opacity:1">
        <g
           style="fill:#aa00aa;fill-opacity:1;stroke:#aa00aa;stroke-width:0;stroke-opacity:1"
           id="id-10f5aca0-2bb5-499e-8efd-e669ab8dc581">
          <g
             transform="translate(148.712,126.523)"
             id="g2777"
             style="fill:#aa00aa;fill-opacity:1;stroke:#aa00aa;stroke-width:0;stroke-opacity:1">
            <path
               style="fill:#aa00aa;fill-opacity:1;stroke:#aa00aa;stroke-width:0;stroke-opacity:1"
               d="m 3.875,8.515625 -1.75,-3.875 C 2.046875,4.484375 2,4.484375 1.96875,4.484375 c 0,0 -0.0625,0 -0.171875,0.078125 l -0.9375,0.71875 c -0.125,0.109375 -0.125,0.125 -0.125,0.15625 0,0.0625 0.015625,0.109375 0.09375,0.109375 0.0625,0 0.234375,-0.140625 0.34375,-0.21875 C 1.21875,5.28125 1.375,5.171875 1.484375,5.09375 l 1.96875,4.3125 C 3.515625,9.5625 3.5625,9.5625 3.65625,9.5625 c 0.15625,0 0.1875,-0.046875 0.25,-0.1875 L 8.4375,0 C 8.5,-0.140625 8.5,-0.171875 8.5,-0.203125 8.5,-0.296875 8.421875,-0.40625 8.296875,-0.40625 c -0.078125,0 -0.140625,0.0625 -0.21875,0.21875 z m 0,0"
               id="id-f9964a48-b00c-47a7-96fc-f69f195669c0" />
          </g>
        </g>
        <path
           style="fill:#aa00aa;fill-opacity:1;stroke:#aa00aa;stroke-width:0.398;stroke-linecap:butt;stroke-linejoin:miter;stroke-miterlimit:10;stroke-opacity:1"
           d="M 6.25e-4,-2.1875e-4 H 4.981094"
           transform="matrix(1,0,0,-1,157.015,126.324)"
           id="id-02df4d44-4090-4d9b-9421-36aad17d97f6" />
        <g
           style="fill:#aa00aa;fill-opacity:1;stroke:#aa00aa;stroke-width:0;stroke-opacity:1"
           id="id-28ef7445-3e71-488e-b168-867ced38ea07">
          <g
             transform="translate(157.015,134.765)"
             id="g6430"
             style="fill:#aa00aa;fill-opacity:1;stroke:#aa00aa;stroke-width:0;stroke-opacity:1">
            <path
               style="fill:#aa00aa;fill-opacity:1;stroke:#aa00aa;stroke-width:0;stroke-opacity:1"
               d="m 1.265625,-0.765625 1.0625,-1.03125 c 1.546875,-1.375 2.140625,-1.90625 2.140625,-2.90625 0,-1.140625 -0.890625,-1.9375 -2.109375,-1.9375 -1.125,0 -1.859375,0.921875 -1.859375,1.8125 0,0.546875 0.5,0.546875 0.53125,0.546875 0.171875,0 0.515625,-0.109375 0.515625,-0.53125 0,-0.25 -0.1875,-0.515625 -0.53125,-0.515625 -0.078125,0 -0.09375,0 -0.125,0.015625 0.21875,-0.65625 0.765625,-1.015625 1.34375,-1.015625 0.90625,0 1.328125,0.8125 1.328125,1.625 C 3.5625,-3.90625 3.078125,-3.125 2.515625,-2.5 l -1.90625,2.125 C 0.5,-0.265625 0.5,-0.234375 0.5,0 H 4.203125 L 4.46875,-1.734375 H 4.234375 C 4.171875,-1.4375 4.109375,-1 4,-0.84375 3.9375,-0.765625 3.28125,-0.765625 3.0625,-0.765625 Z m 0,0"
               id="id-6e34ad58-c1a5-4650-9c57-b6bbe9112749" />
          </g>
        </g>
        <g
           style="fill:#aa00aa;fill-opacity:1;stroke:#aa00aa;stroke-width:0;stroke-opacity:1"
           id="id-8878f6fb-77a1-482d-b9e9-8158c757afa7">
          <g
             transform="translate(164.21,134.765)"
             id="g1426"
             style="fill:#aa00aa;fill-opacity:1;stroke:#aa00aa;stroke-width:0;stroke-opacity:1">
            <path
               style="fill:#aa00aa;fill-opacity:1;stroke:#aa00aa;stroke-width:0;stroke-opacity:1"
               d="m 6.5625,-2.296875 c 0.171875,0 0.359375,0 0.359375,-0.203125 0,-0.1875 -0.1875,-0.1875 -0.359375,-0.1875 H 1.171875 c -0.171875,0 -0.34375,0 -0.34375,0.1875 0,0.203125 0.171875,0.203125 0.34375,0.203125 z m 0,0"
               id="id-91b101bd-520c-4326-876e-6ab194520920" />
          </g>
        </g>
        <g
           style="fill:#aa00aa;fill-opacity:1;stroke:#aa00aa;stroke-width:0;stroke-opacity:1"
           id="id-dfdab767-f72a-4122-972d-ea058e643b07">
          <g
             transform="translate(174.172,134.765)"
             id="g9297"
             style="fill:#aa00aa;fill-opacity:1;stroke:#aa00aa;stroke-width:0;stroke-opacity:1">
            <path
               style="fill:#aa00aa;fill-opacity:1;stroke:#aa00aa;stroke-width:0;stroke-opacity:1"
               d="m 2.9375,-6.375 c 0,-0.25 0,-0.265625 -0.234375,-0.265625 C 2.078125,-6 1.203125,-6 0.890625,-6 v 0.3125 c 0.203125,0 0.78125,0 1.296875,-0.265625 v 5.171875 c 0,0.359375 -0.03125,0.46875 -0.921875,0.46875 h -0.3125 V 0 c 0.34375,-0.03125 1.203125,-0.03125 1.609375,-0.03125 0.390625,0 1.265625,0 1.609375,0.03125 v -0.3125 h -0.3125 c -0.90625,0 -0.921875,-0.109375 -0.921875,-0.46875 z m 0,0"
               id="id-50c5bc48-b62e-4c69-94fe-d42fbf3c733b" />
          </g>
        </g>
      </g>
    </g>
  </g>
</svg>
