<?xml version="1.0" encoding="UTF-8" standalone="no"?>
<!-- Created with Inkscape (http://www.inkscape.org/) -->

<svg
   width="66.758583mm"
   height="76.407028mm"
   viewBox="0 0 66.758583 76.407028"
   version="1.1"
   id="svg1"
   inkscape:version="1.3.2 (1:1.3.2+202311252150+091e20ef0f)"
   sodipodi:docname="state-cutters.svg"
   xmlns:inkscape="http://www.inkscape.org/namespaces/inkscape"
   xmlns:sodipodi="http://sodipodi.sourceforge.net/DTD/sodipodi-0.dtd"
   xmlns="http://www.w3.org/2000/svg"
   xmlns:svg="http://www.w3.org/2000/svg">
  <sodipodi:namedview
     id="namedview1"
     pagecolor="#ffffff"
     bordercolor="#666666"
     borderopacity="1.0"
     inkscape:showpageshadow="2"
     inkscape:pageopacity="0.0"
     inkscape:pagecheckerboard="0"
     inkscape:deskcolor="#d1d1d1"
     inkscape:document-units="mm"
     inkscape:zoom="2.803221"
     inkscape:cx="2270.959"
     inkscape:cy="1318.4833"
     inkscape:window-width="1848"
     inkscape:window-height="1016"
     inkscape:window-x="72"
     inkscape:window-y="27"
     inkscape:window-maximized="1"
     inkscape:current-layer="layer1"
     showgrid="false" />
  <defs
     id="defs1" />
  <g
     inkscape:label="Layer 1"
     inkscape:groupmode="layer"
     id="layer1"
     transform="translate(-309.76652,-292.44714)">
    <path
       id="path83"
       style="fill:#000066;fill-opacity:1;stroke:#00aaaa;stroke-width:0.264583;stroke-linecap:butt;stroke-linejoin:miter;stroke-miterlimit:4;stroke-dasharray:none;stroke-opacity:1"
       d="m 342.95481,292.58007 15.56081,0.43822 0.0176,-5.2e-4 16.62741,0.24547 c 0.76347,0.0112 1.33948,0.6987 1.21543,1.45262 l -5.57795,33.86253 c -0.0123,0.0689 -0.0291,0.13788 -0.0527,0.20516 l -1.59009,4.60385 c -0.0426,0.12406 -0.10476,0.24017 -0.18345,0.34468 l -0.83922,1.1095 0.19998,1.79782 c 0.0498,0.43948 -0.13754,0.87228 -0.49196,1.13688 l -0.56379,0.42375 1.50792,2.0407 c 0.11019,0.14879 0.18555,0.32094 0.22014,0.50281 l 0.4992,2.55902 0.54673,1.76372 c 0.0717,0.23559 0.0732,0.48788 0.004,0.72347 l -1.17564,3.97598 0.87126,4.1584 c 0.0387,0.18069 0.0357,0.36677 -0.006,0.54571 l -0.24804,1.04334 c -0.0429,0.17909 -0.12399,0.34866 -0.23978,0.49196 l -0.7674,0.96067 -0.26355,1.33118 c -0.0166,0.0787 -0.0395,0.15705 -0.0698,0.23151 l -1.88671,4.56562 c -0.18485,0.44925 -0.61356,0.75106 -1.09864,0.77308 l -35.06659,1.59266 -0.0925,1.23765 c -0.0168,0.23012 -0.0979,0.4506 -0.23306,0.63821 l -0.62839,0.86816 c -0.27838,0.38576 -0.75245,0.58029 -1.22215,0.50023 l -1.55442,-0.26355 c -0.49749,-0.0827 -0.89553,-0.45737 -1.00976,-0.9493 l -0.70022,-3.04167 c -0.0675,-0.28785 -0.029,-0.5909 0.10594,-0.85421 l 0.66301,-1.28261 -0.0811,-0.73329 -0.42065,-0.20516 -0.54829,0.37207 c -0.10756,0.0731 -0.22625,0.12817 -0.3514,0.16537 l -2.80964,0.82269 c -0.10344,0.0301 -0.20954,0.0464 -0.3173,0.0506 l -2.60345,0.0734 c -0.71649,0.0193 -1.30338,-0.56483 -1.2852,-1.28157 l 0.092,-3.71141 c 0.001,-0.0455 0.006,-0.0907 0.0114,-0.13487 l 0.14727,-1.09141 -1.97042,-3.91397 c -0.0481,-0.095 -0.0825,-0.19535 -0.10594,-0.30024 l -0.8325,-3.88607 -0.46199,-0.45165 c -0.20678,-0.20122 -0.33588,-0.46882 -0.36897,-0.75551 l -0.15968,-1.43299 c -0.0125,-0.12112 -0.007,-0.24265 0.016,-0.36277 l -3.07268,-3.59926 c -0.16267,-0.19007 -0.26324,-0.42431 -0.29094,-0.67231 l -0.11265,-1.00304 c -0.0539,-0.49225 0.18566,-0.96885 0.61288,-1.21801 l 0.6134,-0.35709 c 0.11552,-0.069 0.24124,-0.11738 0.37207,-0.14521 l 2.1208,-0.44183 0.20102,-1.4211 c 0.0138,-0.0937 0.0383,-0.18585 0.0729,-0.27544 l 1.41025,-3.63957 c 0.0894,-0.23286 0.24751,-0.43254 0.45166,-0.57464 l 2.08927,-1.44694 -10e-4,-1.30225 c -0.001,-0.15985 0.0288,-0.31789 0.0879,-0.46664 l 2.04639,-5.09116 c 0.10221,-0.25215 0.28284,-0.46395 0.51573,-0.60461 l 3.18585,-1.91926 1.23093,-1.66347 -0.0222,-0.57309 c -0.0123,-0.29901 0.084,-0.59446 0.27027,-0.82992 l 1.71927,-2.15078 c 0.13515,-0.16832 0.31037,-0.2995 0.51005,-0.3793 l 1.01596,-0.40928 0.93276,-0.93328 0.51521,-1.40404 c 0.0691,-0.18737 0.18227,-0.35536 0.3297,-0.49041 l 1.44694,-1.32292 c 0.15143,-0.13764 0.33317,-0.23703 0.5302,-0.28939 l 0.71933,-0.18603 1.36736,-1.12758 2.33836,-3.5879 0.11576,-0.96221 c 0.0219,-0.17783 0.0815,-0.34881 0.17518,-0.50178 l 1.90169,-3.11402 c 0.22887,-0.37488 0.6351,-0.6023 1.07332,-0.59945 l 1.45108,0.004 3.27318,-2.58278 -5.2e-4,-0.016 -0.85834,-1.4857 -1.03353,-0.40514 c -0.4093,-0.15967 -0.70554,-0.52374 -0.77721,-0.95757 l -0.2248,-1.35495 c -0.12806,-0.77577 0.48235,-1.47684 1.26918,-1.4547 z m 0.26045,1.50999 0.15142,0.91364 1.30896,0.51263 c 0.0523,0.0209 0.0965,0.0592 0.12402,0.10749 l 1.25936,2.18281 c 0.025,0.0415 0.0378,0.0881 0.0351,0.13487 l -0.0388,0.94827 c -0.004,0.0733 -0.0387,0.1408 -0.0951,0.18603 l -4.06797,3.21066 c -0.0442,0.036 -0.10117,0.0539 -0.15762,0.0537 l -1.74563,-0.008 -1.79989,2.94659 -0.14469,1.20045 c -0.004,0.0373 -0.0175,0.0739 -0.0382,0.10593 l -2.60346,3.99097 c -0.0136,0.0219 -0.0306,0.0413 -0.0512,0.0579 l -1.72651,1.42576 c -0.0288,0.0236 -0.0604,0.0414 -0.0961,0.0512 l -0.93069,0.24133 -1.35547,1.23765 -0.59118,1.60662 c -0.0112,0.0345 -0.0305,0.0648 -0.0568,0.091 l -1.30587,1.30793 c -0.0235,0.0233 -0.0526,0.0426 -0.0842,0.0537 l -1.18546,0.47646 -1.6216,2.0314 0.0356,0.91777 c 10e-4,0.0563 -0.0151,0.113 -0.0496,0.15865 l -1.63814,2.21433 c -0.0206,0.0262 -0.046,0.0483 -0.0749,0.0651 l -3.32486,2.0035 -1.99833,4.97179 0.004,1.90841 c -3e-5,0.0829 -0.0404,0.15987 -0.108,0.20671 l -2.56677,1.77663 -1.36736,3.53467 -0.32091,2.26239 c -0.0152,0.10349 -0.0934,0.18778 -0.19688,0.20826 l -2.93678,0.61598 -0.43976,0.25528 0.0858,0.76481 3.38997,3.96979 0.7674,0.0429 c 0.25614,0.0164 0.32265,0.36514 0.0899,0.47542 l -0.87127,0.40101 0.13126,1.16737 0.66818,0.65423 c 0.0346,0.0347 0.0591,0.0774 0.0687,0.12557 l 0.90382,4.21938 2.13062,4.2323 c 0.0233,0.0453 0.0319,0.0965 0.0248,0.14728 l -0.19689,1.45366 -0.0853,3.43958 2.31045,-0.0636 2.73988,-0.80202 1.11363,-0.75809 c 0.0743,-0.0508 0.17059,-0.0589 0.25218,-0.0191 l 1.68931,0.82837 c 0.077,0.0375 0.12985,0.11136 0.13797,0.19689 l 0.19947,1.79162 c 0.007,0.0481 -0.003,0.0978 -0.0248,0.14211 l -0.7922,1.53944 0.64079,2.78743 1.23765,0.20774 0.49609,-0.68472 0.16795,-2.27221 c 0.01,-0.12646 0.11134,-0.22591 0.23823,-0.23151 l 36.01537,-1.63556 1.81591,-4.39456 0.31936,-1.61127 c 0.007,-0.0387 0.0239,-0.0758 0.0486,-0.10749 l 0.9219,-1.15187 0.22066,-0.93689 -0.92191,-4.4111 c -0.01,-0.04 -0.008,-0.0815 0.004,-0.12144 l 1.24127,-4.20285 -0.54261,-1.75441 c -0.003,-0.008 -0.006,-0.0163 -0.007,-0.0258 l -0.50178,-2.57142 -1.8464,-2.50269 c -0.0345,-0.0469 -0.0511,-0.10597 -0.047,-0.16536 l 0.0538,-0.80357 c 0.004,-0.0733 0.0411,-0.13898 0.0992,-0.1819 l 1.02371,-0.76895 -0.23978,-2.15129 c -0.007,-0.0632 0.009,-0.1265 0.0481,-0.17725 l 1.11362,-1.47484 1.5751,-4.5527 5.52731,-33.54989 -16.35972,-0.23978 z"
       inkscape:export-filename="../assets/posts/state-cutters/example-cutter.svg"
       inkscape:export-xdpi="95.9"
       inkscape:export-ydpi="95.9" />
  </g>
</svg>
