<?xml version="1.0" encoding="UTF-8" standalone="no"?>
<!-- Created with Inkscape (http://www.inkscape.org/) -->

<svg
   width="110.97171mm"
   height="122.97131mm"
   viewBox="0 0 110.97171 122.97131"
   version="1.1"
   id="svg1"
   inkscape:version="1.3.2 (1:1.3.2+202311252150+091e20ef0f)"
   sodipodi:docname="state-cutters.svg"
   xmlns:inkscape="http://www.inkscape.org/namespaces/inkscape"
   xmlns:sodipodi="http://sodipodi.sourceforge.net/DTD/sodipodi-0.dtd"
   xmlns="http://www.w3.org/2000/svg"
   xmlns:svg="http://www.w3.org/2000/svg">
  <sodipodi:namedview
     id="namedview1"
     pagecolor="#ffffff"
     bordercolor="#666666"
     borderopacity="1.0"
     inkscape:showpageshadow="2"
     inkscape:pageopacity="0.0"
     inkscape:pagecheckerboard="0"
     inkscape:deskcolor="#d1d1d1"
     inkscape:document-units="mm"
     inkscape:zoom="1.0325164"
     inkscape:cx="1381.5761"
     inkscape:cy="1181.5793"
     inkscape:window-width="1848"
     inkscape:window-height="1016"
     inkscape:window-x="72"
     inkscape:window-y="27"
     inkscape:window-maximized="1"
     inkscape:current-layer="layer1" />
  <defs
     id="defs1" />
  <g
     inkscape:label="Layer 1"
     inkscape:groupmode="layer"
     id="layer1"
     transform="translate(-392.31605,-275.48412)">
    <path
       id="path95"
       style="fill:#000066;fill-opacity:1;stroke:#00aaaa;stroke-width:0.264583;stroke-linecap:butt;stroke-linejoin:miter;stroke-miterlimit:4;stroke-dasharray:none;stroke-opacity:1"
       d="m 474.65756,275.61718 c 5.95903,-0.0741 10.58994,5.16479 9.7839,11.06858 l -3.51451,25.71368 -3.46904,-0.35295 -0.30334,2.98586 3.36568,0.34055 -0.72657,5.31544 c -0.0147,0.10335 -0.0293,0.20521 -0.047,0.3085 l -2.96106,-0.62838 -0.62529,2.93522 2.76986,0.58704 -0.96118,3.05408 c -0.1705,0.40725 -0.36782,0.80435 -0.5917,1.18598 0.20442,0.33991 0.38605,0.69018 0.54829,1.05058 l -2.18643,-0.22066 -0.30231,2.98483 3.34037,0.339 0.34675,1.01751 c 0.61924,1.82186 0.68697,3.78677 0.19275,5.64565 l -0.51573,1.93735 0.48782,2.04897 c 0.33161,1.39277 0.35371,2.84188 0.062,4.24315 l -0.2191,1.05006 c -0.25652,0.88208 -0.63866,1.72181 -1.13223,2.49752 l -0.004,0.0196 c -0.10615,0.6256 -0.27471,1.2398 -0.50126,1.83245 l -1.7601,4.61574 c -1.34846,3.5385 -4.62334,5.97513 -8.40052,6.2513 l -30.16044,2.20089 c -2.09891,2.62367 -5.40049,3.98368 -8.739,3.59513 l -1.56166,-0.2191 c -3.01766,-0.58215 -5.5848,-2.55378 -6.92619,-5.31803 -5.42983,0.10102 -9.89583,-4.25346 -9.93221,-9.68416 l -0.006,-3.05149 -0.93741,-1.74098 c -0.39408,-0.73079 -0.69276,-1.51027 -0.88935,-2.31666 l -0.96584,-3.97185 c -0.0862,-0.15353 -0.16854,-0.31128 -0.24649,-0.47025 l -2.00608,-2.22467 c -1.3059,-1.4464 -2.14718,-3.25279 -2.41691,-5.18263 l -0.14004,-0.99891 c -0.53322,-3.82109 1.23741,-7.59854 4.51445,-9.633 l 0.47026,-0.29249 0.62166,-1.74305 c 0.57359,-1.25956 1.40983,-2.38078 2.45153,-3.29178 0.0282,-0.22526 0.0649,-0.45006 0.10852,-0.67232 l 0.52969,-1.43092 1.82056,1.31982 1.75958,-2.42879 -2.49855,-1.81074 0.29352,-0.79375 c 0.42505,-1.14663 1.05927,-2.19573 1.8619,-3.09749 l 4.39301,0.93224 0.6227,-2.93367 -1.92443,-0.40927 0.64389,-0.41135 0.0475,-0.0693 c 0.12456,-0.65347 0.31502,-1.29464 0.57,-1.91099 l 1.65933,-2.19832 c 0.0903,-0.0941 0.18135,-0.1876 0.27595,-0.27801 l 2.27118,1.64486 1.76113,-2.42983 -1.81488,-1.3131 c 0.41398,-0.84523 0.94888,-1.62793 1.58802,-2.32234 l 1.41077,-1.3627 c 0.5856,-0.43258 1.21695,-0.79835 1.88464,-1.09141 l 0.0248,-0.0186 0.9896,-1.61489 c 0.14369,-0.75308 0.37599,-1.48712 0.69247,-2.1854 l 1.81746,-3.16621 c 0.49848,-0.6542 1.0778,-1.24443 1.72444,-1.75287 -0.94192,-5.22842 2.45138,-10.0869 7.38095,-11.22774 0.70464,-0.16353 1.4403,-0.24977 2.19831,-0.25218 l 15.5851,0.0108 z m -0.16278,10.00249 -16.36076,0.20774 -15.28124,-0.009 5.2e-4,5.2e-4 0.17673,0.91002 1.32292,0.47542 c 0.0534,0.0193 0.0977,0.0564 0.12661,0.10439 l 1.3193,2.14716 c 0.0262,0.0405 0.0389,0.0878 0.0388,0.13539 l -0.0129,0.94826 c -0.002,0.0727 -0.0335,0.14116 -0.0899,0.18707 l -3.97857,3.32279 c -0.0438,0.0365 -0.0987,0.0557 -0.15606,0.0568 l -1.74512,0.0413 -1.71824,2.99362 -0.11162,1.20354 c -0.004,0.0375 -0.016,0.075 -0.0367,0.108 l -2.49235,4.06074 c -0.0116,0.0216 -0.0288,0.0411 -0.0481,0.0579 l -1.68724,1.47382 c -0.0288,0.0242 -0.0608,0.0421 -0.0961,0.0527 l -0.92345,0.26716 -1.31982,1.27538 -0.54725,1.62109 c -0.0103,0.035 -0.0283,0.066 -0.0532,0.092 l -1.27072,1.34411 c -0.0237,0.0235 -0.0519,0.0439 -0.0827,0.0563 l -1.17047,0.50798 -1.56683,2.07481 0.0615,0.91726 c 0.003,0.0566 -0.0128,0.11332 -0.0455,0.15864 l -1.57768,2.26085 c -0.0183,0.0263 -0.0436,0.0494 -0.0718,0.0661 l -3.26905,2.09342 -1.85932,5.02553 0.0537,1.90738 c 0.003,0.0828 -0.0357,0.16103 -0.0997,0.20929 l -2.51819,1.8464 -1.27021,3.57032 -0.25941,2.2717 c -0.0125,0.10422 -0.0884,0.19029 -0.19017,0.21394 l -2.9192,0.69453 -0.43099,0.26716 0.10594,0.76223 3.49746,3.87625 0.76791,0.0207 c 0.25704,0.01 0.33288,0.35631 0.10336,0.47284 l -0.86042,0.42633 0.16227,1.16272 0.68574,0.63511 c 0.0356,0.0341 0.0607,0.0767 0.0729,0.12402 l 1.01802,4.19302 2.24689,4.17288 c 0.0246,0.0442 0.0351,0.095 0.0289,0.14572 l -0.15761,1.45986 0.01,3.43959 2.3089,-0.12661 2.71611,-0.87592 1.09193,-0.79065 c 0.0726,-0.0517 0.16927,-0.0614 0.25115,-0.0248 l 1.71152,0.78083 c 0.0775,0.0366 0.13293,0.10895 0.14418,0.19275 l 0.24908,1.78646 c 0.007,0.0479 -7e-5,0.098 -0.0222,0.14262 l -0.74983,1.5596 0.71779,2.76934 1.24281,0.17312 0.47646,-0.6966 0.10594,-2.27687 c 0.006,-0.12609 0.10599,-0.22774 0.23151,-0.23719 l 35.95749,-2.62361 1.69396,-4.44263 0.27647,-1.6185 c 0.006,-0.0402 0.0218,-0.0767 0.0455,-0.10956 l 0.88884,-1.17667 0.19585,-0.94206 -1.04438,-4.38526 c -0.009,-0.0398 -0.01,-0.081 10e-4,-0.12196 l 1.12603,-4.23437 -0.59118,-1.73839 c -0.003,-0.009 -0.005,-0.0177 -0.007,-0.0264 l -0.57154,-2.55591 -1.91358,-2.45102 c -0.037,-0.0468 -0.056,-0.10529 -0.0527,-0.16536 l 0.0315,-0.80357 c 0.003,-0.0721 0.0376,-0.14013 0.0946,-0.18552 l 1.00356,-0.79685 -0.29973,-2.14302 c -0.009,-0.063 0.007,-0.12686 0.0444,-0.17932 l 1.07126,-1.50481 1.449,-4.59404 z"
       inkscape:export-filename="../assets/posts/state-cutters/example-scaffold.svg"
       inkscape:export-xdpi="95.9"
       inkscape:export-ydpi="95.9" />
    <path
       id="path30"
       d="m 442.55292,284.19229 15.56515,0.0106 0.0184,5e-5 16.62686,-0.21059 c 0.8405,-0.0113 1.49441,0.72716 1.38128,1.55983 l -4.64802,34.00268 c -0.0109,0.0759 -0.0279,0.15195 -0.0515,0.22638 l -1.46331,4.64507 c -0.0439,0.13792 -0.10834,0.26741 -0.19378,0.38514 l -0.7785,1.09138 0.24453,1.74255 c 0.0669,0.48314 -0.12579,0.96528 -0.50891,1.26785 l -0.45203,0.35968 1.48362,1.90056 c 0.1268,0.16121 0.21523,0.34813 0.25963,0.54737 l 0.57266,2.55498 0.58544,1.72462 c 0.0867,0.25666 0.0966,0.5325 0.0273,0.79458 l -1.05645,3.97556 0.97732,4.10274 c 0.0466,0.19717 0.0502,0.40129 0.008,0.59852 l -0.21791,1.05075 c -0.0417,0.19897 -0.12642,0.38609 -0.24822,0.54891 l -0.72153,0.95472 -0.22349,1.30847 c -0.015,0.088 -0.0389,0.17449 -0.0705,0.25875 l -1.7601,4.6158 c -0.19029,0.499 -0.65102,0.8419 -1.18292,0.88078 l -34.90033,2.54706 -0.0525,1.12997 c -0.0119,0.25463 -0.0946,0.50076 -0.2385,0.71129 l -0.60497,0.88272 c -0.29473,0.43296 -0.8096,0.66053 -1.32746,0.58817 l -1.56135,-0.22045 c -0.5487,-0.0783 -0.99759,-0.47911 -1.13749,-1.01702 l -0.78368,-3.01912 c -0.0827,-0.31588 -0.0495,-0.64885 0.0913,-0.94203 l 0.60894,-1.26711 -0.0873,-0.62442 -0.29912,-0.13755 -0.4754,0.34479 c -0.11703,0.0828 -0.24569,0.14891 -0.38198,0.1929 l -2.78714,0.89953 c -0.11304,0.0372 -0.22937,0.0588 -0.34825,0.0669 l -2.60043,0.14307 c -0.78713,0.0435 -1.44809,-0.58274 -1.44966,-1.37066 l -0.009,-3.71224 c -7e-4,-0.0494 0.002,-0.0998 0.007,-0.14967 l 0.11292,-1.05586 -2.05823,-3.82348 c -0.0555,-0.1038 -0.0974,-0.21283 -0.12457,-0.32723 l -0.92964,-3.82229 -0.44808,-0.41536 c -0.23281,-0.21428 -0.38411,-0.5051 -0.42776,-0.81889 l -0.19979,-1.43018 c -0.0112,-0.1094 -0.009,-0.22062 0.005,-0.32965 l -3.13759,-3.47796 c -0.18425,-0.20442 -0.3036,-0.46009 -0.34142,-0.73261 l -0.13966,-0.99935 c -0.0749,-0.53921 0.17476,-1.07172 0.63737,-1.3588 l 0.60271,-0.37354 c 0.12567,-0.0786 0.26225,-0.13615 0.40607,-0.17061 l 2.02165,-0.48074 0.15234,-1.33559 c 0.0125,-0.10409 0.0358,-0.20617 0.0718,-0.30517 l 1.30897,-3.67835 c 0.0921,-0.25884 0.26031,-0.48499 0.48143,-0.64701 l 1.99498,-1.46402 -0.037,-1.23577 c -0.005,-0.17537 0.025,-0.35102 0.0856,-0.51612 l 1.90476,-5.14441 c 0.10412,-0.28044 0.29609,-0.52134 0.54761,-0.68232 l 3.112,-1.99363 1.14541,-1.6391 -0.0357,-0.52563 c -0.0222,-0.32966 0.0745,-0.65799 0.27446,-0.92092 l 1.65906,-2.19827 c 0.14268,-0.18955 0.33285,-0.33797 0.54872,-0.43194 l 0.97796,-0.42421 0.8696,-0.91964 0.46989,-1.39585 c 0.0716,-0.20719 0.19209,-0.39537 0.34935,-0.54881 l 1.41124,-1.36286 c 0.16157,-0.15566 0.35792,-0.27009 0.57368,-0.33235 l 0.68928,-0.19814 1.29552,-1.13434 2.21774,-3.61218 0.0866,-0.93218 c 0.0175,-0.19664 0.0777,-0.38664 0.17617,-0.55803 l 1.81655,-3.16505 c 0.23998,-0.41798 0.67954,-0.6794 1.16015,-0.69102 l 1.40543,-0.0326 3.09014,-2.58315 -0.82485,-1.34165 -1.00253,-0.36156 c -0.45487,-0.16407 -0.79159,-0.55598 -0.88317,-1.03269 l -0.26134,-1.34791 c -0.16381,-0.84871 0.48641,-1.63569 1.35214,-1.63515 z m 0.45239,1.74901 15.1289,0.01 16.21732,-0.20562 -4.58773,33.5476 -1.43298,4.55116 -1.06161,1.48842 c -0.0564,0.0781 -0.0807,0.17532 -0.0684,0.26993 l 0.29058,2.07319 -0.94756,0.75157 c -0.0846,0.0675 -0.13709,0.16911 -0.14124,0.27927 l -0.032,0.80377 c -0.004,0.0889 0.0247,0.17594 0.0798,0.24585 l 1.89623,2.42851 0.56622,2.53029 c 0.003,0.0125 0.006,0.026 0.009,0.0382 l 0.57965,1.70181 -1.11593,4.19807 c -0.0173,0.0606 -0.0169,0.12357 -0.002,0.18448 l 1.0383,4.35908 -0.18585,0.88709 -0.87136,1.15333 c -0.0361,0.0484 -0.0596,0.10439 -0.0687,0.16429 l -0.27331,1.60314 -1.66238,4.35813 -35.8768,2.61863 c -0.19029,0.0131 -0.33999,0.16701 -0.34824,0.35754 l -0.10542,2.24085 -0.41014,0.60202 -1.08426,-0.153 -0.68711,-2.64393 0.73057,-1.51746 c 0.0319,-0.0657 0.0435,-0.13967 0.0335,-0.21357 l -0.24975,-1.78508 c -0.018,-0.1268 -0.0983,-0.23602 -0.21456,-0.28975 l -1.7124,-0.77981 c -0.12285,-0.0564 -0.26762,-0.0425 -0.3762,0.0365 l -1.0801,0.77895 -2.68229,0.86615 -2.15813,0.1191 -0.007,-3.2962 0.15726,-1.45871 c 0.008,-0.0758 -0.007,-0.15216 -0.0438,-0.21897 l -2.23764,-4.15733 -1.01477,-4.17742 c -0.0169,-0.0726 -0.0554,-0.1387 -0.10943,-0.18809 l -0.65411,-0.60567 -0.14331,-1.02897 0.77992,-0.3855 c 0.34686,-0.17467 0.23252,-0.69576 -0.15655,-0.70869 l -0.71588,-0.0183 -3.43355,-3.80844 -0.0906,-0.64333 0.34625,-0.21458 2.89774,-0.69126 c 0.15342,-0.0356 0.26793,-0.16399 0.28664,-0.32198 l 0.25705,-2.25425 1.25471,-3.52548 2.4827,-1.82126 c 0.10018,-0.0737 0.15801,-0.18954 0.15293,-0.31477 l -0.054,-1.88452 1.83681,-4.96014 3.23402,-2.07202 c 0.0419,-0.0256 0.0782,-0.0601 0.10697,-0.0998 l 1.57712,-2.25966 c 0.0491,-0.0695 0.0746,-0.15359 0.0675,-0.23981 l -0.059,-0.87152 1.51671,-2.00859 1.14375,-0.49662 c 0.0463,-0.0203 0.0896,-0.0487 0.12412,-0.0852 l 1.26963,-1.34264 c 0.0379,-0.04 0.0655,-0.0878 0.0829,-0.13898 l 0.53893,-1.59527 1.27469,-1.23272 0.89198,-0.25614 c 0.0529,-0.0143 0.10128,-0.0414 0.14344,-0.0774 l 1.68721,-1.47393 c 0.028,-0.026 0.0529,-0.0555 0.0728,-0.087 l 2.49108,-4.06181 c 0.0316,-0.049 0.05,-0.1028 0.0556,-0.16126 l 0.10799,-1.17162 1.67142,-2.91394 1.67546,-0.0394 c 0.0851,-0.001 0.16735,-0.0321 0.23221,-0.0864 l 3.9779,-3.3222 c 0.0831,-0.0702 0.13182,-0.17363 0.13314,-0.2832 l 0.0132,-0.94823 c 10e-4,-0.0712 -0.0174,-0.14022 -0.0552,-0.20133 l -1.3195,-2.14714 c -0.0445,-0.0722 -0.11237,-0.12797 -0.19208,-0.15602 l -1.25443,-0.45178 -0.13491,-0.69348 v 0 z"
       style="fill:#cccc00;fill-opacity:1;fill-rule:evenodd;stroke:none;stroke-width:0.352778" />
    <path
       d="m 392.44832,372.32313 h 8.32885 v 3 h 3.34228 v -3 h 8.32885 v 26 h -19.99998 z m 3,20 v 3 h 13.99998 v -3 h -5.32885 v -7 h -3.34228 v 7 z"
       style="fill:#000066;fill-opacity:1;stroke:#00aaaa;stroke-width:0.264583;stroke-dasharray:none;stroke-opacity:1"
       us_state="ga"
       part="end_frame_l"
       id="path5601" />
    <path
       d="m 399.38617,377.23359 q 0.35383,-0.0173 0.83711,0.009 0.89752,0.10356 1.3808,0.56095 0.19849,0.18986 0.33657,0.44013 l 0.0345,0.0518 -0.0604,0.0604 -0.37109,0.3452 q -0.2589,0.23301 -0.35383,0.32794 l -0.0518,0.0431 -0.0777,-0.0345 -0.069,-0.0345 -0.0259,-0.0518 q -0.23301,-0.63862 -0.56958,-0.95793 -0.2589,-0.2589 -0.66451,-0.32794 -0.0777,-0.0173 -0.29342,-0.0173 -0.26753,0 -0.46602,0.0518 -0.9493,0.23301 -1.31176,1.2945 -0.24164,0.70766 -0.18986,1.58792 0.0777,1.16505 0.73355,1.82093 0.49191,0.47465 1.2945,0.58684 0.0863,0.009 0.4315,0.009 0.47465,0 0.58684,-0.0345 0.11219,-0.0259 0.12945,-0.12945 0.0345,-0.12945 0.0173,-1.25998 0,-0.12945 -0.009,-0.14671 -0.0432,-0.21575 -0.24164,-0.27616 -0.0259,-0.009 -0.71629,-0.0432 -0.7767,-0.0518 -0.76807,-0.0518 h -0.0777 v -0.16397 -0.16397 h 0.10356 q 2.83064,-0.11219 2.83927,-0.11219 v 0.0777 q -0.0259,0.25027 -0.0259,0.9493 0,0.62999 0.0345,1.13916 0.009,0.13808 0.009,0.25027 l -0.74218,0.18123 q -0.76807,0.16397 -1.36354,0.22438 -0.46602,0.0345 -0.94067,0 -1.00108,-0.12082 -1.58792,-0.6041 -0.21575,-0.15534 -0.37109,-0.37109 -0.41424,-0.5178 -0.54369,-1.25998 -0.19849,-1.07875 0.15534,-2.03668 0.13808,-0.33657 0.2589,-0.5178 0.44876,-0.71629 1.23409,-1.07012 0.65588,-0.29342 1.47573,-0.3452 z m 5.33031,0.20712 q 0,-0.0173 0.96656,-0.0173 h 0.96656 l 0.0173,0.0777 q 0.11219,0.4315 0.21575,0.74218 l 0.74218,2.45092 q 0.54369,1.75189 0.95793,2.03668 0.0949,0.069 0.25027,0.0777 0.14671,0 0.37972,-0.0431 0.12945,-0.0259 0.13808,-0.0259 l 0.0431,0.25027 -0.57821,0.24164 q -0.49191,0.18123 -0.73355,0.22438 -0.0604,0.009 -0.22438,0.009 -0.22438,0 -0.35383,-0.069 -0.1726,-0.0777 -0.3452,-0.41424 -0.10356,-0.19849 -0.35383,-1.1219 -0.0345,-0.10356 -0.069,-0.24164 -0.16397,-0.56095 -0.16397,-0.56958 0,-0.009 -1.08738,-0.009 h -1.07875 l -0.0604,0.10356 q -0.37109,0.72492 -0.87163,2.04531 -0.0259,0.069 -0.0432,0.069 -0.0604,0 -0.53506,0.0431 -0.5178,0.0518 -0.52643,0.0518 l -0.0173,-0.0432 v -0.0431 l 0.24164,-0.36246 q 1.61381,-2.43366 2.85653,-4.79828 l 0.0949,-0.18123 -0.009,-0.0345 -0.009,-0.0432 -0.39698,-0.0518 -0.41424,-0.0518 q -0.009,0 -0.009,-0.14671 0,-0.15534 0.009,-0.15534 z m 1.11327,1.27724 q -0.0604,-0.13808 -0.0604,-0.14671 -0.0604,0.009 -0.0949,0.069 0,0.009 -0.0173,0.0345 -0.28479,0.46602 -0.82848,1.62244 -0.13808,0.28479 -0.12082,0.28479 l 1.70874,0.009 -0.12082,-0.41424 q -0.29342,-0.95793 -0.46602,-1.45847 z"
       id="text5603"
       style="font-size:8.63px;font-family:jsMath-eurb10;text-align:center;letter-spacing:-0.4px;text-anchor:middle;fill:#cccc00;fill-opacity:1"
       aria-label="GA" />
    <path
       d="m 397.5108,388.33121 -0.17732,0.9152 h 0.78364 v 0.38324 h -0.858 l -0.23452,1.19548 h -0.40612 l 0.23452,-1.19548 h -0.81796 l -0.22308,1.19548 h -0.4004 l 0.21736,-1.19548 h -0.72072 v -0.38324 h 0.79508 l 0.18304,-0.9152 h -0.76648 v -0.37752 h 0.83512 l 0.2288,-1.21264 h 0.41184 l -0.2288,1.21264 h 0.82368 l 0.2288,-1.21264 h 0.39468 l -0.2288,1.21264 h 0.72644 v 0.37752 z m -1.4014,0.9152 h 0.81796 l 0.17732,-0.9152 h -0.81796 z"
       id="text5605"
       style="font-size:5.72px;font-family:'Noto Sans';text-align:center;text-anchor:middle;fill:#cccc00;fill-opacity:1"
       aria-label="#" />
    <path
       d="m 408.73007,386.86117 0.29744,-0.0858 0.0229,0.0286 q 0.0286,0.0286 0.0286,0.0458 0,0.12584 -0.0286,1.28128 -0.0286,1.16116 -0.0286,1.26984 l 0.32032,0.006 q 0.32032,0.006 0.33176,0.0172 l 0.0114,0.0114 -0.0858,0.1716 -0.0858,0.1716 h -0.24024 -0.24024 v 0.21736 l 0.0114,0.30888 q 0.0114,0.286 0.0286,0.33176 0,0.0114 -0.30316,0.13156 -0.30888,0.12584 -0.3146,0.12584 l -0.0286,-0.0229 -0.0343,-0.0229 -0.006,-0.006 -0.0114,-0.0114 0.006,-0.0858 q 0.04,-0.3432 0.0515,-0.78364 v -0.18304 h -0.85228 -0.858 v -0.15444 -0.14872 l 0.85228,-1.2584 0.85228,-1.26412 q 0,-0.006 0.30316,-0.0915 z m -0.32032,0.66924 -0.0114,-0.0229 q -0.0515,0 -0.3432,0.39468 -0.0114,0.0229 -0.0286,0.0458 -0.38896,0.53196 -0.74932,1.17832 -0.0744,0.13156 -0.0858,0.16588 -0.0114,0.04 0,0.0572 0.0114,0.0172 0.0229,0.0172 l 1.21836,0.0229 q 0,-0.41756 -0.006,-0.92092 -0.006,-0.9152 -0.0172,-0.93808 z"
       id="text5607"
       style="font-size:5.72px;font-family:jsMath-eurb10;text-align:center;letter-spacing:-0.26px;text-anchor:middle;fill:#cccc00;fill-opacity:1"
       aria-label="4" />
    <path
       d="m 415.44832,372.32313 h 7.69242 v 3 h 4.61514 v -3 h 7.69242 v 26 h -19.99998 z m 3,20 v 3 h 13.99998 v -3 h -4.69242 v -7 h -4.61514 v 7 z"
       style="fill:#000066;fill-opacity:1;stroke:#00aaaa;stroke-width:0.264583;stroke-dasharray:none;stroke-opacity:1"
       us_state="ga"
       part="end_frame_r"
       id="path5611" />
    <path
       d="m 422.3862,377.23359 q 0.35383,-0.0173 0.83711,0.009 0.89752,0.10356 1.3808,0.56095 0.19849,0.18986 0.33657,0.44013 l 0.0345,0.0518 -0.0604,0.0604 -0.37109,0.3452 q -0.2589,0.23301 -0.35383,0.32794 l -0.0518,0.0431 -0.0777,-0.0345 -0.069,-0.0345 -0.0259,-0.0518 q -0.23301,-0.63862 -0.56958,-0.95793 -0.2589,-0.2589 -0.66451,-0.32794 -0.0777,-0.0173 -0.29342,-0.0173 -0.26753,0 -0.46602,0.0518 -0.9493,0.23301 -1.31176,1.2945 -0.24164,0.70766 -0.18986,1.58792 0.0777,1.16505 0.73355,1.82093 0.49191,0.47465 1.2945,0.58684 0.0863,0.009 0.4315,0.009 0.47465,0 0.58684,-0.0345 0.11219,-0.0259 0.12945,-0.12945 0.0345,-0.12945 0.0173,-1.25998 0,-0.12945 -0.009,-0.14671 -0.0432,-0.21575 -0.24164,-0.27616 -0.0259,-0.009 -0.71629,-0.0432 -0.7767,-0.0518 -0.76807,-0.0518 h -0.0777 v -0.16397 -0.16397 h 0.10356 q 2.83064,-0.11219 2.83927,-0.11219 v 0.0777 q -0.0259,0.25027 -0.0259,0.9493 0,0.62999 0.0345,1.13916 0.009,0.13808 0.009,0.25027 l -0.74218,0.18123 q -0.76807,0.16397 -1.36354,0.22438 -0.46602,0.0345 -0.94067,0 -1.00108,-0.12082 -1.58792,-0.6041 -0.21575,-0.15534 -0.37109,-0.37109 -0.41424,-0.5178 -0.54369,-1.25998 -0.19849,-1.07875 0.15534,-2.03668 0.13808,-0.33657 0.2589,-0.5178 0.44876,-0.71629 1.23409,-1.07012 0.65588,-0.29342 1.47573,-0.3452 z m 5.33031,0.20712 q 0,-0.0173 0.96656,-0.0173 h 0.96656 l 0.0173,0.0777 q 0.11219,0.4315 0.21575,0.74218 l 0.74218,2.45092 q 0.54369,1.75189 0.95793,2.03668 0.0949,0.069 0.25027,0.0777 0.14671,0 0.37972,-0.0431 0.12945,-0.0259 0.13808,-0.0259 l 0.0432,0.25027 -0.57821,0.24164 q -0.49191,0.18123 -0.73355,0.22438 -0.0604,0.009 -0.22438,0.009 -0.22438,0 -0.35383,-0.069 -0.1726,-0.0777 -0.3452,-0.41424 -0.10356,-0.19849 -0.35383,-1.1219 -0.0345,-0.10356 -0.069,-0.24164 -0.16397,-0.56095 -0.16397,-0.56958 0,-0.009 -1.08738,-0.009 h -1.07875 l -0.0604,0.10356 q -0.37109,0.72492 -0.87163,2.04531 -0.0259,0.069 -0.0432,0.069 -0.0604,0 -0.53506,0.0431 -0.5178,0.0518 -0.52643,0.0518 l -0.0173,-0.0432 v -0.0431 l 0.24164,-0.36246 q 1.61381,-2.43366 2.85653,-4.79828 l 0.0949,-0.18123 -0.009,-0.0345 -0.009,-0.0432 -0.39698,-0.0518 -0.41424,-0.0518 q -0.009,0 -0.009,-0.14671 0,-0.15534 0.009,-0.15534 z m 1.11327,1.27724 q -0.0604,-0.13808 -0.0604,-0.14671 -0.0604,0.009 -0.0949,0.069 0,0.009 -0.0173,0.0345 -0.28479,0.46602 -0.82848,1.62244 -0.13808,0.28479 -0.12082,0.28479 l 1.70874,0.009 -0.12082,-0.41424 q -0.29342,-0.95793 -0.46602,-1.45847 z"
       id="text5613"
       style="font-size:8.63px;font-family:jsMath-eurb10;text-align:center;letter-spacing:-0.4px;text-anchor:middle;fill:#cccc00;fill-opacity:1"
       aria-label="GA" />
    <path
       d="m 420.19257,388.33121 -0.17732,0.9152 h 0.78364 v 0.38324 h -0.858 l -0.23452,1.19548 h -0.40612 l 0.23452,-1.19548 h -0.81796 l -0.22308,1.19548 h -0.4004 l 0.21736,-1.19548 h -0.72072 v -0.38324 h 0.79508 l 0.18304,-0.9152 h -0.76648 v -0.37752 h 0.83512 l 0.2288,-1.21264 h 0.41184 l -0.2288,1.21264 h 0.82368 l 0.2288,-1.21264 h 0.39468 l -0.2288,1.21264 h 0.72644 v 0.37752 z m -1.4014,0.9152 h 0.81796 l 0.17732,-0.9152 h -0.81796 z"
       id="text5615"
       style="font-size:5.72px;font-family:'Noto Sans';text-align:center;text-anchor:middle;fill:#cccc00;fill-opacity:1"
       aria-label="#" />
    <path
       d="m 432.04827,386.86117 0.29744,-0.0858 0.0229,0.0286 q 0.0286,0.0286 0.0286,0.0458 0,0.12584 -0.0286,1.28128 -0.0286,1.16116 -0.0286,1.26984 l 0.32032,0.006 q 0.32032,0.006 0.33176,0.0172 l 0.0114,0.0114 -0.0858,0.1716 -0.0858,0.1716 h -0.24024 -0.24024 v 0.21736 l 0.0114,0.30888 q 0.0114,0.286 0.0286,0.33176 0,0.0114 -0.30316,0.13156 -0.30888,0.12584 -0.3146,0.12584 l -0.0286,-0.0229 -0.0343,-0.0229 -0.006,-0.006 -0.0114,-0.0114 0.006,-0.0858 q 0.04,-0.3432 0.0515,-0.78364 v -0.18304 h -0.85228 -0.858 v -0.15444 -0.14872 l 0.85228,-1.2584 0.85228,-1.26412 q 0,-0.006 0.30316,-0.0915 z m -0.32032,0.66924 -0.0114,-0.0229 q -0.0515,0 -0.3432,0.39468 -0.0114,0.0229 -0.0286,0.0458 -0.38896,0.53196 -0.74932,1.17832 -0.0744,0.13156 -0.0858,0.16588 -0.0114,0.04 0,0.0572 0.0114,0.0172 0.0229,0.0172 l 1.21836,0.0229 q 0,-0.41756 -0.006,-0.92092 -0.006,-0.9152 -0.0172,-0.93808 z"
       id="text5617"
       style="font-size:5.72px;font-family:jsMath-eurb10;text-align:center;letter-spacing:-0.26px;text-anchor:middle;fill:#cccc00;fill-opacity:1"
       aria-label="4" />
    <circle
       cx="425.4483"
       cy="396.82312"
       r="0.25"
       style="fill:#cccc00;fill-opacity:1"
       us_state="ga"
       part="end_distinguisher_r"
       id="circle5619" />
    <path
       d="m 438.44832,372.32313 h 64.70715 v 3 h -3.80757 v 10 h 3.80757 v 10 h -3 v -3 h -7 v -3 h -44.70715 v 3 h -7 v 3 h -3 v -10 h 3.17114 v -10 h -3.17114 z"
       style="fill:#000066;fill-opacity:1;stroke:#00aaaa;stroke-width:0.264583;stroke-dasharray:none;stroke-opacity:1"
       us_state="ga"
       part="handle_frame"
       id="path5623" />
    <path
       d="m 455.47095,377.304 q 0.40303,-0.0197 0.95351,0.01 1.02232,0.11796 1.5728,0.63895 0.22609,0.21626 0.38337,0.50133 l 0.0393,0.059 -0.0688,0.0688 -0.42269,0.3932 q -0.2949,0.26541 -0.40303,0.37354 l -0.059,0.0491 -0.0885,-0.0393 -0.0786,-0.0393 -0.0295,-0.059 q -0.26541,-0.72742 -0.64878,-1.09113 -0.2949,-0.2949 -0.75691,-0.37354 -0.0885,-0.0197 -0.33422,-0.0197 -0.30473,0 -0.53082,0.059 -1.0813,0.26541 -1.49416,1.4745 -0.27524,0.80606 -0.21626,1.80872 0.0885,1.32705 0.83555,2.07413 0.56031,0.54065 1.4745,0.66844 0.0983,0.01 0.4915,0.01 0.54065,0 0.66844,-0.0393 0.12779,-0.0295 0.14745,-0.14745 0.0393,-0.14745 0.0197,-1.43518 0,-0.14745 -0.01,-0.16711 -0.0491,-0.24575 -0.27524,-0.31456 -0.0295,-0.01 -0.81589,-0.0491 -0.8847,-0.059 -0.87487,-0.059 h -0.0885 v -0.18677 -0.18677 h 0.11796 q 3.22424,-0.12779 3.23407,-0.12779 v 0.0885 q -0.0295,0.28507 -0.0295,1.0813 0,0.71759 0.0393,1.29756 0.01,0.15728 0.01,0.28507 l -0.84538,0.20643 q -0.87487,0.18677 -1.55314,0.25558 -0.53082,0.0393 -1.07147,0 -1.14028,-0.13762 -1.80872,-0.6881 -0.24575,-0.17694 -0.42269,-0.42269 -0.47184,-0.5898 -0.61929,-1.43518 -0.22609,-1.22875 0.17694,-2.31988 0.15728,-0.38337 0.2949,-0.5898 0.51116,-0.81589 1.40569,-1.21892 0.74708,-0.33422 1.68093,-0.3932 z m 6.70606,2.11345 0.69793,0.01 q 0.66844,0.0885 1.01249,0.41286 0.22609,0.1966 0.33422,0.53082 0.059,0.18677 0.059,0.44235 0,0.16711 -0.0197,0.20643 -0.0491,0.0983 -0.17694,0.14745 l -1.65144,0.52099 -1.59246,0.48167 v 0.059 q 0,0.11796 0.0393,0.33422 0.0885,0.46201 0.41286,0.7864 0.28507,0.28507 0.71759,0.37354 0.28507,0.0491 0.60946,0 0.45218,-0.0786 1.0813,-0.37354 l 0.20643,-0.10813 0.059,0.11796 q 0.059,0.10813 0.059,0.11796 l -0.10813,0.0786 q -0.99283,0.69793 -1.77923,0.83555 -0.52099,0.0885 -1.06164,-0.059 -1.40569,-0.35388 -1.40569,-2.0643 0,-1.15994 0.63895,-1.966 0.16711,-0.20643 0.40303,-0.3932 0.57997,-0.43252 1.46467,-0.4915 z m 0.13762,0.38337 q -0.34405,-0.0491 -0.64878,0.10813 -0.48167,0.23592 -0.6881,0.90436 -0.0393,0.11796 -0.059,0.22609 -0.0197,0.0786 -0.0491,0.23592 -0.0393,0.50133 -0.01,0.4915 0,-0.01 0.99283,-0.31456 1.01249,-0.31456 1.03215,-0.33422 0.15728,-0.0786 0.18677,-0.15728 0.0197,-0.0393 0.0197,-0.15728 -0.0295,-0.4915 -0.28507,-0.74708 -0.20643,-0.20643 -0.4915,-0.25558 z m 5.20206,-0.30473 q 0.25558,-0.0197 0.72742,0.01 0.8847,0.11796 1.35654,0.5898 0.38337,0.3932 0.52099,0.93385 0.17694,0.6881 -0.059,1.56297 -0.0393,0.15728 -0.0885,0.28507 -0.25558,0.69793 -0.82572,1.06164 -0.47184,0.32439 -1.19926,0.41286 -0.37354,0.0393 -0.86504,0 -0.0295,0 -0.0491,0 -0.61929,-0.0688 -1.00266,-0.32439 -0.20643,-0.12779 -0.36371,-0.34405 -0.3932,-0.47184 -0.4915,-1.26807 -0.0393,-0.32439 0,-0.72742 0,-0.0295 0,-0.0491 0.0393,-0.38337 0.20643,-0.76674 0.40303,-0.90436 1.46467,-1.23858 0.32439,-0.0983 0.66844,-0.13762 z m 0.38337,0.3932 q -0.16711,-0.0197 -0.2949,0 -0.4915,0.059 -0.80606,0.52099 -0.30473,0.45218 -0.36371,1.24841 -0.0786,1.14028 0.33422,1.7694 0.0197,0.0197 0.0295,0.0393 0.20643,0.28507 0.48167,0.41286 0.17694,0.0885 0.37354,0.0786 0.5898,0 0.85521,-0.35388 0.14745,-0.18677 0.24575,-0.54065 0.15728,-0.51116 0.16711,-1.25824 0,-0.47184 -0.0491,-0.74708 -0.0983,-0.60946 -0.40303,-0.89453 -0.23592,-0.21626 -0.57014,-0.27524 z m 4.18958,-0.41286 q 0.18677,-0.0197 0.37354,0.0197 0.23592,0.059 0.31456,0.23592 0.0688,0.16711 0.0983,0.50133 v 0.11796 l 0.059,0.01 h 0.0491 l 0.16711,-0.15728 q 0.14745,-0.14745 0.26541,-0.24575 0.43252,-0.34405 0.79623,-0.44235 0.0786,-0.0197 0.24575,-0.0197 0.23592,0 0.3932,0.0885 0.35388,0.17694 0.38337,0.66844 v 0.11796 l -0.34405,0.27524 q -0.35388,0.26541 -0.37354,0.28507 -0.01,0.01 -0.0688,-0.0295 -0.0491,-0.0295 -0.059,-0.0295 -0.01,0 -0.0295,-0.0885 -0.0491,-0.17694 -0.16711,-0.2949 -0.32439,-0.32439 -0.80606,-0.0197 -0.28507,0.1966 -0.38337,0.44235 -0.11796,0.31456 -0.12779,0.75691 0,0.28507 0.0688,1.25824 0.0786,0.8847 0.0786,1.01249 l -0.52099,0.1966 -0.52099,0.18677 -0.0786,-0.0295 -0.0885,-0.0197 0.01,-0.14745 q 0.0295,-1.79889 0.0295,-3.11611 -0.0295,-0.72742 -0.20643,-0.80606 -0.13762,-0.0491 -0.28507,-0.01 -0.17694,0.0295 -0.47184,0.26541 l -0.0295,0.0295 -0.0885,-0.11796 q -0.0885,-0.0983 -0.0786,-0.12779 0.0885,-0.0885 0.47184,-0.34405 0.54065,-0.35388 0.92402,-0.42269 z m 5.88034,-0.0688 0.72742,0.01 q 0.50133,0.0688 0.81589,0.16711 0.13762,0.0393 0.15728,0.0393 0.0295,0.01 0.27524,-0.10813 l 0.24575,-0.11796 0.059,0.0197 0.0688,0.0197 v 0.48167 q 0,0.65861 0.0688,2.0643 0.0491,0.85521 0.01,1.43518 -0.0983,1.09113 -0.43252,1.64161 -0.31456,0.50133 -1.07147,0.86504 -0.46201,0.22609 -1.06164,0.31456 -0.43252,0.0393 -0.7864,-0.01 -0.48167,-0.0786 -0.75691,-0.25558 -0.17694,-0.0983 -0.28507,-0.20643 l -0.0393,-0.0491 0.26541,-0.42269 q 0.26541,-0.44235 0.27524,-0.44235 0.01,-0.01 0.12779,0 l 0.12779,0.0197 0.0786,0.12779 q 0.18677,0.2949 0.31456,0.42269 0.3932,0.3932 0.84538,0.36371 0.33422,-0.0295 0.62912,-0.22609 0.18677,-0.10813 0.33422,-0.32439 0.24575,-0.36371 0.2949,-0.983 v -0.59963 q 0,-0.01 -0.11796,0.0688 -0.79623,0.57014 -1.52365,0.71759 -0.30473,0.0393 -0.54065,-0.01 -0.36371,-0.0688 -0.62912,-0.35388 -0.61929,-0.61929 -0.54065,-2.13311 0.059,-1.14028 0.43252,-1.68093 0.2949,-0.41286 0.87487,-0.66844 0.0688,-0.0295 0.12779,-0.0491 0.27524,-0.10813 0.62912,-0.13762 z m 0.59963,0.38337 q -0.30473,-0.0885 -0.71759,0.059 -0.32439,0.12779 -0.4915,0.3932 -0.43252,0.63895 -0.36371,1.72025 0.059,0.86504 0.30473,1.24841 0.10813,0.1966 0.30473,0.31456 0.24575,0.15728 0.57997,0.13762 0.66844,-0.0295 1.01249,-0.52099 l 0.0491,-0.0786 -0.0491,-1.24841 q -0.0688,-1.20909 -0.0688,-1.36637 -0.0295,-0.35388 -0.28507,-0.53082 -0.12779,-0.0786 -0.27524,-0.12779 z m 4.04213,-2.24124 q 0.40303,-0.0885 0.65861,0.21626 0.13762,0.17694 0.12779,0.3932 -0.0295,0.32439 -0.34405,0.4915 -0.33422,0.17694 -0.62912,0.0295 -0.24575,-0.12779 -0.32439,-0.40303 -0.0983,-0.36371 0.23592,-0.60946 0.11796,-0.0885 0.27524,-0.11796 z m -0.0885,1.87753 q 0.17694,-0.0197 0.36371,0.01 0.22609,0.0786 0.31456,0.24575 0.0491,0.0983 0.0786,0.2949 0.0295,0.21626 0,1.18943 l 0.01,1.84804 q 0,0.0295 0,0.0393 0.0295,0.17694 0.0786,0.27524 0.11796,0.25558 0.37354,0.21626 0.0295,0 0.059,-0.01 0.23592,-0.0786 0.50133,-0.37354 l 0.0786,-0.0786 0.10813,0.0983 q 0.10813,0.0983 0.11796,0.10813 0,0.0393 -0.34405,0.41286 -0.26541,0.25558 -0.51116,0.42269 -0.55048,0.37354 -0.99283,0.21626 -0.35388,-0.0983 -0.44235,-0.4915 -0.059,-0.20643 -0.0688,-1.10096 0,-0.20643 0,-0.75691 -0.01,-1.51382 -0.0197,-1.56297 -0.0393,-0.12779 -0.12779,-0.21626 -0.0885,-0.0885 -0.23592,-0.0786 -0.23592,0.0295 -0.50133,0.23592 l -0.0885,0.0786 -0.10813,-0.10813 -0.0983,-0.10813 0.0295,-0.0197 q 0.20643,-0.16711 0.42269,-0.30473 0.56031,-0.3932 1.00266,-0.48167 z m 4.68108,-0.0491 q 0.7864,-0.059 1.59246,0.33422 l 0.15728,0.0688 0.28507,-0.17694 q 0.27524,-0.18677 0.30473,-0.18677 0.01,0 0.0688,0.0393 l 0.059,0.0393 v 0.0491 q -0.059,0.44235 -0.0983,1.21892 -0.0393,0.54065 -0.0393,1.35654 0,1.09113 0.0885,1.2779 0.10813,0.22609 0.38337,0.10813 0.17694,-0.0688 0.40303,-0.26541 l 0.12779,-0.10813 0.0885,0.0983 q 0.0786,0.0885 0.0885,0.0983 0.01,0.0295 -0.27524,0.33422 -0.50133,0.50133 -0.95351,0.64878 -0.37354,0.13762 -0.66844,0.0295 -0.30473,-0.0885 -0.38337,-0.63895 l -0.0197,-0.0786 -0.18677,0.11796 q -0.97317,0.65861 -1.73008,0.65861 -0.20643,0 -0.2949,-0.0197 -0.32439,-0.0688 -0.56031,-0.31456 -0.41286,-0.44235 -0.53082,-1.34671 -0.0393,-0.38337 -0.01,-0.95351 0.01,-0.059 0.01,-0.0885 0.16711,-1.32705 0.8847,-1.88736 0.46201,-0.35388 1.20909,-0.41286 z m 0.51116,0.37354 q -0.53082,-0.0786 -0.94368,0.33422 -0.21626,0.21626 -0.35388,0.56031 -0.20643,0.52099 -0.21626,1.15011 -0.01,0.63895 0.13762,1.11079 0.10813,0.31456 0.28507,0.50133 0.0885,0.0786 0.1966,0.13762 0.18677,0.0885 0.43252,0.0885 0.17694,0 0.23592,-0.01 0.55048,-0.12779 0.85521,-0.57014 l 0.0295,-0.0491 0.0197,-0.26541 q 0.10813,-1.6711 0.0393,-2.15277 -0.0295,-0.16711 -0.0983,-0.34405 -0.0983,-0.25558 -0.31456,-0.38337 -0.12779,-0.0885 -0.30473,-0.10813 z"
       id="text5625"
       style="font-size:9.83px;font-family:jsMath-eurb10;text-align:center;letter-spacing:-0.46px;text-anchor:middle;fill:#cccc00;fill-opacity:1"
       aria-label="Georgia" />
  </g>
</svg>
