<?xml version="1.0" encoding="UTF-8" standalone="no"?>
<!-- Created with Inkscape (http://www.inkscape.org/) -->

<svg
   width="102.59697mm"
   height="58.562027mm"
   viewBox="0 0 102.59697 58.562027"
   version="1.1"
   id="svg1"
   inkscape:version="1.3.2 (1:1.3.2+202311252150+091e20ef0f)"
   sodipodi:docname="state-cutters.svg"
   xmlns:inkscape="http://www.inkscape.org/namespaces/inkscape"
   xmlns:sodipodi="http://sodipodi.sourceforge.net/DTD/sodipodi-0.dtd"
   xmlns="http://www.w3.org/2000/svg"
   xmlns:svg="http://www.w3.org/2000/svg">
  <sodipodi:namedview
     id="namedview1"
     pagecolor="#ffffff"
     bordercolor="#666666"
     borderopacity="1.0"
     inkscape:showpageshadow="2"
     inkscape:pageopacity="0.0"
     inkscape:pagecheckerboard="0"
     inkscape:deskcolor="#d1d1d1"
     inkscape:document-units="mm"
     inkscape:zoom="1.41"
     inkscape:cx="2483.6879"
     inkscape:cy="1977.305"
     inkscape:window-width="1848"
     inkscape:window-height="1016"
     inkscape:window-x="72"
     inkscape:window-y="27"
     inkscape:window-maximized="1"
     inkscape:current-layer="layer1"
     showgrid="false" />
  <defs
     id="defs1" />
  <g
     inkscape:label="Layer 1"
     inkscape:groupmode="layer"
     id="layer1"
     transform="translate(-403.37455,-436.52202)">
    <path
       d="m 403.50684,436.65432 h 102.33238 v 7.60402 h -9.6515 v 25.34671 h 9.6515 v 25.3467 h -7.60446 v -7.60402 h -17.74373 v -7.604 h -51.636 v 7.604 h -17.74374 v 7.60402 h -7.60445 v -25.3467 h 8.03826 v -25.34671 h -8.03826 z"
       style="fill:none;fill-opacity:1;stroke:#00aaaa;stroke-width:0.264582;stroke-dasharray:none;stroke-opacity:1"
       us_state="ga"
       part="handle_frame"
       id="path455"
       sodipodi:nodetypes="ccccccccccccccccccccc" />
    <path
       d="m 425.12948,449.9395 q 0.75013,-0.0366 1.7747,0.0186 1.90276,0.21953 2.92733,1.18916 0.4208,0.40248 0.71354,0.93304 l 0.0731,0.1098 -0.12805,0.12805 -0.78672,0.73178 q -0.54888,0.49397 -0.75013,0.69521 l -0.10981,0.0914 -0.16472,-0.0731 -0.1463,-0.0731 -0.0549,-0.10981 q -0.49398,-1.35381 -1.20752,-2.03072 -0.54888,-0.54884 -1.40878,-0.6952 -0.16472,-0.0366 -0.62206,-0.0366 -0.56717,0 -0.98798,0.1098 -2.01254,0.49397 -2.78097,2.74422 -0.51228,1.50017 -0.4025,3.36624 0.16472,2.4698 1.55514,3.8602 1.04286,1.00621 2.74438,1.24405 0.18296,0.0187 0.9148,0.0187 1.00626,0 1.24411,-0.0731 0.23785,-0.0549 0.27443,-0.27443 0.0731,-0.27442 0.0366,-2.67104 0,-0.27442 -0.0186,-0.31101 -0.0914,-0.45736 -0.51228,-0.58543 -0.0549,-0.0186 -1.51855,-0.0914 -1.64663,-0.10981 -1.62833,-0.10981 h -0.16472 v -0.3476 -0.3476 h 0.21954 q 6.00105,-0.23783 6.01934,-0.23783 v 0.16471 q -0.0549,0.53054 -0.0549,2.01242 0,1.33553 0.0731,2.41492 0.0186,0.29271 0.0186,0.53055 l -1.57345,0.38419 q -1.62833,0.3476 -2.89074,0.47566 -0.98798,0.0731 -1.99425,0 -2.12232,-0.25613 -3.36644,-1.28063 -0.45739,-0.3293 -0.78672,-0.78668 -0.8782,-1.09768 -1.15263,-2.67104 -0.42081,-2.28685 0.32932,-4.31757 0.29273,-0.7135 0.54887,-1.09769 0.95138,-1.51846 2.61631,-2.26855 1.39048,-0.62202 3.12859,-0.73179 z m 12.48149,3.93337 1.299,0.0186 q 1.24412,0.16471 1.88448,0.76839 0.4208,0.36589 0.62206,0.98791 0.10981,0.3476 0.10981,0.82327 0,0.31101 -0.0366,0.38419 -0.0914,0.18295 -0.32932,0.27442 l -3.0737,0.96962 -2.96393,0.89645 v 0.1098 q 0,0.21955 0.0731,0.62204 0.16472,0.85984 0.76843,1.46358 0.53057,0.53054 1.3356,0.69519 0.53057,0.0914 1.13434,0 0.8416,-0.14627 2.01253,-0.69519 l 0.38422,-0.20125 0.10982,0.21954 q 0.1098,0.20124 0.1098,0.21953 l -0.20125,0.14629 q -1.84788,1.29893 -3.31155,1.55505 -0.96967,0.16471 -1.97595,-0.10981 -2.6163,-0.6586 -2.6163,-3.8419 0,-2.15879 1.18923,-3.65895 0.31102,-0.38419 0.75012,-0.73179 1.07946,-0.80497 2.72609,-0.91475 z m 0.25614,0.7135 q -0.64035,-0.0914 -1.20752,0.20124 -0.8965,0.43908 -1.28071,1.68313 -0.0731,0.21953 -0.10982,0.42077 -0.0366,0.14629 -0.0914,0.43908 -0.0731,0.93303 -0.0186,0.91474 0,-0.0186 1.84788,-0.58544 1.88447,-0.58543 1.92107,-0.62202 0.29273,-0.14628 0.34762,-0.29271 0.0366,-0.0731 0.0366,-0.29272 -0.0549,-0.91474 -0.53059,-1.3904 -0.38421,-0.38419 -0.91479,-0.47567 z m 9.68222,-0.56713 q 0.47569,-0.0366 1.35389,0.0187 1.64663,0.21955 2.52482,1.0977 0.71354,0.73179 0.96969,1.738 0.32932,1.28064 -0.10982,2.90887 -0.0731,0.29272 -0.16471,0.53055 -0.4757,1.29893 -1.53686,1.97583 -0.8782,0.60374 -2.23209,0.76839 -0.69524,0.0731 -1.61003,0 -0.0549,0 -0.0914,0 -1.15264,-0.12805 -1.86618,-0.60374 -0.38421,-0.23782 -0.67694,-0.64031 -0.73184,-0.87814 -0.9148,-2.36002 -0.0731,-0.60374 0,-1.35383 0,-0.0549 0,-0.0914 0.0731,-0.71349 0.38422,-1.42699 0.75013,-1.68311 2.72608,-2.30514 0.60376,-0.18294 1.24412,-0.25612 z m 0.71353,0.73179 q -0.31103,-0.0366 -0.54887,0 -0.9148,0.1098 -1.50026,0.96962 -0.56718,0.84156 -0.67695,2.32344 -0.14629,2.1222 0.62206,3.29306 0.0366,0.0366 0.0549,0.0731 0.38421,0.53054 0.89649,0.76838 0.32932,0.1647 0.69524,0.14628 1.09775,0 1.59174,-0.65861 0.27444,-0.3476 0.4574,-1.00621 0.29273,-0.95133 0.31103,-2.34174 0,-0.87814 -0.0914,-1.3904 -0.18296,-1.13427 -0.75013,-1.66483 -0.4391,-0.40248 -1.06116,-0.51225 z m 7.79776,-0.76838 q 0.34762,-0.0366 0.69524,0.0366 0.4391,0.10981 0.58547,0.43908 0.12805,0.311 0.18295,0.93303 v 0.21953 l 0.10982,0.0187 h 0.0914 l 0.31102,-0.29272 q 0.27444,-0.27442 0.49399,-0.45736 0.80501,-0.64033 1.48197,-0.82328 0.14629,-0.0366 0.45739,-0.0366 0.4391,0 0.73184,0.16471 0.65865,0.3293 0.71353,1.24404 v 0.21954 l -0.64035,0.51225 q -0.65865,0.49396 -0.69524,0.53055 -0.0186,0.0186 -0.12806,-0.0549 -0.0914,-0.0549 -0.1098,-0.0549 -0.0187,0 -0.0549,-0.16471 -0.0914,-0.32931 -0.31104,-0.54884 -0.60376,-0.60374 -1.50025,-0.0366 -0.53059,0.3659 -0.71355,0.82327 -0.21954,0.58543 -0.23784,1.40869 0,0.53056 0.12805,2.34175 0.14629,1.64652 0.14629,1.88436 l -0.96967,0.36589 -0.96969,0.3476 -0.14629,-0.0549 -0.16472,-0.0366 0.0186,-0.27442 q 0.0549,-3.34795 0.0549,-5.79945 -0.0549,-1.35381 -0.38421,-1.50017 -0.25615,-0.0914 -0.53058,-0.0187 -0.32933,0.0549 -0.87821,0.49396 l -0.0549,0.0549 -0.16472,-0.21953 q -0.16471,-0.18295 -0.14628,-0.23784 0.16471,-0.16471 0.8782,-0.64031 1.00627,-0.65861 1.71981,-0.78668 z m 10.94464,-0.12805 1.35389,0.0186 q 0.93309,0.12805 1.51856,0.31101 0.25614,0.0731 0.29273,0.0731 0.0549,0.0186 0.51229,-0.20124 l 0.45739,-0.21953 0.10981,0.0366 0.12806,0.0366 v 0.89644 q 0,1.22575 0.12805,3.84191 0.0914,1.59164 0.0187,2.67103 -0.18295,2.03073 -0.80501,3.05523 -0.58547,0.93304 -1.99425,1.60995 -0.8599,0.42078 -1.97595,0.58543 -0.80502,0.0731 -1.46367,-0.0186 -0.8965,-0.14629 -1.40878,-0.47567 -0.32932,-0.18295 -0.53059,-0.38419 l -0.0731,-0.0914 0.49399,-0.78668 q 0.49399,-0.82326 0.51229,-0.82326 0.0187,-0.0186 0.23784,0 l 0.23785,0.0366 0.14629,0.23783 q 0.34762,0.54884 0.58547,0.78667 0.73183,0.7318 1.57344,0.67691 0.62206,-0.0549 1.17094,-0.42077 0.34762,-0.20124 0.62206,-0.60373 0.4574,-0.67691 0.54887,-1.82948 v -1.11598 q 0,-0.0187 -0.21954,0.12805 -1.48198,1.06109 -2.83586,1.33551 -0.56717,0.0731 -1.00627,-0.0186 -0.67695,-0.12804 -1.17094,-0.65861 -1.15264,-1.15257 -1.00627,-3.96998 0.10981,-2.12219 0.80502,-3.1284 0.54887,-0.76838 1.62833,-1.24404 0.12805,-0.0549 0.23784,-0.0914 0.51229,-0.20123 1.17094,-0.25612 z m 1.11605,0.7135 q -0.56718,-0.16471 -1.3356,0.1098 -0.60377,0.23783 -0.91479,0.73179 -0.80502,1.18916 -0.67695,3.20159 0.10982,1.60994 0.56717,2.32345 0.20126,0.36589 0.56717,0.58543 0.4574,0.29271 1.07946,0.25612 1.24411,-0.0549 1.88447,-0.96962 l 0.0914,-0.14629 -0.0914,-2.32344 q -0.12805,-2.25025 -0.12805,-2.54297 -0.0549,-0.65862 -0.53058,-0.98792 -0.23785,-0.14629 -0.51228,-0.23783 z m 7.52331,-4.17121 q 0.75013,-0.16471 1.22582,0.40248 0.25615,0.32931 0.23785,0.73179 -0.0549,0.60373 -0.64035,0.91475 -0.62207,0.3293 -1.17094,0.0549 -0.4574,-0.23784 -0.60376,-0.75009 -0.18296,-0.67691 0.43909,-1.13427 0.21956,-0.16471 0.51229,-0.21953 z m -0.16471,3.4943 q 0.32933,-0.0366 0.67694,0.0186 0.4208,0.14628 0.58547,0.45738 0.0914,0.18295 0.14629,0.54884 0.0549,0.40248 0,2.21366 l 0.0186,3.43943 q 0,0.0549 0,0.0731 0.0549,0.3293 0.1463,0.51225 0.21954,0.47566 0.69523,0.40248 0.0549,0 0.10981,-0.0186 0.43911,-0.14628 0.9331,-0.6952 l 0.14628,-0.14628 0.20126,0.18295 q 0.20125,0.18294 0.21955,0.20124 0,0.0731 -0.64036,0.76839 -0.49399,0.47565 -0.95138,0.78667 -1.02457,0.6952 -1.84788,0.40248 -0.65865,-0.18295 -0.82332,-0.91474 -0.10981,-0.38419 -0.12804,-2.04901 0,-0.38419 0,-1.40871 -0.0186,-2.81739 -0.0366,-2.90886 -0.0731,-0.23784 -0.23785,-0.40249 -0.16472,-0.16471 -0.4391,-0.14629 -0.43911,0.0549 -0.9331,0.43908 l -0.16471,0.14628 -0.20125,-0.20124 -0.18296,-0.20124 0.0549,-0.0366 q 0.38421,-0.31101 0.78672,-0.56713 1.04287,-0.73179 1.86617,-0.89644 z m 8.71255,-0.0914 q 1.46366,-0.1098 2.96393,0.62202 l 0.29272,0.12805 0.53059,-0.32931 q 0.51228,-0.3476 0.56717,-0.3476 0.0186,0 0.12805,0.0731 l 0.10981,0.0731 v 0.0914 q -0.10981,0.82327 -0.18295,2.26856 -0.0731,1.0062 -0.0731,2.52467 0,2.03073 0.16472,2.37833 0.20126,0.42078 0.71354,0.20124 0.32932,-0.12804 0.75013,-0.49396 l 0.23785,-0.20124 0.16471,0.18295 q 0.1463,0.16471 0.16472,0.18295 0.0186,0.0549 -0.51228,0.62202 -0.93309,0.93304 -1.77469,1.20746 -0.69525,0.25612 -1.24412,0.0549 -0.56718,-0.16471 -0.71355,-1.18916 l -0.0366,-0.14629 -0.34761,0.21954 q -1.81129,1.22576 -3.22007,1.22576 -0.38421,0 -0.54888,-0.0366 -0.60376,-0.12804 -1.04286,-0.58543 -0.76843,-0.82326 -0.98798,-2.50639 -0.0731,-0.7135 -0.0187,-1.7746 0.0187,-0.1098 0.0187,-0.16471 0.31103,-2.46979 1.64663,-3.5126 0.8599,-0.65861 2.25039,-0.76837 z m 0.95138,0.6952 q -0.98798,-0.14629 -1.7564,0.62202 -0.40251,0.40249 -0.65865,1.0428 -0.38422,0.96963 -0.40252,2.14049 -0.0187,1.18917 0.25615,2.06732 0.20126,0.58543 0.53058,0.93303 0.16473,0.14629 0.36591,0.25613 0.34763,0.16471 0.80503,0.16471 0.32932,0 0.4391,-0.0186 1.02456,-0.23783 1.59173,-1.0611 l 0.0549,-0.0914 0.0366,-0.49397 q 0.20126,-3.11012 0.0731,-4.00656 -0.0549,-0.31101 -0.18297,-0.64031 -0.18295,-0.47567 -0.58546,-0.7135 -0.23785,-0.16471 -0.56718,-0.20124 z"
       id="path456"
       style="font-size:9.83px;font-family:jsMath-eurb10;text-align:center;letter-spacing:-0.46px;text-anchor:middle;fill:#cccc00;fill-opacity:1;stroke-width:1"
       aria-label="Georgia" />
  </g>
</svg>
