<?xml version="1.0" encoding="UTF-8" standalone="no"?>
<!-- Created with Inkscape (http://www.inkscape.org/) -->

<svg
   width="50.960907mm"
   height="66.166023mm"
   viewBox="0 0 50.960907 66.166023"
   version="1.1"
   id="svg1"
   inkscape:version="1.3.2 (1:1.3.2+202311252150+091e20ef0f)"
   sodipodi:docname="state-cutters.svg"
   xmlns:inkscape="http://www.inkscape.org/namespaces/inkscape"
   xmlns:sodipodi="http://sodipodi.sourceforge.net/DTD/sodipodi-0.dtd"
   xmlns="http://www.w3.org/2000/svg"
   xmlns:svg="http://www.w3.org/2000/svg">
  <sodipodi:namedview
     id="namedview1"
     pagecolor="#ffffff"
     bordercolor="#666666"
     borderopacity="1.0"
     inkscape:showpageshadow="2"
     inkscape:pageopacity="0.0"
     inkscape:pagecheckerboard="0"
     inkscape:deskcolor="#d1d1d1"
     inkscape:document-units="mm"
     inkscape:zoom="1.41"
     inkscape:cx="2483.6879"
     inkscape:cy="1977.305"
     inkscape:window-width="1848"
     inkscape:window-height="1016"
     inkscape:window-x="72"
     inkscape:window-y="27"
     inkscape:window-maximized="1"
     inkscape:current-layer="layer1"
     showgrid="false" />
  <defs
     id="defs1" />
  <g
     inkscape:label="Layer 1"
     inkscape:groupmode="layer"
     id="layer1"
     transform="translate(-341.43775,-431.54875)">
    <path
       d="m 341.57003,431.68106 h 19.4989 v 7.60402 h 11.69856 v -7.60402 h 19.49889 v 65.90143 h -50.69635 z m 7.60447,50.69341 v 7.60402 h 35.48742 v -7.60402 h -11.89443 v -17.74268 h -11.69856 v 17.74268 z"
       style="fill:none;fill-opacity:1;stroke:#00aaaa;stroke-width:0.264582;stroke-dasharray:none;stroke-opacity:1"
       us_state="ga"
       part="end_frame_r"
       id="path451" />
    <path
       d="m 359.1563,444.12746 q 0.8969,-0.0439 2.12192,0.0228 2.27506,0.2625 3.50008,1.42182 0.50314,0.48124 0.85315,1.11559 l 0.0874,0.1313 -0.1531,0.15309 -0.94064,0.87497 q -0.65627,0.5906 -0.8969,0.83121 l -0.1313,0.10925 -0.19696,-0.0874 -0.17491,-0.0874 -0.0656,-0.13128 q -0.59063,-1.6187 -1.44378,-2.42804 -0.65627,-0.65623 -1.68441,-0.83122 -0.19695,-0.0439 -0.74377,-0.0439 -0.67814,0 -1.18127,0.1313 -2.40631,0.59061 -3.32508,3.28113 -0.61252,1.79369 -0.48126,4.02486 0.19696,2.95302 1.85942,4.61546 1.2469,1.20309 3.28132,1.48744 0.21875,0.0228 1.09377,0.0228 1.20315,0 1.48754,-0.0874 0.28438,-0.0656 0.32813,-0.32811 0.0874,-0.32811 0.0439,-3.19364 0,-0.32812 -0.0228,-0.37186 -0.1095,-0.54686 -0.61251,-0.69998 -0.0656,-0.0228 -1.81567,-0.1095 -1.9688,-0.1313 -1.94691,-0.1313 h -0.19696 v -0.4156 -0.41561 h 0.2625 q 7.17516,-0.28437 7.19704,-0.28437 v 0.19695 q -0.0656,0.63435 -0.0656,2.40616 0,1.59682 0.0874,2.8874 0.0228,0.34999 0.0228,0.63436 l -1.88129,0.45935 q -1.94692,0.41562 -3.45633,0.56873 -1.18128,0.0874 -2.38443,0 -2.53756,-0.30623 -4.02508,-1.53119 -0.54689,-0.39373 -0.94066,-0.9406 -1.05002,-1.31245 -1.37814,-3.19364 -0.50314,-2.73427 0.39375,-5.16231 0.35001,-0.85309 0.65626,-1.31244 1.13753,-1.81557 3.1282,-2.71241 1.66254,-0.74372 3.7407,-0.87497 z m 13.51139,0.52498 q 0,-0.0439 2.45005,-0.0439 h 2.45005 l 0.0439,0.19694 q 0.28438,1.09371 0.54689,1.88118 l 1.88129,6.21227 q 1.37815,4.44048 2.42817,5.16233 0.24056,0.17488 0.6344,0.19694 0.37188,0 0.96251,-0.10925 0.32814,-0.0656 0.35001,-0.0656 l 0.10951,0.63436 -1.46566,0.61247 q -1.2469,0.45936 -1.85942,0.56873 -0.1531,0.0228 -0.56876,0.0228 -0.56876,0 -0.89689,-0.17489 -0.43752,-0.19694 -0.87502,-1.04996 -0.26251,-0.5031 -0.8969,-2.84366 -0.0874,-0.26249 -0.1749,-0.61247 -0.41563,-1.42183 -0.41563,-1.4437 0,-0.0228 -2.75632,-0.0228 h -2.73443 l -0.15311,0.26248 q -0.94064,1.83744 -2.20942,5.18421 -0.0656,0.17488 -0.10951,0.17488 -0.1531,0 -1.35627,0.10925 -1.31254,0.1313 -1.33442,0.1313 l -0.0439,-0.10951 v -0.10923 l 0.61251,-0.91873 q 4.09072,-6.16852 7.24079,-12.16206 l 0.24056,-0.45936 -0.0228,-0.0874 -0.0228,-0.1095 -1.00628,-0.1313 -1.05002,-0.1313 q -0.0228,0 -0.0228,-0.37186 0,-0.39373 0.0228,-0.39373 z m 2.82194,3.23739 q -0.15311,-0.34999 -0.15311,-0.37186 -0.1531,0.0228 -0.24055,0.17488 0,0.0228 -0.0439,0.0874 -0.7219,1.18121 -2.10005,4.11235 -0.35001,0.72185 -0.30626,0.72185 l 4.33135,0.0228 -0.30626,-1.04996 q -0.74376,-2.42804 -1.18127,-3.69674 z"
       id="path452"
       style="font-size:8.63px;font-family:jsMath-eurb10;text-align:center;letter-spacing:-0.4px;text-anchor:middle;fill:#cccc00;fill-opacity:1;stroke-width:0.999999"
       aria-label="GA" />
    <path
       d="m 353.59585,472.25628 -0.44947,2.31973 h 1.98638 v 0.97138 h -2.17488 l -0.59446,3.03015 h -1.02944 l 0.59447,-3.03015 h -2.07338 l -0.56548,3.03015 h -1.01494 l 0.55097,-3.03015 h -1.82689 v -0.97138 h 2.01538 l 0.46398,-2.31973 h -1.94289 v -0.95689 h 2.11688 l 0.57997,-3.07365 h 1.04393 l -0.57996,3.07365 h 2.08788 l 0.57996,-3.07365 h 1.00045 l -0.57997,3.07365 h 1.84139 v 0.95689 z m -3.5523,2.31973 h 2.07339 l 0.44947,-2.31973 h -2.07338 z"
       id="path453"
       style="font-size:5.72px;font-family:'Noto Sans';text-align:center;text-anchor:middle;fill:#cccc00;fill-opacity:1;stroke-width:0.999999"
       aria-label="#" />
    <path
       d="m 383.64791,468.53021 0.75396,-0.21747 0.0581,0.0725 q 0.0725,0.0725 0.0725,0.11608 0,0.31897 -0.0725,3.24763 -0.0725,2.94315 -0.0725,3.21862 l 0.81195,0.0152 q 0.81195,0.0152 0.84094,0.0436 l 0.0289,0.0289 -0.21749,0.43495 -0.21749,0.43495 h -0.60896 -0.60897 v 0.55093 l 0.0289,0.78292 q 0.0289,0.72491 0.0725,0.8409 0,0.0289 -0.76846,0.33346 -0.78295,0.31896 -0.79745,0.31896 l -0.0725,-0.0581 -0.087,-0.0581 -0.0152,-0.0152 -0.0289,-0.0289 0.0152,-0.21748 q 0.1014,-0.86989 0.13055,-1.98627 v -0.46394 h -2.16038 -2.17488 v -0.39145 -0.37696 l 2.16039,-3.18963 2.16037,-3.20413 q 0,-0.0152 0.76846,-0.23192 z m -0.81195,1.6963 -0.0289,-0.0581 q -0.13054,0 -0.86994,1.00039 -0.0289,0.0581 -0.0725,0.11609 -0.98595,1.34834 -1.89939,2.98665 -0.1886,0.33346 -0.21749,0.42045 -0.0289,0.10139 0,0.14499 0.0289,0.0436 0.0581,0.0436 l 3.08833,0.0581 q 0,-1.05838 -0.0152,-2.33424 -0.0152,-2.31973 -0.0436,-2.37772 z"
       id="path454"
       style="font-size:5.72px;font-family:jsMath-eurb10;text-align:center;letter-spacing:-0.26px;text-anchor:middle;fill:#cccc00;fill-opacity:1;stroke-width:0.999999"
       aria-label="4" />
    <ellipse
       cx="366.91818"
       cy="493.78033"
       style="fill:#cccc00;fill-opacity:1;stroke-width:0.999999"
       us_state="ga"
       part="end_distinguisher_r"
       id="circle454"
       rx="0.63370484"
       ry="0.63366759" />
  </g>
</svg>
