<?xml version="1.0" encoding="UTF-8" standalone="no"?>
<!-- Created with Inkscape (http://www.inkscape.org/) -->

<svg
   width="816.72882mm"
   height="602.62451mm"
   viewBox="0 0 816.72882 602.62451"
   version="1.1"
   id="svg1"
   xmlns:inkscape="http://www.inkscape.org/namespaces/inkscape"
   xmlns:sodipodi="http://sodipodi.sourceforge.net/DTD/sodipodi-0.dtd"
   xmlns="http://www.w3.org/2000/svg"
   xmlns:svg="http://www.w3.org/2000/svg">
  <sodipodi:namedview
     id="namedview1"
     pagecolor="#ffffff"
     bordercolor="#666666"
     borderopacity="1.0"
     inkscape:showpageshadow="2"
     inkscape:pageopacity="0.0"
     inkscape:pagecheckerboard="0"
     inkscape:deskcolor="#d1d1d1"
     inkscape:document-units="mm" />
  <defs
     id="defs1" />
  <g
     inkscape:label="Layer 1"
     inkscape:groupmode="layer"
     id="layer1"
     transform="translate(314.3751,179.5198)">
    <path
       style="fill:#000066;fill-opacity:1;stroke:#00aaaa;stroke-width:0.264583;stroke-opacity:1"
       inkscape:connector-curvature="0"
       id="path1443"
       d="m 297.1002,153.9681 0.28852,-5.26503 -0.64913,-0.86548 -1.2261,-0.50487 -1.8031,-2.01946 0.36061,-2.0916 35.19637,-3.6783 -0.50487,-1.58671 -1.08184,-1.08187 -0.36065,-1.00974 0.43274,-4.54378 -1.73096,-4.11106 0.36064,-1.87519 0.21644,-2.66859 1.58671,-2.74071 -0.1442,-0.79335 -1.2261,-0.72123 v -2.30797 l -1.29823,-1.37036 -2.0916,-4.39954 -9.30395,-33.03262 -32.96052,2.88494 0.93762,1.44248 -0.93762,48.32285 3.17345,23.94507 0.6491,-0.36062 0.93761,0.072 0.43275,0.28851 0.577,-0.0722 1.44245,-2.74071 v -1.65884 l 0.79338,-0.79336 1.00971,0.36062 2.45223,4.61591 v 0.64912 l -2.38009,1.58672 2.52431,-0.2885 3.53407,-1.15397 z"
       class="al">
      <title
         id="title1441">Alabama</title>
    </path>
    <path
       style="fill:#000066;fill-opacity:1;stroke:#00aaaa;stroke-width:0.264583;stroke-opacity:1"
       inkscape:connector-curvature="0"
       id="path1447"
       d="m -303.69313,394.43696 h 4.25274 l 1.24039,1.2404 -1.77195,2.12638 -3.36677,0.35428 -4.42996,2.30357 -6.55632,-0.17747 3.8984,-1.59481 0.53174,-1.94916 4.42997,-0.53177 z m 14.70745,-3.01234 2.30353,0.88597 h 1.59481 l 0.88598,2.12637 0.53175,-1.06319 1.59475,0.3543 1.94916,2.65793 v 0.88605 l -7.44231,3.36669 -4.25274,-0.17747 -1.77195,-0.88605 -1.94916,1.24086 h -3.54398 l -1.94917,-2.48072 8.32829,-0.88605 z m 9.56869,-0.17748 1.77195,0.17748 1.2404,1.24039 v 1.77195 l -2.30359,0.17747 -1.59481,-1.94915 z m 4.42989,0.53176 2.30358,-0.17748 -0.17748,1.77196 -1.94916,1.06318 z m 0.53175,3.89832 6.0247,-0.17747 0.35429,1.94917 -2.30358,0.17747 -0.53176,-0.88598 -1.4176,1.06319 -0.70878,-1.06319 -1.5948,-0.35428 z m 294.67989,13.46702 3.72113,0.17747 -1.77195,3.36676 -1.94918,-0.17748 -0.70884,-1.41753 0.88606,-2.30357 m -1.94925,-5.13874 1.06319,-2.30357 -0.35428,-4.07553 4.25275,-0.88605 7.97394,7.79672 2.30358,6.02471 3.36676,2.8352 0.53178,9.03705 H 35.1095 l -2.3036,-4.07553 -5.49312,-4.25274 h -1.06319 l 1.94915,4.9615 3.01236,0.35429 0.35428,3.72117 -1.59475,0.17748 -7.26509,-7.79671 -0.17748,-1.59482 3.36676,-1.77195 v -1.77196 l -0.88596,-1.4176 -2.83521,-1.06319 -3.01237,-2.30357 2.4808,0.17747 0.88598,-0.70876 -1.06318,-1.59484 -1.06319,0.88599 z m -6.3791,-16.125 2.30358,0.17748 4.25275,4.42989 -0.35428,1.4176 -1.41754,-0.17747 -0.17748,3.18956 0.88597,0.88597 v 2.65801 l -1.41761,0.53176 -0.70876,2.12637 -1.41761,-0.70877 -0.70876,-3.89832 1.94917,-2.4808 -3.72113,-3.89833 0.17748,-2.12637 z m 2.658,-2.658 3.36675,0.35428 4.42997,0.17748 6.0247,5.67029 -0.35428,0.88604 -1.94917,1.06318 -1.94915,-0.35428 -0.17748,-1.24039 -2.12638,-2.83514 -0.53177,1.24039 1.77195,2.30352 -0.35427,2.12638 -1.41761,-0.17681 -2.3035,0.35428 -0.17748,-3.01236 -4.60717,-4.96151 z m -22.50413,-15.7706 1.59481,-0.70876 h 2.83514 l 1.2404,-0.88598 7.26509,3.89833 0.17748,2.65793 -0.88597,0.88605 h -1.4176 l -2.48079,-1.2404 1.94922,2.30359 h 3.18956 l 0.88598,3.54391 H 4.98578 L 1.08745,376.89428 -0.8617,376.54 l 1.06318,2.30359 0.17748,1.59474 1.41754,-1.06319 3.01241,2.12637 2.30352,-0.1768 -0.3543,1.41754 3.36678,7.6195 v 6.0247 l 0.70877,3.7212 -1.41753,0.53177 -2.12638,-3.54391 -0.88599,-2.658 -2.83519,-2.83515 -0.3543,-4.78437 -1.06319,-3.01235 H 0.91079 l 0.53176,1.94916 v 0.88605 l -2.4808,1.77195 0.17748,-5.84757 -2.83515,-2.83513 -2.30356,-4.07554 -2.12638,-2.12637 z m 12.75824,-4.07552 1.94916,3.18955 4.25275,-0.17748 1.77203,3.72119 -1.06319,1.06318 3.54391,5.67029 v 2.30358 l -2.12638,1.41761 v 1.24039 l -3.54391,3.36671 -0.88604,-2.48073 -0.17747,-2.30359 1.06318,-1.24039 v -1.94916 l -2.65794,-3.36677 -0.88597,-6.55633 -1.59482,-2.65793 z m -100.471092,-32.42723 -7.087948,7.26515 v 2.83528 l 3.721176,-1.4176 1.417537,-3.36669 3.898394,-4.25274 z m -55.994538,29.41489 v 1.06318 l 3.18956,2.12636 0.35428,-2.48078 1.06319,1.5948 6.2019,0.17748 1.2404,-1.06319 0.35429,-3.18956 -0.88599,-1.24038 h -2.48077 V 357.58 l 0.70876,-1.06319 v -0.70877 l -2.65794,-0.53178 -5.84755,6.37912 z m -14.353,10.98619 2.65795,10.27752 h 3.72118 l 4.25274,-4.42995 0.53176,2.12638 11.16343,-7.08789 1.2404,-1.77203 -1.77196,-1.94917 v -1.24039 l 0.88598,-2.30352 -1.59482,-0.17748 -3.54391,1.77196 v -2.12638 l -4.78436,-1.06277 -4.25275,0.53176 -0.35428,6.02477 -1.41761,-3.54398 -2.65793,-0.17748 -1.77201,1.06319 z m -3.89839,14.53027 0.17747,-1.24039 3.7212,-2.30359 1.06319,0.53176 2.30357,0.35429 2.3036,2.12637 -3.8984,-0.35429 -0.70877,-1.06318 -1.77196,1.06318 z m -9.21426,5.8475 -1.94916,1.41761 2.65792,2.48079 1.41761,-1.2404 -0.17747,-2.30358 z m -11.16342,-13.99858 2.48072,0.17681 0.70884,1.06319 -3.18956,0.17747 z m -24.63051,21.08652 v 0.88599 l 1.24039,0.17748 -0.17747,-1.06319 z m -0.70883,-5.67033 -1.77195,1.77195 v 0.88597 l 1.24038,1.94922 1.77195,-1.77201 -1.24038,-0.17747 z m -3.54391,-1.41761 -0.53176,1.77202 -2.30359,0.17681 -0.70877,0.35428 v 2.30357 l -0.88604,1.59476 h 1.06319 l 1.24038,-1.59415 1.41754,-0.17748 1.59483,-1.77195 0.35428,-2.30358 z m -7.79673,-3.54391 -0.35428,3.18956 2.4808,1.41753 2.12637,-1.06318 v -1.77196 l 3.01234,-0.53176 -0.17748,-1.06319 -1.59481,-0.35428 -1.2404,1.06318 -1.59473,-0.88597 z m -8.68269,-0.17748 1.77202,1.24039 -0.53176,2.12638 -2.4808,-1.94924 z m -7.44231,2.30358 2.48079,0.17747 -1.2404,1.41761 z m -6.20192,5.31593 3.18956,1.94916 -3.01235,0.17747 z m -45.00825,-55.28569 2.12638,1.06319 -1.41754,1.06357 z m -1.24033,-11.16351 0.70877,2.12637 1.4176,-2.12637 z m 43.05903,-34.19918 2.658,-0.17747 1.59474,0.70883 1.94917,-0.88597 2.30358,-0.17747 2.83514,1.41754 1.41761,3.36675 -0.17748,1.59483 -2.12638,3.54391 -4.25274,-0.35428 -3.72111,-3.18956 -1.77203,-0.70884 -1.94917,-3.54391 z m -37.38875,-25.51647 0.17748,3.36676 3.54397,3.54398 v 0.886 l -1.41759,-0.35428 -3.01235,-1.41757 -0.53177,-1.94922 -0.53176,-2.83514 z m 32.42723,-41.28706 v 2.12637 l 3.36677,3.18956 h 4.07554 l 1.06319,1.94916 v 2.83521 l 3.72111,3.3667 3.18956,2.12638 -0.17747,1.24039 -1.2404,1.94917 -2.48073,-2.12637 -3.72118,0.17747 -1.41754,-1.41753 -1.59481,-3.72119 -2.65793,-3.89833 -4.60716,-0.17748 -1.77196,-1.2404 1.77196,-3.72112 z m 29.76922,-7.97388 h 1.77196 l 0.17747,1.94917 h -1.77195 z m 28.70603,34.90797 1.59476,0.17747 v 2.12638 l -3.01235,-0.88606 z m 226.45874,137.68261 -2.12637,0.70884 -0.17747,1.94916 h 2.12637 z m -279.2637,-7.97386 -2.30352,-0.70884 -7.26517,1.06319 -4.96151,2.48079 -0.17748,3.36676 3.36677,1.24041 2.658,-1.59482 3.01236,-0.17748 8.32827,2.48079 0.17749,-2.30357 -2.83515,-1.94917 z m 3.72118,4.07553 -0.70877,-2.48079 2.12638,0.35428 0.17748,2.48079 h 3.18955 l 0.70877,-4.42994 0.53176,4.25274 4.42996,-0.17747 5.67027,-5.84757 1.41761,0.17747 -1.24039,2.30359 2.48078,1.59481 7.44232,-0.35428 4.60717,-2.12637 2.48072,-0.17749 0.53176,2.65802 1.06318,-0.88606 0.70884,-2.48072 10.45465,0.35428 3.36676,-2.83514 -2.30357,-1.94916 1.06319,-2.12637 4.60709,0.35428 -0.35428,-2.12638 4.42995,0.35428 1.24041,-1.94914 1.94915,0.35428 8.15115,-3.36679 0.35428,-3.01234 9.92303,-4.25274 3.54398,-3.36676 2.12638,-1.06319 2.30358,1.4176 4.07553,-1.59482 1.94918,-3.36676 0.88596,-2.30359 3.01236,-1.59474 2.65799,-1.2404 0.70878,-2.48079 -1.94916,-3.01235 -3.89833,-0.35428 -0.35428,-2.30359 1.41753,-2.83521 2.4808,-0.35428 2.30357,-2.658 3.36676,-0.17748 6.02471,-5.67028 0.70876,-2.4808 2.65801,-4.07554 6.73348,-7.26509 4.42994,-1.5948 3.36678,-1.59476 3.72118,1.41754 2.48072,4.60717 h -2.65792 l -2.48079,-2.65795 -5.31593,3.54391 -3.01237,0.17749 -0.35428,5.49314 -5.49313,8.6827 1.06319,3.54391 h 4.07553 l -1.06319,1.77203 -2.48072,0.17747 -4.25276,3.18956 v 1.59476 l 3.36671,1.77195 6.02476,-1.06319 2.48074,-3.01235 2.48077,0.17747 5.31594,-3.01234 0.88599,-4.07555 2.8352,-0.17747 11.16343,1.4176 1.77195,-1.94922 1.772033,-7.97387 -2.835213,1.94916 1.06318,-3.89833 -2.83513,-2.48079 1.4176,-2.65793 0.17748,2.65793 h 6.024701 l 1.240401,-1.77195 2.835148,-0.17748 -0.53178,3.01234 3.36678,0.17748 -3.36678,2.30359 7.26517,1.94916 -6.20198,0.70877 -2.303505,2.12637 1.594735,2.48079 8.15108,-3.01235 4.07561,3.01235 1.24032,-1.59481 1.06319,2.4808 7.08796,4.07553 h 5.13871 l 6.9107,-0.88598 7.61949,1.94917 3.54398,3.36677 7.97388,0.70877 3.18956,-2.65794 1.41759,4.25275 -3.18954,1.2404 2.12636,2.12638 13.11265,6.73346 2.48073,4.42995 9.56868,7.26509 5.84755,-3.54391 -1.06318,-3.89838 -6.20191,-3.54393 5.49314,2.12638 0.88598,-1.24038 1.59474,2.30356 v 4.78432 l 3.7212,-1.06318 3.72111,3.18956 -4.42995,-17.36534 2.12638,2.30352 2.48078,10.63185 3.89833,4.42997 4.25273,-0.70878 3.18956,6.2019 h 1.5949 l 1.06318,9.92311 6.02471,0.88599 2.83514,3.89832 3.18956,1.94916 0.70884,4.96158 -3.18956,4.6071 5.13871,2.83521 2.12637,-4.25275 -0.35428,5.49314 -1.41761,1.59475 2.4808,3.01235 1.24039,-4.25275 -0.35429,-2.12637 1.41754,0.35428 1.06319,4.07554 -1.77195,2.48079 1.06318,4.6071 0.88598,0.70883 0.53176,-2.8352 1.24039,1.06318 -0.53176,3.54398 2.12638,0.35428 -0.70877,1.59475 3.01234,-0.17747 v -1.77196 h -1.77195 l 0.17747,-3.01236 -1.41759,-1.06318 3.01235,-0.53176 0.88598,-1.41754 v -2.8352 l 0.88598,2.30357 -1.06319,3.18956 2.12637,6.91076 3.18957,0.17747 3.89839,-7.4423 0.17748,-3.36678 -2.3036,-7.08794 -0.17748,-2.12638 0.88599,-2.12637 -1.2404,-1.24034 -3.01234,0.17681 -4.42995,-3.54391 h -3.01236 l -3.54398,-2.4808 h -2.65792 l -0.88599,-2.83514 -2.48079,-0.53175 -0.35428,-2.65793 -1.77196,-0.88598 0.17748,-3.01241 -9.03712,-13.11259 -3.18956,-2.65801 v -2.12638 l -7.61952,-6.2019 -1.24039,-1.94917 -2.83515,-3.54397 -3.36675,-1.06319 v -3.89833 l -2.12637,-2.30359 -3.01237,-1.24039 -3.7211,2.30358 -2.83522,3.7212 -0.70876,4.25274 -2.65802,0.17748 -4.42987,4.78437 -1.41761,-0.53176 V 352.617 l -4.25274,-3.8984 -4.07556,-3.54391 -0.88596,-3.54398 -4.42997,-2.30357 0.3543,-3.89833 -4.96158,-0.17749 -1.24032,1.94917 h -2.12638 l -1.2404,-1.24039 -2.12637,1.4176 -3.18957,-2.12638 V 183.21725 l -12.22667,-7.26509 -3.18956,-0.88599 -3.89833,1.94919 -3.89833,0.17747 -4.07559,-2.83521 -7.61946,-1.06319 -10.27752,-6.37912 -10.10023,-0.70877 -3.54398,0.88598 -0.35428,-3.18956 -3.18956,-1.2404 1.94915,-1.77195 -0.35428,-1.59481 -5.67036,-1.94917 h -4.25274 l -0.70877,0.70884 -1.59474,-1.06319 0.17748,-4.60717 -1.41761,-1.5948 -4.42994,5.13878 -1.41761,-0.17747 v -1.41761 l 3.01241,-1.4176 v -1.41754 l -3.36676,-4.25275 -1.94917,-0.17748 -7.97393,5.49315 h -6.91069 l 0.70877,-1.59481 -3.18956,-0.17749 -9.21427,6.02478 h -3.18953 l -1.06319,-1.41761 -4.78439,2.658 -6.37911,6.55626 -4.96152,4.78439 -2.65799,2.12635 -4.60712,0.17749 -3.89838,-0.70883 -4.07555,-2.30352 v 0 l -4.96151,6.91067 -0.17748,4.25274 4.60717,4.25275 3.72113,7.97395 0.35428,9.39146 5.13871,3.54391 6.02477,0.70883 1.24034,1.41754 -2.65794,4.0756 1.2404,4.78432 -3.01235,-4.60717 v -4.25275 l -2.658,-0.53175 0.17748,2.12637 1.24039,3.72111 5.13873,6.55634 h -2.48079 l -3.89833,1.94916 -10.98629,-4.42988 -0.17747,-3.54398 2.48078,-2.30359 v -2.4808 l -3.72113,-0.88596 -4.0756,0.35427 -8.50549,0.35428 2.658,4.07556 -3.36677,-3.18957 -14.88461,2.12638 -1.41761,2.65791 8.68272,8.32831 -1.41754,2.48079 -0.53178,3.54396 -1.24038,1.41756 -0.17748,3.36675 7.79666,6.37912 7.26516,0.35428 8.15107,3.36677 h 3.54398 l 1.41754,-1.06319 6.73354,0.17748 0.17748,-1.4176 2.12637,1.94916 0.17748,3.54398 -4.42995,-0.17747 0.17747,5.84748 0.88598,5.67035 -5.13872,4.78439 -3.36678,-0.17748 -3.54392,-1.4176 -1.77202,0.17747 -5.49307,3.72111 -3.01242,0.35429 -2.48073,-4.96152 h -5.4932 l -3.8984,3.54391 -0.88597,3.18956 -5.8475,3.18956 -9.39146,7.61952 -0.53176,5.49314 1.24033,3.89833 1.77202,2.12637 1.77195,-0.70877 1.59481,1.77196 -1.4176,1.06318 -2.658,1.59483 1.94923,2.65792 -4.60716,1.94922 1.4176,3.89833 3.01235,4.07555 1.41754,7.26509 7.08796,2.65801 4.60709,-1.41761 3.01242,-1.94917 0.88598,3.72113 0.53176,7.79673 -3.36676,2.48079 v 7.79664 l -1.06319,1.59482 h -3.01229 l 3.01235,2.12638 3.72112,-0.17748 0.70884,-1.77195 8.15107,-1.06319 3.54398,4.6071 2.30357,-1.24034 2.30353,9.03706 1.77202,0.88597 1.77196,-1.24039 0.17747,-4.25275 1.59482,-1.77195 1.24033,1.94916 0.35428,2.83521 2.83521,0.70877 8.32828,-2.12637 0.35428,2.12637 -3.54398,1.94917 -2.83515,3.01235 -4.96151,12.40389 -7.61951,3.54391 -2.48079,2.65798 -0.53176,2.48073 -1.77195,-1.06319 -16.47943,5.84757 -3.18956,7.26509 -2.30359,-0.70877 0.88606,-1.94915 -2.65802,-2.48079 -6.2019,-0.35429 -9.39147,5.67034 -3.89839,2.30359 h -4.07554 l -0.88598,4.25275 z"
       class="ak">
      <title
         id="title1445">Alaska</title>
    </path>
    <path
       style="fill:#000066;fill-opacity:1;stroke:#00aaaa;stroke-width:0.264583;stroke-opacity:1"
       inkscape:connector-curvature="0"
       id="path1451"
       d="m -65.97034,96.41342 2.16371,-1.58675 0.577,-1.73097 -0.72126,-1.15397 -1.29822,-0.14419 -0.79335,-1.15397 0.79335,-4.97655 1.15399,-0.21644 1.73097,-2.30794 1.15397,-5.04867 1.73097,-2.59645 3.46194,-1.22611 0.93761,-0.9376 -0.28848,-1.37035 -1.65887,-1.80311 -0.86549,-4.18317 -1.00971,-1.29822 -0.93761,-2.45219 0.6491,-1.51461 1.00974,-2.16372 0.36061,-2.09157 -0.36061,-3.53407 0.72123,-9.80881 2.52435,-0.43274 2.66854,1.00971 0.86549,1.94736 h 1.44248 l 1.73097,-2.09159 2.45219,-12.62163 33.32114,5.91413 28.84948,4.32741 -12.54952,89.50547 -26.90212,-3.89468 -46.30339,-27.04637 0.36061,-2.09157 1.44248,-1.29823 z"
       class="az">
      <title
         id="title1449">Arizona</title>
    </path>
    <path
       style="fill:#000066;fill-opacity:1;stroke:#00aaaa;stroke-width:0.264583;stroke-opacity:1"
       inkscape:connector-curvature="0"
       id="path1455"
       d="m 254.69148,81.55593 0.64913,-1.58671 0.86548,0.36061 0.50487,-0.72125 -0.57699,-0.50484 0.21643,-1.08187 -0.79335,-0.6491 0.43274,-0.72126 -0.0722,-1.08184 -0.79336,-0.0722 0.57699,-0.577 0.93762,0.577 0.21644,-1.00974 -0.28849,-0.79335 0.0722,-0.50488 1.44245,0.43274 -0.28848,-1.08186 1.15397,-0.93759 -0.36061,-0.64912 -0.79336,0.0722 -0.43274,-0.64911 0.64912,-0.64912 1.15397,-0.1442 0.36062,-0.57701 1.00974,-0.14419 -0.0722,-0.57697 -0.64912,-0.64914 v -0.36058 h 1.08187 l 0.28848,-0.50487 -1.00971,-0.72123 -0.0722,-0.43274 -8.07787,0.57697 2.01948,-3.67829 1.2261,-1.08187 v -1.58671 l -1.15392,-1.8031 -28.70523,1.44249 -28.20036,0.50486 2.95707,17.59817 -0.50487,28.12824 1.87523,1.65883 2.01945,-0.9376 2.30796,0.57699 0.14421,8.58271 37.72068,-0.93761 0.86548,-1.08184 0.36062,-2.16371 -1.08187,-1.65884 -0.36062,-1.58674 0.64913,-0.50484 v -0.577 l -1.22613,-0.79336 -0.072,-0.50487 1.15396,-0.64912 -0.86548,-0.79337 1.22611,-5.12077 2.45219,-1.15397 v -0.577 l -0.79336,-1.00974 2.09158,-3.89467 h 1.37036 l 1.08186,-0.86549 -0.21643,-3.75042 2.23584,-3.24555 1.29823,-0.43274 -0.36063,-2.23584 z"
       class="ar">
      <title
         id="title1453">Arkansas</title>
    </path>
    <path
       style="fill:#000066;fill-opacity:1;stroke:#00aaaa;stroke-width:0.264583;stroke-opacity:1"
       inkscape:connector-curvature="0"
       id="path1459"
       d="m -116.60116,80.54619 2.45219,3.75045 -1.00971,0.0722 -1.29823,-1.37036 z m 1.37035,-7.0681 1.29822,2.95706 1.87523,0.72123 0.50484,-0.43274 -0.93758,-1.80309 -1.87523,-1.73097 z m -14.35261,-13.70352 v 1.73097 l 1.44248,0.86548 3.17343,-0.1442 0.72124,-0.72122 -2.23583,-0.14421 z m -4.2553,0.0722 2.38008,0.36062 1.00974,1.58675 h -2.74071 z m 34.547249,32.81628 -0.721229,-2.16371 0.144201,-2.16372 -0.288511,-5.69777 -1.29823,-3.46194 -0.86548,-1.00971 -0.43274,-1.08187 -5.04865,-6.20261 -2.59646,0.0722 -1.44249,-1.37037 0.79339,-1.29822 -0.50487,-2.66858 -1.58674,-0.86549 -2.81281,-0.43274 -2.01948,-0.93761 -1.08185,-1.37035 -3.24557,-4.76017 -1.94733,-1.58671 -2.66858,-0.36061 -2.23583,-1.65887 -3.38981,-1.08183 -2.01945,-0.21645 -1.8031,-1.80307 0.1442,-2.01948 0.57697,-3.46194 1.29823,-3.67829 -1.00975,-1.15399 -2.88493,-6.77961 -1.94733,-2.66858 -0.28851,-2.16371 -1.15397,-1.65884 0.1442,-1.80309 -1.44248,-3.60617 -2.09158,-1.94735 0.43274,-5.12078 1.73097,-0.577 1.29823,-2.23583 -0.28852,-2.30795 -0.72122,-0.64913 h -1.80311 l -1.80309,-2.38005 -1.08184,-2.52434 v -5.40945 l 0.86548,-3.02919 0.14421,-1.51461 1.80306,0.1442 -0.0722,1.154 -0.57699,0.50487 v 1.80307 l 2.66858,2.30797 v -3.38982 l -1.00974,-2.45221 0.36061,-0.79336 -0.72123,-1.2261 2.01946,-1.08187 -1.37036,-2.16371 -1.00971,0.36064 -1.08187,2.74068 0.36062,0.93762 -0.57698,0.72122 -0.64913,-0.0722 -3.89467,-4.39952 0.50487,-4.03894 -0.79336,-2.81284 -4.68803,-9.2318 0.57697,-7.71723 1.65886,-2.59645 0.14421,-4.61594 -3.96681,-8.00571 0.21644,-3.75045 4.97652,-5.40926 1.22612,-1.73097 -0.0722,-1.00974 2.88494,-6.63536 0.0722,-6.0584 0.6491,-1.80308 47.673763,13.41499 -11.828283,45.51004 0.79337,2.52433 50.77505,75.72984 -0.6491,1.51461 0.93762,2.4522 1.00971,1.29822 0.86548,4.18317 1.65887,1.80309 0.28848,1.37036 -0.93761,0.93761 -3.46193,1.2261 -1.73097,2.59645 -1.15397,5.04864 -1.73097,2.30797 -1.15399,0.21645 -0.79337,4.97652 0.79337,1.154 1.29822,0.14419 0.72125,1.15397 -0.577,1.73097 -2.1637,1.58674 -1.58671,-0.0722 z"
       class="ca">
      <title
         id="title1457">California</title>
    </path>
    <path
       style="fill:#000066;fill-opacity:1;stroke:#00aaaa;stroke-width:0.264583;stroke-opacity:1"
       inkscape:connector-curvature="0"
       id="path1463"
       d="M 103.52027,50.03789 91.61987,49.31664 54.33193,45.8547 16.39489,41.16667 l 8.29422,-63.6852 32.38352,4.11107 27.04637,2.45219 23.87293,1.73097 -1.00971,15.93933 z"
       class="co">
      <title
         id="title1461">Colorado</title>
    </path>
    <path
       style="fill:#000066;fill-opacity:1;stroke:#00aaaa;stroke-width:0.264583;stroke-opacity:1"
       inkscape:connector-curvature="0"
       id="path1467"
       d="m 463.34526,-54.10869 0.28848,-0.79336 -2.30794,-8.87119 -0.0723,-0.21644 -10.74642,2.45219 v 0.50487 l -0.64913,0.21644 -0.36061,-0.50487 -7.57297,1.73096 2.01945,11.75617 1.29823,1.08184 -2.52433,2.45222 1.2261,1.58671 3.89468,-3.24554 1.2261,-0.93762 h 0.577 l 1.73096,-2.23584 1.00972,0.0722 2.09161,-0.79336 h 1.51458 l 3.82255,-1.94735 2.01948,-0.6491 0.72122,-0.72125 1.08185,0.36064 z"
       class="ct">
      <title
         id="title1465">Connecticut</title>
    </path>
    <path
       style="fill:#000066;fill-opacity:1;stroke:#00aaaa;stroke-width:0.264583;stroke-opacity:1"
       inkscape:connector-curvature="0"
       id="path1471"
       d="m 426.34583,-19.70569 -1.154,0.21644 -1.08184,0.79335 -0.86548,1.51462 5.48138,19.54549 7.86149,-1.65884 -1.58671,-5.4814 -0.79338,0.36062 -2.38007,-1.87522 -0.36061,-1.2261 -1.29823,-0.72123 -0.1442,-2.66858 -1.51458,-1.58671 -0.79339,-0.577 -0.86548,-0.79336 -0.28849,-2.30796 0.21644,-1.51459 0.72123,-1.58673 z"
       class="de">
      <title
         id="title1469">Delaware</title>
    </path>
    <path
       style="fill:#000066;fill-opacity:1;stroke:#00aaaa;stroke-width:0.264583;stroke-opacity:1"
       inkscape:connector-curvature="0"
       id="path1475"
       d="m 375.49863,137.88452 -2.88494,-0.50487 -1.2261,-0.64913 -1.58673,1.00974 v 1.8031 l 1.00973,1.51458 -0.3606,3.10132 -1.51461,0.43274 -0.72123,-0.79334 -0.43274,-2.30797 -36.13397,2.38009 -2.38007,-4.32742 -35.19637,3.6783 -0.36061,2.0916 1.8031,2.01946 1.2261,0.50487 0.64913,0.86548 -0.28852,5.26503 -0.79336,0.43274 0.36062,0.28849 0.72126,-0.21643 0.50484,-0.57697 7.573,-1.94737 6.63538,-0.3606 5.842,1.37034 6.13052,3.6062 1.73097,0.57697 1.58671,1.44248 -0.0722,1.94733 h 1.73097 l 1.37036,-0.72123 1.80309,0.0722 1.44248,-0.577 2.09159,-1.44245 2.23584,-2.09162 0.79335,-0.28848 0.43275,0.36062 h 1.00974 l 0.3606,-0.57698 -0.3606,-0.86548 -0.43274,-0.43275 0.14419,-0.57699 1.44249,-0.79336 3.60619,-0.28852 0.57697,0.72126 0.72125,0.0722 1.65884,0.72123 2.16371,1.29822 0.86549,1.2261 0.79336,0.86548 2.01945,1.00975 v 1.73097 l 2.01948,1.37034 0.72122,0.072 1.15397,1.00974 0.50488,1.15397 0.72123,0.1442 0.577,1.51461 0.50486,0.43274 0.72123,-0.79338 2.09158,0.0722 0.36065,1.00975 0.79334,0.6491 v 0.93761 l 2.0916,1.58674 0.14419,6.92387 -1.29823,4.18317 0.72123,0.86548 -0.14419,2.4522 -0.57697,1.00974 0.50483,0.86549 1.65887,1.65883 0.21644,1.08186 0.577,0.72123 -0.28851,-1.37035 0.93761,-0.43274 0.57699,-2.59646 -2.1637,-0.86548 0.0722,-0.43274 1.8752,-0.28849 0.64913,1.8752 0.79335,0.43274 0.0723,-1.44245 0.79336,0.21644 0.43274,0.577 -0.0722,0.50487 -2.09159,3.0292 -0.14419,0.79334 -1.2261,1.37037 v 0.79318 l 2.66857,2.74071 3.82256,5.69775 1.29822,1.51461 v 1.29823 l 2.01948,3.31768 1.65885,0.43274 0.50486,-0.86548 -1.5146,0.21643 -2.16372,-3.24558 0.14421,-1.00971 1.08184,-0.577 v -1.08186 l -0.43274,-0.93759 0.64912,-0.64912 0.28849,0.64912 0.50487,0.36062 v 2.88493 l -0.86548,-0.43274 -0.577,0.64913 1.00974,1.15397 0.72123,1.87522 0.86548,-0.43274 1.65884,0.86549 1.51461,1.58671 1.15397,3.67828 2.23584,3.46194 0.577,-0.93758 2.01945,-0.36065 2.30797,0.93762 0.21643,1.2261 2.38009,2.7407 0.0722,0.79336 1.58671,1.94735 -0.50486,0.36062 v 1.94735 l 1.94735,1.00971 h 1.08185 l 1.94734,-1.29822 1.08184,0.21644 0.79336,0.28848 1.65883,-1.2261 0.14421,-0.50487 0.86549,0.21644 1.73097,-1.2261 0.9376,-1.65883 -0.50486,-2.30797 -0.14421,-0.93759 0.79339,-2.88496 0.43274,-0.1442 0.43274,1.15397 0.57697,-1.29823 -0.57697,-5.19291 -0.28851,-7.57299 -0.72123,-4.90439 -0.50487,-1.2261 -4.76017,-8.00574 -3.75041,-6.56327 -1.58674,-2.38006 -0.93759,-2.59645 -0.1442,-2.45223 0.64909,-0.21643 v -0.64913 l -0.79334,-1.58671 -2.88494,-2.88494 -5.48139,-6.996 -4.11106,-7.50087 -3.10132,-7.71723 -0.43274,-2.66858 -0.86549,-0.72122 -0.36062,-2.74072 z m 6.63539,97.00634 1.2261,-0.0722 -0.50488,-0.72125 z m 5.26503,-0.79338 v -0.50485 l 1.15396,-0.14419 2.66859,-2.3801 1.08184,-0.43274 1.73097,-0.6491 0.21644,0.93761 1.2261,0.57697 -1.87523,0.86548 h -1.73097 l -2.8128,1.8031 z m 12.40527,-5.48139 -2.16371,1.00974 -0.72123,0.9376 0.79335,0.072 z m 2.7407,-2.09159 -0.79339,0.21644 -1.00971,1.44249 0.79336,-0.1442 1.08184,-1.15397 z m 5.98626,-11.32342 -1.22609,4.03894 -0.577,0.72123 -0.72123,1.87522 -0.86549,1.15397 -0.50487,1.2261 -1.37035,1.58674 v 0.64909 l 1.94732,-2.01945 1.73097,-2.52432 0.43274,-1.44248 1.51462,-3.53407 z"
       class="fl">
      <title
         id="title1473">Florida</title>
    </path>
    <path
       style="fill:#000066;fill-opacity:1;stroke:#00aaaa;stroke-width:0.264583;stroke-opacity:1"
       inkscape:connector-curvature="0"
       id="path1479"
       d="m 382.78312,115.52617 v 1.00973 l -3.02919,4.47168 -0.86549,0.14421 1.08186,0.36064 v 1.44245 l -0.64912,0.79335 -0.43274,4.32743 -1.65884,4.47167 0.36061,1.44248 0.50487,3.6783 -2.59645,0.21644 -2.88494,-0.50487 -1.2261,-0.64913 -1.58673,1.00974 v 1.80309 l 1.00973,1.5146 -0.3606,3.10131 -1.51461,0.43275 -0.72123,-0.79336 -0.43274,-2.30796 -36.13397,2.38009 -2.38007,-4.32743 -0.50487,-1.58671 -1.08184,-1.08186 -0.36065,-1.00974 0.43274,-4.54378 -1.73096,-4.11107 0.36064,-1.8752 0.21644,-2.66857 1.58671,-2.74071 -0.1442,-0.79335 -1.2261,-0.72123 v -2.30797 l -1.29823,-1.37035 -2.0916,-4.39955 -9.30394,-33.03263 16.51631,-2.09157 15.43446,-2.16372 -0.0723,1.37033 -1.37035,0.72126 -1.00972,2.30794 0.1442,0.93761 4.39956,2.74071 1.87521,-0.21645 2.23585,2.88494 0.28848,1.22611 3.0292,3.67832 1.87522,1.22609 1.00971,0.14421 1.58674,1.15397 0.79336,1.58673 1.44248,1.15397 1.29822,0.36061 1.94733,1.94735 0.0723,1.00974 1.87522,2.01946 3.60617,1.65884 2.59645,4.83229 0.21644,1.94733 2.8128,1.5146 1.80311,3.46194 0.577,2.23584 3.02919,0.28849 z"
       class="ga">
      <title
         id="title1477">Georgia</title>
    </path>
    <path
       style="fill:#000066;fill-opacity:1;stroke:#00aaaa;stroke-width:0.264583;stroke-opacity:1"
       inkscape:connector-curvature="0"
       id="path1483"
       d="m 61.97702,216.21082 -0.14419,2.30794 1.22612,1.37036 0.0723,0.86548 -3.46194,3.24558 -0.0723,0.86548 1.37034,2.30797 1.22612,3.0292 v 1.87519 l -0.36064,0.86549 0.0722,2.45222 2.95709,1.51458 0.79336,0.79337 0.86549,-0.79337 1.51458,-2.59645 3.24558,-2.09158 2.38006,-0.36062 1.8031,-0.72125 1.2261,-0.86548 2.30797,-2.52433 -2.01945,-0.79335 -1.00975,-1.00974 0.0722,-1.2261 -0.36062,-0.43274 h -1.44248 l 0.14421,-1.8031 -0.50487,-0.86548 -1.8752,-1.65884 -3.24559,-1.37036 -2.01945,-0.14419 -2.38009,-1.94736 -0.86548,-0.43274 z m -11.0349,-12.26102 -0.79336,1.08186 -0.0722,1.2261 1.94733,1.73097 1.37035,0.36061 0.43274,0.72123 0.28848,2.16371 2.59646,0.1442 3.82257,-1.87522 -0.0722,-1.8031 -1.00974,-0.36062 -2.52432,-1.87519 -1.29823,-0.21644 -2.09157,0.93762 -1.08189,-1.94737 z m -1.08187,8.29422 0.64913,-1.00974 1.8031,-0.21644 0.43274,1.29822 z m -5.04865,-6.27477 1.2261,2.88496 2.23584,-0.43274 0.21645,-1.44248 -1.00975,-1.08185 z m -2.95706,-4.83227 -0.79336,1.73097 h 3.60616 l 3.46195,1.15397 1.80309,-1.15397 0.1442,-1.08187 -3.46194,0.14421 z m -11.53978,-7.64512 -1.37036,1.5146 -2.09157,0.43275 0.57697,1.58671 1.58674,2.01945 0.0722,0.72126 1.51458,-0.21644 1.65884,0.0722 1.2261,0.86548 2.52435,-0.577 v -0.50484 l -0.72125,-0.577 -0.36062,-1.51461 -0.577,-0.21644 -0.36061,0.72123 -0.86549,-0.93761 0.14421,-1.00972 -1.29823,-2.38009 -0.79335,-0.50485 z m -22.93533,-8.94333 -3.02919,2.09158 0.1442,1.65884 1.73097,0.86548 1.37032,0.93762 1.94736,0.28848 1.87521,-1.58671 -0.14419,-1.37036 0.57697,-1.22609 v -1.00975 l -0.72123,-0.64909 z m -7.78936,3.46193 -0.21644,0.86549 -1.37035,0.6491 -0.43274,1.29823 0.72123,0.577 0.79335,-1.08185 1.37036,-0.43274 0.28849,-1.87523 z"
       class="hi">
      <title
         id="title1481">Hawaii</title>
    </path>
    <path
       style="fill:#000066;fill-opacity:1;stroke:#00aaaa;stroke-width:0.264583;stroke-opacity:1"
       inkscape:connector-curvature="0"
       id="path1487"
       d="m -47.43456,-51.0795 -17.59817,-3.89468 6.13052,-26.90212 2.09159,-4.18317 0.28848,-1.5146 0.577,-0.64911 -0.64913,-1.44247 -2.09158,-0.86549 0.1442,-3.0292 2.88496,-4.18317 1.80307,-0.57698 1.154,-1.65885 -0.0722,-1.15398 1.29823,-1.15398 2.30794,-3.9668 3.02919,-3.46194 -0.36062,-2.30795 -2.52431,-2.23583 -1.15397,-2.59645 0.79335,-3.10132 -0.50487,-2.88495 9.15971,-40.46138 10.24155,2.16371 -3.46194,15.86721 2.66859,5.33715 -1.15397,3.46193 2.59645,3.46194 1.37035,0.50487 2.81281,5.98626 v 1.5146 l 1.65884,2.16371 h 0.64913 l 1.00971,1.51459 h 2.30797 v 1.15399 l -5.12078,12.26102 -0.36061,2.95707 1.00971,0.36061 1.154,1.87522 2.01945,-1.00973 2.59646,-1.73097 1.37034,1.37035 0.36063,1.80309 -0.36063,2.30796 1.8031,6.996 1.8752,2.52432 1.65887,1.00974 0.28848,2.16371 v 2.95707 l 1.65884,1.65884 1.15397,-1.65884 4.97655,1.15397 1.51457,-0.86548 6.49113,1.2261 2.01948,-2.38007 1.29823,-0.43274 0.86548,1.29822 1.15397,2.95707 0.64913,0.0722 -6.13052,39.52377 -34.54725,-5.91413 z"
       class="id">
      <title
         id="title1485">Idaho</title>
    </path>
    <path
       style="fill:#000066;fill-opacity:1;stroke:#00aaaa;stroke-width:0.264583;stroke-opacity:1"
       inkscape:connector-curvature="0"
       id="path1491"
       d="m 283.0361,8.63889 -0.72125,3.75046 v 1.44245 l 1.73097,2.52435 V 16.861 l -0.21645,0.64912 0.6491,1.37036 -0.21644,1.73096 -1.15397,1.29823 -0.93761,3.0292 -2.74071,3.82254 -0.0722,5.04865 h -0.72123 l 0.64911,1.37035 v 0.64914 l -1.58671,1.94731 0.0722,0.79335 1.08183,1.58674 -0.0722,0.6491 -2.66858,0.43275 -0.43274,0.86548 -0.86548,-0.43274 -0.72126,0.36061 -0.28849,2.38009 1.22611,1.29823 -0.28848,1.73097 -1.08188,0.21644 -4.97652,-2.16371 -2.88493,2.66858 0.21644,1.29822 h -2.01946 l -1.00952,-1.08186 -1.29823,-2.74071 v -1.37036 l 0.577,-0.43274 0.0722,-0.93761 -1.22612,-1.37036 -0.6491,-1.80306 -1.94736,-2.95708 -3.46194,-0.93759 -5.33713,-5.12081 -0.28852,-1.73097 2.01949,-5.48138 -0.28852,-1.37036 0.86549,-0.79335 v -0.93762 l -2.01946,-1.08184 -2.16371,-0.50487 -2.45219,0.86549 -0.93761,-1.65884 0.43274,-1.37036 -0.50487,-1.73097 -6.20261,-6.05838 -1.58674,-1.08187 -1.8031,-4.25529 -0.86549,-3.89469 1.00975,-2.66858 0.50487,-0.50486 0.0722,-1.65884 -0.50488,-0.6491 0.72123,-1.08187 1.29823,-0.43274 0.64913,-0.21644 0.72123,-0.86549 v -1.73096 l 1.22609,-1.73097 0.36062,-0.36061 0.0722,-2.52433 -0.6491,-1.00974 -0.72125,-0.21643 -0.79335,-1.15397 0.72123,-2.88494 2.1637,-0.577 h 1.73097 l 3.02919,-1.29823 1.22613,-1.58671 0.0722,-1.73097 0.79336,-0.93761 0.93758,-2.30797 -0.072,-1.87522 -2.01948,-2.52433 h -0.86549 l -0.64909,-0.79335 0.1442,-1.15397 -1.22613,-1.2261 -1.80309,-0.93761 0.36064,-0.43274 33.10476,-2.01948 0.0722,3.3177 2.4522,3.31768 0.86549,2.95707 1.154,2.30796 z"
       class="il">
      <title
         id="title1489">Illinois</title>
    </path>
    <path
       style="fill:#000066;fill-opacity:1;stroke:#00aaaa;stroke-width:0.264583;stroke-opacity:1"
       inkscape:connector-curvature="0"
       id="path1495"
       d="m 287.14713,-28.2163 -3.67829,1.65886 -3.38981,-1.00974 2.95707,36.20607 -0.72125,3.75046 v 1.44245 l 1.73097,2.52435 V 16.861 l -0.21645,0.64912 0.6491,1.37036 -0.21644,1.73096 -1.15397,1.29823 -0.93761,3.0292 -2.74071,3.82254 -0.0722,5.04865 h -0.72123 l 0.64911,1.37035 0.79338,0.577 0.43274,-0.72125 -0.50487,-1.2261 3.31768,-0.36061 0.1442,0.86548 0.79336,0.14421 0.28849,-0.64911 -0.43275,-0.9376 0.21644,-0.577 0.93762,0.577 1.22609,-0.28852 1.2261,0.43274 2.4522,1.51461 1.29822,-2.01945 2.52432,-1.58674 2.16372,2.3801 1.15399,-1.51461 0.21644,-1.94733 2.74071,-1.65884 0.1442,0.93759 1.37033,0.86548 2.16371,-0.1442 0.86549,-0.50485 0.0722,-2.45222 1.8031,-2.66858 3.31768,-3.17342 -0.0722,-1.2261 0.86548,-2.74071 1.58671,0.72122 4.8323,-3.24554 -0.28849,-1.2261 -1.08187,-1.51461 0.72123,-1.37035 -4.76017,-41.25473 -0.072,-1.00974 -23.36808,2.4522 z"
       class="in">
      <title
         id="title1493">Indiana</title>
    </path>
    <path
       style="fill:#000066;fill-opacity:1;stroke:#00aaaa;stroke-width:0.264583;stroke-opacity:1"
       inkscape:connector-curvature="0"
       id="path1499"
       d="m 235.00173,-51.1516 1.51459,1.15397 0.43274,0.79335 -1.15397,2.3801 -0.0722,1.80307 1.44249,3.96681 1.94732,1.08186 2.3801,0.50485 0.93761,2.01947 -0.36064,0.43274 1.80309,0.93762 1.2261,1.22609 -0.1442,1.15397 0.6491,0.79337 h 0.86549 l 2.01947,2.52431 0.072,1.87523 -0.93759,2.30797 -0.79338,0.93761 -0.0722,1.73097 -1.22613,1.58671 -3.02918,1.29823 h -1.73097 l -2.16372,0.577 -0.72122,2.88493 0.79335,1.15397 0.72125,0.21644 0.64911,1.00974 -0.0722,2.52433 -0.36061,0.36061 -1.2261,1.73097 v 1.73097 l -0.72123,0.86548 -0.64913,0.21643 -1.29822,0.43275 -0.72123,1.08187 0.50487,0.6491 -0.0722,1.65885 -0.50487,0.50486 -1.08186,-0.57697 -0.79336,-0.79338 -0.43275,-1.15397 -1.22609,-0.93762 -10.31368,0.577 -19.61765,0.86548 -18.68003,-0.0722 -1.29823,-3.17345 0.50488,-1.58671 -0.57698,-2.3801 0.1442,-2.09157 -0.9376,-0.50488 -0.2885,-4.39952 -2.01945,-3.60619 -0.1442,-2.66859 -1.58671,-3.10131 -0.93762,-2.66858 v -1.0097 l -0.43219,-1.22609 v -1.65884 l -0.36061,-0.64913 -0.50488,-1.22609 -0.21643,-0.93762 -0.93759,-0.86548 0.72123,-3.10132 1.2261,-3.6783 -0.50488,-1.44247 -0.9376,-0.28849 -0.28849,-1.15397 0.72123,-0.36065 0.0722,-0.79334 -0.93761,-1.08185 0.0722,-1.154 1.58674,0.0722 h 20.33888 l 26.18087,-0.64909 13.41501,-0.50488 z"
       class="ia">
      <title
         id="title1497">Iowa</title>
    </path>
    <path
       style="fill:#000066;fill-opacity:1;stroke:#00aaaa;stroke-width:0.264583;stroke-opacity:1"
       inkscape:connector-curvature="0"
       id="path1503"
       d="M 164.46479,4.02298 132.94674,3.1575 106.98222,1.71503 l -3.46195,48.32286 48.82774,2.09159 44.71666,0.0722 -0.36062,-34.69148 -2.30794,-0.50487 -1.87522,-3.38981 -1.8031,-1.80309 0.36061,-1.65884 1.94736,-1.87523 0.0722,-0.86549 -1.08188,-1.51458 -0.64909,0.72123 -1.44249,-0.43274 -2.09157,-2.16371 z"
       class="ks">
      <title
         id="title1501">Kansas</title>
    </path>
    <path
       style="fill:#000066;fill-opacity:1;stroke:#00aaaa;stroke-width:0.264583;stroke-opacity:1"
       inkscape:connector-curvature="0"
       id="path1507"
       d="m 332.51292,49.46089 -14.78533,1.00974 -3.75045,0.57698 -12.54952,0.72124 -1.87519,0.57698 -16.29998,1.44248 -0.50486,-0.43274 h -2.66856 l 0.86548,2.30797 -0.43274,0.6491 -16.80484,1.08187 0.72126,-1.94735 1.00971,0.64912 0.50487,-0.28852 0.86549,-2.95706 -0.72123,-0.72122 0.72123,-1.44249 0.1442,-0.6491 -0.93762,-0.577 -0.21643,-1.29822 2.88494,-2.66859 4.97652,2.16371 1.08186,-0.21643 0.28849,-1.73097 -1.22609,-1.29822 0.28848,-2.38008 0.72125,-0.3606 0.86549,0.43274 0.43274,-0.86549 2.66858,-0.43274 0.0722,-0.64913 -1.08187,-1.58671 -0.0722,-0.79336 1.58673,-1.94734 v -0.6491 l 0.79337,0.57697 0.43274,-0.72122 -0.50487,-1.2261 3.31767,-0.36061 0.14421,0.86548 0.79336,0.1442 0.28848,-0.64913 -0.43274,-0.93761 0.21643,-0.57697 0.93763,0.57697 1.22609,-0.28848 1.2261,0.43274 2.45219,1.51458 1.29822,-2.01945 2.52433,-1.58671 2.16372,2.38006 1.15399,-1.51458 0.21644,-1.94736 2.74071,-1.65883 0.1442,0.93761 1.37032,0.86548 2.16371,-0.14419 0.86549,-0.50488 0.0722,-2.4522 1.8031,-2.66857 3.31771,-3.17346 -0.0722,-1.22609 0.86548,-2.74071 1.58671,0.72126 4.8323,-3.24558 -0.28849,-1.2261 -1.08187,-1.51459 0.72122,-1.37035 0.93763,0.36061 1.58673,0.0723 1.37032,-0.57699 2.09162,0.86548 1.58671,2.45221 v 0.72123 l 2.95707,0.50488 1.65883,-0.14421 1.37036,1.51459 1.58671,0.14419 v -0.72122 l 1.37035,-0.577 2.16372,0.577 0.86548,0.577 0.93761,-0.50487 h 0.64912 l 0.43275,-1.2261 2.45219,-1.29823 0.36063,0.57698 0.57699,2.09158 2.52432,1.00974 0.86549,1.51461 -0.0723,0.79336 0.43274,0.72123 -0.43274,2.59644 1.37035,1.15397 0.577,0.79339 0.72122,0.43274 -0.0722,0.64909 3.17344,4.03894 h 1.00972 l 1.08187,1.29823 0.86548,0.21643 1.00974,-0.0722 -3.53407,4.76016 -2.09157,0.72123 -2.16371,2.1637 -0.28852,1.58675 -1.51458,0.93758 -0.0722,1.22612 -1.00974,1.00971 -1.29823,0.36062 -0.3606,1.37035 -0.72124,0.28852 -4.97654,3.02918 z m -70.68118,8.14997 -0.50487,-0.50487 0.1442,-0.72123 h 0.79335 l 0.50488,0.50488 -0.21644,0.72122 z"
       class="ky">
      <title
         id="title1505">Kentucky</title>
    </path>
    <path
       style="fill:#000066;fill-opacity:1;stroke:#00aaaa;stroke-width:0.264583;stroke-opacity:1"
       inkscape:connector-curvature="0"
       id="path1511"
       d="m 267.89012,157.86278 -0.86548,-1.29823 0.21644,-0.93761 -3.46193,-4.90441 0.64912,-3.31769 0.72123,-1.00974 0.0722,-1.00973 -25.96451,1.44247 1.22609,-8.58271 1.73097,-3.46193 4.32742,-6.05839 -1.29823,-1.80309 h 1.44249 v -2.38008 l -1.73097,-1.80309 0.36062,-1.2261 -0.86549,-0.72125 -1.15396,-5.12078 0.43274,-1.00974 -37.72069,0.93761 0.36061,14.35262 0.50487,2.45219 1.87522,2.01948 0.50485,3.89468 2.74071,3.31768 0.577,3.10132 h 0.72123 l -0.0722,5.26504 -2.38008,4.61591 0.9376,1.65883 -0.9376,1.08187 0.50485,2.16371 -0.072,3.10133 -1.58675,2.52431 -0.0723,0.57697 -1.2261,0.86549 0.72126,1.29823 0.86548,0.79337 1.15397,-0.9376 3.82255,-0.64912 4.39955,-0.072 6.92388,2.74068 5.76989,0.72123 1.08185,-1.00971 1.29822,-0.14419 3.46194,1.58671 1.15397,-0.28849 0.79338,-1.08184 -3.0292,-1.29823 -1.58674,0.72123 -0.79335,-0.1442 -1.00974,-1.44246 2.38009,-1.58673 1.15397,-0.0722 v 1.22609 l 1.08187,-0.0722 2.4522,-0.21643 0.28848,1.65883 0.79339,0.28852 0.43274,1.37036 3.46193,0.72122 1.2261,1.15397 v 0.50487 h -0.86548 l -1.08187,1.2261 1.2261,0.86549 3.89467,0.72125 1.94736,2.01945 3.17345,-0.72123 -2.66858,0.14421 -0.0722,-0.43274 2.01946,-0.50488 0.14419,-1.29822 0.86549,-0.21644 v -1.00974 l 0.79336,0.0723 v 1.15397 l 1.80309,0.0722 0.577,-1.37036 0.6491,0.21644 0.1442,1.80309 0.86549,0.14421 -1.29823,1.44248 1.8752,-0.6491 1.44248,-0.79338 2.09158,-2.38007 h -0.50487 l -0.93759,0.86548 -0.2885,-0.0722 -0.36062,-0.57699 0.64912,-0.86548 v -1.65884 l 0.79337,-0.57697 0.50486,0.50484 0.72123,-0.57698 0.72122,-0.0722 0.43275,0.93761 -0.43275,1.37035 h 1.73097 l 3.67832,1.2261 0.36062,0.93761 1.15397,1.00972 2.01949,0.0722 0.93757,0.50488 1.29823,-0.72124 0.64913,-1.22612 v -1.22609 h -1.00974 l -0.86548,-1.00972 -0.79337,-0.79338 -2.30795,-0.6491 -1.8752,0.1442 -3.02919,-1.73096 v -1.65888 l 0.9376,-0.72123 1.73097,0.43274 -2.23583,-1.15397 0.1442,-0.57699 h 2.59645 l 1.87523,-2.52433 -1.87523,-1.29822 0.577,-1.08187 -0.86548,-0.57696 h -0.577 l -1.44246,1.51457 v 1.51462 l -0.43274,0.50487 -0.79336,-0.0722 -1.154,-1.00975 h -0.93761 v -1.08183 l 0.43274,-0.50488 0.577,0.50488 1.2261,-1.154 0.50487,-1.15397 0.577,-0.21644 z m -7.42874,-1.94735 1.37036,0.72123 0.57697,0.79338 1.80309,0.0722 1.08188,0.577 0.14419,1.00974 -0.28848,0.43274 -0.6491,-1.08188 -1.00973,0.86549 -0.64914,1.00974 -2.01945,0.577 -1.15397,0.0722 -2.66858,-0.72126 0.0722,-1.22609 1.44245,-1.44249 0.79339,-1.73097 z m -3.3898,0.86548 v 0.79336 l -1.29823,1.44248 h -0.86548 v -1.58671 l 1.15397,-1.08187 z"
       class="la">
      <title
         id="title1509">Louisiana</title>
    </path>
    <path
       style="fill:#000066;fill-opacity:1;stroke:#00aaaa;stroke-width:0.264583;stroke-opacity:1"
       inkscape:connector-curvature="0"
       id="path1515"
       d="m 464.42713,-90.31477 0.43274,2.88495 2.30794,1.44247 0.577,1.58672 1.65884,1.00974 1.00974,-0.21636 0.72123,-2.16372 -0.577,-2.09158 1.15399,-0.64911 0.36062,-2.01946 -0.43275,-0.93762 2.38008,-1.37034 -1.58672,-1.65885 0.64913,-1.73096 1.00971,-1.58672 0.36062,2.30795 1.15399,-1.44247 0.93762,0.64911 0.86548,-0.57699 v -1.2261 l 2.30794,-0.93761 0.21643,-2.09158 1.80311,-0.14426 1.94732,-2.66857 v -0.50488 l -0.6491,-0.3606 -0.0722,-2.38009 0.43274,-0.79336 0.1442,1.15398 0.72126,-0.36062 -0.14421,-2.30796 -0.64909,0.21639 -0.0722,0.86548 -0.86549,-1.00973 0.6491,-1.00972 0.43274,0.0721 0.79336,-0.28849 0.36064,2.01945 1.44246,-0.21638 2.09158,0.50486 v -0.72121 l -0.79336,-0.86549 0.93762,0.0721 0.0722,-1.65884 0.43274,0.57698 0.21644,1.37035 1.51461,1.08186 0.14421,-0.72124 0.64909,-0.14426 -0.21643,-0.57699 0.57696,-0.43274 -0.0722,-1.15397 -1.15397,-0.14426 -1.44248,0.50487 1.00973,-1.15398 0.50489,-0.57699 0.9376,-0.14426 0.28848,0.93761 1.22611,1.15398 0.2885,-1.5146 1.65885,-0.86548 -0.64913,-0.93761 0.0722,-1.2261 0.79335,0.36061 h 0.50487 l 1.2261,-1.00973 0.28852,-1.65884 1.58671,0.21636 0.0722,-0.50487 0.14419,-1.15398 0.36064,1.00973 1.08185,-0.72123 1.65883,-2.95708 -0.0722,-1.58673 -1.00972,-1.44246 -2.1637,-2.30796 h -1.37036 l -0.577,1.58672 -2.09157,-2.16371 0.21643,-0.57699 v -1.08186 l -1.15399,-3.24556 -0.57697,-0.14426 -0.50488,0.2885 h -3.46193 l -0.21644,-2.59646 -5.842,-18.75215 -5.26504,-2.66857 -2.09158,-0.0721 -4.83229,4.76016 -1.94735,-0.72124 -0.72122,-2.81282 h -1.94734 l -4.97654,14.06411 0.50486,4.47167 -1.22609,1.73097 -0.28851,3.31769 0.93761,2.66858 0.57699,0.14425 v 1.15398 l -1.15397,3.24557 -1.08186,1.00973 -0.93761,1.58671 -0.28849,5.62566 -1.73097,-0.72123 -1.08186,0.28849 z m 24.95478,-17.81455 -0.72122,0.57699 v 0.93761 l 0.50484,-0.57699 0.64913,0.57699 0.28848,-0.36061 0.79335,0.14425 -0.72123,-0.57699 0.28849,-0.57698 z m -1.2261,1.87522 -0.72125,0.79336 0.36064,0.2885 -0.0722,0.72123 h 0.79336 v -1.29823 z m -2.16371,-1.15398 0.6491,0.93761 0.72126,0.36062 0.21643,-0.72124 v -1.29823 l -0.9376,-0.50486 -0.28849,0.86549 z m -0.72125,3.60619 -1.2261,-1.22611 1.154,-1.73097 0.57697,0.21636 0.1442,0.79336 0.72123,0.57699 v 0.79337 l -0.72118,0.72125 z"
       class="me">
      <title
         id="title1513">Maine</title>
    </path>
    <path
       style="fill:#000066;fill-opacity:1;stroke:#00aaaa;stroke-width:0.264583;stroke-opacity:1"
       inkscape:connector-curvature="0"
       id="path1519"
       d="M 426.85068,11.09112 V 9.865 h -0.57698 v 1.29823 z m 8.51061,-2.81283 0.86548,-1.58671 0.0722,-1.80311 -0.43274,-0.43274 -0.50487,0.6491 -0.1442,1.51461 -0.577,1.00974 -0.21645,0.79336 -3.31767,1.15397 -0.50487,0.577 -0.93762,0.1442 -0.28848,0.6491 -0.93762,0.43274 -0.21644,-1.8031 0.28852,-0.50484 -0.577,-0.36064 0.1442,-1.08184 -1.154,0.72123 V 6.9079 l 0.86549,-0.21644 -1.37035,-0.28852 -0.50485,-0.57696 0.28848,-0.93761 -0.577,-0.43274 -0.50486,1.15397 0.36064,0.577 -0.50486,0.43274 -0.79337,0.3606 -1.44248,-0.72122 -0.1442,-0.86549 -0.72123,-0.79338 -1.00974,-1.22609 1.08187,-0.57698 -0.72126,-0.43274 V 1.71492 l 0.43275,-0.72123 1.22612,-0.21644 -1.00974,-0.43274 -0.0722,-0.50488 -0.93761,-0.0722 -0.28849,0.79336 -0.43274,0.21643 0.0723,-2.45219 0.72123,-0.72125 0.577,0.50487 0.0723,-1.15397 -0.72126,-0.64913 -0.6491,0.79339 -0.72126,1.00971 -0.43274,-0.72123 0.14421,-1.73097 0.64912,-0.72122 0.6491,0.64909 0.86548,-0.50487 -0.28849,-1.2261 -0.72122,0.72123 -0.64912,-1.51458 -0.14421,-1.2261 0.79338,-1.73097 0.79337,-1.00974 1.00971,-0.1442 -0.36062,-0.577 0.36062,-0.43274 -0.21644,-0.50484 0.1442,-1.51461 -1.08187,0.28848 -0.577,0.79339 0.72126,0.93758 -1.87523,2.59646 -0.6491,-0.28849 -0.50487,0.64913 -0.43274,1.58671 -1.29823,0.36061 0.93762,0.43274 0.93758,0.93762 -0.1442,0.50486 0.6491,0.86549 -0.79336,0.72122 0.36062,0.21645 -0.36062,0.93761 v 1.51458 l -0.36061,0.93762 0.6491,0.79335 0.50487,2.45222 0.93761,1.00971 1.15397,1.00974 0.28851,2.01946 1.15397,1.44248 0.28849,1.00975 v 0.72122 h -0.50487 l -1.08184,-0.86548 -0.28849,0.14419 -0.86548,-0.14419 -1.22613,-1.00974 -1.00971,-0.21645 -0.72125,0.36065 -0.86548,-0.21644 -0.28849,0.1442 -1.22611,-0.577 -0.72122,-0.72122 -0.72126,-0.93762 -0.43274,-0.1442 -0.57697,0.50485 -1.154,0.9376 -0.79335,-0.57697 -0.28848,-1.65886 0.57696,-1.51459 -0.21644,-0.36061 0.21644,-0.28849 -0.50484,-0.72125 0.72123,-0.0722 0.72123,-0.6491 0.2885,-1.29822 1.22611,-1.87522 -1.87523,-1.29823 -0.72122,1.22609 -0.43274,-0.43274 h -0.72126 l -0.43275,-0.0722 -0.28848,-0.28848 0.0722,-0.36061 -1.2261,-0.43274 -0.577,0.21643 -0.86548,-0.0722 -0.50488,-0.50488 -0.3606,-0.1442 -0.14421,-0.50486 0.43275,-0.577 v -0.6491 l -0.86549,-0.1442 -0.72123,-0.64912 -0.6491,0.0722 -1.15399,-0.21644 -0.6491,-0.28848 0.1442,-1.15397 -0.72123,-0.36061 -0.1442,-0.50488 h -0.50485 l -0.577,-0.86548 0.14421,-0.72125 -1.87523,0.28851 -1.58671,-1.154 -1.00974,0.21645 -0.64913,1.00973 h -0.93758 l -1.22613,2.09158 -2.38006,0.28852 -1.37036,-0.72126 -1.87522,2.74071 -1.58672,-0.21644 -2.23583,2.81281 -0.6491,1.15399 -1.29823,1.15397 -1.2261,-8.22209 43.63482,-8.51059 5.48139,19.54552 7.86149,-1.65887 V 4.5276 l -0.0722,2.23582 -0.72123,1.29822 z m -9.66458,-1.29823 -0.93762,0.64912 0.577,1.29823 1.2261,0.57697 -0.28849,-1.15397 z"
       class="md">
      <title
         id="title1517">Maryland</title>
    </path>
    <path
       style="fill:#000066;fill-opacity:1;stroke:#00aaaa;stroke-width:0.264583;stroke-opacity:1"
       inkscape:connector-curvature="0"
       id="path1523"
       d="m 482.38591,-57.4985 h 2.4522 l 0.64912,-0.43274 0.0722,-0.93762 -1.37035,-1.29822 0.28849,0.72125 -1.08185,1.08184 h -1.65883 l 0.072,0.577 z m -6.49113,1.29823 -0.86549,-0.43275 0.72123,-0.57697 0.43274,-1.51461 0.86549,-0.72123 0.577,-0.1442 0.43274,0.6491 0.79336,0.1442 0.43274,-0.43274 0.36061,1.37035 -0.93759,0.21645 -2.01947,0.50486 z m -25.17117,-16.87694 13.27078,-2.7407 0.72122,-1.08186 0.21645,-1.2261 1.37034,-0.43274 0.36063,-0.79336 1.22612,-0.79336 0.93759,0.21635 1.22612,2.38009 0.72123,0.28849 0.79335,-0.93761 0.577,0.93761 v 0.79336 l -2.16371,1.73097 0.1442,0.57699 -0.6491,0.72123 0.28849,0.57699 -0.93761,0.21636 0.64912,0.86548 -0.57699,0.50487 0.43274,0.72123 0.64913,-0.1442 0.21643,-0.57697 0.79336,0.43274 h 1.29822 l 1.8031,1.8752 0.1442,1.87523 1.29823,0.0722 0.57699,0.79336 0.43274,1.44249 0.72124,0.50487 h 1.37035 l 1.37035,-0.0723 0.57697,-0.64913 1.154,-0.86548 0.79336,-0.21645 -0.86548,-1.51457 -0.21645,0.64909 -1.08184,-2.59645 h -0.57699 l -0.28848,0.64913 -0.86549,-0.72126 0.93761,-0.79335 1.29822,0.28851 1.65884,1.51459 0.93762,1.94735 0.86548,2.38007 -0.72125,2.01946 v -1.29823 l -0.50487,-0.72123 -2.52433,1.65883 -0.6491,-0.21643 -1.15399,0.72125 -0.0722,0.86549 -1.58674,0.86548 -1.44246,1.51458 -1.44248,1.37036 h -0.86548 l 2.38006,-2.3801 0.36065,-1.37032 -0.36065,-0.43275 -0.21643,-0.93761 -0.64913,-0.0723 -0.072,0.93762 -0.72126,0.86548 h -0.86548 l -0.21644,0.79336 0.28848,0.86548 -0.86547,0.79336 -0.79337,-0.14421 -0.28848,0.72123 -1.00974,-2.16371 -0.93761,-0.79335 -1.87523,-0.93761 -0.43274,-1.58671 h -0.57697 l -0.50487,-1.87523 -4.68804,1.44248 -0.0722,-0.21644 -10.74643,2.4522 v 0.50487 l -0.64913,0.21644 -0.36061,-0.50487 -7.57297,1.73096 -0.50488,-0.72123 0.36062,-10.81854 z"
       class="ma">
      <title
         id="title1521">Massachusetts</title>
    </path>
    <path
       style="fill:#000066;fill-opacity:1;stroke:#00aaaa;stroke-width:0.264583;stroke-opacity:1"
       inkscape:connector-curvature="0"
       id="path1527"
       d="m 311.7413,-31.82247 0.0722,1.00974 15.43447,-2.52434 0.36063,-0.86549 2.8128,-4.25529 v -3.10133 l 0.577,-1.51457 1.58671,-0.577 1.44248,-5.62566 0.72123,-0.36061 0.72126,0.43274 -0.1442,0.43275 -0.79336,0.577 0.21643,0.64909 0.577,0.28849 1.37036,-1.00971 0.28849,-7.06813 -1.15397,-1.65884 -0.86548,-2.66858 v -1.80309 l -1.65885,-3.17343 v -1.29822 l -0.86549,-2.3801 -1.65886,-2.16371 -2.09157,-0.72122 -3.46194,2.1637 -1.8031,3.31767 -0.1442,0.64914 -2.16372,2.52432 -1.08186,-0.14421 -2.09159,-2.01947 -0.0722,-2.4522 1.08187,-1.37035 1.44245,-0.1442 0.86549,-1.22611 0.1442,-2.88493 0.57699,-0.57699 0.79336,-0.0722 0.64911,-1.2261 -0.14421,-6.92387 -0.21644,-0.93761 -0.86548,-0.86549 -1.2261,-0.72124 -0.0723,-1.29822 0.50487,-0.43275 1.29823,0.577 -0.21644,-1.2261 -1.37035,-1.94735 -0.50488,-1.15397 -0.79334,-0.79336 h -1.58675 l -5.842,-2.09159 -1.00974,-1.2261 -2.23584,-0.21639 -0.86548,0.21639 -3.17343,-1.65885 h -1.00974 l 0.36061,0.72124 -1.94732,-0.0722 0.0722,0.43274 0.43274,0.43274 -1.8031,1.5146 0.0722,1.29822 1.08185,1.65885 1.08186,0.14425 v 0.43274 l -1.08186,0.36063 -1.5146,-0.0722 -2.01948,1.80309 0.0722,1.8031 0.28848,4.18316 -1.58671,2.45221 0.577,-3.24556 -0.577,-0.43275 -0.64909,3.82256 -0.72126,-1.65884 0.36062,-1.65885 -0.36062,-0.72124 0.43274,-0.9376 -0.43274,-0.79336 0.72126,-0.72124 v -0.86548 l -0.93762,0.43274 -0.93761,2.23583 -0.50487,0.50486 -0.93761,1.73097 -1.2261,-0.14426 -0.0722,0.86549 h -1.15397 l 0.14421,1.08186 0.1442,1.44247 -2.16371,0.86549 0.0722,0.9376 0.72122,1.22611 -0.0722,3.75042 -0.93761,3.17346 -1.2261,1.80309 0.86549,1.00971 0.57698,2.52433 -0.72124,1.80309 -0.1442,1.51461 1.22609,2.45219 1.80311,3.53408 0.86549,1.37035 1.15399,4.97651 -0.0722,6.34691 -0.64912,2.81281 -1.44245,2.30796 -0.64912,2.66858 -1.44249,2.16372 -0.86548,0.72122 z m -69.09447,-69.81571 2.16371,2.74069 12.26104,2.7407 1.00971,0.72124 2.88496,0.57699 0.50487,0.36062 2.01946,-0.14426 3.53406,0.57699 1.00972,1.08185 -0.72123,0.72124 0.57699,0.57699 2.74069,0.50487 0.86548,0.86548 0.0722,3.17344 -0.9376,2.01946 1.44248,0.0722 0.72123,-0.57699 0.64912,0.57699 -0.79335,2.23584 0.72122,1.15397 0.86549,0.21636 0.57699,-1.29823 2.09159,-3.31769 1.15397,-4.32741 1.65883,-1.44247 -0.3606,-1.15399 0.3606,-0.64911 0.72126,1.15397 -0.21644,1.58672 2.09159,-1.58672 0.1442,-1.65883 1.51461,0.43274 0.57697,-1.15398 0.50487,0.43274 -0.50487,1.08185 -0.72123,0.36062 -0.72122,1.44248 1.00971,1.29823 0.79335,-0.36063 -0.36061,-0.50486 0.72125,-1.08186 1.37033,-1.2261 h 0.577 l 0.14421,-1.87521 1.44245,-1.29823 5.69777,-0.36062 1.37035,-2.23583 2.74071,-0.21636 2.74068,0.86549 3.0292,1.94734 0.50487,-0.14426 -0.1442,-2.52433 0.50484,-0.14425 3.24558,0.79334 1.08184,-0.14425 2.09161,-0.50487 1.2261,0.2885 1.29823,0.0722 v -0.79336 l -0.50488,-0.64912 -1.08186,-0.14425 -0.79337,-0.577 0.36062,-1.00973 -0.57696,-0.21638 -1.87523,0.0722 -0.0722,-0.72123 0.79336,-0.577 0.43274,0.577 0.36064,-1.29823 -0.50488,-0.50486 0.50488,-0.14426 -1.00974,-0.93761 0.21644,-0.93761 0.0722,-1.37035 h -0.9376 l -1.08185,0.72124 -1.37035,0.0721 -0.36062,1.29823 -1.37035,0.14426 -0.21644,-0.86549 -1.58674,0.0721 -0.72122,0.86548 -0.50488,-0.0722 -0.1442,-0.577 -1.87519,0.2885 -0.0722,-3.46194 0.72123,-1.44246 -0.50487,-0.0721 -1.29823,0.79336 h -1.58671 l -2.74071,1.94733 -4.47165,0.21636 -2.95707,0.57699 -1.37035,1.08186 -1.00975,0.9376 -1.80309,1.22611 -0.21644,0.57698 -0.43274,-1.2261 -0.93761,-0.43274 v 0.43274 l 0.50487,0.50487 v 0.9376 l -1.08187,-0.43274 h -0.43275 l -0.21643,0.86549 -1.44248,-1.37035 -0.93762,-0.14426 -0.93761,1.08186 -2.30794,-0.0722 -0.36061,-1.00973 -1.44249,-1.37035 -0.93761,-1.15398 v -0.50487 l -0.79335,-1.00972 -1.87523,-0.86549 -2.38006,-0.0721 -0.79336,-0.64911 h -1.00974 l -0.50487,0.28849 -1.58671,1.58672 -0.50487,0.79336 -0.72123,-0.50487 0.1442,-0.72123 0.577,-1.5146 2.30797,-3.60618 0.57697,-0.14425 1.22609,-1.37035 0.50488,-1.15398 2.16371,-0.43274 0.57699,-0.43275 -0.0722,-0.72124 -0.36063,-0.36061 -3.24557,0.14425 -1.44246,0.36062 -1.87522,0.86548 -0.86549,0.86549 -1.2261,1.58672 -1.29821,0.72124 -2.3801,2.4522 -0.28849,1.15398 -5.33716,3.31768 -2.88494,0.36062 -1.29823,0.28849 -1.65883,2.16372 -1.29823,0.50486 -3.17345,1.65885 z m 72.62853,2.74069 2.74072,0.0722 0.43274,-0.36061 -0.14421,-1.44247 -1.22609,-1.29823 -1.37036,0.0722 -0.0722,0.36062 0.79339,0.2885 -1.154,0.57698 -0.21644,0.72124 -0.43275,-0.43274 -0.2885,0.57699 z m -54.16488,-30.21981 -1.65883,0.14425 -1.94733,1.37035 -5.12078,3.82256 0.57697,0.72124 1.29823,0.21635 2.01948,-1.44247 -0.79338,-0.36062 1.65886,-1.15398 h 0.72124 l 2.1637,-1.37035 -0.0722,-0.64911 z m 29.64285,45.29367 v 0.72123 l 1.51457,1.15398 -0.1442,-1.73097 z m -0.50488,2.01946 0.79337,0.0722 v 0.64911 h -0.72124 z m 15.43446,-15.36235 v 0.64912 l 0.577,-0.14426 v -0.36062 z m 3.38983,2.23584 -0.0722,-0.79337 -1.154,-0.14425 -0.43274,-0.2885 h -0.6491 l -0.28848,0.21637 0.6491,0.28849 0.79335,0.79335 z m -12.98225,0.86548 -0.0722,0.79336 -0.21644,0.50487 0.1442,1.58672 0.28849,0.21635 0.50487,0.0722 0.36061,-0.64911 0.0722,-1.15398 -0.21644,-0.43274 -0.0722,-0.79337 z"
       class="mi">
      <title
         id="title1525">Michigan</title>
    </path>
    <path
       style="fill:#000066;fill-opacity:1;stroke:#00aaaa;stroke-width:0.264583;stroke-opacity:1"
       inkscape:connector-curvature="0"
       id="path1531"
       d="m 168.50369,-133.66109 -0.79336,2.01946 0.577,1.00973 -0.21643,3.67831 -0.36062,0.79336 1.94735,6.56326 0.93762,1.80309 0.50484,10.0973 0.72125,1.94734 -0.28851,4.18318 2.09161,5.33715 0.21644,4.18317 -0.0722,1.5146 -0.0722,1.58672 -0.6491,1.44248 -2.23584,1.37034 -0.21644,0.86549 1.2261,1.80308 0.28849,1.29823 1.87522,0.43274 1.08184,1.37036 -0.1442,28.48884 h 20.33887 l 26.18088,-0.6491 13.415,-0.50487 -0.79335,-3.24557 -0.1442,-2.16372 -1.58671,-2.1637 -2.01946,-0.50488 -3.75045,-2.59645 -0.43274,-2.38006 -4.54378,-2.23584 -0.1442,-0.93762 h -2.38007 l -1.58674,-1.87519 -1.44245,-0.93762 0.50485,-3.67831 -0.64911,-1.15398 0.36062,-3.89467 0.72123,-1.29823 -0.21645,-1.94734 -0.86548,-0.93761 -1.29822,-0.21636 v -1.22609 l 2.01945,-4.18318 4.25529,-2.81282 -0.28848,-9.37608 0.64912,0.28849 0.43274,-0.36061 0.072,-0.79336 0.64914,-0.43274 1.00973,0.86548 0.50484,-0.0722 v 0 l -0.86548,-1.58672 3.10133,-2.23584 2.23583,-2.66857 1.15397,-0.57699 3.38984,-4.25529 4.54377,-4.18317 2.81284,-1.51461 4.54378,-1.94734 5.48139,-3.24557 -0.43274,-0.28849 -2.66855,0.50487 -2.01949,0.0721 -0.72123,-1.15398 -1.00974,-0.64911 -7.06809,0.86548 -0.72126,-2.01946 -1.15397,-0.0721 -1.2261,0.57699 -2.66858,2.23583 h -2.95706 l -1.51461,-0.72124 -0.21645,-1.2261 -2.81283,-0.57699 -0.43274,-1.15398 -0.50488,-0.9376 -0.72122,0.64911 -1.87522,0.0721 -7.14024,-3.9668 h -2.09158 l -0.577,-0.50486 -2.23583,0.9376 -0.57697,0.93761 -2.3801,0.57699 -0.93761,-0.14425 v -1.22611 l -0.50487,-0.64911 h -4.2553 l -0.28805,-1.00974 h -1.87522 l -0.79335,0.28849 -1.73097,-1.2261 0.21644,-1.00973 -0.43274,-1.73097 -0.50488,-0.79336 -0.1442,-2.16371 -0.72122,-2.23583 -1.51462,-1.15398 h -2.09157 l 0.0722,5.76989 -22.28623,-0.28849 z"
       class="mn">
      <title
         id="title1529">Minnesota</title>
    </path>
    <path
       style="fill:#000066;fill-opacity:1;stroke:#00aaaa;stroke-width:0.264583;stroke-opacity:1"
       inkscape:connector-curvature="0"
       id="path1535"
       d="m 283.25245,154.83359 -3.60616,0.0722 -1.73097,-1.08185 -5.69777,1.80311 -0.64912,-0.50488 -0.36063,0.14421 -0.0722,1.15397 -0.43275,0.0722 -1.8752,1.94732 -0.50487,-0.0722 -0.43274,-0.50483 -0.86548,-1.29823 0.21644,-0.93762 -3.46194,-4.90442 0.64912,-3.31768 0.72123,-1.00974 0.0722,-1.00974 -25.96451,1.44248 1.22609,-8.58271 1.73097,-3.46194 4.32743,-6.05837 -1.29823,-1.80311 h 1.44249 v -2.38006 l -1.73097,-1.8031 0.3606,-1.2261 -0.86548,-0.72126 -1.15397,-5.12077 0.43274,-1.00974 0.86548,-1.08184 0.36063,-2.16371 -1.08188,-1.65884 -0.36061,-1.58674 0.64912,-0.50484 v -0.577 l -1.22612,-0.79335 -0.072,-0.50488 1.15397,-0.64912 -0.86548,-0.79336 1.22609,-5.12078 2.45219,-1.15397 v -0.577 l -0.79334,-1.00974 2.09157,-3.89467 h 1.37036 l 1.08187,-0.86549 -0.21644,-3.75041 2.23584,-3.24556 1.29822,-0.43275 -0.36061,-2.23583 27.62336,-1.87523 0.93761,1.44249 -0.93761,48.32284 3.17345,23.94508 z"
       class="ms">
      <title
         id="title1533">Mississippi</title>
    </path>
    <path
       style="fill:#000066;fill-opacity:1;stroke:#00aaaa;stroke-width:0.264583;stroke-opacity:1"
       inkscape:connector-curvature="0"
       id="path1539"
       d="m 233.84774,-3.6221 -0.79336,-0.79339 -0.43274,-1.15397 -1.2261,-0.93761 -10.31368,0.577 -19.61765,0.86548 -18.68003,-0.0722 0.93761,0.93761 -0.21644,1.00974 1.51458,2.66856 2.81284,4.54381 2.09159,2.16371 1.44248,0.43274 0.64909,-0.72123 1.08188,1.51458 -0.0722,0.86548 -1.94735,1.87523 -0.36062,1.65884 1.80309,1.8031 1.87523,3.3898 2.30794,0.50488 0.36062,34.69148 0.1442,7.78935 28.20035,-0.50487 28.70523,-1.44248 1.15397,1.80309 v 1.58672 l -1.22609,1.08187 -2.01948,3.67828 8.07786,-0.57697 0.72123,-1.44248 0.86548,-0.36061 v -0.50488 l -0.86548,-0.79334 -0.43274,-0.72126 1.2261,0.1442 0.577,-0.50485 -1.00974,-1.08186 1.00974,-0.36061 0.0722,-0.72123 -0.43274,-0.72126 v -0.9376 l -0.50488,-0.50484 0.14421,-0.72126 h 0.79335 l 0.50488,0.50487 -0.21645,0.72123 0.577,0.50487 0.57696,-0.72123 0.72126,-1.94735 1.00971,0.64913 0.50488,-0.28849 0.86548,-2.9571 -0.72123,-0.72122 0.72123,-1.44249 0.1442,-0.64909 -0.93761,-0.577 h -2.01944 l -1.00945,-1.08185 -1.29823,-2.7407 v -1.37036 l 0.577,-0.43274 0.0722,-0.93761 -1.22613,-1.37036 -0.64909,-1.80306 -1.94736,-2.95708 -3.46194,-0.93759 -5.33713,-5.1208 -0.28849,-1.73097 2.01946,-5.4814 -0.28849,-1.37034 0.86549,-0.79336 v -0.93761 l -2.01949,-1.08185 -2.16371,-0.50487 -2.45219,0.86549 -0.93761,-1.65884 0.43274,-1.37036 -0.50487,-1.73097 -6.20262,-6.05838 -1.58673,-1.08187 -1.8031,-4.25529 -0.86549,-3.89468 1.00974,-2.66858 z"
       class="mo">
      <title
         id="title1537">Missouri</title>
    </path>
    <path
       style="fill:#000066;fill-opacity:1;stroke:#00aaaa;stroke-width:0.264583;stroke-opacity:1"
       inkscape:connector-curvature="0"
       id="path1543"
       d="m 11.49046,-89.01654 41.32689,5.69776 36.78307,3.82256 1.44246,-14.9296 3.75043,-48.10649 -38.58616,-4.03892 -39.16316,-5.55352 -47.52949,-9.01546 -3.46194,15.86721 2.66858,5.33715 -1.15397,3.46193 2.59645,3.46194 1.37034,0.50487 2.81283,5.98626 v 1.5146 l 1.65884,2.16371 h 0.64913 l 1.00971,1.51459 h 2.30797 v 1.15399 l -5.12078,12.26102 -0.36061,2.95707 1.00971,0.36061 1.154,1.87522 2.01945,-1.00973 2.59646,-1.73097 1.37035,1.37035 0.36061,1.80309 -0.36061,2.30796 1.80309,6.996 1.8752,2.52432 1.65884,1.00974 0.28852,2.16371 v 2.95706 l 1.65884,1.65885 1.15397,-1.65885 4.97654,1.15398 1.51458,-0.86548 6.49112,1.2261 2.01948,-2.38008 1.29823,-0.43274 0.86548,1.29822 1.15397,2.95708 0.64911,0.0722 z"
       class="mt">
      <title
         id="title1541">Montana</title>
    </path>
    <path
       style="fill:#000066;fill-opacity:1;stroke:#00aaaa;stroke-width:0.264583;stroke-opacity:1"
       inkscape:connector-curvature="0"
       id="path1547"
       d="m 123.64278,-45.3096 27.407,1.15397 2.4522,2.30797 1.2261,0.1442 1.5146,1.44248 1.29823,-0.0722 1.29823,-1.44249 1.08184,0.43274 0.72126,-0.50486 0.50483,0.36061 0.64913,-0.28849 0.50487,0.28849 0.6491,-0.28849 0.72125,0.36062 1.00972,-0.43274 1.44248,0.43274 0.43274,0.79335 4.39956,1.58674 0.86548,0.9376 0.6491,1.87521 1.29822,0.50488 1.08187,-0.14421 0.36062,0.6491 v 1.65887 l 0.43274,1.22609 v 1.00972 l 0.93761,2.66858 1.58671,3.10132 0.14421,2.66858 2.01945,3.60619 0.28849,4.39956 0.9376,0.50484 -0.14419,2.0916 0.57697,2.38007 -0.50487,1.58672 1.29822,3.17344 0.93762,0.93762 -0.21644,1.00973 1.51458,2.66856 2.81283,4.54381 H 164.46467 L 132.94664,3.15743 106.98212,1.71495 107.99183,-14.22438 84.11889,-15.95535 86.78758,-47.834 Z"
       class="ne">
      <title
         id="title1545">Nebraska</title>
    </path>
    <path
       style="fill:#000066;fill-opacity:1;stroke:#00aaaa;stroke-width:0.264583;stroke-opacity:1"
       inkscape:connector-curvature="0"
       id="path1551"
       d="m -45.77573,30.92512 -2.45219,12.62164 -1.73097,2.09158 h -1.44248 l -0.86549,-1.94735 -2.66854,-1.00972 -2.52435,0.43275 -0.72123,9.8088 0.36061,3.53407 -0.36061,2.09159 -1.00974,2.16371 -50.77505,-75.72984 -0.79336,-2.52433 11.828269,-45.51004 33.898131,8.07784 17.59817,3.89468 16.80481,3.38981 z"
       class="nv">
      <title
         id="title1549">Nevada</title>
    </path>
    <path
       style="fill:#000066;fill-opacity:1;stroke:#00aaaa;stroke-width:0.264583;stroke-opacity:1"
       inkscape:connector-curvature="0"
       id="path1555"
       d="m 455.48377,-115.63017 -0.9376,0.0721 -0.72123,-0.79336 -1.37036,1.00973 -0.36061,4.39955 0.86549,1.65883 -0.79337,2.52433 1.5146,2.01946 -0.28849,1.22611 0.0723,0.9376 -0.79337,1.5146 -1.00974,0.28849 -0.43274,0.93762 -1.51458,0.72123 -0.50488,1.08186 1.00972,2.4522 -0.36061,1.80309 0.36061,1.08186 -0.72123,1.37034 0.28849,1.37035 -0.93758,1.37035 0.14419,1.58673 -0.50486,0.79336 0.50486,3.24556 0.50488,1.08186 -0.36062,1.87521 0.6491,1.29823 -0.1442,1.80309 -0.36061,0.93761 -0.0722,1.00974 1.51458,1.87521 13.27078,-2.7407 0.72122,-1.08186 0.21645,-1.2261 1.37034,-0.43274 0.36063,-0.79336 1.22612,-0.79336 0.93759,0.21635 0.577,-3.46194 -1.65885,-1.00972 -0.577,-1.58673 -2.30794,-1.44247 -0.43274,-2.88495 -8.58274,-26.5415 z"
       class="nh">
      <title
         id="title1553">New Hampshire</title>
    </path>
    <path
       style="fill:#000066;fill-opacity:1;stroke:#00aaaa;stroke-width:0.264583;stroke-opacity:1"
       inkscape:connector-curvature="0"
       id="path1559"
       d="m 440.98693,-42.20827 -10.53007,-3.53407 -1.29822,1.8031 0.0722,1.58671 -2.16371,3.89468 1.08184,1.29822 -0.50484,1.44248 -0.72126,0.72123 0.36062,2.59645 1.94735,0.64913 0.72123,2.01946 1.5146,0.79335 3.0292,2.30797 -2.3801,1.8752 -1.15397,1.65886 -1.29822,2.16371 -1.15397,0.43274 -1.00974,1.2261 -0.72123,1.58671 -0.21644,1.51462 0.577,0.64909 0.28849,1.65885 0.86548,0.43274 1.73096,1.08186 1.29823,0.57698 1.15397,0.57699 0.0722,0.79336 0.577,0.0722 0.79336,-0.86548 0.57699,0.28851 1.51459,0.14421 -0.14421,2.09158 0.14421,1.80309 1.29822,-0.50486 1.08187,-2.81284 1.15397,-3.46194 2.09159,-2.01946 0.43274,-2.52431 -0.43274,-0.86549 1.22609,-2.09158 v -0.86549 l -0.50484,-0.79335 0.86548,-1.94735 -0.21643,-2.59645 -0.43274,-5.91414 -0.86549,-1.00974 v 1.00974 l 0.36061,0.43274 h -0.79335 l -0.43274,-0.28851 -0.93762,-0.1442 -0.64909,0.43274 -0.86549,-1.15397 0.50486,-1.2261 v -0.72123 l 1.22611,-0.50486 0.57697,-1.51462 z"
       class="nj">
      <title
         id="title1557">New Jersey</title>
    </path>
    <path
       style="fill:#000066;fill-opacity:1;stroke:#00aaaa;stroke-width:0.264583;stroke-opacity:1"
       inkscape:connector-curvature="0"
       id="path1563"
       d="m 91.18713,56.96176 h -0.577 l -5.69778,71.61879 -22.93533,-1.87519 -24.81051,-2.59646 -0.21645,2.16371 1.44246,1.58672 -22.21408,-2.95706 -1.00973,7.3566 -11.32343,-1.58673 12.54952,-89.50547 37.93707,4.68803 37.28792,3.46194 z"
       class="nm">
      <title
         id="title1561">New Mexico</title>
    </path>
    <path
       style="fill:#000066;fill-opacity:1;stroke:#00aaaa;stroke-width:0.264583;stroke-opacity:1"
       inkscape:connector-curvature="0"
       id="path1567"
       d="m 462.91252,-52.16134 -0.93761,0.0722 -0.36062,0.72123 z m -22.06984,16.37207 0.50487,0.43274 0.93761,-0.21644 0.79335,0.21644 0.6491,-0.93762 h 1.37036 l 1.73097,-0.64909 3.67832,-1.51461 -0.36062,-0.36062 -1.37035,0.577 -1.44248,0.6491 0.1442,-0.577 1.8752,-0.79336 0.577,-0.72122 0.86548,0.0722 2.95706,-1.65884 v 0.50488 l -3.0292,2.16371 3.24559,-2.01949 1.2261,-1.58671 1.08184,-0.0722 3.24558,-2.23583 2.30796,-2.23584 2.16371,-1.65884 0.72123,-0.86549 -1.2261,-0.0722 -0.72125,0.86548 -0.14421,0.50487 -0.64912,0.50487 -0.57697,-0.79335 -1.22612,0.72123 -0.072,0.64909 -0.64912,-0.14419 0.36062,-0.64911 -0.86548,-0.50486 -0.43274,0.64909 0.64912,0.21644 0.1442,0.36064 -0.21644,0.36062 -1.00974,1.87519 h -1.37035 l 0.64912,-1.29819 0.6491,-0.43274 0.21644,-1.22613 1.00974,-1.15397 0.6491,-0.577 1.08187,-0.50484 -0.86548,-0.14421 -0.50487,0.64911 h -0.50487 l -0.79336,0.577 -0.1442,0.72123 -1.58671,1.5146 -0.28852,0.64911 -1.00971,0.64909 -5.55352,1.37036 0.1442,0.64912 -0.6491,0.50487 -1.44248,0.21645 -0.72123,-0.43275 -0.1442,0.79335 -0.79335,-0.28851 0.0723,0.72125 -0.86549,-0.0722 -0.86548,0.36061 -0.14421,0.79335 h -0.72122 l 0.1442,0.72123 h -0.50485 l 0.14421,0.72125 -1.29822,0.28849 -1.08185,1.65884 z m -0.577,-0.28849 -1.15397,0.28849 v 0.72123 l -0.50487,1.154 0.43274,0.50483 1.73097,-1.65883 -0.0723,-0.64911 z m -7.28448,-68.66175 -0.43275,1.37036 1.00974,0.64911 -0.28849,1.08186 0.36062,2.30795 1.58671,1.65885 -0.28848,1.58672 0.43274,1.44248 -0.28852,0.72123 -0.21644,2.7407 2.23584,4.83228 -0.57699,1.29823 0.64912,1.58672 0.64911,-1.15398 1.37034,1.08186 2.16372,10.24156 -0.36062,1.44247 0.79336,0.72125 -0.36062,10.81855 0.50488,0.72122 2.01945,11.75617 1.29823,1.08184 -2.52434,2.45222 1.22611,1.58671 -0.93761,2.38008 -1.08184,1.22612 -1.08187,1.65883 -0.14421,-0.50486 0.28852,-4.25529 -10.53006,-3.53407 -1.15398,-0.79335 -1.37036,0.21644 -2.16371,-1.58674 -2.16371,-4.18317 h -1.44247 l -0.28847,-1.08184 -1.22609,-0.79336 -50.8472,10.0252 -0.57698,-4.32743 3.10131,-2.81283 0.43274,-1.2261 2.81283,-1.80309 0.43274,-1.73097 1.65884,-1.44246 0.57699,-0.79338 -1.22608,-2.38007 -1.22613,-0.36061 -1.29823,-2.16371 -0.1442,-2.30797 5.48139,-2.8128 5.91413,-1.154 h 3.17345 l 2.30797,1.154 0.6491,-0.0722 1.29823,-1.154 2.45221,-0.50487 h 2.16372 l 1.87519,-0.93758 1.8031,-1.87524 1.73097,-2.23582 1.37036,-0.28849 0.79334,-0.36063 0.2885,-2.30795 -1.00972,-1.94735 -0.86549,-0.50486 1.44246,-0.93761 -0.072,-1.29823 h -1.08186 l -1.65884,-1.00972 -0.0722,-2.23584 4.47167,-4.39954 0.50487,-1.73097 2.66855,-4.54379 4.25532,-4.61592 1.51459,-1.2261 1.80309,0.0722 14.85749,-3.75043 z"
       class="ny">
      <title
         id="title1565">New York</title>
    </path>
    <path
       style="fill:#000066;fill-opacity:1;stroke:#00aaaa;stroke-width:0.264583;stroke-opacity:1"
       inkscape:connector-curvature="0"
       id="path1571"
       d="m 431.25023,33.30519 -20.98798,4.39956 -28.41675,5.26501 -21.20435,2.52432 v 3.75046 l -1.08185,-0.0722 -1.00973,0.86549 -1.73097,3.75042 -1.8752,-0.79336 -2.52436,1.80309 -0.50483,1.51459 -1.08188,0.86548 -0.577,-0.577 -0.072,-1.08184 -0.57701,-0.1442 -2.88493,2.38007 -0.43275,2.45222 -3.38983,1.73097 -0.3606,0.86549 -2.30794,1.87519 -2.59646,0.36064 -3.31771,2.16371 -0.57697,2.95707 -0.93761,0.6491 -1.08187,-0.0722 -1.00972,0.9376 -0.0722,3.53407 15.43445,-2.16371 3.17345,-1.37036 0.93762,-0.0722 5.26499,-3.10132 16.73271,-1.58671 0.28849,0.36061 -0.1442,1.00973 0.50487,0.21645 0.86549,-1.08187 2.38009,2.16371 0.0722,1.87522 14.20835,-2.01945 17.6703,12.33313 2.88494,-1.58671 2.16371,-0.50486 h 1.22609 l 0.79339,0.79335 0.57697,-1.44249 0.43274,-3.60616 1.2261,-2.81284 3.89468,-4.39954 2.95709,-2.52433 3.89468,-1.65884 1.80307,-0.28848 0.93761,0.28848 0.50487,0.79336 2.38009,-4.76017 2.38007,-3.82254 -0.50487,-0.21644 -3.17343,4.90442 -0.36063,-0.577 1.44248,-1.58671 -0.28848,-1.08187 -1.44249,-0.36062 0.72123,0.93762 -0.86548,0.0722 -0.86549,-1.29823 -0.86548,1.44246 -1.15397,0.1442 0.72122,-1.94732 0.50488,-1.22611 -0.14421,-2.09157 -1.58674,-0.0723 0.64914,-0.64912 0.79334,0.21643 1.94734,0.0722 0.57699,-0.36062 h 1.65884 l 1.44248,-1.37035 0.1442,-2.30797 0.93759,-1.00971 0.86548,-0.14419 0.93761,-0.72126 -0.3606,-2.66856 -1.58672,-2.7407 -1.94735,-0.14421 -0.6491,1.15397 -0.36061,-0.72123 -1.94736,0.14421 -0.86549,0.28849 -1.37035,0.86548 -0.21644,-0.28849 h -0.64912 l -1.29823,0.86548 -1.8752,0.36062 v -0.93761 l 0.57697,-0.72123 0.72126,0.50487 h 0.72123 l 1.2261,-1.51461 2.66858,-1.2261 1.44248,-1.58672 h 1.73097 l 0.57696,0.93762 1.2261,0.57698 -0.36061,-1.08185 -0.21644,-1.154 -2.01948,-2.2358 -0.21644,-1.00974 -0.28848,0.72123 -0.64913,-0.93761 z m 5.04867,22.35835 1.94733,-1.80309 3.31768,-2.3801 V 48.8118 l -0.28849,-2.23584 -1.2261,-3.0292 1.08185,1.00971 0.72124,2.30797 0.28849,5.48139 -1.22609,0.28851 -2.23584,1.73097 -2.30797,2.30794 z m 1.37033,-13.91987 -0.6491,-0.14421 v 0.72123 l 1.8031,1.58674 -0.14421,-1.00974 z m 2.09161,1.51458 -1.00974,-2.01945 -1.58671,-2.4522 -1.73097,-2.1637 -1.58674,-3.10132 -0.57698,-0.50487 1.58672,3.10132 0.21644,0.93761 2.45222,3.9668 1.29822,1.51458 z"
       class="nc">
      <title
         id="title1569">North Carolina</title>
    </path>
    <path
       style="fill:#000066;fill-opacity:1;stroke:#00aaaa;stroke-width:0.264583;stroke-opacity:1"
       inkscape:connector-curvature="0"
       id="path1575"
       d="m 168.50369,-133.66109 -0.79336,2.01946 0.577,1.00973 -0.21643,3.67831 -0.36062,0.79336 1.94735,6.56326 0.93762,1.80309 0.50484,10.0973 0.72125,1.94734 -0.28851,4.18318 2.09161,5.33715 0.21644,4.18317 -0.0722,1.5146 -21.27648,-0.28849 -33.17688,-1.5146 -28.27249,-2.09159 3.75046,-48.10649 32.09503,2.45221 39.88436,1.15398 z"
       class="nd">
      <title
         id="title1573">North Dakota</title>
    </path>
    <path
       style="fill:#000066;fill-opacity:1;stroke:#00aaaa;stroke-width:0.264583;stroke-opacity:1"
       inkscape:connector-curvature="0"
       id="path1579"
       d="m 327.89701,-32.5437 1.37036,-0.28851 2.1637,0.93762 1.51459,0.43274 0.50487,0.64909 h 0.72125 l 0.72123,-1.08183 0.93761,0.57699 h 1.08185 l -0.0723,0.72123 -2.23581,0.36061 -1.44249,0.79337 1.37036,0.57699 1.15397,-1.08184 1.73097,-0.28852 1.58671,1.08187 1.08187,-0.0722 1.80309,-1.22614 2.59646,-1.51458 3.75042,-0.21645 3.53406,-4.25528 2.74071,-2.23583 6.70748,-3.67833 3.53407,21.565 -1.58671,0.86548 1.00972,1.51458 -0.0722,1.58671 0.43275,1.44249 -0.79337,2.4522 -0.0723,3.89468 -0.72122,2.59644 0.36062,0.79339 -0.28849,1.58671 -0.79336,0.36061 -1.44248,2.38009 -1.29822,1.44246 h -0.43275 l -1.29822,1.22611 -0.93762,-0.86549 -1.08184,1.29823 -0.21644,0.86548 h -0.9376 l -0.93759,1.58674 0.0722,1.51458 -0.72122,0.36062 1.00973,0.79338 v 1.37032 l -0.72125,0.14421 -0.50484,0.577 -0.72126,0.36061 -0.43274,-1.51458 -1.15397,-0.36062 -0.72123,1.65885 -0.21643,1.58671 -0.79336,0.9376 0.9376,2.59646 -1.08186,0.577 -0.28849,2.52431 h -1.08186 l -2.30794,1.00972 -0.86548,-1.51458 -2.52434,-1.00974 -0.57699,-2.09157 -0.36061,-0.57701 -2.45223,1.29823 -0.43274,1.22612 h -0.6488 l -0.93761,0.50484 -0.86549,-0.57697 -2.1637,-0.577 -1.37036,0.577 v 0.72123 l -1.58671,-0.1442 -1.37035,-1.51461 -1.65884,0.1442 -2.95707,-0.50487 v -0.72122 l -1.58674,-2.45223 -2.09158,-0.86549 -1.37035,0.577 -1.58672,-0.0722 -0.93761,-0.36062 -4.76017,-41.25474 15.43449,-2.52433 z"
       class="oh">
      <title
         id="title1577">Ohio</title>
    </path>
    <path
       style="fill:#000066;fill-opacity:1;stroke:#00aaaa;stroke-width:0.264583;stroke-opacity:1"
       inkscape:connector-curvature="0"
       id="path1583"
       d="m 195.04521,104.347 -3.31768,-2.74068 -1.58673,-0.64913 -0.36063,1.15397 -3.67828,0.21644 -0.43274,-1.08187 -3.6062,1.8031 -1.15397,-0.50487 -2.66857,0.21643 -0.43275,1.22611 -2.59645,0.64912 -0.93762,-0.86548 -0.86548,0.072 -1.44248,-1.29822 -1.51459,0.50488 -1.44248,-0.36063 -1.29823,-1.44247 -1.80309,3.02919 -0.86548,0.577 -0.72123,-1.29823 0.21644,-1.44248 -0.86548,-0.50484 -1.65887,1.80307 -1.22611,-0.86549 -0.0723,-1.08184 -0.93758,0.36062 -1.87522,-1.2261 -2.16372,1.87523 -1.65883,-0.79339 0.50487,-1.51458 -1.65887,0.0722 -1.37033,-2.16371 -2.52435,-0.79335 -1.44245,1.65884 -1.65884,-1.58675 -1.00975,0.28852 -1.44248,0.0722 -2.52432,-1.37036 -1.65885,0.0722 -0.86548,-0.50487 -0.36061,-2.09159 -1.65884,-1.22612 -0.79338,1.08187 -1.00972,-0.72123 -0.86548,-0.28851 -0.79336,0.72125 -1.08187,-0.21643 -1.80309,-2.16371 -1.94733,-0.93762 1.00971,-30.79681 -37.93703,-2.30797 0.43274,-7.64509 11.90039,0.72122 48.82775,2.09162 44.71665,0.0722 0.14421,7.78936 2.95706,17.59817 -0.50487,28.12823 z"
       class="ok">
      <title
         id="title1581">Oklahoma</title>
    </path>
    <path
       style="fill:#000066;fill-opacity:1;stroke:#00aaaa;stroke-width:0.264583;stroke-opacity:1"
       inkscape:connector-curvature="0"
       id="path1587"
       d="m -98.930861,-63.05202 33.898131,8.07784 6.13052,-26.90212 2.09159,-4.18317 0.28848,-1.5146 0.577,-0.64911 -0.64913,-1.44247 -2.09158,-0.86549 0.1442,-3.0292 2.88496,-4.18317 1.80307,-0.57698 1.154,-1.65885 -0.0722,-1.15398 1.29823,-1.15398 2.30794,-3.9668 3.02919,-3.46194 -0.36062,-2.30795 -2.52431,-2.23583 -1.15397,-2.59645 -21.85349,-5.26504 -2.01946,0.72124 -3.89467,-0.64912 -1.29822,-0.6491 -1.08188,0.86548 -2.38006,-0.2885 -3.24558,0.36062 -0.6491,0.50487 -3.02919,-0.2885 -0.577,-1.15397 -0.86549,-0.14426 -3.17345,0.93761 -1.15397,-0.79337 -1.586711,0.57699 -0.144192,-1.29822 -1.658836,-0.86548 -1.081873,-0.14426 -0.721228,-0.79336 -2.16371,0.21636 -0.86549,-0.57699 h -0.86548 l -0.86548,0.64911 -3.96681,0.50487 -4.76017,-3.0292 0.79335,-4.03892 -0.28848,-2.95707 -2.30797,-2.66858 -2.66858,0.0721 -0.28848,-0.79333 0.28851,-0.86548 -0.50487,-0.57699 -0.72126,0.0721 -0.79335,0.9376 -1.08184,-0.14425 -0.36062,-0.79336 -0.72125,-0.0721 -0.50487,0.43274 -1.44245,-1.37035 v 3.10132 l -0.93762,0.93761 -0.79335,2.52433 -0.0722,1.65885 -3.24558,8.8712 -9.52032,22.57472 -2.30794,3.31769 -1.154,-0.0722 0.0722,1.51459 -3.75042,5.12078 -0.21644,2.38009 0.72125,0.9376 0.0722,1.73097 -0.86548,0.79336 -0.86548,2.16371 0.072,4.11106 0.86548,2.09158 z"
       class="or">
      <title
         id="title1585">Oregon</title>
    </path>
    <path
       style="fill:#000066;fill-opacity:1;stroke:#00aaaa;stroke-width:0.264583;stroke-opacity:1"
       inkscape:connector-curvature="0"
       id="path1591"
       d="m 429.30289,-46.53569 -1.37034,0.21644 -2.16372,-1.58674 -2.16371,-4.18317 h -1.44248 l -0.28849,-1.08184 -1.22609,-0.79336 -50.8472,10.0252 -0.57698,-4.32743 -3.02918,2.4522 -0.64914,0.0723 -1.94732,2.16371 -2.38009,1.2261 3.53406,21.56497 2.30797,14.20839 12.54952,-2.09161 43.63481,-8.51059 0.86548,-1.51458 1.08184,-0.79338 1.154,-0.21644 1.15397,0.43274 1.00975,-1.2261 1.15397,-0.43274 1.29822,-2.16371 1.15397,-1.65884 2.38009,-1.87522 -3.02919,-2.30794 -1.51461,-0.79336 -0.72123,-2.01948 -1.94735,-0.6491 -0.36062,-2.59645 0.72126,-0.72125 0.50484,-1.44246 -1.08184,-1.29822 2.16371,-3.89469 -0.0722,-1.58674 1.29822,-1.80306 z"
       class="pa">
      <title
         id="title1589">Pennsylvania</title>
    </path>
    <path
       style="fill:#000066;fill-opacity:1;stroke:#00aaaa;stroke-width:0.264583;stroke-opacity:1"
       inkscape:connector-curvature="0"
       id="path1595"
       d="m 470.34127,-60.02283 -0.93762,-0.79335 -1.87523,-0.93761 -0.43274,-1.58672 h -0.57697 l -0.50487,-1.87522 -4.68804,1.44248 2.30794,8.8712 -0.28848,0.79336 0.28848,1.29822 4.03894,-2.59645 0.0723,-2.16371 -0.577,-0.57697 0.28851,-0.43274 -0.0722,-0.93762 -0.64913,-0.50487 0.86548,-0.28848 -0.64909,-1.15399 1.29822,0.50486 0.21643,1.00974 0.50489,0.86549 -1.00973,-0.577 0.79336,1.22609 -0.21644,0.86549 -0.43274,-0.79336 v 1.8031 l 0.43274,-0.64913 0.28852,0.64913 0.93758,-1.08187 -0.14421,-1.80307 1.00972,2.23581 0.72125,-0.6491 z m -3.38981,8.7991 h 0.64909 l 0.36062,-0.43274 -0.57697,-0.93762 -0.50487,0.50488 z"
       class="ri">
      <title
         id="title1593">Rhode Island</title>
    </path>
    <path
       style="fill:#000066;fill-opacity:1;stroke:#00aaaa;stroke-width:0.264583;stroke-opacity:1"
       inkscape:connector-curvature="0"
       id="path1599"
       d="m 390.35612,69.43916 -14.20836,2.01945 -0.0723,-1.8752 -2.38009,-2.16371 -0.86549,1.08184 -0.50486,-0.21644 0.14419,-1.00974 -0.28848,-0.36061 -16.73271,1.58674 -5.26501,3.10129 -0.9376,0.0722 -3.17346,1.37035 -0.0722,1.37035 -1.37035,0.72123 -1.00971,2.30797 0.14419,0.93761 4.39955,2.74071 1.87522,-0.21644 2.23584,2.88494 0.28849,1.2261 3.02919,3.67832 1.87522,1.2261 1.00972,0.1442 1.58674,1.15397 0.79336,1.58671 1.44248,1.15399 1.29822,0.36062 1.94733,1.94735 0.0723,1.00974 1.87522,2.01946 3.60616,1.65884 2.59646,4.83229 0.21644,1.94732 2.8128,1.51462 1.80311,3.46194 0.57699,2.23583 3.0292,0.28848 0.57696,-1.08184 h 0.43275 l 1.29822,-1.08187 0.36064,-1.44249 2.30795,-1.51457 0.21643,-1.73097 -0.86548,-0.64913 0.57696,-0.50484 0.577,0.28849 0.93763,-0.28849 1.29822,-1.51461 2.74071,-1.29822 1.15397,-1.73097 0.0722,-0.50488 3.46194,-3.17342 -0.0722,-0.36064 -0.64912,-0.57697 0.79338,-1.08187 h 0.57696 l 0.28852,0.36061 0.50485,-0.57697 h 0.9376 l 0.43275,-1.08187 1.65884,-1.51458 -0.21644,-3.8947 0.577,-1.65885 2.59645,-4.47167 1.73096,-1.58671 1.58671,-0.79336 z"
       class="sc">
      <title
         id="title1597">South Carolina</title>
    </path>
    <path
       style="fill:#000066;fill-opacity:1;stroke:#00aaaa;stroke-width:0.264583;stroke-opacity:1"
       inkscape:connector-curvature="0"
       id="path1603"
       d="m 119.31536,-92.33423 33.17688,1.5146 21.27648,0.28849 -0.0722,1.58672 -0.6491,1.44248 -2.23584,1.37034 -0.21643,0.86549 1.22608,1.80308 0.28849,1.29823 1.87523,0.43274 1.08185,1.37036 -0.14421,28.48884 -1.58674,-0.0722 -0.0722,1.15397 0.93761,1.08186 -0.0722,0.79336 -0.72123,0.36061 0.28849,1.154 0.93762,0.28849 0.50486,1.44248 -1.22609,3.6783 -0.72123,3.10131 0.93758,0.86549 0.21644,0.93761 0.50487,1.2261 -1.08187,0.14421 -1.29823,-0.50488 -0.6491,-1.87522 -0.86548,-0.93759 -4.39955,-1.58674 -0.43274,-0.79335 -1.44247,-0.43274 -1.00972,0.43274 -0.72125,-0.36062 -0.64911,0.28849 -0.50486,-0.28849 -0.64914,0.28849 -0.50483,-0.36061 -0.72126,0.50486 -1.08185,-0.43274 -1.29823,1.44249 -1.29822,0.0722 -1.51461,-1.44248 -1.22609,-0.1442 -2.45219,-2.30797 -27.40669,-1.15397 -36.8552,-2.52432 2.81284,-31.6623 1.44246,-14.9296 z"
       class="sd">
      <title
         id="title1601">South Dakota</title>
    </path>
    <path
       style="fill:#000066;fill-opacity:1;stroke:#00aaaa;stroke-width:0.264583;stroke-opacity:1"
       inkscape:connector-curvature="0"
       id="path1607"
       d="m 281.16088,80.18558 32.96051,-2.88494 16.51633,-2.09159 0.0722,-3.53406 1.00971,-0.93761 1.08188,0.0722 0.93761,-0.64913 0.57697,-2.95707 3.31771,-2.16371 2.59645,-0.36061 2.30794,-1.87522 0.36061,-0.86549 3.38983,-1.73097 0.43274,-2.45219 2.88494,-2.38007 0.577,0.1442 0.072,1.08184 0.577,0.577 1.08187,-0.86548 0.50484,-1.51461 2.52436,-1.8031 1.87519,0.79338 1.73097,-3.75044 1.00975,-0.86549 1.08184,0.0722 v -3.75041 l 0.21643,-0.50487 -3.31768,0.36061 -0.1442,0.72123 -20.84374,2.38009 -4.03893,1.00974 -14.78533,1.00972 -3.75045,0.57699 -12.54953,0.72123 -1.87519,0.577 -16.29997,1.44248 -0.50487,-0.43274 h -2.66856 l 0.86549,2.30794 -0.43274,0.64913 -16.80484,1.08184 -0.57697,0.72125 -0.577,-0.50486 h -0.72123 v 0.9376 l 0.43275,0.72123 -0.0722,0.72122 -1.00974,0.36063 1.00974,1.08186 -0.577,0.50487 -1.22609,-0.1442 0.43274,0.72122 0.86549,0.79336 v 0.50487 l -0.86549,0.36061 -0.72123,1.44249 0.0722,0.43274 1.00971,0.72123 -0.28848,0.50487 h -1.08187 v 0.36061 l 0.64913,0.64913 0.0722,0.57697 -1.00974,0.1442 -0.36062,0.577 -1.15397,0.14421 -0.64912,0.64909 0.43274,0.64913 0.79335,-0.0722 0.36062,0.6491 -1.15397,0.93761 0.28849,1.08187 -1.44246,-0.43274 -0.0722,0.50487 0.28849,0.79336 -0.21644,1.00971 -0.93762,-0.57697 -0.577,0.57697 0.79337,0.0722 0.0722,1.08186 -0.43275,0.72123 0.79335,0.64914 -0.21643,1.08183 0.57699,0.50488 -0.50487,0.72122 -0.86549,-0.36062 -0.64912,1.58674 -1.15397,0.50485 z"
       class="tn">
      <title
         id="title1605">Tennessee</title>
    </path>
    <path
       style="fill:#000066;fill-opacity:1;stroke:#00aaaa;stroke-width:0.264583;stroke-opacity:1"
       inkscape:connector-curvature="0"
       id="path1611"
       d="m 36.95011,126.27261 0.21645,-2.16371 24.81055,2.59646 22.93533,1.87519 5.69777,-71.61879 h 0.57697 l 37.93707,2.30794 -1.00971,30.79682 1.94732,0.93761 1.8031,2.16371 1.08186,0.21643 0.79337,-0.72122 0.86548,0.28848 1.00971,0.72123 0.79338,-1.08184 1.65884,1.22609 0.36062,2.09159 0.86548,0.50487 1.65884,-0.0722 2.52433,1.37036 1.44248,-0.0722 1.00974,-0.28851 1.65884,1.58674 1.44245,-1.65884 2.52435,0.79335 1.37033,2.16372 1.65887,-0.0722 -0.50487,1.51458 1.65884,0.79339 2.16371,-1.87523 1.87523,1.2261 0.93761,-0.36061 0.072,1.08183 1.22612,0.86549 1.65885,-1.80307 0.86548,0.50484 -0.21645,1.44248 0.72126,1.29823 0.86548,-0.577 1.80308,-3.02919 1.29823,1.44247 1.44245,0.36063 1.51461,-0.50488 1.44245,1.29822 0.86548,-0.072 0.93762,0.86548 2.59644,-0.64912 0.43275,-1.22611 2.66858,-0.21643 1.15398,0.50487 3.60619,-1.8031 0.43274,1.08188 3.67829,-0.21645 0.36064,-1.15397 1.58671,0.64914 3.31768,2.74068 4.61593,1.37034 1.8752,1.65885 2.01948,-0.93762 2.30794,0.577 0.14421,8.58271 0.36061,14.35262 0.50487,2.4522 1.87522,2.01947 0.50485,3.89468 2.7407,3.31769 0.577,3.10131 h 0.72123 l -0.0722,5.26504 -2.38007,4.61591 0.93762,1.65883 -0.93762,1.08187 0.50488,2.16371 -0.0722,3.10133 -1.58674,2.52432 -0.0722,0.57696 -1.22613,0.86549 0.72126,1.29823 0.86548,0.79338 -2.52432,0.21645 -6.05839,2.81283 -2.52436,1.00971 -1.29822,1.29823 -0.50484,-0.36061 1.51458,-1.65885 1.29823,-0.50486 0.36061,-0.64911 -2.09158,-0.0722 -0.50487,-0.57699 0.577,-1.44249 -0.64913,-1.29823 h -0.43275 l -1.73096,0.93762 -1.37033,1.87522 0.21644,1.2261 2.3801,2.45219 0.93758,0.21644 v 0.577 l -1.65884,1.15397 -3.53407,2.88494 -2.88494,2.81283 -2.30796,1.00971 -3.60615,2.16371 -2.6686,1.44249 -3.24557,1.37036 -2.95707,1.80309 2.30797,-2.16371 v -0.79335 l 0.43275,-0.577 -0.14421,-1.29823 -1.08184,-0.0722 -0.79335,1.08186 -1.87523,0.93759 -1.29823,-0.86548 -0.21643,-1.22611 h -1.08185 l 0.577,1.58675 1.00971,0.50484 0.86549,0.64913 1.29822,1.15396 -0.50487,0.57701 -2.81281,1.22609 -1.2261,0.0722 -0.86548,-0.86548 -0.36061,1.51458 0.36061,0.79339 -1.94735,1.44245 -1.08184,0.1442 -0.577,0.50487 -0.28848,1.22609 -1.29823,2.38007 -1.154,0.50487 -1.15397,-0.43274 -1.29823,0.79336 0.21645,1.00974 0.93758,0.577 0.72125,0.57697 -1.29822,2.52435 -0.21644,2.01945 -0.72122,1.2261 -1.00975,0.72122 -2.09159,0.28852 1.29823,0.43274 1.37036,-0.43274 -0.28848,2.30794 -0.79339,-0.072 0.14421,0.86549 0.21644,1.00971 -0.93763,0.64912 v 2.23584 l 1.15397,1.00971 0.43275,2.23584 -0.28849,1.58671 -0.72125,0.28852 0.28851,1.08183 0.79336,0.28852 0.577,1.2261 v 1.8752 l 0.79335,1.51461 1.58671,1.87522 -0.0722,0.50484 -1.58672,-0.1442 -1.15396,1.00971 0.1442,1.00974 -0.6491,-0.21644 -1.00974,-0.14419 -2.4522,-2.66859 -1.65883,-0.43274 h -5.12081 l -2.01945,-0.57699 -2.59646,-2.16371 -1.22609,-0.72123 -1.5146,0.0722 -2.30795,-1.87522 -3.89467,-1.15397 v -0.93762 l -1.00975,-1.29823 -0.6491,-3.3898 -0.79338,-1.22609 -1.2261,-1.00974 v -1.15397 l -1.00971,-0.43274 0.43274,-1.87523 -0.21644,-1.58671 -0.93761,-1.00975 0.50487,-2.16371 -0.577,-2.30796 -1.22609,-1.00972 h -0.79337 l -2.88494,-2.52432 0.0722,-1.37035 -0.577,-1.2261 -0.57699,-0.1442 -0.6491,-1.73096 -1.44248,-1.15398 -2.09159,-1.8031 -0.1442,-1.51461 -0.72123,-0.50487 0.14421,-1.15397 0.36061,-0.50487 -1.00974,-1.08184 0.0722,-0.50487 -1.44246,-1.58671 0.0722,-1.51462 -1.94733,-3.53405 -0.0722,-1.2261 -1.2982,-2.23584 -3.67833,-3.46194 v -0.79335 l -2.38006,-1.22611 -0.0722,-1.29822 -0.86549,-0.28849 v -0.50486 l -0.577,-0.14421 -1.5146,-2.01945 h -0.57641 l -0.50487,-0.43274 -0.93761,0.79335 h -1.58671 l -1.87523,-0.79335 h -3.31768 l -3.02919,-1.51462 -0.93761,1.37036 -1.58671,-0.43274 -2.38009,0.86548 -1.22611,2.01946 -1.44248,2.30797 -0.79335,3.17345 -1.00975,0.86548 -0.79335,0.0722 -0.6491,1.15397 -0.93761,0.43275 -0.0722,1.29821 -2.09158,0.0722 -1.29823,-1.08187 h -0.72125 l -1.44245,-2.09158 -2.59646,-0.36062 -1.2261,-1.65884 -0.93761,-0.14419 -1.51461,-0.577 -2.45219,-2.4522 0.14419,-0.577 -1.15397,-0.86549 -0.72125,-0.072 -2.45219,-2.23584 -0.0722,-1.44249 -1.65884,-2.88494 0.1442,-1.154 -0.50487,-0.93757 0.57699,-1.08188 -0.0722,-1.73096 -1.87522,-2.95707 -0.43275,-3.0292 -1.15397,-1.15397 v -0.72125 l -0.86548,-0.1442 -0.50488,-0.79338 -1.73096,-1.2261 -0.64913,-0.0722 -1.37036,-1.15397 v -0.79335 l -2.09157,-1.29823 -0.43274,-1.51461 -1.87521,-1.65884 -2.30796,-3.17342 -2.16371,-0.93761 -1.51461,-1.29823 0.1442,-0.86548 -0.93762,-1.00974 -1.2261,-2.66859 -1.73096,-0.72122 z m 126.14432,99.74702 0.577,0.0722 -0.43274,-3.46194 -2.52436,-8.87122 -0.14419,-5.842 3.53406,-7.573 4.39953,-5.91413 5.19289,-3.6783 v -0.50487 h -0.57697 l -1.87522,0.72123 -2.59646,1.65884 -0.50487,1.08187 -5.91413,8.36632 -2.01946,5.69778 v 6.3469 l 2.59646,8.65484 z"
       class="tx">
      <title
         id="title1609">Texas</title>
    </path>
    <path
       style="fill:#000066;fill-opacity:1;stroke:#00aaaa;stroke-width:0.264583;stroke-opacity:1"
       inkscape:connector-curvature="0"
       id="path1615"
       d="m 1.5374,-25.98046 2.3801,-15.79507 -34.54725,-5.91416 -15.14598,78.61481 33.32114,5.91414 28.84948,4.32741 8.29422,-63.6852 z"
       class="ut">
      <title
         id="title1613">Utah</title>
    </path>
    <path
       style="fill:#000066;fill-opacity:1;stroke:#00aaaa;stroke-width:0.264583;stroke-opacity:1"
       inkscape:connector-curvature="0"
       id="path1619"
       d="m 452.95946,-109.28329 -0.79337,2.52432 1.5146,2.01946 -0.28849,1.22612 0.0723,0.93759 -0.79337,1.51461 -1.00974,0.28849 -0.43274,0.93761 -1.51458,0.72123 -0.50488,1.08186 1.00972,2.4522 -0.36061,1.8031 0.36061,1.08185 -0.72123,1.37035 0.28849,1.37035 -0.93758,1.37035 0.14419,1.58672 -0.50486,0.79336 0.50486,3.24557 0.50488,1.08185 -0.36062,1.87521 0.6491,1.29823 -0.1442,1.80309 -0.36061,0.93761 -0.0722,1.00974 1.51458,1.87521 -8.94332,1.94735 -0.79336,-0.72125 0.36062,-1.44247 -2.16371,-10.24156 -1.37036,-1.08186 -0.64909,1.15397 -0.64913,-1.58671 0.577,-1.29823 -2.23584,-4.83228 0.21644,-2.7407 0.28851,-0.72123 -0.43274,-1.44248 0.28849,-1.58672 -1.58672,-1.65885 -0.36062,-2.30795 0.28849,-1.08186 -1.00974,-0.64911 0.43274,-1.37036 -0.57697,-1.2261 19.68975,-4.97652 z"
       class="vt">
      <title
         id="title1617">Vermont</title>
    </path>
    <path
       style="fill:#000066;fill-opacity:1;stroke:#00aaaa;stroke-width:0.264583;stroke-opacity:1"
       inkscape:connector-curvature="0"
       id="path1623"
       d="m 435.36129,8.27829 -0.79336,2.01945 0.36062,0.79338 0.28848,-0.79338 0.577,-2.23582 z m -24.95481,-5.04865 -0.50484,-0.72123 0.72123,-0.0722 0.72122,-0.64912 0.28852,-1.29822 -0.14421,-0.36063 0.0722,-0.3606 -0.21645,-0.50488 -0.43274,-0.36061 -0.28848,-0.0722 -0.36061,-0.28852 -0.43274,-0.43274 h -0.72126 l -0.43274,-0.0723 -0.28848,-0.28848 0.0723,-0.36062 -1.2261,-0.43274 -0.577,0.21644 -0.86549,-0.0722 -0.50486,-0.50488 -0.36062,-0.14419 -0.1442,-0.50488 0.43274,-0.577 v -0.64909 l -0.86548,-0.14421 -0.72123,-0.64912 -0.6491,0.0722 -1.154,-0.21644 -0.28848,0.50487 -0.28849,1.154 -0.36064,1.65885 -7.21236,-3.75046 -0.1442,0.64912 0.64913,1.15397 -0.577,1.65885 0.0723,2.09161 -0.86549,0.57696 -0.36061,1.51462 -0.64913,0.57698 -1.00971,1.29822 -0.64912,0.57699 -0.72123,1.8031 -1.73097,-0.79336 -1.65885,6.13052 -0.9376,1.15397 -2.01946,-0.36061 -0.93761,-1.37036 -1.65884,-0.50487 -0.0723,3.38981 -1.00973,1.2261 0.28848,1.08187 -1.51459,1.58671 0.28849,1.37035 -2.66858,4.5438 -0.72123,2.38008 1.08187,0.86548 -1.08187,1.37035 0.0722,1.00974 -1.65884,1.44245 -0.50487,-0.79334 -3.10132,2.23583 -1.08185,-0.72123 -0.43274,1.00971 0.57697,0.36063 -0.3606,0.64912 -3.96682,1.73097 -2.1637,-1.29823 -0.57698,1.22609 -1.37035,1.29823 -1.65883,0.0722 -3.17346,-1.65883 -0.0723,-1.08185 -1.08184,-0.50486 0.57697,-0.86548 -0.50487,-0.43275 -3.53403,4.76016 -2.09161,0.72123 -2.16371,2.16369 -0.28849,1.58672 -1.51458,0.93762 -0.0723,1.22609 -1.00974,1.00974 -1.29822,0.36062 -0.36062,1.37035 -0.72123,0.28848 -4.97654,3.0292 20.84374,-2.38008 0.14421,-0.72122 3.31768,-0.36064 -0.21644,0.50487 21.20436,-2.52432 28.41671,-5.26502 20.98797,-4.39955 -0.43274,-0.86548 0.28852,-0.0722 0.6491,0.64912 -0.0723,-1.00974 -0.21644,-1.37035 1.15397,0.86548 0.64913,1.51461 v -0.9376 l -2.45223,-3.96681 v -0.86548 l -0.50486,-0.577 -0.9376,0.50486 0.36062,1.00974 h -0.57699 l -0.28849,-0.72122 -0.43274,0.6491 -0.64914,-0.79336 -1.51457,-0.0722 -0.14421,0.50488 1.08187,1.51457 -1.00974,-0.50486 -0.36061,-0.72122 -0.28849,0.577 -0.577,0.0722 -1.08187,1.2261 0.21644,-1.15397 v -1.00974 l -1.08187,-0.50486 -1.29823,-0.36062 -0.14419,-1.22609 -0.43274,-0.93763 -0.43274,0.79337 -1.22613,-0.72123 -1.44246,0.21643 0.14421,-0.64912 1.08184,-0.14421 0.64912,0.36062 1.22609,-0.57697 0.64911,0.28849 0.36062,0.72123 v 0.50486 l 1.37035,0.28851 0.21643,0.64911 0.64911,0.28849 0.64912,0.86548 1.00972,-1.15397 h 0.43274 l -0.0723,-1.51459 -0.9376,0.72123 -0.43274,-0.64912 1.08185,-0.14421 -0.86548,-0.6491 -0.86549,0.43274 -0.0723,-1.22609 -1.22609,0.1442 -1.58672,-0.79336 -1.29822,-1.58674 2.59644,1.58674 0.64911,0.21645 1.2261,-0.577 -1.2261,-0.64913 0.43274,-0.43274 -0.72123,-0.36062 0.57701,-0.1442 -0.21645,-0.6491 0.79336,0.6491 0.28851,-0.57698 0.28849,0.93759 0.86548,0.577 0.43274,-0.36062 -0.36061,-0.43274 -0.0723,-1.80309 -0.79336,-0.0722 -1.154,-0.57697 0.64913,-0.79338 -1.44248,-0.0722 -0.28849,-0.36062 -1.00973,0.43275 -1.00972,-0.57701 -0.36065,-0.86548 -1.51457,-0.86548 -1.51462,-1.29823 -1.58671,-1.37033 2.1637,0.93759 0.64914,0.86548 1.51458,0.50487 1.65885,1.8031 0.14419,-1.2261 0.43274,0.93761 1.65884,0.36061 v -2.88485 l -0.577,-0.79336 0.79339,0.28849 0.0723,-1.15397 -2.23582,-1.00974 -1.154,-0.1442 -0.93761,-0.1442 0.21645,-0.86548 -1.08188,-0.21645 -0.0722,-0.43274 h -1.29823 l -0.14421,0.577 -0.50487,-0.72126 h -1.94732 l -0.72126,-0.28849 -0.1442,-0.72122 -0.86548,-0.43274 -0.28852,-1.08187 -0.43274,-0.28848 -0.50487,0.79334 -0.64883,0.14422 -0.64913,0.50486 h -1.08183 l -0.64914,-0.93761 0.28852,-2.23584 0.36062,-1.73096 0.43274,0.36061 z m 15.7951,8.36633 0.6491,-0.0723 v -0.43274 l -0.57698,0.0722 z m 5.40925,10.24157 -0.72122,1.94733 0.86548,-0.93759 z m -1.29823,-11.03493 0.50489,0.21644 -0.14421,1.37035 -0.36064,-0.36062 -0.93759,0.72123 0.72123,0.28851 -1.29823,3.17343 0.0722,5.84203 1.37036,2.23584 0.36061,-1.08188 0.28848,-1.94731 -0.21643,-1.65884 0.50487,-0.64913 -0.14421,-1.00974 0.86549,-0.43275 -0.43275,-0.3606 0.36062,-0.50488 0.577,0.79339 -0.14421,0.79335 -0.28848,2.81281 0.79336,-1.58671 0.28849,-2.23584 0.0722,-2.16371 -0.21644,-1.44249 0.43274,-1.65883 0.79339,-1.29823 0.0723,-1.58671 0.21643,-0.64912 -3.31768,1.15399 -0.50486,0.57697 z"
       class="va">
      <title
         id="title1621">Virginia</title>
    </path>
    <path
       style="fill:#000066;fill-opacity:1;stroke:#00aaaa;stroke-width:0.264583;stroke-opacity:1"
       inkscape:connector-curvature="0"
       id="path1627"
       d="m -49.88676,-122.84254 0.50487,2.88495 -0.79336,3.10132 -21.85347,-5.26504 -2.01946,0.72124 -3.89468,-0.64912 -1.29822,-0.6491 -1.08187,0.86548 -2.38007,-0.2885 -3.24558,0.36062 -0.6491,0.50487 -3.02919,-0.2885 -0.577,-1.15397 -0.86549,-0.14426 -3.173442,0.93761 -1.153971,-0.79337 -1.586711,0.57699 -0.144208,-1.29822 -1.658836,-0.86548 -1.081866,-0.14426 -0.721236,-0.79336 -2.16371,0.21636 -0.86548,-0.57699 h -0.86549 l -0.86548,0.64911 -3.96681,0.50487 -4.76017,-3.0292 0.79336,-4.03892 -0.28848,-2.95707 -2.30797,-2.66858 -2.66858,0.0721 -0.28849,-0.79333 0.28851,-0.86548 -0.50486,-0.57699 -0.72126,0.0721 -1.51459,-1.08186 -0.86548,0.28849 -1.44248,-0.0721 -0.50487,-1.08186 -1.15397,-0.21636 1.80309,-5.40927 -0.50486,4.32742 0.36061,0.36061 v -1.44247 l 0.577,-0.14425 0.79336,1.65884 -0.36062,-1.58672 0.86548,-3.0292 1.29823,0.2885 -0.79335,-1.44247 -0.72126,0.21638 -1.08184,-0.28849 0.1442,-3.0292 0.1442,1.08186 0.6491,0.36061 0.43274,-1.15397 h 2.30797 l -1.58674,-0.8655 -1.22609,-1.37035 -1.00975,1.15398 0.86549,-2.23584 -0.21644,-3.31769 -0.14421,-2.59645 0.64913,-4.39954 -0.36064,-1.44248 -1.00972,-1.51459 0.0722,-2.88495 0.28849,-1.94734 1.44248,-1.65884 -0.50486,-1.00973 0.1442,-0.43275 0.6491,0.0721 5.62564,5.4814 3.38981,1.37035 3.67833,1.80309 2.30796,-0.0721 0.14421,2.16371 0.72122,-1.15398 h 0.50488 l 0.43274,1.94734 0.36061,-1.87521 1.00974,-0.14426 0.36062,0.50487 -0.79336,0.43274 0.0722,1.15398 0.50484,-1.08186 h 0.79339 l -0.28852,1.87522 -0.79335,-0.57699 0.28848,1.00973 -0.0722,1.08185 -0.57697,0.50487 -1.8031,2.09159 0.86549,-2.45221 -1.15397,0.2885 -0.28851,1.51459 -2.74069,2.01947 -0.28851,0.72123 -1.51459,1.58672 -0.0722,0.72124 h 1.58672 l 1.73097,-0.14426 0.36061,-0.64911 -2.81283,0.36062 v -0.43274 l 1.87522,-2.01947 1.29823,-0.57698 1.37035,-0.14426 0.72123,-1.15398 2.16371,-1.65884 v -1.00974 h 0.79336 l 0.0722,2.88495 h -1.08185 l -0.43274,0.57699 -0.79335,-0.64911 0.21643,0.79336 v 1.2261 l -0.50487,0.50487 -0.21644,-1.15398 -0.577,0.57699 0.50488,0.43274 -0.64913,0.79336 h 0.93761 l 0.50487,-0.36062 0.0722,1.44248 -0.72126,1.37034 -0.64909,0.72124 -0.0722,1.29823 -0.72123,-0.14426 -0.1442,-1.00973 0.64912,-0.79336 -0.57699,-0.36062 -0.577,0.50487 -0.50487,1.58672 -0.57697,0.64911 -0.0722,-1.44247 0.57697,-0.79336 -0.14421,-0.79336 -0.86548,0.86548 0.0722,1.58672 -0.43274,0.2885 -1.51458,-0.2885 -0.93762,0.86549 1.58672,-0.43275 -0.14421,1.58672 0.72126,-1.29822 0.28848,1.00973 0.36062,-0.72124 0.50487,1.29823 h 0.50487 l 0.50487,-0.57699 0.43274,-0.0721 1.44245,-1.37035 0.14421,-0.86549 0.57699,0.43275 0.21645,0.64911 0.50487,-0.21638 0.0722,-0.86549 h 0.93761 l 0.1442,-2.09158 -0.0722,-1.94734 0.6491,0.21635 -0.50484,-1.51457 1.00974,-0.57699 0.1442,-1.73097 1.658843,-1.58672 0.721248,0.0721 0.216445,-1.00973 -0.865485,-1.00973 -0.07224,-2.52433 -0.576971,0.64911 0.504868,2.09159 -0.432743,0.0721 -0.432742,-1.37035 -0.432743,-0.36062 0.21644,-1.65885 1.298225,-0.0721 0.216445,0.50487 0.216437,-1.15398 -1.15397,-1.2261 -0.432737,-1.15398 -0.1442,1.44247 0.649119,0.79336 -0.504869,0.2885 -0.72126,-0.57699 -1.29823,0.93761 1.08188,0.36061 0.1442,1.73097 -0.21644,1.29823 0.6491,-0.93761 1.009742,1.65884 -0.288486,1.37036 h -1.081876 v -0.86549 l -1.08184,-0.86548 0.36062,-2.16371 -1.37036,-1.87522 1.94736,-2.16371 0.43274,-2.95707 h 0.6491 l 1.009734,2.30796 v -1.87521 l 0.865484,0.21635 v -2.38008 l -0.649123,-0.57698 -0.865484,1.80309 -0.721231,-2.16371 0.937612,-0.0721 -1.081862,-3.53406 1.370354,-0.43274 18.319416,5.40927 22.8632,5.76989 17.0212,3.9668 z m -56.76133,-28.41673 h 0.36061 l 0.0722,0.57699 -0.36061,0.21639 0.0722,0.43274 -0.50487,0.28849 -0.1442,-0.64911 0.36063,-0.28849 z m 3.60619,-3.10132 -0.86549,1.37035 -0.0722,0.57699 0.28849,0.14426 0.36062,-0.43274 0.79335,0.0721 z m -0.28851,-15.57871 0.36064,0.43274 0.93758,-0.21635 0.14421,-0.72124 0.86548,-1.29823 -0.72122,-0.28849 -0.50488,1.15398 -0.0722,-1.15398 -0.79335,0.14425 -0.50487,1.00973 z m 2.30796,-3.9668 0.50488,1.08185 -0.64913,0.14426 -0.57697,0.2885 -0.1442,-1.73097 z m -1.94732,-1.15398 -0.79339,-0.14425 0.36065,1.00973 z m -0.72125,1.80309 0.57699,0.2885 -0.28848,0.79336 1.22609,-0.36062 -0.1442,-1.58672 -0.64909,-0.14426 z m -1.94733,-0.28849 0.21644,1.94734 1.154,0.9376 0.43274,-1.37034 -0.79339,-1.58672 z m 1.37035,-0.79336 -0.79338,-0.72124 -0.6491,0.0721 1.29823,1.08186 z m 2.30794,-5.04866 h -0.86548 v 0.57699 l 0.86548,0.43274 z m -0.6491,23.44019 0.28849,-1.94734 h -0.79336 l -0.1442,1.37035 z"
       class="wa">
      <title
         id="title1625">Washington</title>
    </path>
    <path
       style="fill:#000066;fill-opacity:1;stroke:#00aaaa;stroke-width:0.264583;stroke-opacity:1"
       inkscape:connector-curvature="0"
       id="path1631"
       d="m 355.08763,31.42999 -0.57697,0.86548 1.08184,0.50488 0.0722,1.08184 3.17344,1.65884 1.65884,-0.0722 1.37036,-1.29823 0.57697,-1.2261 2.16371,1.29823 3.96681,-1.73097 0.36061,-0.64912 -0.57697,-0.36062 0.43275,-1.00972 1.08183,0.72123 3.10133,-2.23583 0.50487,0.79335 1.65873,-1.44246 -0.0723,-1.00973 1.08186,-1.37036 -1.08186,-0.86548 0.72123,-2.38007 2.66858,-4.54381 -0.28849,-1.37032 1.51459,-1.58674 -0.28849,-1.08185 1.00975,-1.22612 0.0722,-3.3898 1.65884,0.50486 0.93761,1.37037 2.01945,0.3606 0.93762,-1.15397 1.65883,-6.13051 1.73097,0.79335 0.72123,-1.80309 0.64913,-0.57697 1.00972,-1.29823 0.64912,-0.577 0.36061,-1.51461 0.86548,-0.57697 -0.0722,-2.09159 0.57699,-1.65886 -0.64913,-1.15397 0.1442,-0.6491 7.21237,3.75042 0.36064,-1.65883 0.28848,-1.15401 0.28849,-0.50483 -0.64911,-0.28852 0.14421,-1.15397 -0.72123,-0.36061 -0.14421,-0.50487 h -0.50484 l -0.57699,-0.86549 0.1442,-0.72123 -1.87523,0.28849 -1.58671,-1.15397 -1.00973,0.21644 -0.64913,1.00972 h -0.93759 l -1.22613,2.09157 -2.38006,0.28852 -1.37035,-0.72126 -1.87523,2.74071 -1.58671,-0.21644 -2.23584,2.81283 -0.6491,1.15397 -1.29823,1.15398 -1.2261,-8.2221 -12.54951,2.09158 -2.30797,-14.20835 -1.58671,0.86548 1.00971,1.51461 -0.0722,1.58671 0.43274,1.44248 -0.79336,2.4522 -0.0722,3.89467 -0.72124,2.59646 0.36061,0.79335 -0.28848,1.58674 -0.79336,0.36062 -1.44247,2.38007 -1.29823,1.44247 h -0.43274 l -1.29823,1.2261 -0.93761,-0.86547 -1.08184,1.29822 -0.21645,0.86548 h -0.93761 l -0.93759,1.58671 0.0723,1.51462 -0.72123,0.36061 1.00973,0.79335 V 8.2782 l -0.72125,0.14421 -0.50484,0.577 -0.72125,0.36061 -0.43275,-1.51461 -1.15397,-0.36061 -0.72122,1.65883 -0.21644,1.58675 -0.79336,0.93761 0.93761,2.59645 -1.08187,0.57697 -0.28848,2.52433 h -1.08187 l -2.30794,1.00973 -0.0723,0.79337 0.43274,0.72125 -0.43274,2.59644 1.37036,1.15398 0.57697,0.79336 0.72125,0.43274 -0.0723,0.64912 3.17345,4.03891 h 1.00971 l 1.08187,1.29822 0.86549,0.21645 1.00971,-0.0722 z"
       class="wv">
      <title
         id="title1629">West Virginia</title>
    </path>
    <path
       style="fill:#000066;fill-opacity:1;stroke:#00aaaa;stroke-width:0.264583;stroke-opacity:1"
       inkscape:connector-curvature="0"
       id="path1635"
       d="m 274.02064,-79.27985 -2.09161,0.57699 0.1442,1.65885 -1.73097,2.4522 -0.1442,2.23584 0.43275,0.50486 0.57699,-0.50486 0.36063,-1.15398 1.44247,-0.79337 1.15397,-3.02919 2.52433,-0.79336 0.577,-2.38007 0.50486,-0.64913 0.28849,-1.51459 1.29822,-0.79337 v -1.08185 l 0.72126,-0.64911 1.00971,0.0722 v 1.44247 l -0.72123,0.0722 0.36063,0.86548 -0.50488,1.58672 -0.43275,0.0722 -0.86548,3.24558 -0.50486,0.36061 -2.01946,5.19291 -0.21644,3.02919 0.43274,1.44247 0.0722,0.9376 -1.73097,1.37036 0.21644,1.37036 -0.64912,2.23584 0.21643,1.15397 0.28849,2.66857 -0.79336,2.95707 -1.08184,3.60619 0.72123,1.08184 -0.21643,0.21644 0.57699,1.2261 -0.36062,0.79335 0.79336,0.64913 v 1.94733 l 0.93761,1.08187 -0.28848,2.1637 0.21643,2.88494 -33.10474,2.01948 -0.93762,-2.01948 -2.38009,-0.50486 -1.94733,-1.08185 -1.44247,-3.9668 0.0722,-1.8031 1.15397,-2.38007 -0.43274,-0.79336 -1.51459,-1.15399 -0.14421,-1.87519 -0.79335,-3.24559 -0.1442,-2.16371 -1.58672,-2.16371 -2.01945,-0.50486 -3.75044,-2.59646 -0.43274,-2.38007 -4.54379,-2.23584 -0.14419,-0.9376 h -2.38008 l -1.58672,-1.87523 -1.44247,-0.9376 0.50484,-3.6783 -0.64909,-1.15398 0.36061,-3.89468 0.72122,-1.29823 -0.21643,-1.94734 -0.86548,-0.9376 -1.29823,-0.21636 v -1.2261 l 2.01945,-4.18318 4.25529,-2.81282 -0.28848,-9.37608 0.64913,0.2885 0.43274,-0.36062 0.072,-0.79336 0.64912,-0.43274 1.00975,0.86548 0.50484,-0.0722 h 1.87522 l 4.90442,-1.87522 0.21644,-0.72123 h 0.86549 l 0.50487,-0.86548 0.28848,0.57698 1.29823,-0.64911 1.29823,-1.2261 0.21643,0.36062 0.72123,-0.72124 1.58674,1.15398 -0.577,1.15398 -0.86549,1.00973 0.36063,1.08185 -1.00975,1.15398 0.28851,0.64912 1.65884,-0.79337 v -1.00973 l 2.38007,1.37036 1.37035,0.50486 1.37036,0.50487 2.1637,2.74069 12.26104,2.7407 1.00971,0.72124 2.88497,0.57699 0.50486,0.36062 2.01946,-0.14426 3.53407,0.57699 1.00972,1.08185 -0.72123,0.72124 0.57699,0.57699 2.74069,0.50487 0.86548,0.86548 0.0722,3.17344 -0.93761,2.01946 1.44249,0.0722 0.72122,-0.577 0.64912,0.577 -0.79335,2.23584 0.72123,1.15397 0.86548,0.21636 z m -35.70123,-26.90213 -0.36061,0.0722 -1.08187,1.15398 0.1442,0.36063 1.08187,-0.43274 v -0.43275 l 0.6491,-0.21636 z m 1.15397,-0.79335 -0.72123,0.21635 -0.14419,0.50487 0.64912,-0.0722 z m -0.93758,-1.15399 -0.1442,0.64912 h 1.2261 l 0.43274,-0.28849 0.0722,-0.72125 z m 2.01946,-2.1637 -0.21645,1.37034 0.86548,-0.36061 0.0722,-1.00973 z m 42.04809,23.00745 -1.44247,0.21635 -0.28849,0.93761 0.93761,1.22611 z"
       class="wi">
      <title
         id="title1633">Wisconsin</title>
    </path>
    <path
       style="fill:#000066;fill-opacity:1;stroke:#00aaaa;stroke-width:0.264583;stroke-opacity:1"
       inkscape:connector-curvature="0"
       id="path1639"
       d="m 89.60042,-79.49622 -36.78307,-3.82256 -41.32689,-5.69776 -1.44247,7.71722 -6.13049,39.52379 -2.3801,15.79507 23.15171,3.46193 32.38352,4.11107 27.04637,2.45219 2.66858,-31.87865 z"
       class="wy">
      <title
         id="title1637">Wyoming</title>
    </path>
    <path
       style="fill:#000066;fill-opacity:1;stroke:#00aaaa;stroke-width:0.264583;stroke-opacity:1"
       inkscape:connector-curvature="0"
       id="path1643"
       d="m 412.8587,-1.3863 -1.87523,-1.2982 -0.72122,1.22611 0.36062,0.28848 0.28848,0.0722 0.43274,0.36062 0.21644,0.50487 -0.0722,0.36061 0.14419,0.36062 z"
       class="dc">
      <title
         id="title1641">District of Columbia</title>
    </path>
  </g>
</svg>
