<?xml version="1.0" encoding="UTF-8" standalone="no"?>
<!-- Created with Inkscape (http://www.inkscape.org/) -->

<svg
   width="391.62744"
   height="228.4342"
   viewBox="0 0 103.61809 60.439883"
   version="1.1"
   id="svg1"
   xml:space="preserve"
   inkscape:version="1.3.2 (1:1.3.2+202311252150+091e20ef0f)"
   sodipodi:docname="multidimensional.svg"
   xmlns:inkscape="http://www.inkscape.org/namespaces/inkscape"
   xmlns:sodipodi="http://sodipodi.sourceforge.net/DTD/sodipodi-0.dtd"
   xmlns="http://www.w3.org/2000/svg"
   xmlns:svg="http://www.w3.org/2000/svg"
   xmlns:ns1="http://www.iki.fi/pav/software/textext/"><sodipodi:namedview
     id="namedview1"
     pagecolor="#ffffff"
     bordercolor="#666666"
     borderopacity="1.0"
     inkscape:showpageshadow="2"
     inkscape:pageopacity="0.0"
     inkscape:pagecheckerboard="0"
     inkscape:deskcolor="#000033"
     inkscape:document-units="px"
     showguides="true"
     showgrid="true"
     inkscape:zoom="1"
     inkscape:cx="144"
     inkscape:cy="1644"
     inkscape:window-width="1848"
     inkscape:window-height="1016"
     inkscape:window-x="72"
     inkscape:window-y="27"
     inkscape:window-maximized="1"
     inkscape:current-layer="layer1"><sodipodi:guide
       position="104.89663,419.40106"
       orientation="1,0"
       id="guide1"
       inkscape:locked="false" /><inkscape:grid
       id="grid4"
       units="px"
       originx="-0.67212336"
       originy="-419.40106"
       spacingx="13.229166"
       spacingy="13.229166"
       empcolor="#3f3fff"
       empopacity="0.25098039"
       color="#3f3fff"
       opacity="0.1254902"
       empspacing="1"
       dotted="false"
       gridanglex="30"
       gridanglez="30"
       visible="true" /><inkscape:grid
       id="grid33"
       units="px"
       originx="-0.67212336"
       originy="-419.40106"
       spacingx="2.6458333"
       spacingy="2.6458333"
       empcolor="#3f3fff"
       empopacity="0.25098039"
       color="#3f3fff"
       opacity="0.1254902"
       empspacing="5"
       dotted="false"
       gridanglex="30"
       gridanglez="30"
       visible="true" /></sodipodi:namedview><defs
     id="defs1" /><g
     inkscape:label="Layer 1"
     inkscape:groupmode="layer"
     id="layer1"
     transform="translate(-0.67212338,-419.40106)"><path
       style="fill:#00ffff;fill-opacity:1;stroke:none;stroke-width:0.264583px;stroke-linecap:butt;stroke-linejoin:miter;stroke-opacity:1"
       d="m 0.67212969,450.05595 10.24726831,5.91627 10.247268,-5.91627 -10.247268,-5.91627 z"
       id="path123" /><path
       style="fill:#00aaaa;fill-opacity:1;stroke:none;stroke-width:0.264583px;stroke-linecap:butt;stroke-linejoin:miter;stroke-opacity:1"
       d="m 21.166666,450.05595 -10.247274,5.91626 6e-6,11.83252 10.247274,-5.91625 z"
       id="path124" /><path
       style="fill:#006666;fill-opacity:1;stroke:none;stroke-width:0.264583px;stroke-linecap:butt;stroke-linejoin:miter;stroke-opacity:1"
       d="m 10.919398,467.80473 6e-6,-11.83253 -10.24726638,-5.91625 -1.42e-5,11.83252 z"
       id="path125" /><g
       transform="matrix(0.521729,0,0,0.521729,9.415107,470.31208)"
       ns1:version="1.10.0"
       ns1:texconverter="pdflatex"
       ns1:pdfconverter="inkscape"
       ns1:text="$x$"
       ns1:preamble="/home/hayastl/.config/inkscape/extensions/textext"
       ns1:scale="1.478915215614537"
       ns1:alignment="middle center"
       ns1:stroke-to-path="0"
       ns1:inkscapeversion="1.3.2"
       id="g131"
       ns1:jacobian_sqrt="0.521729"
       style="fill:#00aaaa;fill-opacity:1"><defs
   id="defs127" />
  <g
   id="g130"
   transform="translate(-149.009,-130.359)"
   style="fill:#00aaaa;fill-opacity:1">
    <g
   style="fill:#00aaaa;fill-opacity:1"
   id="g129">
      <g
   transform="translate(148.712,134.765)"
   id="g128"
   style="fill:#00aaaa;fill-opacity:1"><path
   style="fill:#00aaaa;fill-opacity:1;stroke:none;stroke-width:0"
   d="M 3.328125,-3.015625 C 3.390625,-3.265625 3.625,-4.1875 4.3125,-4.1875 c 0.046875,0 0.296875,0 0.5,0.125 C 4.53125,-4 4.34375,-3.765625 4.34375,-3.515625 c 0,0.15625 0.109375,0.34375 0.375,0.34375 0.21875,0 0.53125,-0.171875 0.53125,-0.578125 0,-0.515625 -0.578125,-0.65625 -0.921875,-0.65625 -0.578125,0 -0.921875,0.53125 -1.046875,0.75 -0.25,-0.65625 -0.78125,-0.75 -1.078125,-0.75 -1.03125,0 -1.609375,1.28125 -1.609375,1.53125 0,0.109375 0.109375,0.109375 0.125,0.109375 0.078125,0 0.109375,-0.03125 0.125,-0.109375 0.34375,-1.0625 1,-1.3125 1.34375,-1.3125 0.1875,0 0.53125,0.09375 0.53125,0.671875 0,0.3125 -0.171875,0.96875 -0.53125,2.375 -0.15625,0.609375 -0.515625,1.03125 -0.953125,1.03125 -0.0625,0 -0.28125,0 -0.5,-0.125 0.25,-0.0625 0.46875,-0.265625 0.46875,-0.546875 0,-0.265625 -0.21875,-0.34375 -0.359375,-0.34375 -0.3125,0 -0.546875,0.25 -0.546875,0.578125 0,0.453125 0.484375,0.65625 0.921875,0.65625 0.671875,0 1.03125,-0.703125 1.046875,-0.75 0.125,0.359375 0.484375,0.75 1.078125,0.75 1.03125,0 1.59375,-1.28125 1.59375,-1.53125 0,-0.109375 -0.078125,-0.109375 -0.109375,-0.109375 -0.09375,0 -0.109375,0.046875 -0.140625,0.109375 -0.328125,1.078125 -1,1.3125 -1.3125,1.3125 -0.390625,0 -0.546875,-0.3125 -0.546875,-0.65625 0,-0.21875 0.046875,-0.4375 0.15625,-0.875 z m 0,0"
   id="path128" />
      </g></g>
  </g>
</g><g
       transform="matrix(0.521729,0,0,0.521729,8.81615,449.56917)"
       ns1:version="1.10.0"
       ns1:texconverter="pdflatex"
       ns1:pdfconverter="inkscape"
       ns1:text="$x^3$"
       ns1:preamble="/home/hayastl/.config/inkscape/extensions/textext"
       ns1:scale="1.478915215614537"
       ns1:alignment="middle center"
       ns1:stroke-to-path="0"
       ns1:inkscapeversion="1.3.2"
       id="g141"
       ns1:jacobian_sqrt="0.521729"
       style="fill:#000033;fill-opacity:1;stroke-width:0"><defs
   id="id-b7511a56-619e-4028-b377-a3dfac547455"
   style="fill:#000033;fill-opacity:1;stroke-width:0" />
  <g
   id="id-5c2d3227-5f74-4f2d-811d-cfbb0614bf3b"
   transform="translate(-149.009,-126.524)"
   style="fill:#000033;fill-opacity:1;stroke-width:0">
    <g
   style="fill:#000033;fill-opacity:1;stroke-width:0"
   id="id-0639384c-653c-4b59-9347-878c0fb0c242">
      <g
   transform="translate(148.712,134.765)"
   id="g5683"
   style="fill:#000033;fill-opacity:1;stroke-width:0"><path
   style="fill:#000033;fill-opacity:1;stroke:#000033;stroke-width:0"
   d="M 3.328125,-3.015625 C 3.390625,-3.265625 3.625,-4.1875 4.3125,-4.1875 c 0.046875,0 0.296875,0 0.5,0.125 C 4.53125,-4 4.34375,-3.765625 4.34375,-3.515625 c 0,0.15625 0.109375,0.34375 0.375,0.34375 0.21875,0 0.53125,-0.171875 0.53125,-0.578125 0,-0.515625 -0.578125,-0.65625 -0.921875,-0.65625 -0.578125,0 -0.921875,0.53125 -1.046875,0.75 -0.25,-0.65625 -0.78125,-0.75 -1.078125,-0.75 -1.03125,0 -1.609375,1.28125 -1.609375,1.53125 0,0.109375 0.109375,0.109375 0.125,0.109375 0.078125,0 0.109375,-0.03125 0.125,-0.109375 0.34375,-1.0625 1,-1.3125 1.34375,-1.3125 0.1875,0 0.53125,0.09375 0.53125,0.671875 0,0.3125 -0.171875,0.96875 -0.53125,2.375 -0.15625,0.609375 -0.515625,1.03125 -0.953125,1.03125 -0.0625,0 -0.28125,0 -0.5,-0.125 0.25,-0.0625 0.46875,-0.265625 0.46875,-0.546875 0,-0.265625 -0.21875,-0.34375 -0.359375,-0.34375 -0.3125,0 -0.546875,0.25 -0.546875,0.578125 0,0.453125 0.484375,0.65625 0.921875,0.65625 0.671875,0 1.03125,-0.703125 1.046875,-0.75 0.125,0.359375 0.484375,0.75 1.078125,0.75 1.03125,0 1.59375,-1.28125 1.59375,-1.53125 0,-0.109375 -0.078125,-0.109375 -0.109375,-0.109375 -0.09375,0 -0.109375,0.046875 -0.140625,0.109375 -0.328125,1.078125 -1,1.3125 -1.3125,1.3125 -0.390625,0 -0.546875,-0.3125 -0.546875,-0.65625 0,-0.21875 0.046875,-0.4375 0.15625,-0.875 z m 0,0"
   id="id-5c9fa3fc-e106-4907-a53b-1669d09482e0" />
      </g></g>
    <g
   style="fill:#000033;fill-opacity:1;stroke-width:0"
   id="id-0642a11d-e920-4f92-aec7-04bcbfaafb5c">
      <g
   transform="translate(154.406,131.149)"
   id="g8955"
   style="fill:#000033;fill-opacity:1;stroke-width:0"><path
   style="fill:#000033;fill-opacity:1;stroke:#000033;stroke-width:0"
   d="m 1.90625,-2.328125 c 0.546875,0 0.9375,0.375 0.9375,1.125 0,0.859375 -0.515625,1.125 -0.90625,1.125 -0.28125,0 -0.90625,-0.078125 -1.1875,-0.5 0.328125,0 0.40625,-0.234375 0.40625,-0.390625 0,-0.21875 -0.171875,-0.375 -0.390625,-0.375 -0.1875,0 -0.390625,0.125 -0.390625,0.40625 0,0.65625 0.71875,1.078125 1.5625,1.078125 0.96875,0 1.640625,-0.65625 1.640625,-1.34375 0,-0.546875 -0.4375,-1.09375 -1.203125,-1.25 0.71875,-0.265625 0.984375,-0.78125 0.984375,-1.21875 0,-0.546875 -0.625,-0.953125 -1.40625,-0.953125 -0.765625,0 -1.359375,0.375 -1.359375,0.9375 0,0.234375 0.15625,0.359375 0.359375,0.359375 0.21875,0 0.359375,-0.15625 0.359375,-0.34375 0,-0.203125 -0.140625,-0.359375 -0.359375,-0.375 0.25,-0.296875 0.71875,-0.375 0.984375,-0.375 0.3125,0 0.75,0.15625 0.75,0.75 0,0.296875 -0.09375,0.625 -0.28125,0.828125 -0.21875,0.265625 -0.421875,0.28125 -0.765625,0.3125 -0.171875,0.015625 -0.1875,0.015625 -0.21875,0.015625 -0.015625,0 -0.078125,0.015625 -0.078125,0.09375 0,0.09375 0.0625,0.09375 0.1875,0.09375 z m 0,0"
   id="id-dcd9b65b-805a-4c60-b8a1-c53a112b9fff" />
      </g></g>
  </g>
</g><path
       style="fill:#00ffff;fill-opacity:1;stroke:none;stroke-width:0.264582px;stroke-linecap:butt;stroke-linejoin:miter;stroke-opacity:1"
       d="M 61.010264,431.23358 81.5048,443.06612 101.99934,431.23358 81.5048,419.40104 Z"
       id="path141" /><path
       style="fill:#00aaaa;fill-opacity:1;stroke:none;stroke-width:0.264582px;stroke-linecap:butt;stroke-linejoin:miter;stroke-opacity:1"
       d="m 101.99934,431.23358 -20.494552,11.83252 1.2e-5,23.66504 20.49455,-11.8325 z"
       id="path142" /><path
       style="fill:#006666;fill-opacity:1;stroke:none;stroke-width:0.264582px;stroke-linecap:butt;stroke-linejoin:miter;stroke-opacity:1"
       d="m 81.5048,466.73114 1.2e-5,-23.66506 -20.494532,-11.8325 -2.8e-5,23.66504 z"
       id="path143" /><g
       transform="matrix(0.521729,0,0,0.521729,77.4972,435.269)"
       ns1:version="1.10.0"
       ns1:texconverter="pdflatex"
       ns1:pdfconverter="inkscape"
       ns1:text="$8x^3$"
       ns1:preamble="/home/hayastl/.config/inkscape/extensions/textext"
       ns1:scale="1.478915215614537"
       ns1:alignment="middle center"
       ns1:stroke-to-path="0"
       ns1:inkscapeversion="1.3.2"
       id="g158"
       ns1:jacobian_sqrt="0.521729"
       style="fill:#000033;fill-opacity:1;stroke-width:0"><defs
   id="id-7f592ed7-7cb9-4084-8d45-6fa2d41f10ac"
   style="fill:#000033;fill-opacity:1;stroke-width:0" />
  <g
   id="id-6781da6e-2c31-4c0d-91c4-adeeac9a4b09"
   transform="translate(-149.134,-126.524)"
   style="fill:#000033;fill-opacity:1;stroke-width:0">
    <g
   style="fill:#000033;fill-opacity:1;stroke-width:0"
   id="id-67967fae-d98d-4ec8-a73b-337ea3dbd8b5">
      <g
   transform="translate(148.712,134.765)"
   id="g4637"
   style="fill:#000033;fill-opacity:1;stroke-width:0"><path
   style="fill:#000033;fill-opacity:1;stroke:#000033;stroke-width:0"
   d="m 1.625,-4.5625 c -0.453125,-0.296875 -0.5,-0.625 -0.5,-0.796875 0,-0.609375 0.65625,-1.03125 1.359375,-1.03125 0.71875,0 1.359375,0.515625 1.359375,1.234375 0,0.578125 -0.390625,1.046875 -0.984375,1.390625 z m 1.453125,0.953125 C 3.796875,-3.984375 4.28125,-4.5 4.28125,-5.15625 c 0,-0.921875 -0.875,-1.484375 -1.78125,-1.484375 -1,0 -1.8125,0.734375 -1.8125,1.671875 0,0.171875 0.015625,0.625 0.4375,1.09375 0.109375,0.109375 0.484375,0.359375 0.734375,0.53125 C 1.28125,-3.046875 0.421875,-2.5 0.421875,-1.5 c 0,1.046875 1.015625,1.71875 2.0625,1.71875 1.125,0 2.078125,-0.828125 2.078125,-1.890625 0,-0.359375 -0.109375,-0.8125 -0.5,-1.234375 C 3.875,-3.109375 3.71875,-3.203125 3.078125,-3.609375 Z m -1,0.421875 1.234375,0.78125 c 0.28125,0.1875 0.75,0.484375 0.75,1.09375 0,0.734375 -0.75,1.25 -1.5625,1.25 -0.859375,0 -1.578125,-0.609375 -1.578125,-1.4375 0,-0.578125 0.3125,-1.21875 1.15625,-1.6875 z m 0,0"
   id="id-50c14210-ec3d-4164-8f3b-731fb3d7c48a" />
      </g></g>
    <g
   style="fill:#000033;fill-opacity:1;stroke-width:0"
   id="id-009b6d56-1e03-4e9a-9e41-d0c628ae6edc">
      <g
   transform="translate(153.694,134.765)"
   id="g4123"
   style="fill:#000033;fill-opacity:1;stroke-width:0"><path
   style="fill:#000033;fill-opacity:1;stroke:#000033;stroke-width:0"
   d="M 3.328125,-3.015625 C 3.390625,-3.265625 3.625,-4.1875 4.3125,-4.1875 c 0.046875,0 0.296875,0 0.5,0.125 C 4.53125,-4 4.34375,-3.765625 4.34375,-3.515625 c 0,0.15625 0.109375,0.34375 0.375,0.34375 0.21875,0 0.53125,-0.171875 0.53125,-0.578125 0,-0.515625 -0.578125,-0.65625 -0.921875,-0.65625 -0.578125,0 -0.921875,0.53125 -1.046875,0.75 -0.25,-0.65625 -0.78125,-0.75 -1.078125,-0.75 -1.03125,0 -1.609375,1.28125 -1.609375,1.53125 0,0.109375 0.109375,0.109375 0.125,0.109375 0.078125,0 0.109375,-0.03125 0.125,-0.109375 0.34375,-1.0625 1,-1.3125 1.34375,-1.3125 0.1875,0 0.53125,0.09375 0.53125,0.671875 0,0.3125 -0.171875,0.96875 -0.53125,2.375 -0.15625,0.609375 -0.515625,1.03125 -0.953125,1.03125 -0.0625,0 -0.28125,0 -0.5,-0.125 0.25,-0.0625 0.46875,-0.265625 0.46875,-0.546875 0,-0.265625 -0.21875,-0.34375 -0.359375,-0.34375 -0.3125,0 -0.546875,0.25 -0.546875,0.578125 0,0.453125 0.484375,0.65625 0.921875,0.65625 0.671875,0 1.03125,-0.703125 1.046875,-0.75 0.125,0.359375 0.484375,0.75 1.078125,0.75 1.03125,0 1.59375,-1.28125 1.59375,-1.53125 0,-0.109375 -0.078125,-0.109375 -0.109375,-0.109375 -0.09375,0 -0.109375,0.046875 -0.140625,0.109375 -0.328125,1.078125 -1,1.3125 -1.3125,1.3125 -0.390625,0 -0.546875,-0.3125 -0.546875,-0.65625 0,-0.21875 0.046875,-0.4375 0.15625,-0.875 z m 0,0"
   id="id-38a814bb-9e54-4e61-abd7-27257901a723" />
      </g></g>
    <g
   style="fill:#000033;fill-opacity:1;stroke-width:0"
   id="id-8804239f-94f1-4164-9a16-5544bfca7abc">
      <g
   transform="translate(159.388,131.149)"
   id="g3630"
   style="fill:#000033;fill-opacity:1;stroke-width:0"><path
   style="fill:#000033;fill-opacity:1;stroke:#000033;stroke-width:0"
   d="m 1.90625,-2.328125 c 0.546875,0 0.9375,0.375 0.9375,1.125 0,0.859375 -0.515625,1.125 -0.90625,1.125 -0.28125,0 -0.90625,-0.078125 -1.1875,-0.5 0.328125,0 0.40625,-0.234375 0.40625,-0.390625 0,-0.21875 -0.171875,-0.375 -0.390625,-0.375 -0.1875,0 -0.390625,0.125 -0.390625,0.40625 0,0.65625 0.71875,1.078125 1.5625,1.078125 0.96875,0 1.640625,-0.65625 1.640625,-1.34375 0,-0.546875 -0.4375,-1.09375 -1.203125,-1.25 0.71875,-0.265625 0.984375,-0.78125 0.984375,-1.21875 0,-0.546875 -0.625,-0.953125 -1.40625,-0.953125 -0.765625,0 -1.359375,0.375 -1.359375,0.9375 0,0.234375 0.15625,0.359375 0.359375,0.359375 0.21875,0 0.359375,-0.15625 0.359375,-0.34375 0,-0.203125 -0.140625,-0.359375 -0.359375,-0.375 0.25,-0.296875 0.71875,-0.375 0.984375,-0.375 0.3125,0 0.75,0.15625 0.75,0.75 0,0.296875 -0.09375,0.625 -0.28125,0.828125 -0.21875,0.265625 -0.421875,0.28125 -0.765625,0.3125 -0.171875,0.015625 -0.1875,0.015625 -0.21875,0.015625 -0.015625,0 -0.078125,0.015625 -0.078125,0.09375 0,0.09375 0.0625,0.09375 0.1875,0.09375 z m 0,0"
   id="id-6b3a47a0-56c4-41af-86c6-a37b97e83505" />
      </g></g>
  </g>
</g><text
       xml:space="preserve"
       style="font-style:normal;font-variant:normal;font-weight:normal;font-stretch:normal;font-size:4.23333px;line-height:1.25;font-family:'Noto Sans';-inkscape-font-specification:'Noto Sans';letter-spacing:0px;word-spacing:0px;writing-mode:lr-tb;fill:#00aaaa;fill-opacity:1;stroke-width:0.264583"
       x="41.346836"
       y="455.32172"
       id="text159"><tspan
         sodipodi:role="line"
         style="font-style:normal;font-variant:normal;font-weight:normal;font-stretch:normal;font-family:'Noto Sans';-inkscape-font-specification:'Noto Sans';text-align:center;text-anchor:middle;fill:#00aaaa;fill-opacity:1;stroke-width:0.264583"
         x="41.346836"
         y="455.32172"
         id="tspan158">Double the</tspan><tspan
         sodipodi:role="line"
         style="font-style:normal;font-variant:normal;font-weight:normal;font-stretch:normal;font-family:'Noto Sans';-inkscape-font-specification:'Noto Sans';text-align:center;text-anchor:middle;fill:#00aaaa;fill-opacity:1;stroke-width:0.264583"
         x="41.346836"
         y="460.61337"
         id="tspan159">unit length...</tspan></text><g
       transform="matrix(0.521729,0,0,0.521729,79.3207,468.95363)"
       ns1:version="1.10.0"
       ns1:texconverter="pdflatex"
       ns1:pdfconverter="inkscape"
       ns1:text="$2x$"
       ns1:preamble="/home/hayastl/.config/inkscape/extensions/textext"
       ns1:scale="1.478915215614537"
       ns1:alignment="middle center"
       ns1:stroke-to-path="0"
       ns1:inkscapeversion="1.3.2"
       id="g168"
       ns1:jacobian_sqrt="0.521729"
       style="fill:#00aaaa;fill-opacity:1;stroke-width:0"><defs
   id="defs162"
   style="fill:#00aaaa;fill-opacity:1;stroke-width:0" />
  <g
   id="g167"
   transform="translate(-149.212,-128.124)"
   style="fill:#00aaaa;fill-opacity:1;stroke-width:0">
    <g
   style="fill:#00aaaa;fill-opacity:1;stroke-width:0"
   id="g164">
      <g
   transform="translate(148.712,134.765)"
   id="g163"
   style="fill:#00aaaa;fill-opacity:1;stroke-width:0"><path
   style="fill:#00aaaa;fill-opacity:1;stroke:#00aaaa;stroke-width:0"
   d="m 1.265625,-0.765625 1.0625,-1.03125 c 1.546875,-1.375 2.140625,-1.90625 2.140625,-2.90625 0,-1.140625 -0.890625,-1.9375 -2.109375,-1.9375 -1.125,0 -1.859375,0.921875 -1.859375,1.8125 0,0.546875 0.5,0.546875 0.53125,0.546875 0.171875,0 0.515625,-0.109375 0.515625,-0.53125 0,-0.25 -0.1875,-0.515625 -0.53125,-0.515625 -0.078125,0 -0.09375,0 -0.125,0.015625 0.21875,-0.65625 0.765625,-1.015625 1.34375,-1.015625 0.90625,0 1.328125,0.8125 1.328125,1.625 C 3.5625,-3.90625 3.078125,-3.125 2.515625,-2.5 l -1.90625,2.125 C 0.5,-0.265625 0.5,-0.234375 0.5,0 H 4.203125 L 4.46875,-1.734375 H 4.234375 C 4.171875,-1.4375 4.109375,-1 4,-0.84375 3.9375,-0.765625 3.28125,-0.765625 3.0625,-0.765625 Z m 0,0"
   id="path163" />
      </g></g>
    <g
   style="fill:#00aaaa;fill-opacity:1;stroke-width:0"
   id="g166">
      <g
   transform="translate(153.694,134.765)"
   id="g165"
   style="fill:#00aaaa;fill-opacity:1;stroke-width:0"><path
   style="fill:#00aaaa;fill-opacity:1;stroke:#00aaaa;stroke-width:0"
   d="M 3.328125,-3.015625 C 3.390625,-3.265625 3.625,-4.1875 4.3125,-4.1875 c 0.046875,0 0.296875,0 0.5,0.125 C 4.53125,-4 4.34375,-3.765625 4.34375,-3.515625 c 0,0.15625 0.109375,0.34375 0.375,0.34375 0.21875,0 0.53125,-0.171875 0.53125,-0.578125 0,-0.515625 -0.578125,-0.65625 -0.921875,-0.65625 -0.578125,0 -0.921875,0.53125 -1.046875,0.75 -0.25,-0.65625 -0.78125,-0.75 -1.078125,-0.75 -1.03125,0 -1.609375,1.28125 -1.609375,1.53125 0,0.109375 0.109375,0.109375 0.125,0.109375 0.078125,0 0.109375,-0.03125 0.125,-0.109375 0.34375,-1.0625 1,-1.3125 1.34375,-1.3125 0.1875,0 0.53125,0.09375 0.53125,0.671875 0,0.3125 -0.171875,0.96875 -0.53125,2.375 -0.15625,0.609375 -0.515625,1.03125 -0.953125,1.03125 -0.0625,0 -0.28125,0 -0.5,-0.125 0.25,-0.0625 0.46875,-0.265625 0.46875,-0.546875 0,-0.265625 -0.21875,-0.34375 -0.359375,-0.34375 -0.3125,0 -0.546875,0.25 -0.546875,0.578125 0,0.453125 0.484375,0.65625 0.921875,0.65625 0.671875,0 1.03125,-0.703125 1.046875,-0.75 0.125,0.359375 0.484375,0.75 1.078125,0.75 1.03125,0 1.59375,-1.28125 1.59375,-1.53125 0,-0.109375 -0.078125,-0.109375 -0.109375,-0.109375 -0.09375,0 -0.109375,0.046875 -0.140625,0.109375 -0.328125,1.078125 -1,1.3125 -1.3125,1.3125 -0.390625,0 -0.546875,-0.3125 -0.546875,-0.65625 0,-0.21875 0.046875,-0.4375 0.15625,-0.875 z m 0,0"
   id="path164" />
      </g></g>
  </g>
</g><text
       xml:space="preserve"
       style="font-style:normal;font-variant:normal;font-weight:normal;font-stretch:normal;font-size:4.23333px;line-height:1.25;font-family:'Noto Sans';-inkscape-font-specification:'Noto Sans';letter-spacing:0px;word-spacing:0px;writing-mode:lr-tb;fill:#00aaaa;fill-opacity:1;stroke-width:0.264583"
       x="82.020828"
       y="478.82492"
       id="text168"><tspan
         sodipodi:role="line"
         style="font-style:normal;font-variant:normal;font-weight:normal;font-stretch:normal;font-family:'Noto Sans';-inkscape-font-specification:'Noto Sans';text-align:center;text-anchor:middle;fill:#00aaaa;fill-opacity:1;stroke-width:0.264583"
         x="82.020828"
         y="478.82492"
         id="tspan168">Volume multiplies by 8</tspan></text></g></svg>
