<?xml version="1.0" encoding="UTF-8" standalone="no"?>
<!-- Created with Inkscape (http://www.inkscape.org/) -->

<svg
   width="254.32292"
   height="544.75732"
   viewBox="0 0 67.289605 144.13371"
   version="1.1"
   id="svg1"
   xml:space="preserve"
   inkscape:version="1.3.2 (1:1.3.2+202311252150+091e20ef0f)"
   sodipodi:docname="multidimensional.svg"
   xmlns:inkscape="http://www.inkscape.org/namespaces/inkscape"
   xmlns:sodipodi="http://sodipodi.sourceforge.net/DTD/sodipodi-0.dtd"
   xmlns="http://www.w3.org/2000/svg"
   xmlns:svg="http://www.w3.org/2000/svg"
   xmlns:ns1="http://www.iki.fi/pav/software/textext/"><sodipodi:namedview
     id="namedview1"
     pagecolor="#ffffff"
     bordercolor="#666666"
     borderopacity="1.0"
     inkscape:showpageshadow="2"
     inkscape:pageopacity="0.0"
     inkscape:pagecheckerboard="0"
     inkscape:deskcolor="#000033"
     inkscape:document-units="px"
     showguides="true"
     showgrid="true"
     inkscape:zoom="1"
     inkscape:cx="507"
     inkscape:cy="2509"
     inkscape:window-width="1848"
     inkscape:window-height="1016"
     inkscape:window-x="72"
     inkscape:window-y="27"
     inkscape:window-maximized="1"
     inkscape:current-layer="layer1"><sodipodi:guide
       position="91.754734,1000.125"
       orientation="1,0"
       id="guide1"
       inkscape:locked="false" /><inkscape:grid
       id="grid4"
       units="px"
       originx="-13.814016"
       originy="-1000.125"
       spacingx="13.229166"
       spacingy="13.229166"
       empcolor="#3f3fff"
       empopacity="0.25098039"
       color="#3f3fff"
       opacity="0.1254902"
       empspacing="1"
       dotted="false"
       gridanglex="30"
       gridanglez="30"
       visible="true" /><inkscape:grid
       id="grid33"
       units="px"
       originx="-13.814016"
       originy="-1000.125"
       spacingx="2.6458333"
       spacingy="2.6458333"
       empcolor="#3f3fff"
       empopacity="0.25098039"
       color="#3f3fff"
       opacity="0.1254902"
       empspacing="5"
       dotted="false"
       gridanglex="30"
       gridanglez="30"
       visible="true" /></sodipodi:namedview><defs
     id="defs1"><marker
       style="overflow:visible"
       id="Triangle"
       refX="0"
       refY="0"
       orient="auto-start-reverse"
       inkscape:stockid="Triangle arrow"
       markerWidth="2"
       markerHeight="2"
       viewBox="0 0 1 1"
       inkscape:isstock="true"
       inkscape:collect="always"
       preserveAspectRatio="xMidYMid"><path
         transform="scale(0.5)"
         style="fill:context-stroke;fill-rule:evenodd;stroke:context-stroke;stroke-width:1pt"
         d="M 5.77,0 -2.88,5 V -5 Z"
         id="path135" /></marker></defs><g
     inkscape:label="Layer 1"
     inkscape:groupmode="layer"
     id="layer1"
     transform="translate(-13.814016,-1000.125)"><path
       sodipodi:type="star"
       style="fill:#00aaaa;fill-opacity:1;fill-rule:evenodd;stroke:none;stroke-width:0.264583;stroke-dasharray:none;stroke-opacity:1"
       id="path667"
       inkscape:flatsided="true"
       sodipodi:sides="3"
       sodipodi:cx="0"
       sodipodi:cy="1045.1041"
       sodipodi:r1="37.041645"
       sodipodi:r2="18.520823"
       sodipodi:arg1="-1.5707963"
       sodipodi:arg2="-0.52359878"
       inkscape:rounded="0"
       inkscape:randomized="0"
       d="M 9.9252705e-7,1008.0625 32.079005,1063.6249 l -64.158011,0 z"
       inkscape:transform-center-y="-9.26041"
       transform="translate(47.624999,-7.9374996)" /><path
       sodipodi:type="star"
       style="fill:#00aaaa;fill-opacity:1;fill-rule:evenodd;stroke:none;stroke-width:0.529166;stroke-dasharray:none;stroke-opacity:1"
       id="path668"
       inkscape:flatsided="true"
       sodipodi:sides="3"
       sodipodi:cx="0"
       sodipodi:cy="1045.1041"
       sodipodi:r1="37.041645"
       sodipodi:r2="18.520823"
       sodipodi:arg1="-1.5707963"
       sodipodi:arg2="-0.52359878"
       inkscape:rounded="0"
       inkscape:randomized="0"
       d="M 9.9252705e-7,1008.0625 32.079005,1063.6249 l -64.158011,0 z"
       inkscape:transform-center-y="-4.6302005"
       transform="matrix(0.5,0,0,0.5,47.624998,578.11455)" /><path
       sodipodi:type="star"
       style="fill:#00aaaa;fill-opacity:1;fill-rule:evenodd;stroke:none;stroke-width:0.529166;stroke-dasharray:none;stroke-opacity:1"
       id="path669"
       inkscape:flatsided="true"
       sodipodi:sides="3"
       sodipodi:cx="0"
       sodipodi:cy="1045.1041"
       sodipodi:r1="37.041645"
       sodipodi:r2="18.520823"
       sodipodi:arg1="-1.5707963"
       sodipodi:arg2="-0.52359878"
       inkscape:rounded="0"
       inkscape:randomized="0"
       d="M 9.9252705e-7,1008.0625 32.079005,1063.6249 l -64.158011,0 z"
       inkscape:transform-center-y="-4.6302005"
       transform="matrix(0.5,0,0,0.5,31.585494,605.89578)" /><path
       sodipodi:type="star"
       style="fill:#00aaaa;fill-opacity:1;fill-rule:evenodd;stroke:none;stroke-width:0.529166;stroke-dasharray:none;stroke-opacity:1"
       id="path670"
       inkscape:flatsided="true"
       sodipodi:sides="3"
       sodipodi:cx="0"
       sodipodi:cy="1045.1041"
       sodipodi:r1="37.041645"
       sodipodi:r2="18.520823"
       sodipodi:arg1="-1.5707963"
       sodipodi:arg2="-0.52359878"
       inkscape:rounded="0"
       inkscape:randomized="0"
       d="M 9.9252705e-7,1008.0625 32.079005,1063.6249 l -64.158011,0 z"
       inkscape:transform-center-y="-4.6302005"
       transform="matrix(0.5,0,0,0.5,63.664501,605.89579)" /><text
       xml:space="preserve"
       style="font-style:normal;font-variant:normal;font-weight:normal;font-stretch:normal;font-size:4.23333px;line-height:1.25;font-family:'Noto Sans';-inkscape-font-specification:'Noto Sans';letter-spacing:0px;word-spacing:0px;writing-mode:lr-tb;fill:#00aaaa;fill-opacity:1;stroke-width:0.264583"
       x="51.265106"
       y="1071.832"
       id="text670"><tspan
         sodipodi:role="line"
         style="font-style:normal;font-variant:normal;font-weight:normal;font-stretch:normal;font-family:'Noto Sans';-inkscape-font-specification:'Noto Sans';fill:#00aaaa;fill-opacity:1;stroke-width:0.264583"
         x="51.265106"
         y="1071.832"
         id="tspan670">Repeat</tspan></text><path
       style="fill:none;stroke:#00aaaa;stroke-width:0.264583px;stroke-linecap:butt;stroke-linejoin:miter;stroke-opacity:1;marker-end:url(#Triangle)"
       d="m 47.624999,1063.625 v 13.2291"
       id="path671"
       sodipodi:nodetypes="cc" /><g
       transform="matrix(0.521729,0,0,0.521729,46.814551,1057.7885)"
       ns1:version="1.10.0"
       ns1:texconverter="pdflatex"
       ns1:pdfconverter="inkscape"
       ns1:text="$x$"
       ns1:preamble="/home/hayastl/.config/inkscape/extensions/textext"
       ns1:scale="1.478915215614537"
       ns1:alignment="middle center"
       ns1:stroke-to-path="0"
       ns1:inkscapeversion="1.3.2"
       id="g677"
       ns1:jacobian_sqrt="0.521729"
       style="fill:#00aaaa;fill-opacity:1"><defs
   id="defs673" />
  <g
   id="g676"
   transform="translate(-149.009,-130.359)"
   style="fill:#00aaaa;fill-opacity:1">
    <g
   style="fill:#00aaaa;fill-opacity:1"
   id="g675">
      <g
   transform="translate(148.712,134.765)"
   id="g674"
   style="fill:#00aaaa;fill-opacity:1"><path
   style="fill:#00aaaa;fill-opacity:1;stroke:none;stroke-width:0"
   d="M 3.328125,-3.015625 C 3.390625,-3.265625 3.625,-4.1875 4.3125,-4.1875 c 0.046875,0 0.296875,0 0.5,0.125 C 4.53125,-4 4.34375,-3.765625 4.34375,-3.515625 c 0,0.15625 0.109375,0.34375 0.375,0.34375 0.21875,0 0.53125,-0.171875 0.53125,-0.578125 0,-0.515625 -0.578125,-0.65625 -0.921875,-0.65625 -0.578125,0 -0.921875,0.53125 -1.046875,0.75 -0.25,-0.65625 -0.78125,-0.75 -1.078125,-0.75 -1.03125,0 -1.609375,1.28125 -1.609375,1.53125 0,0.109375 0.109375,0.109375 0.125,0.109375 0.078125,0 0.109375,-0.03125 0.125,-0.109375 0.34375,-1.0625 1,-1.3125 1.34375,-1.3125 0.1875,0 0.53125,0.09375 0.53125,0.671875 0,0.3125 -0.171875,0.96875 -0.53125,2.375 -0.15625,0.609375 -0.515625,1.03125 -0.953125,1.03125 -0.0625,0 -0.28125,0 -0.5,-0.125 0.25,-0.0625 0.46875,-0.265625 0.46875,-0.546875 0,-0.265625 -0.21875,-0.34375 -0.359375,-0.34375 -0.3125,0 -0.546875,0.25 -0.546875,0.578125 0,0.453125 0.484375,0.65625 0.921875,0.65625 0.671875,0 1.03125,-0.703125 1.046875,-0.75 0.125,0.359375 0.484375,0.75 1.078125,0.75 1.03125,0 1.59375,-1.28125 1.59375,-1.53125 0,-0.109375 -0.078125,-0.109375 -0.109375,-0.109375 -0.09375,0 -0.109375,0.046875 -0.140625,0.109375 -0.328125,1.078125 -1,1.3125 -1.3125,1.3125 -0.390625,0 -0.546875,-0.3125 -0.546875,-0.65625 0,-0.21875 0.046875,-0.4375 0.15625,-0.875 z m 0,0"
   id="path674" />
      </g></g>
  </g>
</g><g
       transform="matrix(0.521729,0,0,0.521729,27.928091,1025.3259)"
       ns1:version="1.10.0"
       ns1:texconverter="pdflatex"
       ns1:pdfconverter="inkscape"
       ns1:text="$x$"
       ns1:preamble="/home/hayastl/.config/inkscape/extensions/textext"
       ns1:scale="1.478915215614537"
       ns1:alignment="middle center"
       ns1:stroke-to-path="0"
       ns1:inkscapeversion="1.3.2"
       id="g682"
       ns1:jacobian_sqrt="0.521729"
       style="fill:#00aaaa;fill-opacity:1"><defs
   id="defs678" />
  <g
   id="g681"
   transform="translate(-149.009,-130.359)"
   style="fill:#00aaaa;fill-opacity:1">
    <g
   style="fill:#00aaaa;fill-opacity:1"
   id="g680">
      <g
   transform="translate(148.712,134.765)"
   id="g679"
   style="fill:#00aaaa;fill-opacity:1"><path
   style="fill:#00aaaa;fill-opacity:1;stroke:none;stroke-width:0"
   d="M 3.328125,-3.015625 C 3.390625,-3.265625 3.625,-4.1875 4.3125,-4.1875 c 0.046875,0 0.296875,0 0.5,0.125 C 4.53125,-4 4.34375,-3.765625 4.34375,-3.515625 c 0,0.15625 0.109375,0.34375 0.375,0.34375 0.21875,0 0.53125,-0.171875 0.53125,-0.578125 0,-0.515625 -0.578125,-0.65625 -0.921875,-0.65625 -0.578125,0 -0.921875,0.53125 -1.046875,0.75 -0.25,-0.65625 -0.78125,-0.75 -1.078125,-0.75 -1.03125,0 -1.609375,1.28125 -1.609375,1.53125 0,0.109375 0.109375,0.109375 0.125,0.109375 0.078125,0 0.109375,-0.03125 0.125,-0.109375 0.34375,-1.0625 1,-1.3125 1.34375,-1.3125 0.1875,0 0.53125,0.09375 0.53125,0.671875 0,0.3125 -0.171875,0.96875 -0.53125,2.375 -0.15625,0.609375 -0.515625,1.03125 -0.953125,1.03125 -0.0625,0 -0.28125,0 -0.5,-0.125 0.25,-0.0625 0.46875,-0.265625 0.46875,-0.546875 0,-0.265625 -0.21875,-0.34375 -0.359375,-0.34375 -0.3125,0 -0.546875,0.25 -0.546875,0.578125 0,0.453125 0.484375,0.65625 0.921875,0.65625 0.671875,0 1.03125,-0.703125 1.046875,-0.75 0.125,0.359375 0.484375,0.75 1.078125,0.75 1.03125,0 1.59375,-1.28125 1.59375,-1.53125 0,-0.109375 -0.078125,-0.109375 -0.109375,-0.109375 -0.09375,0 -0.109375,0.046875 -0.140625,0.109375 -0.328125,1.078125 -1,1.3125 -1.3125,1.3125 -0.390625,0 -0.546875,-0.3125 -0.546875,-0.65625 0,-0.21875 0.046875,-0.4375 0.15625,-0.875 z m 0,0"
   id="path679" />
      </g></g>
  </g>
</g><g
       transform="matrix(0.521729,0,0,0.521729,65.62755,1025.7484)"
       ns1:version="1.10.0"
       ns1:texconverter="pdflatex"
       ns1:pdfconverter="inkscape"
       ns1:text="$x$"
       ns1:preamble="/home/hayastl/.config/inkscape/extensions/textext"
       ns1:scale="1.478915215614537"
       ns1:alignment="middle center"
       ns1:stroke-to-path="0"
       ns1:inkscapeversion="1.3.2"
       id="g687"
       ns1:jacobian_sqrt="0.521729"
       style="fill:#00aaaa;fill-opacity:1"><defs
   id="defs683" />
  <g
   id="g686"
   transform="translate(-149.009,-130.359)"
   style="fill:#00aaaa;fill-opacity:1">
    <g
   style="fill:#00aaaa;fill-opacity:1"
   id="g685">
      <g
   transform="translate(148.712,134.765)"
   id="g684"
   style="fill:#00aaaa;fill-opacity:1"><path
   style="fill:#00aaaa;fill-opacity:1;stroke:none;stroke-width:0"
   d="M 3.328125,-3.015625 C 3.390625,-3.265625 3.625,-4.1875 4.3125,-4.1875 c 0.046875,0 0.296875,0 0.5,0.125 C 4.53125,-4 4.34375,-3.765625 4.34375,-3.515625 c 0,0.15625 0.109375,0.34375 0.375,0.34375 0.21875,0 0.53125,-0.171875 0.53125,-0.578125 0,-0.515625 -0.578125,-0.65625 -0.921875,-0.65625 -0.578125,0 -0.921875,0.53125 -1.046875,0.75 -0.25,-0.65625 -0.78125,-0.75 -1.078125,-0.75 -1.03125,0 -1.609375,1.28125 -1.609375,1.53125 0,0.109375 0.109375,0.109375 0.125,0.109375 0.078125,0 0.109375,-0.03125 0.125,-0.109375 0.34375,-1.0625 1,-1.3125 1.34375,-1.3125 0.1875,0 0.53125,0.09375 0.53125,0.671875 0,0.3125 -0.171875,0.96875 -0.53125,2.375 -0.15625,0.609375 -0.515625,1.03125 -0.953125,1.03125 -0.0625,0 -0.28125,0 -0.5,-0.125 0.25,-0.0625 0.46875,-0.265625 0.46875,-0.546875 0,-0.265625 -0.21875,-0.34375 -0.359375,-0.34375 -0.3125,0 -0.546875,0.25 -0.546875,0.578125 0,0.453125 0.484375,0.65625 0.921875,0.65625 0.671875,0 1.03125,-0.703125 1.046875,-0.75 0.125,0.359375 0.484375,0.75 1.078125,0.75 1.03125,0 1.59375,-1.28125 1.59375,-1.53125 0,-0.109375 -0.078125,-0.109375 -0.109375,-0.109375 -0.09375,0 -0.109375,0.046875 -0.140625,0.109375 -0.328125,1.078125 -1,1.3125 -1.3125,1.3125 -0.390625,0 -0.546875,-0.3125 -0.546875,-0.65625 0,-0.21875 0.046875,-0.4375 0.15625,-0.875 z m 0,0"
   id="path684" />
      </g></g>
  </g>
</g><g
       transform="matrix(0.521729,0,0,0.521729,30.331161,1092.1759)"
       ns1:version="1.10.0"
       ns1:texconverter="pdflatex"
       ns1:pdfconverter="inkscape"
       ns1:text="$x/2$"
       ns1:preamble="/home/hayastl/.config/inkscape/extensions/textext"
       ns1:scale="1.478915215614537"
       ns1:alignment="middle center"
       ns1:stroke-to-path="0"
       ns1:inkscapeversion="1.3.2"
       id="g703"
       ns1:jacobian_sqrt="0.521729"
       style="fill:#00aaaa;fill-opacity:1;stroke-width:0"><defs
   id="defs696"
   style="fill:#00aaaa;fill-opacity:1;stroke-width:0" />
  <g
   id="g702"
   transform="translate(-149.009,-127.281)"
   style="fill:#00aaaa;fill-opacity:1;stroke-width:0">
    <g
   style="fill:#00aaaa;fill-opacity:1;stroke-width:0"
   id="g699">
      <g
   transform="translate(148.712,134.765)"
   id="g697"
   style="fill:#00aaaa;fill-opacity:1;stroke-width:0"><path
   style="fill:#00aaaa;fill-opacity:1;stroke:#00aaaa;stroke-width:0"
   d="M 3.328125,-3.015625 C 3.390625,-3.265625 3.625,-4.1875 4.3125,-4.1875 c 0.046875,0 0.296875,0 0.5,0.125 C 4.53125,-4 4.34375,-3.765625 4.34375,-3.515625 c 0,0.15625 0.109375,0.34375 0.375,0.34375 0.21875,0 0.53125,-0.171875 0.53125,-0.578125 0,-0.515625 -0.578125,-0.65625 -0.921875,-0.65625 -0.578125,0 -0.921875,0.53125 -1.046875,0.75 -0.25,-0.65625 -0.78125,-0.75 -1.078125,-0.75 -1.03125,0 -1.609375,1.28125 -1.609375,1.53125 0,0.109375 0.109375,0.109375 0.125,0.109375 0.078125,0 0.109375,-0.03125 0.125,-0.109375 0.34375,-1.0625 1,-1.3125 1.34375,-1.3125 0.1875,0 0.53125,0.09375 0.53125,0.671875 0,0.3125 -0.171875,0.96875 -0.53125,2.375 -0.15625,0.609375 -0.515625,1.03125 -0.953125,1.03125 -0.0625,0 -0.28125,0 -0.5,-0.125 0.25,-0.0625 0.46875,-0.265625 0.46875,-0.546875 0,-0.265625 -0.21875,-0.34375 -0.359375,-0.34375 -0.3125,0 -0.546875,0.25 -0.546875,0.578125 0,0.453125 0.484375,0.65625 0.921875,0.65625 0.671875,0 1.03125,-0.703125 1.046875,-0.75 0.125,0.359375 0.484375,0.75 1.078125,0.75 1.03125,0 1.59375,-1.28125 1.59375,-1.53125 0,-0.109375 -0.078125,-0.109375 -0.109375,-0.109375 -0.09375,0 -0.109375,0.046875 -0.140625,0.109375 -0.328125,1.078125 -1,1.3125 -1.3125,1.3125 -0.390625,0 -0.546875,-0.3125 -0.546875,-0.65625 0,-0.21875 0.046875,-0.4375 0.15625,-0.875 z m 0,0"
   id="path697" />
      </g><g
   transform="translate(154.406,134.765)"
   id="g698"
   style="fill:#00aaaa;fill-opacity:1;stroke-width:0"><path
   style="fill:#00aaaa;fill-opacity:1;stroke:#00aaaa;stroke-width:0"
   d="m 4.375,-7.09375 c 0.046875,-0.140625 0.046875,-0.171875 0.046875,-0.1875 0,-0.109375 -0.078125,-0.203125 -0.1875,-0.203125 -0.078125,0 -0.140625,0.03125 -0.171875,0.09375 l -3.46875,9.5 C 0.546875,2.25 0.546875,2.28125 0.546875,2.296875 0.546875,2.40625 0.640625,2.5 0.75,2.5 0.875,2.5 0.90625,2.421875 0.96875,2.25 Z m 0,0"
   id="path698" />
      </g></g>
    <g
   style="fill:#00aaaa;fill-opacity:1;stroke-width:0"
   id="g701">
      <g
   transform="translate(159.388,134.765)"
   id="g700"
   style="fill:#00aaaa;fill-opacity:1;stroke-width:0"><path
   style="fill:#00aaaa;fill-opacity:1;stroke:#00aaaa;stroke-width:0"
   d="m 1.265625,-0.765625 1.0625,-1.03125 c 1.546875,-1.375 2.140625,-1.90625 2.140625,-2.90625 0,-1.140625 -0.890625,-1.9375 -2.109375,-1.9375 -1.125,0 -1.859375,0.921875 -1.859375,1.8125 0,0.546875 0.5,0.546875 0.53125,0.546875 0.171875,0 0.515625,-0.109375 0.515625,-0.53125 0,-0.25 -0.1875,-0.515625 -0.53125,-0.515625 -0.078125,0 -0.09375,0 -0.125,0.015625 0.21875,-0.65625 0.765625,-1.015625 1.34375,-1.015625 0.90625,0 1.328125,0.8125 1.328125,1.625 C 3.5625,-3.90625 3.078125,-3.125 2.515625,-2.5 l -1.90625,2.125 C 0.5,-0.265625 0.5,-0.234375 0.5,0 H 4.203125 L 4.46875,-1.734375 H 4.234375 C 4.171875,-1.4375 4.109375,-1 4,-0.84375 3.9375,-0.765625 3.28125,-0.765625 3.0625,-0.765625 Z m 0,0"
   id="path699" />
      </g></g>
  </g>
</g><g
       transform="matrix(0.521729,0,0,0.521729,13.814082,1119.8178)"
       ns1:version="1.10.0"
       ns1:texconverter="pdflatex"
       ns1:pdfconverter="inkscape"
       ns1:text="$x/2$"
       ns1:preamble="/home/hayastl/.config/inkscape/extensions/textext"
       ns1:scale="1.478915215614537"
       ns1:alignment="middle center"
       ns1:stroke-to-path="0"
       ns1:inkscapeversion="1.3.2"
       id="g714"
       ns1:jacobian_sqrt="0.521729"
       style="fill:#00aaaa;fill-opacity:1;stroke-width:0"><defs
   id="defs707"
   style="fill:#00aaaa;fill-opacity:1;stroke-width:0" />
  <g
   id="g713"
   transform="translate(-149.009,-127.281)"
   style="fill:#00aaaa;fill-opacity:1;stroke-width:0">
    <g
   style="fill:#00aaaa;fill-opacity:1;stroke-width:0"
   id="g710">
      <g
   transform="translate(148.712,134.765)"
   id="g708"
   style="fill:#00aaaa;fill-opacity:1;stroke-width:0"><path
   style="fill:#00aaaa;fill-opacity:1;stroke:#00aaaa;stroke-width:0"
   d="M 3.328125,-3.015625 C 3.390625,-3.265625 3.625,-4.1875 4.3125,-4.1875 c 0.046875,0 0.296875,0 0.5,0.125 C 4.53125,-4 4.34375,-3.765625 4.34375,-3.515625 c 0,0.15625 0.109375,0.34375 0.375,0.34375 0.21875,0 0.53125,-0.171875 0.53125,-0.578125 0,-0.515625 -0.578125,-0.65625 -0.921875,-0.65625 -0.578125,0 -0.921875,0.53125 -1.046875,0.75 -0.25,-0.65625 -0.78125,-0.75 -1.078125,-0.75 -1.03125,0 -1.609375,1.28125 -1.609375,1.53125 0,0.109375 0.109375,0.109375 0.125,0.109375 0.078125,0 0.109375,-0.03125 0.125,-0.109375 0.34375,-1.0625 1,-1.3125 1.34375,-1.3125 0.1875,0 0.53125,0.09375 0.53125,0.671875 0,0.3125 -0.171875,0.96875 -0.53125,2.375 -0.15625,0.609375 -0.515625,1.03125 -0.953125,1.03125 -0.0625,0 -0.28125,0 -0.5,-0.125 0.25,-0.0625 0.46875,-0.265625 0.46875,-0.546875 0,-0.265625 -0.21875,-0.34375 -0.359375,-0.34375 -0.3125,0 -0.546875,0.25 -0.546875,0.578125 0,0.453125 0.484375,0.65625 0.921875,0.65625 0.671875,0 1.03125,-0.703125 1.046875,-0.75 0.125,0.359375 0.484375,0.75 1.078125,0.75 1.03125,0 1.59375,-1.28125 1.59375,-1.53125 0,-0.109375 -0.078125,-0.109375 -0.109375,-0.109375 -0.09375,0 -0.109375,0.046875 -0.140625,0.109375 -0.328125,1.078125 -1,1.3125 -1.3125,1.3125 -0.390625,0 -0.546875,-0.3125 -0.546875,-0.65625 0,-0.21875 0.046875,-0.4375 0.15625,-0.875 z m 0,0"
   id="path708" />
      </g><g
   transform="translate(154.406,134.765)"
   id="g709"
   style="fill:#00aaaa;fill-opacity:1;stroke-width:0"><path
   style="fill:#00aaaa;fill-opacity:1;stroke:#00aaaa;stroke-width:0"
   d="m 4.375,-7.09375 c 0.046875,-0.140625 0.046875,-0.171875 0.046875,-0.1875 0,-0.109375 -0.078125,-0.203125 -0.1875,-0.203125 -0.078125,0 -0.140625,0.03125 -0.171875,0.09375 l -3.46875,9.5 C 0.546875,2.25 0.546875,2.28125 0.546875,2.296875 0.546875,2.40625 0.640625,2.5 0.75,2.5 0.875,2.5 0.90625,2.421875 0.96875,2.25 Z m 0,0"
   id="path709" />
      </g></g>
    <g
   style="fill:#00aaaa;fill-opacity:1;stroke-width:0"
   id="g712">
      <g
   transform="translate(159.388,134.765)"
   id="g711"
   style="fill:#00aaaa;fill-opacity:1;stroke-width:0"><path
   style="fill:#00aaaa;fill-opacity:1;stroke:#00aaaa;stroke-width:0"
   d="m 1.265625,-0.765625 1.0625,-1.03125 c 1.546875,-1.375 2.140625,-1.90625 2.140625,-2.90625 0,-1.140625 -0.890625,-1.9375 -2.109375,-1.9375 -1.125,0 -1.859375,0.921875 -1.859375,1.8125 0,0.546875 0.5,0.546875 0.53125,0.546875 0.171875,0 0.515625,-0.109375 0.515625,-0.53125 0,-0.25 -0.1875,-0.515625 -0.53125,-0.515625 -0.078125,0 -0.09375,0 -0.125,0.015625 0.21875,-0.65625 0.765625,-1.015625 1.34375,-1.015625 0.90625,0 1.328125,0.8125 1.328125,1.625 C 3.5625,-3.90625 3.078125,-3.125 2.515625,-2.5 l -1.90625,2.125 C 0.5,-0.265625 0.5,-0.234375 0.5,0 H 4.203125 L 4.46875,-1.734375 H 4.234375 C 4.171875,-1.4375 4.109375,-1 4,-0.84375 3.9375,-0.765625 3.28125,-0.765625 3.0625,-0.765625 Z m 0,0"
   id="path710" />
      </g></g>
  </g>
</g><g
       transform="matrix(0.521729,0,0,0.521729,27.442691,1139.0497)"
       ns1:version="1.10.0"
       ns1:texconverter="pdflatex"
       ns1:pdfconverter="inkscape"
       ns1:text="$x/2$"
       ns1:preamble="/home/hayastl/.config/inkscape/extensions/textext"
       ns1:scale="1.478915215614537"
       ns1:alignment="middle center"
       ns1:stroke-to-path="0"
       ns1:inkscapeversion="1.3.2"
       id="g725"
       ns1:jacobian_sqrt="0.521729"
       style="fill:#00aaaa;fill-opacity:1;stroke-width:0"><defs
   id="defs718"
   style="fill:#00aaaa;fill-opacity:1;stroke-width:0" />
  <g
   id="g724"
   transform="translate(-149.009,-127.281)"
   style="fill:#00aaaa;fill-opacity:1;stroke-width:0">
    <g
   style="fill:#00aaaa;fill-opacity:1;stroke-width:0"
   id="g721">
      <g
   transform="translate(148.712,134.765)"
   id="g719"
   style="fill:#00aaaa;fill-opacity:1;stroke-width:0"><path
   style="fill:#00aaaa;fill-opacity:1;stroke:#00aaaa;stroke-width:0"
   d="M 3.328125,-3.015625 C 3.390625,-3.265625 3.625,-4.1875 4.3125,-4.1875 c 0.046875,0 0.296875,0 0.5,0.125 C 4.53125,-4 4.34375,-3.765625 4.34375,-3.515625 c 0,0.15625 0.109375,0.34375 0.375,0.34375 0.21875,0 0.53125,-0.171875 0.53125,-0.578125 0,-0.515625 -0.578125,-0.65625 -0.921875,-0.65625 -0.578125,0 -0.921875,0.53125 -1.046875,0.75 -0.25,-0.65625 -0.78125,-0.75 -1.078125,-0.75 -1.03125,0 -1.609375,1.28125 -1.609375,1.53125 0,0.109375 0.109375,0.109375 0.125,0.109375 0.078125,0 0.109375,-0.03125 0.125,-0.109375 0.34375,-1.0625 1,-1.3125 1.34375,-1.3125 0.1875,0 0.53125,0.09375 0.53125,0.671875 0,0.3125 -0.171875,0.96875 -0.53125,2.375 -0.15625,0.609375 -0.515625,1.03125 -0.953125,1.03125 -0.0625,0 -0.28125,0 -0.5,-0.125 0.25,-0.0625 0.46875,-0.265625 0.46875,-0.546875 0,-0.265625 -0.21875,-0.34375 -0.359375,-0.34375 -0.3125,0 -0.546875,0.25 -0.546875,0.578125 0,0.453125 0.484375,0.65625 0.921875,0.65625 0.671875,0 1.03125,-0.703125 1.046875,-0.75 0.125,0.359375 0.484375,0.75 1.078125,0.75 1.03125,0 1.59375,-1.28125 1.59375,-1.53125 0,-0.109375 -0.078125,-0.109375 -0.109375,-0.109375 -0.09375,0 -0.109375,0.046875 -0.140625,0.109375 -0.328125,1.078125 -1,1.3125 -1.3125,1.3125 -0.390625,0 -0.546875,-0.3125 -0.546875,-0.65625 0,-0.21875 0.046875,-0.4375 0.15625,-0.875 z m 0,0"
   id="path719" />
      </g><g
   transform="translate(154.406,134.765)"
   id="g720"
   style="fill:#00aaaa;fill-opacity:1;stroke-width:0"><path
   style="fill:#00aaaa;fill-opacity:1;stroke:#00aaaa;stroke-width:0"
   d="m 4.375,-7.09375 c 0.046875,-0.140625 0.046875,-0.171875 0.046875,-0.1875 0,-0.109375 -0.078125,-0.203125 -0.1875,-0.203125 -0.078125,0 -0.140625,0.03125 -0.171875,0.09375 l -3.46875,9.5 C 0.546875,2.25 0.546875,2.28125 0.546875,2.296875 0.546875,2.40625 0.640625,2.5 0.75,2.5 0.875,2.5 0.90625,2.421875 0.96875,2.25 Z m 0,0"
   id="path720" />
      </g></g>
    <g
   style="fill:#00aaaa;fill-opacity:1;stroke-width:0"
   id="g723">
      <g
   transform="translate(159.388,134.765)"
   id="g722"
   style="fill:#00aaaa;fill-opacity:1;stroke-width:0"><path
   style="fill:#00aaaa;fill-opacity:1;stroke:#00aaaa;stroke-width:0"
   d="m 1.265625,-0.765625 1.0625,-1.03125 c 1.546875,-1.375 2.140625,-1.90625 2.140625,-2.90625 0,-1.140625 -0.890625,-1.9375 -2.109375,-1.9375 -1.125,0 -1.859375,0.921875 -1.859375,1.8125 0,0.546875 0.5,0.546875 0.53125,0.546875 0.171875,0 0.515625,-0.109375 0.515625,-0.53125 0,-0.25 -0.1875,-0.515625 -0.53125,-0.515625 -0.078125,0 -0.09375,0 -0.125,0.015625 0.21875,-0.65625 0.765625,-1.015625 1.34375,-1.015625 0.90625,0 1.328125,0.8125 1.328125,1.625 C 3.5625,-3.90625 3.078125,-3.125 2.515625,-2.5 l -1.90625,2.125 C 0.5,-0.265625 0.5,-0.234375 0.5,0 H 4.203125 L 4.46875,-1.734375 H 4.234375 C 4.171875,-1.4375 4.109375,-1 4,-0.84375 3.9375,-0.765625 3.28125,-0.765625 3.0625,-0.765625 Z m 0,0"
   id="path721" />
      </g></g>
  </g>
</g><g
       transform="matrix(0.521729,0,0,0.521729,61.003723,1138.8697)"
       ns1:version="1.10.0"
       ns1:texconverter="pdflatex"
       ns1:pdfconverter="inkscape"
       ns1:text="$x/2$"
       ns1:preamble="/home/hayastl/.config/inkscape/extensions/textext"
       ns1:scale="1.478915215614537"
       ns1:alignment="middle center"
       ns1:stroke-to-path="0"
       ns1:inkscapeversion="1.3.2"
       id="g736"
       ns1:jacobian_sqrt="0.521729"
       style="fill:#00aaaa;fill-opacity:1;stroke-width:0"><defs
   id="defs729"
   style="fill:#00aaaa;fill-opacity:1;stroke-width:0" />
  <g
   id="g735"
   transform="translate(-149.009,-127.281)"
   style="fill:#00aaaa;fill-opacity:1;stroke-width:0">
    <g
   style="fill:#00aaaa;fill-opacity:1;stroke-width:0"
   id="g732">
      <g
   transform="translate(148.712,134.765)"
   id="g730"
   style="fill:#00aaaa;fill-opacity:1;stroke-width:0"><path
   style="fill:#00aaaa;fill-opacity:1;stroke:#00aaaa;stroke-width:0"
   d="M 3.328125,-3.015625 C 3.390625,-3.265625 3.625,-4.1875 4.3125,-4.1875 c 0.046875,0 0.296875,0 0.5,0.125 C 4.53125,-4 4.34375,-3.765625 4.34375,-3.515625 c 0,0.15625 0.109375,0.34375 0.375,0.34375 0.21875,0 0.53125,-0.171875 0.53125,-0.578125 0,-0.515625 -0.578125,-0.65625 -0.921875,-0.65625 -0.578125,0 -0.921875,0.53125 -1.046875,0.75 -0.25,-0.65625 -0.78125,-0.75 -1.078125,-0.75 -1.03125,0 -1.609375,1.28125 -1.609375,1.53125 0,0.109375 0.109375,0.109375 0.125,0.109375 0.078125,0 0.109375,-0.03125 0.125,-0.109375 0.34375,-1.0625 1,-1.3125 1.34375,-1.3125 0.1875,0 0.53125,0.09375 0.53125,0.671875 0,0.3125 -0.171875,0.96875 -0.53125,2.375 -0.15625,0.609375 -0.515625,1.03125 -0.953125,1.03125 -0.0625,0 -0.28125,0 -0.5,-0.125 0.25,-0.0625 0.46875,-0.265625 0.46875,-0.546875 0,-0.265625 -0.21875,-0.34375 -0.359375,-0.34375 -0.3125,0 -0.546875,0.25 -0.546875,0.578125 0,0.453125 0.484375,0.65625 0.921875,0.65625 0.671875,0 1.03125,-0.703125 1.046875,-0.75 0.125,0.359375 0.484375,0.75 1.078125,0.75 1.03125,0 1.59375,-1.28125 1.59375,-1.53125 0,-0.109375 -0.078125,-0.109375 -0.109375,-0.109375 -0.09375,0 -0.109375,0.046875 -0.140625,0.109375 -0.328125,1.078125 -1,1.3125 -1.3125,1.3125 -0.390625,0 -0.546875,-0.3125 -0.546875,-0.65625 0,-0.21875 0.046875,-0.4375 0.15625,-0.875 z m 0,0"
   id="path730" />
      </g><g
   transform="translate(154.406,134.765)"
   id="g731"
   style="fill:#00aaaa;fill-opacity:1;stroke-width:0"><path
   style="fill:#00aaaa;fill-opacity:1;stroke:#00aaaa;stroke-width:0"
   d="m 4.375,-7.09375 c 0.046875,-0.140625 0.046875,-0.171875 0.046875,-0.1875 0,-0.109375 -0.078125,-0.203125 -0.1875,-0.203125 -0.078125,0 -0.140625,0.03125 -0.171875,0.09375 l -3.46875,9.5 C 0.546875,2.25 0.546875,2.28125 0.546875,2.296875 0.546875,2.40625 0.640625,2.5 0.75,2.5 0.875,2.5 0.90625,2.421875 0.96875,2.25 Z m 0,0"
   id="path731" />
      </g></g>
    <g
   style="fill:#00aaaa;fill-opacity:1;stroke-width:0"
   id="g734">
      <g
   transform="translate(159.388,134.765)"
   id="g733"
   style="fill:#00aaaa;fill-opacity:1;stroke-width:0"><path
   style="fill:#00aaaa;fill-opacity:1;stroke:#00aaaa;stroke-width:0"
   d="m 1.265625,-0.765625 1.0625,-1.03125 c 1.546875,-1.375 2.140625,-1.90625 2.140625,-2.90625 0,-1.140625 -0.890625,-1.9375 -2.109375,-1.9375 -1.125,0 -1.859375,0.921875 -1.859375,1.8125 0,0.546875 0.5,0.546875 0.53125,0.546875 0.171875,0 0.515625,-0.109375 0.515625,-0.53125 0,-0.25 -0.1875,-0.515625 -0.53125,-0.515625 -0.078125,0 -0.09375,0 -0.125,0.015625 0.21875,-0.65625 0.765625,-1.015625 1.34375,-1.015625 0.90625,0 1.328125,0.8125 1.328125,1.625 C 3.5625,-3.90625 3.078125,-3.125 2.515625,-2.5 l -1.90625,2.125 C 0.5,-0.265625 0.5,-0.234375 0.5,0 H 4.203125 L 4.46875,-1.734375 H 4.234375 C 4.171875,-1.4375 4.109375,-1 4,-0.84375 3.9375,-0.765625 3.28125,-0.765625 3.0625,-0.765625 Z m 0,0"
   id="path732" />
      </g></g>
  </g>
</g><g
       transform="matrix(0.521729,0,0,0.521729,73.357119,1119.9393)"
       ns1:version="1.10.0"
       ns1:texconverter="pdflatex"
       ns1:pdfconverter="inkscape"
       ns1:text="$x/2$"
       ns1:preamble="/home/hayastl/.config/inkscape/extensions/textext"
       ns1:scale="1.478915215614537"
       ns1:alignment="middle center"
       ns1:stroke-to-path="0"
       ns1:inkscapeversion="1.3.2"
       id="g747"
       ns1:jacobian_sqrt="0.521729"
       style="fill:#00aaaa;fill-opacity:1;stroke-width:0"><defs
   id="defs740"
   style="fill:#00aaaa;fill-opacity:1;stroke-width:0" />
  <g
   id="g746"
   transform="translate(-149.009,-127.281)"
   style="fill:#00aaaa;fill-opacity:1;stroke-width:0">
    <g
   style="fill:#00aaaa;fill-opacity:1;stroke-width:0"
   id="g743">
      <g
   transform="translate(148.712,134.765)"
   id="g741"
   style="fill:#00aaaa;fill-opacity:1;stroke-width:0"><path
   style="fill:#00aaaa;fill-opacity:1;stroke:#00aaaa;stroke-width:0"
   d="M 3.328125,-3.015625 C 3.390625,-3.265625 3.625,-4.1875 4.3125,-4.1875 c 0.046875,0 0.296875,0 0.5,0.125 C 4.53125,-4 4.34375,-3.765625 4.34375,-3.515625 c 0,0.15625 0.109375,0.34375 0.375,0.34375 0.21875,0 0.53125,-0.171875 0.53125,-0.578125 0,-0.515625 -0.578125,-0.65625 -0.921875,-0.65625 -0.578125,0 -0.921875,0.53125 -1.046875,0.75 -0.25,-0.65625 -0.78125,-0.75 -1.078125,-0.75 -1.03125,0 -1.609375,1.28125 -1.609375,1.53125 0,0.109375 0.109375,0.109375 0.125,0.109375 0.078125,0 0.109375,-0.03125 0.125,-0.109375 0.34375,-1.0625 1,-1.3125 1.34375,-1.3125 0.1875,0 0.53125,0.09375 0.53125,0.671875 0,0.3125 -0.171875,0.96875 -0.53125,2.375 -0.15625,0.609375 -0.515625,1.03125 -0.953125,1.03125 -0.0625,0 -0.28125,0 -0.5,-0.125 0.25,-0.0625 0.46875,-0.265625 0.46875,-0.546875 0,-0.265625 -0.21875,-0.34375 -0.359375,-0.34375 -0.3125,0 -0.546875,0.25 -0.546875,0.578125 0,0.453125 0.484375,0.65625 0.921875,0.65625 0.671875,0 1.03125,-0.703125 1.046875,-0.75 0.125,0.359375 0.484375,0.75 1.078125,0.75 1.03125,0 1.59375,-1.28125 1.59375,-1.53125 0,-0.109375 -0.078125,-0.109375 -0.109375,-0.109375 -0.09375,0 -0.109375,0.046875 -0.140625,0.109375 -0.328125,1.078125 -1,1.3125 -1.3125,1.3125 -0.390625,0 -0.546875,-0.3125 -0.546875,-0.65625 0,-0.21875 0.046875,-0.4375 0.15625,-0.875 z m 0,0"
   id="path741" />
      </g><g
   transform="translate(154.406,134.765)"
   id="g742"
   style="fill:#00aaaa;fill-opacity:1;stroke-width:0"><path
   style="fill:#00aaaa;fill-opacity:1;stroke:#00aaaa;stroke-width:0"
   d="m 4.375,-7.09375 c 0.046875,-0.140625 0.046875,-0.171875 0.046875,-0.1875 0,-0.109375 -0.078125,-0.203125 -0.1875,-0.203125 -0.078125,0 -0.140625,0.03125 -0.171875,0.09375 l -3.46875,9.5 C 0.546875,2.25 0.546875,2.28125 0.546875,2.296875 0.546875,2.40625 0.640625,2.5 0.75,2.5 0.875,2.5 0.90625,2.421875 0.96875,2.25 Z m 0,0"
   id="path742" />
      </g></g>
    <g
   style="fill:#00aaaa;fill-opacity:1;stroke-width:0"
   id="g745">
      <g
   transform="translate(159.388,134.765)"
   id="g744"
   style="fill:#00aaaa;fill-opacity:1;stroke-width:0"><path
   style="fill:#00aaaa;fill-opacity:1;stroke:#00aaaa;stroke-width:0"
   d="m 1.265625,-0.765625 1.0625,-1.03125 c 1.546875,-1.375 2.140625,-1.90625 2.140625,-2.90625 0,-1.140625 -0.890625,-1.9375 -2.109375,-1.9375 -1.125,0 -1.859375,0.921875 -1.859375,1.8125 0,0.546875 0.5,0.546875 0.53125,0.546875 0.171875,0 0.515625,-0.109375 0.515625,-0.53125 0,-0.25 -0.1875,-0.515625 -0.53125,-0.515625 -0.078125,0 -0.09375,0 -0.125,0.015625 0.21875,-0.65625 0.765625,-1.015625 1.34375,-1.015625 0.90625,0 1.328125,0.8125 1.328125,1.625 C 3.5625,-3.90625 3.078125,-3.125 2.515625,-2.5 l -1.90625,2.125 C 0.5,-0.265625 0.5,-0.234375 0.5,0 H 4.203125 L 4.46875,-1.734375 H 4.234375 C 4.171875,-1.4375 4.109375,-1 4,-0.84375 3.9375,-0.765625 3.28125,-0.765625 3.0625,-0.765625 Z m 0,0"
   id="path743" />
      </g></g>
  </g>
</g><g
       transform="matrix(0.521729,0,0,0.521729,57.81645,1092.2957)"
       ns1:version="1.10.0"
       ns1:texconverter="pdflatex"
       ns1:pdfconverter="inkscape"
       ns1:text="$x/2$"
       ns1:preamble="/home/hayastl/.config/inkscape/extensions/textext"
       ns1:scale="1.478915215614537"
       ns1:alignment="middle center"
       ns1:stroke-to-path="0"
       ns1:inkscapeversion="1.3.2"
       id="g758"
       ns1:jacobian_sqrt="0.521729"
       style="fill:#00aaaa;fill-opacity:1;stroke-width:0"><defs
   id="defs751"
   style="fill:#00aaaa;fill-opacity:1;stroke-width:0" />
  <g
   id="g757"
   transform="translate(-149.009,-127.281)"
   style="fill:#00aaaa;fill-opacity:1;stroke-width:0">
    <g
   style="fill:#00aaaa;fill-opacity:1;stroke-width:0"
   id="g754">
      <g
   transform="translate(148.712,134.765)"
   id="g752"
   style="fill:#00aaaa;fill-opacity:1;stroke-width:0"><path
   style="fill:#00aaaa;fill-opacity:1;stroke:#00aaaa;stroke-width:0"
   d="M 3.328125,-3.015625 C 3.390625,-3.265625 3.625,-4.1875 4.3125,-4.1875 c 0.046875,0 0.296875,0 0.5,0.125 C 4.53125,-4 4.34375,-3.765625 4.34375,-3.515625 c 0,0.15625 0.109375,0.34375 0.375,0.34375 0.21875,0 0.53125,-0.171875 0.53125,-0.578125 0,-0.515625 -0.578125,-0.65625 -0.921875,-0.65625 -0.578125,0 -0.921875,0.53125 -1.046875,0.75 -0.25,-0.65625 -0.78125,-0.75 -1.078125,-0.75 -1.03125,0 -1.609375,1.28125 -1.609375,1.53125 0,0.109375 0.109375,0.109375 0.125,0.109375 0.078125,0 0.109375,-0.03125 0.125,-0.109375 0.34375,-1.0625 1,-1.3125 1.34375,-1.3125 0.1875,0 0.53125,0.09375 0.53125,0.671875 0,0.3125 -0.171875,0.96875 -0.53125,2.375 -0.15625,0.609375 -0.515625,1.03125 -0.953125,1.03125 -0.0625,0 -0.28125,0 -0.5,-0.125 0.25,-0.0625 0.46875,-0.265625 0.46875,-0.546875 0,-0.265625 -0.21875,-0.34375 -0.359375,-0.34375 -0.3125,0 -0.546875,0.25 -0.546875,0.578125 0,0.453125 0.484375,0.65625 0.921875,0.65625 0.671875,0 1.03125,-0.703125 1.046875,-0.75 0.125,0.359375 0.484375,0.75 1.078125,0.75 1.03125,0 1.59375,-1.28125 1.59375,-1.53125 0,-0.109375 -0.078125,-0.109375 -0.109375,-0.109375 -0.09375,0 -0.109375,0.046875 -0.140625,0.109375 -0.328125,1.078125 -1,1.3125 -1.3125,1.3125 -0.390625,0 -0.546875,-0.3125 -0.546875,-0.65625 0,-0.21875 0.046875,-0.4375 0.15625,-0.875 z m 0,0"
   id="path752" />
      </g><g
   transform="translate(154.406,134.765)"
   id="g753"
   style="fill:#00aaaa;fill-opacity:1;stroke-width:0"><path
   style="fill:#00aaaa;fill-opacity:1;stroke:#00aaaa;stroke-width:0"
   d="m 4.375,-7.09375 c 0.046875,-0.140625 0.046875,-0.171875 0.046875,-0.1875 0,-0.109375 -0.078125,-0.203125 -0.1875,-0.203125 -0.078125,0 -0.140625,0.03125 -0.171875,0.09375 l -3.46875,9.5 C 0.546875,2.25 0.546875,2.28125 0.546875,2.296875 0.546875,2.40625 0.640625,2.5 0.75,2.5 0.875,2.5 0.90625,2.421875 0.96875,2.25 Z m 0,0"
   id="path753" />
      </g></g>
    <g
   style="fill:#00aaaa;fill-opacity:1;stroke-width:0"
   id="g756">
      <g
   transform="translate(159.388,134.765)"
   id="g755"
   style="fill:#00aaaa;fill-opacity:1;stroke-width:0"><path
   style="fill:#00aaaa;fill-opacity:1;stroke:#00aaaa;stroke-width:0"
   d="m 1.265625,-0.765625 1.0625,-1.03125 c 1.546875,-1.375 2.140625,-1.90625 2.140625,-2.90625 0,-1.140625 -0.890625,-1.9375 -2.109375,-1.9375 -1.125,0 -1.859375,0.921875 -1.859375,1.8125 0,0.546875 0.5,0.546875 0.53125,0.546875 0.171875,0 0.515625,-0.109375 0.515625,-0.53125 0,-0.25 -0.1875,-0.515625 -0.53125,-0.515625 -0.078125,0 -0.09375,0 -0.125,0.015625 0.21875,-0.65625 0.765625,-1.015625 1.34375,-1.015625 0.90625,0 1.328125,0.8125 1.328125,1.625 C 3.5625,-3.90625 3.078125,-3.125 2.515625,-2.5 l -1.90625,2.125 C 0.5,-0.265625 0.5,-0.234375 0.5,0 H 4.203125 L 4.46875,-1.734375 H 4.234375 C 4.171875,-1.4375 4.109375,-1 4,-0.84375 3.9375,-0.765625 3.28125,-0.765625 3.0625,-0.765625 Z m 0,0"
   id="path754" />
      </g></g>
  </g>
</g></g></svg>
