<?xml version="1.0" encoding="UTF-8" standalone="no"?>
<!-- Created with Inkscape (http://www.inkscape.org/) -->

<svg
   width="285.28256"
   height="622.11279"
   viewBox="0 0 75.48101 164.60068"
   version="1.1"
   id="svg1"
   xml:space="preserve"
   inkscape:version="1.3.2 (1:1.3.2+202311252150+091e20ef0f)"
   sodipodi:docname="multidimensional.svg"
   xmlns:inkscape="http://www.inkscape.org/namespaces/inkscape"
   xmlns:sodipodi="http://sodipodi.sourceforge.net/DTD/sodipodi-0.dtd"
   xmlns="http://www.w3.org/2000/svg"
   xmlns:svg="http://www.w3.org/2000/svg"
   xmlns:ns1="http://www.iki.fi/pav/software/textext/"><sodipodi:namedview
     id="namedview1"
     pagecolor="#ffffff"
     bordercolor="#666666"
     borderopacity="1.0"
     inkscape:showpageshadow="2"
     inkscape:pageopacity="0.0"
     inkscape:pagecheckerboard="0"
     inkscape:deskcolor="#000033"
     inkscape:document-units="px"
     showguides="true"
     showgrid="true"
     inkscape:zoom="1"
     inkscape:cx="55"
     inkscape:cy="3017"
     inkscape:window-width="1848"
     inkscape:window-height="1016"
     inkscape:window-x="72"
     inkscape:window-y="27"
     inkscape:window-maximized="1"
     inkscape:current-layer="layer1"><sodipodi:guide
       position="101.54247,727.60418"
       orientation="1,0"
       id="guide1"
       inkscape:locked="false" /><inkscape:grid
       id="grid4"
       units="px"
       originx="-4.026279"
       originy="-727.60421"
       spacingx="13.229166"
       spacingy="13.229166"
       empcolor="#3f3fff"
       empopacity="0.25098039"
       color="#3f3fff"
       opacity="0.1254902"
       empspacing="1"
       dotted="false"
       gridanglex="30"
       gridanglez="30"
       visible="true" /><inkscape:grid
       id="grid33"
       units="px"
       originx="-4.026279"
       originy="-727.60421"
       spacingx="2.6458333"
       spacingy="2.6458333"
       empcolor="#3f3fff"
       empopacity="0.25098039"
       color="#3f3fff"
       opacity="0.1254902"
       empspacing="5"
       dotted="false"
       gridanglex="30"
       gridanglez="30"
       visible="true" /></sodipodi:namedview><defs
     id="defs1"><marker
       style="overflow:visible"
       id="Triangle"
       refX="0"
       refY="0"
       orient="auto-start-reverse"
       inkscape:stockid="Triangle arrow"
       markerWidth="2"
       markerHeight="2"
       viewBox="0 0 1 1"
       inkscape:isstock="true"
       inkscape:collect="always"
       preserveAspectRatio="xMidYMid"><path
         transform="scale(0.5)"
         style="fill:context-stroke;fill-rule:evenodd;stroke:context-stroke;stroke-width:1pt"
         d="M 5.77,0 -2.88,5 V -5 Z"
         id="path135" /></marker></defs><g
     inkscape:label="Layer 1"
     inkscape:groupmode="layer"
     id="layer1"
     transform="translate(-4.026279,-727.60418)"><rect
       style="fill:#00aaaa;fill-opacity:1;fill-rule:evenodd;stroke:none;stroke-width:0.79375;stroke-dasharray:none;stroke-opacity:1"
       id="rect361"
       width="66.145836"
       height="66.145805"
       x="13.229166"
       y="727.60413"
       inkscape:export-filename="../hunts/fractallia/multidimensional/dotted-x.svg"
       inkscape:export-xdpi="95.9"
       inkscape:export-ydpi="95.9" /><rect
       style="fill:#00aaaa;fill-opacity:1;fill-rule:evenodd;stroke:#000033;stroke-width:0.264583;stroke-dasharray:none;stroke-opacity:1"
       id="rect362"
       width="13.229167"
       height="13.229138"
       x="13.229166"
       y="820.20831"
       inkscape:export-filename="../hunts/fractallia/multidimensional/dotted-x.svg"
       inkscape:export-xdpi="95.9"
       inkscape:export-ydpi="95.9" /><rect
       style="fill:#00aaaa;fill-opacity:1;fill-rule:evenodd;stroke:#000033;stroke-width:0.264583;stroke-dasharray:none;stroke-opacity:1"
       id="rect363"
       width="13.229167"
       height="13.229138"
       x="26.458334"
       y="820.20831"
       inkscape:export-filename="../hunts/fractallia/multidimensional/dotted-x.svg"
       inkscape:export-xdpi="95.9"
       inkscape:export-ydpi="95.9" /><rect
       style="fill:#00aaaa;fill-opacity:1;fill-rule:evenodd;stroke:#000033;stroke-width:0.264583;stroke-dasharray:none;stroke-opacity:1"
       id="rect364"
       width="13.229167"
       height="13.229138"
       x="13.229166"
       y="833.43744"
       inkscape:export-filename="../hunts/fractallia/multidimensional/dotted-x.svg"
       inkscape:export-xdpi="95.9"
       inkscape:export-ydpi="95.9" /><rect
       style="fill:#00aaaa;fill-opacity:1;fill-rule:evenodd;stroke:#000033;stroke-width:0.264583;stroke-dasharray:none;stroke-opacity:1"
       id="rect365"
       width="13.229167"
       height="13.229138"
       x="39.6875"
       y="820.20831"
       inkscape:export-filename="../hunts/fractallia/multidimensional/dotted-x.svg"
       inkscape:export-xdpi="95.9"
       inkscape:export-ydpi="95.9" /><rect
       style="fill:#00aaaa;fill-opacity:1;fill-rule:evenodd;stroke:#000033;stroke-width:0.264583;stroke-dasharray:none;stroke-opacity:1"
       id="rect366"
       width="13.229167"
       height="13.229138"
       x="52.916668"
       y="820.20831"
       inkscape:export-filename="../hunts/fractallia/multidimensional/dotted-x.svg"
       inkscape:export-xdpi="95.9"
       inkscape:export-ydpi="95.9" /><rect
       style="fill:#00aaaa;fill-opacity:1;fill-rule:evenodd;stroke:#000033;stroke-width:0.264583;stroke-dasharray:none;stroke-opacity:1"
       id="rect367"
       width="13.229167"
       height="13.229138"
       x="39.6875"
       y="833.43744"
       inkscape:export-filename="../hunts/fractallia/multidimensional/dotted-x.svg"
       inkscape:export-xdpi="95.9"
       inkscape:export-ydpi="95.9" /><rect
       style="fill:#00aaaa;fill-opacity:1;fill-rule:evenodd;stroke:#000033;stroke-width:0.264583;stroke-dasharray:none;stroke-opacity:1"
       id="rect368"
       width="13.229167"
       height="13.229138"
       x="66.145828"
       y="820.20831"
       inkscape:export-filename="../hunts/fractallia/multidimensional/dotted-x.svg"
       inkscape:export-xdpi="95.9"
       inkscape:export-ydpi="95.9" /><rect
       style="fill:#00aaaa;fill-opacity:1;fill-rule:evenodd;stroke:#000033;stroke-width:0.264583;stroke-dasharray:none;stroke-opacity:1"
       id="rect369"
       width="13.229167"
       height="13.229138"
       x="66.145828"
       y="833.43744"
       inkscape:export-filename="../hunts/fractallia/multidimensional/dotted-x.svg"
       inkscape:export-xdpi="95.9"
       inkscape:export-ydpi="95.9" /><rect
       style="fill:#00aaaa;fill-opacity:1;fill-rule:evenodd;stroke:#000033;stroke-width:0.264583;stroke-dasharray:none;stroke-opacity:1"
       id="rect370"
       width="13.229167"
       height="13.229138"
       x="13.229166"
       y="846.66669"
       inkscape:export-filename="../hunts/fractallia/multidimensional/dotted-x.svg"
       inkscape:export-xdpi="95.9"
       inkscape:export-ydpi="95.9" /><rect
       style="fill:#00aaaa;fill-opacity:1;fill-rule:evenodd;stroke:#000033;stroke-width:0.264583;stroke-dasharray:none;stroke-opacity:1"
       id="rect371"
       width="13.229167"
       height="13.229138"
       x="26.458334"
       y="846.66669"
       inkscape:export-filename="../hunts/fractallia/multidimensional/dotted-x.svg"
       inkscape:export-xdpi="95.9"
       inkscape:export-ydpi="95.9" /><rect
       style="fill:#00aaaa;fill-opacity:1;fill-rule:evenodd;stroke:#000033;stroke-width:0.264583;stroke-dasharray:none;stroke-opacity:1"
       id="rect372"
       width="13.229167"
       height="13.229138"
       x="13.229166"
       y="859.89581"
       inkscape:export-filename="../hunts/fractallia/multidimensional/dotted-x.svg"
       inkscape:export-xdpi="95.9"
       inkscape:export-ydpi="95.9" /><rect
       style="fill:#00aaaa;fill-opacity:1;fill-rule:evenodd;stroke:#000033;stroke-width:0.264583;stroke-dasharray:none;stroke-opacity:1"
       id="rect373"
       width="13.229167"
       height="13.229138"
       x="39.6875"
       y="846.66669"
       inkscape:export-filename="../hunts/fractallia/multidimensional/dotted-x.svg"
       inkscape:export-xdpi="95.9"
       inkscape:export-ydpi="95.9" /><rect
       style="fill:#00aaaa;fill-opacity:1;fill-rule:evenodd;stroke:#000033;stroke-width:0.264583;stroke-dasharray:none;stroke-opacity:1"
       id="rect374"
       width="13.229167"
       height="13.229138"
       x="52.916668"
       y="846.66669"
       inkscape:export-filename="../hunts/fractallia/multidimensional/dotted-x.svg"
       inkscape:export-xdpi="95.9"
       inkscape:export-ydpi="95.9" /><rect
       style="fill:#00aaaa;fill-opacity:1;fill-rule:evenodd;stroke:#000033;stroke-width:0.264583;stroke-dasharray:none;stroke-opacity:1"
       id="rect375"
       width="13.229167"
       height="13.229138"
       x="39.6875"
       y="859.89581"
       inkscape:export-filename="../hunts/fractallia/multidimensional/dotted-x.svg"
       inkscape:export-xdpi="95.9"
       inkscape:export-ydpi="95.9" /><rect
       style="fill:#00aaaa;fill-opacity:1;fill-rule:evenodd;stroke:#000033;stroke-width:0.264583;stroke-dasharray:none;stroke-opacity:1"
       id="rect376"
       width="13.229167"
       height="13.229138"
       x="66.145828"
       y="846.66669"
       inkscape:export-filename="../hunts/fractallia/multidimensional/dotted-x.svg"
       inkscape:export-xdpi="95.9"
       inkscape:export-ydpi="95.9" /><rect
       style="fill:#00aaaa;fill-opacity:1;fill-rule:evenodd;stroke:#000033;stroke-width:0.264583;stroke-dasharray:none;stroke-opacity:1"
       id="rect377"
       width="13.229167"
       height="13.229138"
       x="66.145828"
       y="859.89581"
       inkscape:export-filename="../hunts/fractallia/multidimensional/dotted-x.svg"
       inkscape:export-xdpi="95.9"
       inkscape:export-ydpi="95.9" /><rect
       style="fill:#00aaaa;fill-opacity:1;fill-rule:evenodd;stroke:#000033;stroke-width:0.264583;stroke-dasharray:none;stroke-opacity:1"
       id="rect378"
       width="13.229167"
       height="13.229138"
       x="13.229166"
       y="873.12494"
       inkscape:export-filename="../hunts/fractallia/multidimensional/dotted-x.svg"
       inkscape:export-xdpi="95.9"
       inkscape:export-ydpi="95.9" /><rect
       style="fill:#00aaaa;fill-opacity:1;fill-rule:evenodd;stroke:#000033;stroke-width:0.264583;stroke-dasharray:none;stroke-opacity:1"
       id="rect379"
       width="13.229167"
       height="13.229138"
       x="26.458334"
       y="873.12494"
       inkscape:export-filename="../hunts/fractallia/multidimensional/dotted-x.svg"
       inkscape:export-xdpi="95.9"
       inkscape:export-ydpi="95.9" /><rect
       style="fill:#00aaaa;fill-opacity:1;fill-rule:evenodd;stroke:#000033;stroke-width:0.264583;stroke-dasharray:none;stroke-opacity:1"
       id="rect380"
       width="13.229167"
       height="13.229138"
       x="39.6875"
       y="873.12494"
       inkscape:export-filename="../hunts/fractallia/multidimensional/dotted-x.svg"
       inkscape:export-xdpi="95.9"
       inkscape:export-ydpi="95.9" /><rect
       style="fill:#00aaaa;fill-opacity:1;fill-rule:evenodd;stroke:#000033;stroke-width:0.264583;stroke-dasharray:none;stroke-opacity:1"
       id="rect381"
       width="13.229167"
       height="13.229138"
       x="52.916668"
       y="873.12494"
       inkscape:export-filename="../hunts/fractallia/multidimensional/dotted-x.svg"
       inkscape:export-xdpi="95.9"
       inkscape:export-ydpi="95.9" /><rect
       style="fill:#00aaaa;fill-opacity:1;fill-rule:evenodd;stroke:#000033;stroke-width:0.264583;stroke-dasharray:none;stroke-opacity:1"
       id="rect382"
       width="13.229167"
       height="13.229138"
       x="66.145828"
       y="873.12494"
       inkscape:export-filename="../hunts/fractallia/multidimensional/dotted-x.svg"
       inkscape:export-xdpi="95.9"
       inkscape:export-ydpi="95.9" /><g
       transform="matrix(0.521729,0,0,0.521729,8.6395565,759.24217)"
       ns1:version="1.10.0"
       ns1:texconverter="pdflatex"
       ns1:pdfconverter="inkscape"
       ns1:text="$x$"
       ns1:preamble="/home/hayastl/.config/inkscape/extensions/textext"
       ns1:scale="1.478915215614537"
       ns1:alignment="middle center"
       ns1:stroke-to-path="0"
       ns1:inkscapeversion="1.3.2"
       id="g387"
       ns1:jacobian_sqrt="0.521729"
       style="fill:#00aaaa;fill-opacity:1"><defs
   id="defs383" />
  <g
   id="g386"
   transform="translate(-149.009,-130.359)"
   style="fill:#00aaaa;fill-opacity:1">
    <g
   style="fill:#00aaaa;fill-opacity:1"
   id="g385">
      <g
   transform="translate(148.712,134.765)"
   id="g384"
   style="fill:#00aaaa;fill-opacity:1"><path
   style="fill:#00aaaa;fill-opacity:1;stroke:none;stroke-width:0"
   d="M 3.328125,-3.015625 C 3.390625,-3.265625 3.625,-4.1875 4.3125,-4.1875 c 0.046875,0 0.296875,0 0.5,0.125 C 4.53125,-4 4.34375,-3.765625 4.34375,-3.515625 c 0,0.15625 0.109375,0.34375 0.375,0.34375 0.21875,0 0.53125,-0.171875 0.53125,-0.578125 0,-0.515625 -0.578125,-0.65625 -0.921875,-0.65625 -0.578125,0 -0.921875,0.53125 -1.046875,0.75 -0.25,-0.65625 -0.78125,-0.75 -1.078125,-0.75 -1.03125,0 -1.609375,1.28125 -1.609375,1.53125 0,0.109375 0.109375,0.109375 0.125,0.109375 0.078125,0 0.109375,-0.03125 0.125,-0.109375 0.34375,-1.0625 1,-1.3125 1.34375,-1.3125 0.1875,0 0.53125,0.09375 0.53125,0.671875 0,0.3125 -0.171875,0.96875 -0.53125,2.375 -0.15625,0.609375 -0.515625,1.03125 -0.953125,1.03125 -0.0625,0 -0.28125,0 -0.5,-0.125 0.25,-0.0625 0.46875,-0.265625 0.46875,-0.546875 0,-0.265625 -0.21875,-0.34375 -0.359375,-0.34375 -0.3125,0 -0.546875,0.25 -0.546875,0.578125 0,0.453125 0.484375,0.65625 0.921875,0.65625 0.671875,0 1.03125,-0.703125 1.046875,-0.75 0.125,0.359375 0.484375,0.75 1.078125,0.75 1.03125,0 1.59375,-1.28125 1.59375,-1.53125 0,-0.109375 -0.078125,-0.109375 -0.109375,-0.109375 -0.09375,0 -0.109375,0.046875 -0.140625,0.109375 -0.328125,1.078125 -1,1.3125 -1.3125,1.3125 -0.390625,0 -0.546875,-0.3125 -0.546875,-0.65625 0,-0.21875 0.046875,-0.4375 0.15625,-0.875 z m 0,0"
   id="path384" />
      </g></g>
  </g>
</g><g
       transform="matrix(0.521729,0,0,0.521729,45.162843,795.23561)"
       ns1:version="1.10.0"
       ns1:texconverter="pdflatex"
       ns1:pdfconverter="inkscape"
       ns1:text="$x$"
       ns1:preamble="/home/hayastl/.config/inkscape/extensions/textext"
       ns1:scale="1.478915215614537"
       ns1:alignment="middle center"
       ns1:stroke-to-path="0"
       ns1:inkscapeversion="1.3.2"
       id="g392"
       ns1:jacobian_sqrt="0.521729"
       style="fill:#00aaaa;fill-opacity:1"><defs
   id="defs388" />
  <g
   id="g391"
   transform="translate(-149.009,-130.359)"
   style="fill:#00aaaa;fill-opacity:1">
    <g
   style="fill:#00aaaa;fill-opacity:1"
   id="g390">
      <g
   transform="translate(148.712,134.765)"
   id="g389"
   style="fill:#00aaaa;fill-opacity:1"><path
   style="fill:#00aaaa;fill-opacity:1;stroke:none;stroke-width:0"
   d="M 3.328125,-3.015625 C 3.390625,-3.265625 3.625,-4.1875 4.3125,-4.1875 c 0.046875,0 0.296875,0 0.5,0.125 C 4.53125,-4 4.34375,-3.765625 4.34375,-3.515625 c 0,0.15625 0.109375,0.34375 0.375,0.34375 0.21875,0 0.53125,-0.171875 0.53125,-0.578125 0,-0.515625 -0.578125,-0.65625 -0.921875,-0.65625 -0.578125,0 -0.921875,0.53125 -1.046875,0.75 -0.25,-0.65625 -0.78125,-0.75 -1.078125,-0.75 -1.03125,0 -1.609375,1.28125 -1.609375,1.53125 0,0.109375 0.109375,0.109375 0.125,0.109375 0.078125,0 0.109375,-0.03125 0.125,-0.109375 0.34375,-1.0625 1,-1.3125 1.34375,-1.3125 0.1875,0 0.53125,0.09375 0.53125,0.671875 0,0.3125 -0.171875,0.96875 -0.53125,2.375 -0.15625,0.609375 -0.515625,1.03125 -0.953125,1.03125 -0.0625,0 -0.28125,0 -0.5,-0.125 0.25,-0.0625 0.46875,-0.265625 0.46875,-0.546875 0,-0.265625 -0.21875,-0.34375 -0.359375,-0.34375 -0.3125,0 -0.546875,0.25 -0.546875,0.578125 0,0.453125 0.484375,0.65625 0.921875,0.65625 0.671875,0 1.03125,-0.703125 1.046875,-0.75 0.125,0.359375 0.484375,0.75 1.078125,0.75 1.03125,0 1.59375,-1.28125 1.59375,-1.53125 0,-0.109375 -0.078125,-0.109375 -0.109375,-0.109375 -0.09375,0 -0.109375,0.046875 -0.140625,0.109375 -0.328125,1.078125 -1,1.3125 -1.3125,1.3125 -0.390625,0 -0.546875,-0.3125 -0.546875,-0.65625 0,-0.21875 0.046875,-0.4375 0.15625,-0.875 z m 0,0"
   id="path389" />
      </g></g>
  </g>
</g><text
       xml:space="preserve"
       style="font-style:normal;font-variant:normal;font-weight:normal;font-stretch:normal;font-size:4.23333px;line-height:1.25;font-family:'Noto Sans';-inkscape-font-specification:'Noto Sans';letter-spacing:0px;word-spacing:0px;writing-mode:lr-tb;fill:#00aaaa;fill-opacity:1;stroke-width:0.264583"
       x="48.446278"
       y="807.98242"
       id="text392"><tspan
         sodipodi:role="line"
         style="font-style:normal;font-variant:normal;font-weight:normal;font-stretch:normal;font-family:'Noto Sans';-inkscape-font-specification:'Noto Sans';fill:#00aaaa;fill-opacity:1;stroke-width:0.264583"
         x="48.446278"
         y="807.98242"
         id="tspan392">Repeat</tspan></text><path
       style="fill:none;stroke:#00aaaa;stroke-width:0.264583px;stroke-linecap:butt;stroke-linejoin:miter;stroke-opacity:1;marker-end:url(#Triangle)"
       d="m 44.80617,799.77541 v 13.22917"
       id="path392"
       sodipodi:nodetypes="cc" /><g
       transform="matrix(0.521729,0,0,0.521729,4.0263443,823.79915)"
       ns1:version="1.10.0"
       ns1:texconverter="pdflatex"
       ns1:pdfconverter="inkscape"
       ns1:text="$x/5$"
       ns1:preamble="/home/hayastl/.config/inkscape/extensions/textext"
       ns1:scale="1.478915215614537"
       ns1:alignment="middle center"
       ns1:stroke-to-path="0"
       ns1:inkscapeversion="1.3.2"
       id="g398"
       ns1:jacobian_sqrt="0.521729"
       style="fill:#00aaaa;fill-opacity:1;stroke-width:0"><defs
   id="id-6bf67196-8617-4efc-8a3a-e13af5c563b2"
   style="fill:#00aaaa;fill-opacity:1;stroke-width:0" />
  <g
   id="id-f981359e-9912-43d5-9053-89a5d1054e36"
   transform="translate(-149.009,-127.281)"
   style="fill:#00aaaa;fill-opacity:1;stroke-width:0">
    <g
   style="fill:#00aaaa;fill-opacity:1;stroke-width:0"
   id="id-a9f00329-13f8-49ab-bdde-47ffa8010092">
      <g
   transform="translate(148.712,134.765)"
   id="g3745"
   style="fill:#00aaaa;fill-opacity:1;stroke-width:0"><path
   style="fill:#00aaaa;fill-opacity:1;stroke:#00aaaa;stroke-width:0"
   d="M 3.328125,-3.015625 C 3.390625,-3.265625 3.625,-4.1875 4.3125,-4.1875 c 0.046875,0 0.296875,0 0.5,0.125 C 4.53125,-4 4.34375,-3.765625 4.34375,-3.515625 c 0,0.15625 0.109375,0.34375 0.375,0.34375 0.21875,0 0.53125,-0.171875 0.53125,-0.578125 0,-0.515625 -0.578125,-0.65625 -0.921875,-0.65625 -0.578125,0 -0.921875,0.53125 -1.046875,0.75 -0.25,-0.65625 -0.78125,-0.75 -1.078125,-0.75 -1.03125,0 -1.609375,1.28125 -1.609375,1.53125 0,0.109375 0.109375,0.109375 0.125,0.109375 0.078125,0 0.109375,-0.03125 0.125,-0.109375 0.34375,-1.0625 1,-1.3125 1.34375,-1.3125 0.1875,0 0.53125,0.09375 0.53125,0.671875 0,0.3125 -0.171875,0.96875 -0.53125,2.375 -0.15625,0.609375 -0.515625,1.03125 -0.953125,1.03125 -0.0625,0 -0.28125,0 -0.5,-0.125 0.25,-0.0625 0.46875,-0.265625 0.46875,-0.546875 0,-0.265625 -0.21875,-0.34375 -0.359375,-0.34375 -0.3125,0 -0.546875,0.25 -0.546875,0.578125 0,0.453125 0.484375,0.65625 0.921875,0.65625 0.671875,0 1.03125,-0.703125 1.046875,-0.75 0.125,0.359375 0.484375,0.75 1.078125,0.75 1.03125,0 1.59375,-1.28125 1.59375,-1.53125 0,-0.109375 -0.078125,-0.109375 -0.109375,-0.109375 -0.09375,0 -0.109375,0.046875 -0.140625,0.109375 -0.328125,1.078125 -1,1.3125 -1.3125,1.3125 -0.390625,0 -0.546875,-0.3125 -0.546875,-0.65625 0,-0.21875 0.046875,-0.4375 0.15625,-0.875 z m 0,0"
   id="id-d84ade0e-9000-40b9-b7b0-9da8bff81549" />
      </g><g
   transform="translate(154.406,134.765)"
   id="g6947"
   style="fill:#00aaaa;fill-opacity:1;stroke-width:0"><path
   style="fill:#00aaaa;fill-opacity:1;stroke:#00aaaa;stroke-width:0"
   d="m 4.375,-7.09375 c 0.046875,-0.140625 0.046875,-0.171875 0.046875,-0.1875 0,-0.109375 -0.078125,-0.203125 -0.1875,-0.203125 -0.078125,0 -0.140625,0.03125 -0.171875,0.09375 l -3.46875,9.5 C 0.546875,2.25 0.546875,2.28125 0.546875,2.296875 0.546875,2.40625 0.640625,2.5 0.75,2.5 0.875,2.5 0.90625,2.421875 0.96875,2.25 Z m 0,0"
   id="id-361279b1-e57f-4a5f-b3a3-510b4d141263" />
      </g></g>
    <g
   style="fill:#00aaaa;fill-opacity:1;stroke-width:0"
   id="id-d3a29452-6c21-412c-92f3-ac5ed0dcdb73">
      <g
   transform="translate(159.388,134.765)"
   id="g6450"
   style="fill:#00aaaa;fill-opacity:1;stroke-width:0"><path
   style="fill:#00aaaa;fill-opacity:1;stroke:#00aaaa;stroke-width:0"
   d="m 4.46875,-2 c 0,-1.1875 -0.8125,-2.1875 -1.890625,-2.1875 -0.46875,0 -0.90625,0.15625 -1.265625,0.515625 V -5.625 c 0.203125,0.0625 0.53125,0.125 0.84375,0.125 1.234375,0 1.9375,-0.90625 1.9375,-1.03125 0,-0.0625 -0.03125,-0.109375 -0.109375,-0.109375 0,0 -0.03125,0 -0.078125,0.03125 C 3.703125,-6.515625 3.21875,-6.3125 2.546875,-6.3125 2.15625,-6.3125 1.6875,-6.390625 1.21875,-6.59375 1.140625,-6.625 1.125,-6.625 1.109375,-6.625 1,-6.625 1,-6.546875 1,-6.390625 V -3.4375 c 0,0.171875 0,0.25 0.140625,0.25 0.078125,0 0.09375,-0.015625 0.140625,-0.078125 C 1.390625,-3.421875 1.75,-3.96875 2.5625,-3.96875 c 0.515625,0 0.765625,0.453125 0.84375,0.640625 0.15625,0.375 0.1875,0.75 0.1875,1.25 0,0.359375 0,0.953125 -0.25,1.375 C 3.109375,-0.3125 2.734375,-0.0625 2.28125,-0.0625 c -0.71875,0 -1.296875,-0.53125 -1.46875,-1.109375 0.03125,0 0.0625,0.015625 0.171875,0.015625 0.328125,0 0.5,-0.25 0.5,-0.484375 0,-0.25 -0.171875,-0.5 -0.5,-0.5 C 0.84375,-2.140625 0.5,-2.0625 0.5,-1.609375 0.5,-0.75 1.1875,0.21875 2.296875,0.21875 3.453125,0.21875 4.46875,-0.734375 4.46875,-2 Z m 0,0"
   id="id-c2118e9f-586f-4f6e-8fa9-d272069434eb" />
      </g></g>
  </g>
</g><g
       transform="matrix(0.521729,0,0,0.521729,4.0263443,837.38127)"
       ns1:version="1.10.0"
       ns1:texconverter="pdflatex"
       ns1:pdfconverter="inkscape"
       ns1:text="$x/5$"
       ns1:preamble="/home/hayastl/.config/inkscape/extensions/textext"
       ns1:scale="1.478915215614537"
       ns1:alignment="middle center"
       ns1:stroke-to-path="0"
       ns1:inkscapeversion="1.3.2"
       id="g409"
       ns1:jacobian_sqrt="0.521729"
       style="fill:#00aaaa;fill-opacity:1;stroke-width:0"><defs
   id="defs402"
   style="fill:#00aaaa;fill-opacity:1;stroke-width:0" />
  <g
   id="g408"
   transform="translate(-149.009,-127.281)"
   style="fill:#00aaaa;fill-opacity:1;stroke-width:0">
    <g
   style="fill:#00aaaa;fill-opacity:1;stroke-width:0"
   id="g405">
      <g
   transform="translate(148.712,134.765)"
   id="g403"
   style="fill:#00aaaa;fill-opacity:1;stroke-width:0"><path
   style="fill:#00aaaa;fill-opacity:1;stroke:#00aaaa;stroke-width:0"
   d="M 3.328125,-3.015625 C 3.390625,-3.265625 3.625,-4.1875 4.3125,-4.1875 c 0.046875,0 0.296875,0 0.5,0.125 C 4.53125,-4 4.34375,-3.765625 4.34375,-3.515625 c 0,0.15625 0.109375,0.34375 0.375,0.34375 0.21875,0 0.53125,-0.171875 0.53125,-0.578125 0,-0.515625 -0.578125,-0.65625 -0.921875,-0.65625 -0.578125,0 -0.921875,0.53125 -1.046875,0.75 -0.25,-0.65625 -0.78125,-0.75 -1.078125,-0.75 -1.03125,0 -1.609375,1.28125 -1.609375,1.53125 0,0.109375 0.109375,0.109375 0.125,0.109375 0.078125,0 0.109375,-0.03125 0.125,-0.109375 0.34375,-1.0625 1,-1.3125 1.34375,-1.3125 0.1875,0 0.53125,0.09375 0.53125,0.671875 0,0.3125 -0.171875,0.96875 -0.53125,2.375 -0.15625,0.609375 -0.515625,1.03125 -0.953125,1.03125 -0.0625,0 -0.28125,0 -0.5,-0.125 0.25,-0.0625 0.46875,-0.265625 0.46875,-0.546875 0,-0.265625 -0.21875,-0.34375 -0.359375,-0.34375 -0.3125,0 -0.546875,0.25 -0.546875,0.578125 0,0.453125 0.484375,0.65625 0.921875,0.65625 0.671875,0 1.03125,-0.703125 1.046875,-0.75 0.125,0.359375 0.484375,0.75 1.078125,0.75 1.03125,0 1.59375,-1.28125 1.59375,-1.53125 0,-0.109375 -0.078125,-0.109375 -0.109375,-0.109375 -0.09375,0 -0.109375,0.046875 -0.140625,0.109375 -0.328125,1.078125 -1,1.3125 -1.3125,1.3125 -0.390625,0 -0.546875,-0.3125 -0.546875,-0.65625 0,-0.21875 0.046875,-0.4375 0.15625,-0.875 z m 0,0"
   id="path403" />
      </g><g
   transform="translate(154.406,134.765)"
   id="g404"
   style="fill:#00aaaa;fill-opacity:1;stroke-width:0"><path
   style="fill:#00aaaa;fill-opacity:1;stroke:#00aaaa;stroke-width:0"
   d="m 4.375,-7.09375 c 0.046875,-0.140625 0.046875,-0.171875 0.046875,-0.1875 0,-0.109375 -0.078125,-0.203125 -0.1875,-0.203125 -0.078125,0 -0.140625,0.03125 -0.171875,0.09375 l -3.46875,9.5 C 0.546875,2.25 0.546875,2.28125 0.546875,2.296875 0.546875,2.40625 0.640625,2.5 0.75,2.5 0.875,2.5 0.90625,2.421875 0.96875,2.25 Z m 0,0"
   id="path404" />
      </g></g>
    <g
   style="fill:#00aaaa;fill-opacity:1;stroke-width:0"
   id="g407">
      <g
   transform="translate(159.388,134.765)"
   id="g406"
   style="fill:#00aaaa;fill-opacity:1;stroke-width:0"><path
   style="fill:#00aaaa;fill-opacity:1;stroke:#00aaaa;stroke-width:0"
   d="m 4.46875,-2 c 0,-1.1875 -0.8125,-2.1875 -1.890625,-2.1875 -0.46875,0 -0.90625,0.15625 -1.265625,0.515625 V -5.625 c 0.203125,0.0625 0.53125,0.125 0.84375,0.125 1.234375,0 1.9375,-0.90625 1.9375,-1.03125 0,-0.0625 -0.03125,-0.109375 -0.109375,-0.109375 0,0 -0.03125,0 -0.078125,0.03125 C 3.703125,-6.515625 3.21875,-6.3125 2.546875,-6.3125 2.15625,-6.3125 1.6875,-6.390625 1.21875,-6.59375 1.140625,-6.625 1.125,-6.625 1.109375,-6.625 1,-6.625 1,-6.546875 1,-6.390625 V -3.4375 c 0,0.171875 0,0.25 0.140625,0.25 0.078125,0 0.09375,-0.015625 0.140625,-0.078125 C 1.390625,-3.421875 1.75,-3.96875 2.5625,-3.96875 c 0.515625,0 0.765625,0.453125 0.84375,0.640625 0.15625,0.375 0.1875,0.75 0.1875,1.25 0,0.359375 0,0.953125 -0.25,1.375 C 3.109375,-0.3125 2.734375,-0.0625 2.28125,-0.0625 c -0.71875,0 -1.296875,-0.53125 -1.46875,-1.109375 0.03125,0 0.0625,0.015625 0.171875,0.015625 0.328125,0 0.5,-0.25 0.5,-0.484375 0,-0.25 -0.171875,-0.5 -0.5,-0.5 C 0.84375,-2.140625 0.5,-2.0625 0.5,-1.609375 0.5,-0.75 1.1875,0.21875 2.296875,0.21875 3.453125,0.21875 4.46875,-0.734375 4.46875,-2 Z m 0,0"
   id="path405" />
      </g></g>
  </g>
</g><g
       transform="matrix(0.521729,0,0,0.521729,4.0263443,850.31455)"
       ns1:version="1.10.0"
       ns1:texconverter="pdflatex"
       ns1:pdfconverter="inkscape"
       ns1:text="$x/5$"
       ns1:preamble="/home/hayastl/.config/inkscape/extensions/textext"
       ns1:scale="1.478915215614537"
       ns1:alignment="middle center"
       ns1:stroke-to-path="0"
       ns1:inkscapeversion="1.3.2"
       id="g420"
       ns1:jacobian_sqrt="0.521729"
       style="fill:#00aaaa;fill-opacity:1;stroke-width:0"><defs
   id="defs413"
   style="fill:#00aaaa;fill-opacity:1;stroke-width:0" />
  <g
   id="g419"
   transform="translate(-149.009,-127.281)"
   style="fill:#00aaaa;fill-opacity:1;stroke-width:0">
    <g
   style="fill:#00aaaa;fill-opacity:1;stroke-width:0"
   id="g416">
      <g
   transform="translate(148.712,134.765)"
   id="g414"
   style="fill:#00aaaa;fill-opacity:1;stroke-width:0"><path
   style="fill:#00aaaa;fill-opacity:1;stroke:#00aaaa;stroke-width:0"
   d="M 3.328125,-3.015625 C 3.390625,-3.265625 3.625,-4.1875 4.3125,-4.1875 c 0.046875,0 0.296875,0 0.5,0.125 C 4.53125,-4 4.34375,-3.765625 4.34375,-3.515625 c 0,0.15625 0.109375,0.34375 0.375,0.34375 0.21875,0 0.53125,-0.171875 0.53125,-0.578125 0,-0.515625 -0.578125,-0.65625 -0.921875,-0.65625 -0.578125,0 -0.921875,0.53125 -1.046875,0.75 -0.25,-0.65625 -0.78125,-0.75 -1.078125,-0.75 -1.03125,0 -1.609375,1.28125 -1.609375,1.53125 0,0.109375 0.109375,0.109375 0.125,0.109375 0.078125,0 0.109375,-0.03125 0.125,-0.109375 0.34375,-1.0625 1,-1.3125 1.34375,-1.3125 0.1875,0 0.53125,0.09375 0.53125,0.671875 0,0.3125 -0.171875,0.96875 -0.53125,2.375 -0.15625,0.609375 -0.515625,1.03125 -0.953125,1.03125 -0.0625,0 -0.28125,0 -0.5,-0.125 0.25,-0.0625 0.46875,-0.265625 0.46875,-0.546875 0,-0.265625 -0.21875,-0.34375 -0.359375,-0.34375 -0.3125,0 -0.546875,0.25 -0.546875,0.578125 0,0.453125 0.484375,0.65625 0.921875,0.65625 0.671875,0 1.03125,-0.703125 1.046875,-0.75 0.125,0.359375 0.484375,0.75 1.078125,0.75 1.03125,0 1.59375,-1.28125 1.59375,-1.53125 0,-0.109375 -0.078125,-0.109375 -0.109375,-0.109375 -0.09375,0 -0.109375,0.046875 -0.140625,0.109375 -0.328125,1.078125 -1,1.3125 -1.3125,1.3125 -0.390625,0 -0.546875,-0.3125 -0.546875,-0.65625 0,-0.21875 0.046875,-0.4375 0.15625,-0.875 z m 0,0"
   id="path414" />
      </g><g
   transform="translate(154.406,134.765)"
   id="g415"
   style="fill:#00aaaa;fill-opacity:1;stroke-width:0"><path
   style="fill:#00aaaa;fill-opacity:1;stroke:#00aaaa;stroke-width:0"
   d="m 4.375,-7.09375 c 0.046875,-0.140625 0.046875,-0.171875 0.046875,-0.1875 0,-0.109375 -0.078125,-0.203125 -0.1875,-0.203125 -0.078125,0 -0.140625,0.03125 -0.171875,0.09375 l -3.46875,9.5 C 0.546875,2.25 0.546875,2.28125 0.546875,2.296875 0.546875,2.40625 0.640625,2.5 0.75,2.5 0.875,2.5 0.90625,2.421875 0.96875,2.25 Z m 0,0"
   id="path415" />
      </g></g>
    <g
   style="fill:#00aaaa;fill-opacity:1;stroke-width:0"
   id="g418">
      <g
   transform="translate(159.388,134.765)"
   id="g417"
   style="fill:#00aaaa;fill-opacity:1;stroke-width:0"><path
   style="fill:#00aaaa;fill-opacity:1;stroke:#00aaaa;stroke-width:0"
   d="m 4.46875,-2 c 0,-1.1875 -0.8125,-2.1875 -1.890625,-2.1875 -0.46875,0 -0.90625,0.15625 -1.265625,0.515625 V -5.625 c 0.203125,0.0625 0.53125,0.125 0.84375,0.125 1.234375,0 1.9375,-0.90625 1.9375,-1.03125 0,-0.0625 -0.03125,-0.109375 -0.109375,-0.109375 0,0 -0.03125,0 -0.078125,0.03125 C 3.703125,-6.515625 3.21875,-6.3125 2.546875,-6.3125 2.15625,-6.3125 1.6875,-6.390625 1.21875,-6.59375 1.140625,-6.625 1.125,-6.625 1.109375,-6.625 1,-6.625 1,-6.546875 1,-6.390625 V -3.4375 c 0,0.171875 0,0.25 0.140625,0.25 0.078125,0 0.09375,-0.015625 0.140625,-0.078125 C 1.390625,-3.421875 1.75,-3.96875 2.5625,-3.96875 c 0.515625,0 0.765625,0.453125 0.84375,0.640625 0.15625,0.375 0.1875,0.75 0.1875,1.25 0,0.359375 0,0.953125 -0.25,1.375 C 3.109375,-0.3125 2.734375,-0.0625 2.28125,-0.0625 c -0.71875,0 -1.296875,-0.53125 -1.46875,-1.109375 0.03125,0 0.0625,0.015625 0.171875,0.015625 0.328125,0 0.5,-0.25 0.5,-0.484375 0,-0.25 -0.171875,-0.5 -0.5,-0.5 C 0.84375,-2.140625 0.5,-2.0625 0.5,-1.609375 0.5,-0.75 1.1875,0.21875 2.296875,0.21875 3.453125,0.21875 4.46875,-0.734375 4.46875,-2 Z m 0,0"
   id="path416" />
      </g></g>
  </g>
</g><g
       transform="matrix(0.521729,0,0,0.521729,4.0263443,863.89667)"
       ns1:version="1.10.0"
       ns1:texconverter="pdflatex"
       ns1:pdfconverter="inkscape"
       ns1:text="$x/5$"
       ns1:preamble="/home/hayastl/.config/inkscape/extensions/textext"
       ns1:scale="1.478915215614537"
       ns1:alignment="middle center"
       ns1:stroke-to-path="0"
       ns1:inkscapeversion="1.3.2"
       id="g431"
       ns1:jacobian_sqrt="0.521729"
       style="fill:#00aaaa;fill-opacity:1;stroke-width:0"><defs
   id="defs424"
   style="fill:#00aaaa;fill-opacity:1;stroke-width:0" />
  <g
   id="g430"
   transform="translate(-149.009,-127.281)"
   style="fill:#00aaaa;fill-opacity:1;stroke-width:0">
    <g
   style="fill:#00aaaa;fill-opacity:1;stroke-width:0"
   id="g427">
      <g
   transform="translate(148.712,134.765)"
   id="g425"
   style="fill:#00aaaa;fill-opacity:1;stroke-width:0"><path
   style="fill:#00aaaa;fill-opacity:1;stroke:#00aaaa;stroke-width:0"
   d="M 3.328125,-3.015625 C 3.390625,-3.265625 3.625,-4.1875 4.3125,-4.1875 c 0.046875,0 0.296875,0 0.5,0.125 C 4.53125,-4 4.34375,-3.765625 4.34375,-3.515625 c 0,0.15625 0.109375,0.34375 0.375,0.34375 0.21875,0 0.53125,-0.171875 0.53125,-0.578125 0,-0.515625 -0.578125,-0.65625 -0.921875,-0.65625 -0.578125,0 -0.921875,0.53125 -1.046875,0.75 -0.25,-0.65625 -0.78125,-0.75 -1.078125,-0.75 -1.03125,0 -1.609375,1.28125 -1.609375,1.53125 0,0.109375 0.109375,0.109375 0.125,0.109375 0.078125,0 0.109375,-0.03125 0.125,-0.109375 0.34375,-1.0625 1,-1.3125 1.34375,-1.3125 0.1875,0 0.53125,0.09375 0.53125,0.671875 0,0.3125 -0.171875,0.96875 -0.53125,2.375 -0.15625,0.609375 -0.515625,1.03125 -0.953125,1.03125 -0.0625,0 -0.28125,0 -0.5,-0.125 0.25,-0.0625 0.46875,-0.265625 0.46875,-0.546875 0,-0.265625 -0.21875,-0.34375 -0.359375,-0.34375 -0.3125,0 -0.546875,0.25 -0.546875,0.578125 0,0.453125 0.484375,0.65625 0.921875,0.65625 0.671875,0 1.03125,-0.703125 1.046875,-0.75 0.125,0.359375 0.484375,0.75 1.078125,0.75 1.03125,0 1.59375,-1.28125 1.59375,-1.53125 0,-0.109375 -0.078125,-0.109375 -0.109375,-0.109375 -0.09375,0 -0.109375,0.046875 -0.140625,0.109375 -0.328125,1.078125 -1,1.3125 -1.3125,1.3125 -0.390625,0 -0.546875,-0.3125 -0.546875,-0.65625 0,-0.21875 0.046875,-0.4375 0.15625,-0.875 z m 0,0"
   id="path425" />
      </g><g
   transform="translate(154.406,134.765)"
   id="g426"
   style="fill:#00aaaa;fill-opacity:1;stroke-width:0"><path
   style="fill:#00aaaa;fill-opacity:1;stroke:#00aaaa;stroke-width:0"
   d="m 4.375,-7.09375 c 0.046875,-0.140625 0.046875,-0.171875 0.046875,-0.1875 0,-0.109375 -0.078125,-0.203125 -0.1875,-0.203125 -0.078125,0 -0.140625,0.03125 -0.171875,0.09375 l -3.46875,9.5 C 0.546875,2.25 0.546875,2.28125 0.546875,2.296875 0.546875,2.40625 0.640625,2.5 0.75,2.5 0.875,2.5 0.90625,2.421875 0.96875,2.25 Z m 0,0"
   id="path426" />
      </g></g>
    <g
   style="fill:#00aaaa;fill-opacity:1;stroke-width:0"
   id="g429">
      <g
   transform="translate(159.388,134.765)"
   id="g428"
   style="fill:#00aaaa;fill-opacity:1;stroke-width:0"><path
   style="fill:#00aaaa;fill-opacity:1;stroke:#00aaaa;stroke-width:0"
   d="m 4.46875,-2 c 0,-1.1875 -0.8125,-2.1875 -1.890625,-2.1875 -0.46875,0 -0.90625,0.15625 -1.265625,0.515625 V -5.625 c 0.203125,0.0625 0.53125,0.125 0.84375,0.125 1.234375,0 1.9375,-0.90625 1.9375,-1.03125 0,-0.0625 -0.03125,-0.109375 -0.109375,-0.109375 0,0 -0.03125,0 -0.078125,0.03125 C 3.703125,-6.515625 3.21875,-6.3125 2.546875,-6.3125 2.15625,-6.3125 1.6875,-6.390625 1.21875,-6.59375 1.140625,-6.625 1.125,-6.625 1.109375,-6.625 1,-6.625 1,-6.546875 1,-6.390625 V -3.4375 c 0,0.171875 0,0.25 0.140625,0.25 0.078125,0 0.09375,-0.015625 0.140625,-0.078125 C 1.390625,-3.421875 1.75,-3.96875 2.5625,-3.96875 c 0.515625,0 0.765625,0.453125 0.84375,0.640625 0.15625,0.375 0.1875,0.75 0.1875,1.25 0,0.359375 0,0.953125 -0.25,1.375 C 3.109375,-0.3125 2.734375,-0.0625 2.28125,-0.0625 c -0.71875,0 -1.296875,-0.53125 -1.46875,-1.109375 0.03125,0 0.0625,0.015625 0.171875,0.015625 0.328125,0 0.5,-0.25 0.5,-0.484375 0,-0.25 -0.171875,-0.5 -0.5,-0.5 C 0.84375,-2.140625 0.5,-2.0625 0.5,-1.609375 0.5,-0.75 1.1875,0.21875 2.296875,0.21875 3.453125,0.21875 4.46875,-0.734375 4.46875,-2 Z m 0,0"
   id="path427" />
      </g></g>
  </g>
</g><g
       transform="matrix(0.521729,0,0,0.521729,4.0263443,876.99815)"
       ns1:version="1.10.0"
       ns1:texconverter="pdflatex"
       ns1:pdfconverter="inkscape"
       ns1:text="$x/5$"
       ns1:preamble="/home/hayastl/.config/inkscape/extensions/textext"
       ns1:scale="1.478915215614537"
       ns1:alignment="middle center"
       ns1:stroke-to-path="0"
       ns1:inkscapeversion="1.3.2"
       id="g442"
       ns1:jacobian_sqrt="0.521729"
       style="fill:#00aaaa;fill-opacity:1;stroke-width:0"><defs
   id="defs435"
   style="fill:#00aaaa;fill-opacity:1;stroke-width:0" />
  <g
   id="g441"
   transform="translate(-149.009,-127.281)"
   style="fill:#00aaaa;fill-opacity:1;stroke-width:0">
    <g
   style="fill:#00aaaa;fill-opacity:1;stroke-width:0"
   id="g438">
      <g
   transform="translate(148.712,134.765)"
   id="g436"
   style="fill:#00aaaa;fill-opacity:1;stroke-width:0"><path
   style="fill:#00aaaa;fill-opacity:1;stroke:#00aaaa;stroke-width:0"
   d="M 3.328125,-3.015625 C 3.390625,-3.265625 3.625,-4.1875 4.3125,-4.1875 c 0.046875,0 0.296875,0 0.5,0.125 C 4.53125,-4 4.34375,-3.765625 4.34375,-3.515625 c 0,0.15625 0.109375,0.34375 0.375,0.34375 0.21875,0 0.53125,-0.171875 0.53125,-0.578125 0,-0.515625 -0.578125,-0.65625 -0.921875,-0.65625 -0.578125,0 -0.921875,0.53125 -1.046875,0.75 -0.25,-0.65625 -0.78125,-0.75 -1.078125,-0.75 -1.03125,0 -1.609375,1.28125 -1.609375,1.53125 0,0.109375 0.109375,0.109375 0.125,0.109375 0.078125,0 0.109375,-0.03125 0.125,-0.109375 0.34375,-1.0625 1,-1.3125 1.34375,-1.3125 0.1875,0 0.53125,0.09375 0.53125,0.671875 0,0.3125 -0.171875,0.96875 -0.53125,2.375 -0.15625,0.609375 -0.515625,1.03125 -0.953125,1.03125 -0.0625,0 -0.28125,0 -0.5,-0.125 0.25,-0.0625 0.46875,-0.265625 0.46875,-0.546875 0,-0.265625 -0.21875,-0.34375 -0.359375,-0.34375 -0.3125,0 -0.546875,0.25 -0.546875,0.578125 0,0.453125 0.484375,0.65625 0.921875,0.65625 0.671875,0 1.03125,-0.703125 1.046875,-0.75 0.125,0.359375 0.484375,0.75 1.078125,0.75 1.03125,0 1.59375,-1.28125 1.59375,-1.53125 0,-0.109375 -0.078125,-0.109375 -0.109375,-0.109375 -0.09375,0 -0.109375,0.046875 -0.140625,0.109375 -0.328125,1.078125 -1,1.3125 -1.3125,1.3125 -0.390625,0 -0.546875,-0.3125 -0.546875,-0.65625 0,-0.21875 0.046875,-0.4375 0.15625,-0.875 z m 0,0"
   id="path436" />
      </g><g
   transform="translate(154.406,134.765)"
   id="g437"
   style="fill:#00aaaa;fill-opacity:1;stroke-width:0"><path
   style="fill:#00aaaa;fill-opacity:1;stroke:#00aaaa;stroke-width:0"
   d="m 4.375,-7.09375 c 0.046875,-0.140625 0.046875,-0.171875 0.046875,-0.1875 0,-0.109375 -0.078125,-0.203125 -0.1875,-0.203125 -0.078125,0 -0.140625,0.03125 -0.171875,0.09375 l -3.46875,9.5 C 0.546875,2.25 0.546875,2.28125 0.546875,2.296875 0.546875,2.40625 0.640625,2.5 0.75,2.5 0.875,2.5 0.90625,2.421875 0.96875,2.25 Z m 0,0"
   id="path437" />
      </g></g>
    <g
   style="fill:#00aaaa;fill-opacity:1;stroke-width:0"
   id="g440">
      <g
   transform="translate(159.388,134.765)"
   id="g439"
   style="fill:#00aaaa;fill-opacity:1;stroke-width:0"><path
   style="fill:#00aaaa;fill-opacity:1;stroke:#00aaaa;stroke-width:0"
   d="m 4.46875,-2 c 0,-1.1875 -0.8125,-2.1875 -1.890625,-2.1875 -0.46875,0 -0.90625,0.15625 -1.265625,0.515625 V -5.625 c 0.203125,0.0625 0.53125,0.125 0.84375,0.125 1.234375,0 1.9375,-0.90625 1.9375,-1.03125 0,-0.0625 -0.03125,-0.109375 -0.109375,-0.109375 0,0 -0.03125,0 -0.078125,0.03125 C 3.703125,-6.515625 3.21875,-6.3125 2.546875,-6.3125 2.15625,-6.3125 1.6875,-6.390625 1.21875,-6.59375 1.140625,-6.625 1.125,-6.625 1.109375,-6.625 1,-6.625 1,-6.546875 1,-6.390625 V -3.4375 c 0,0.171875 0,0.25 0.140625,0.25 0.078125,0 0.09375,-0.015625 0.140625,-0.078125 C 1.390625,-3.421875 1.75,-3.96875 2.5625,-3.96875 c 0.515625,0 0.765625,0.453125 0.84375,0.640625 0.15625,0.375 0.1875,0.75 0.1875,1.25 0,0.359375 0,0.953125 -0.25,1.375 C 3.109375,-0.3125 2.734375,-0.0625 2.28125,-0.0625 c -0.71875,0 -1.296875,-0.53125 -1.46875,-1.109375 0.03125,0 0.0625,0.015625 0.171875,0.015625 0.328125,0 0.5,-0.25 0.5,-0.484375 0,-0.25 -0.171875,-0.5 -0.5,-0.5 C 0.84375,-2.140625 0.5,-2.0625 0.5,-1.609375 0.5,-0.75 1.1875,0.21875 2.296875,0.21875 3.453125,0.21875 4.46875,-0.734375 4.46875,-2 Z m 0,0"
   id="path438" />
      </g></g>
  </g>
</g><g
       transform="matrix(0.521729,0,0,0.521729,16.113542,886.99592)"
       ns1:version="1.10.0"
       ns1:texconverter="pdflatex"
       ns1:pdfconverter="inkscape"
       ns1:text="$x/5$"
       ns1:preamble="/home/hayastl/.config/inkscape/extensions/textext"
       ns1:scale="1.478915215614537"
       ns1:alignment="middle center"
       ns1:stroke-to-path="0"
       ns1:inkscapeversion="1.3.2"
       id="g453"
       ns1:jacobian_sqrt="0.521729"
       style="fill:#00aaaa;fill-opacity:1;stroke-width:0"><defs
   id="defs446"
   style="fill:#00aaaa;fill-opacity:1;stroke-width:0" />
  <g
   id="g452"
   transform="translate(-149.009,-127.281)"
   style="fill:#00aaaa;fill-opacity:1;stroke-width:0">
    <g
   style="fill:#00aaaa;fill-opacity:1;stroke-width:0"
   id="g449">
      <g
   transform="translate(148.712,134.765)"
   id="g447"
   style="fill:#00aaaa;fill-opacity:1;stroke-width:0"><path
   style="fill:#00aaaa;fill-opacity:1;stroke:#00aaaa;stroke-width:0"
   d="M 3.328125,-3.015625 C 3.390625,-3.265625 3.625,-4.1875 4.3125,-4.1875 c 0.046875,0 0.296875,0 0.5,0.125 C 4.53125,-4 4.34375,-3.765625 4.34375,-3.515625 c 0,0.15625 0.109375,0.34375 0.375,0.34375 0.21875,0 0.53125,-0.171875 0.53125,-0.578125 0,-0.515625 -0.578125,-0.65625 -0.921875,-0.65625 -0.578125,0 -0.921875,0.53125 -1.046875,0.75 -0.25,-0.65625 -0.78125,-0.75 -1.078125,-0.75 -1.03125,0 -1.609375,1.28125 -1.609375,1.53125 0,0.109375 0.109375,0.109375 0.125,0.109375 0.078125,0 0.109375,-0.03125 0.125,-0.109375 0.34375,-1.0625 1,-1.3125 1.34375,-1.3125 0.1875,0 0.53125,0.09375 0.53125,0.671875 0,0.3125 -0.171875,0.96875 -0.53125,2.375 -0.15625,0.609375 -0.515625,1.03125 -0.953125,1.03125 -0.0625,0 -0.28125,0 -0.5,-0.125 0.25,-0.0625 0.46875,-0.265625 0.46875,-0.546875 0,-0.265625 -0.21875,-0.34375 -0.359375,-0.34375 -0.3125,0 -0.546875,0.25 -0.546875,0.578125 0,0.453125 0.484375,0.65625 0.921875,0.65625 0.671875,0 1.03125,-0.703125 1.046875,-0.75 0.125,0.359375 0.484375,0.75 1.078125,0.75 1.03125,0 1.59375,-1.28125 1.59375,-1.53125 0,-0.109375 -0.078125,-0.109375 -0.109375,-0.109375 -0.09375,0 -0.109375,0.046875 -0.140625,0.109375 -0.328125,1.078125 -1,1.3125 -1.3125,1.3125 -0.390625,0 -0.546875,-0.3125 -0.546875,-0.65625 0,-0.21875 0.046875,-0.4375 0.15625,-0.875 z m 0,0"
   id="path447" />
      </g><g
   transform="translate(154.406,134.765)"
   id="g448"
   style="fill:#00aaaa;fill-opacity:1;stroke-width:0"><path
   style="fill:#00aaaa;fill-opacity:1;stroke:#00aaaa;stroke-width:0"
   d="m 4.375,-7.09375 c 0.046875,-0.140625 0.046875,-0.171875 0.046875,-0.1875 0,-0.109375 -0.078125,-0.203125 -0.1875,-0.203125 -0.078125,0 -0.140625,0.03125 -0.171875,0.09375 l -3.46875,9.5 C 0.546875,2.25 0.546875,2.28125 0.546875,2.296875 0.546875,2.40625 0.640625,2.5 0.75,2.5 0.875,2.5 0.90625,2.421875 0.96875,2.25 Z m 0,0"
   id="path448" />
      </g></g>
    <g
   style="fill:#00aaaa;fill-opacity:1;stroke-width:0"
   id="g451">
      <g
   transform="translate(159.388,134.765)"
   id="g450"
   style="fill:#00aaaa;fill-opacity:1;stroke-width:0"><path
   style="fill:#00aaaa;fill-opacity:1;stroke:#00aaaa;stroke-width:0"
   d="m 4.46875,-2 c 0,-1.1875 -0.8125,-2.1875 -1.890625,-2.1875 -0.46875,0 -0.90625,0.15625 -1.265625,0.515625 V -5.625 c 0.203125,0.0625 0.53125,0.125 0.84375,0.125 1.234375,0 1.9375,-0.90625 1.9375,-1.03125 0,-0.0625 -0.03125,-0.109375 -0.109375,-0.109375 0,0 -0.03125,0 -0.078125,0.03125 C 3.703125,-6.515625 3.21875,-6.3125 2.546875,-6.3125 2.15625,-6.3125 1.6875,-6.390625 1.21875,-6.59375 1.140625,-6.625 1.125,-6.625 1.109375,-6.625 1,-6.625 1,-6.546875 1,-6.390625 V -3.4375 c 0,0.171875 0,0.25 0.140625,0.25 0.078125,0 0.09375,-0.015625 0.140625,-0.078125 C 1.390625,-3.421875 1.75,-3.96875 2.5625,-3.96875 c 0.515625,0 0.765625,0.453125 0.84375,0.640625 0.15625,0.375 0.1875,0.75 0.1875,1.25 0,0.359375 0,0.953125 -0.25,1.375 C 3.109375,-0.3125 2.734375,-0.0625 2.28125,-0.0625 c -0.71875,0 -1.296875,-0.53125 -1.46875,-1.109375 0.03125,0 0.0625,0.015625 0.171875,0.015625 0.328125,0 0.5,-0.25 0.5,-0.484375 0,-0.25 -0.171875,-0.5 -0.5,-0.5 C 0.84375,-2.140625 0.5,-2.0625 0.5,-1.609375 0.5,-0.75 1.1875,0.21875 2.296875,0.21875 3.453125,0.21875 4.46875,-0.734375 4.46875,-2 Z m 0,0"
   id="path449" />
      </g></g>
  </g>
</g><g
       transform="matrix(0.521729,0,0,0.521729,29.08297,886.99592)"
       ns1:version="1.10.0"
       ns1:texconverter="pdflatex"
       ns1:pdfconverter="inkscape"
       ns1:text="$x/5$"
       ns1:preamble="/home/hayastl/.config/inkscape/extensions/textext"
       ns1:scale="1.478915215614537"
       ns1:alignment="middle center"
       ns1:stroke-to-path="0"
       ns1:inkscapeversion="1.3.2"
       id="g464"
       ns1:jacobian_sqrt="0.521729"
       style="fill:#00aaaa;fill-opacity:1;stroke-width:0"><defs
   id="defs457"
   style="fill:#00aaaa;fill-opacity:1;stroke-width:0" />
  <g
   id="g463"
   transform="translate(-149.009,-127.281)"
   style="fill:#00aaaa;fill-opacity:1;stroke-width:0">
    <g
   style="fill:#00aaaa;fill-opacity:1;stroke-width:0"
   id="g460">
      <g
   transform="translate(148.712,134.765)"
   id="g458"
   style="fill:#00aaaa;fill-opacity:1;stroke-width:0"><path
   style="fill:#00aaaa;fill-opacity:1;stroke:#00aaaa;stroke-width:0"
   d="M 3.328125,-3.015625 C 3.390625,-3.265625 3.625,-4.1875 4.3125,-4.1875 c 0.046875,0 0.296875,0 0.5,0.125 C 4.53125,-4 4.34375,-3.765625 4.34375,-3.515625 c 0,0.15625 0.109375,0.34375 0.375,0.34375 0.21875,0 0.53125,-0.171875 0.53125,-0.578125 0,-0.515625 -0.578125,-0.65625 -0.921875,-0.65625 -0.578125,0 -0.921875,0.53125 -1.046875,0.75 -0.25,-0.65625 -0.78125,-0.75 -1.078125,-0.75 -1.03125,0 -1.609375,1.28125 -1.609375,1.53125 0,0.109375 0.109375,0.109375 0.125,0.109375 0.078125,0 0.109375,-0.03125 0.125,-0.109375 0.34375,-1.0625 1,-1.3125 1.34375,-1.3125 0.1875,0 0.53125,0.09375 0.53125,0.671875 0,0.3125 -0.171875,0.96875 -0.53125,2.375 -0.15625,0.609375 -0.515625,1.03125 -0.953125,1.03125 -0.0625,0 -0.28125,0 -0.5,-0.125 0.25,-0.0625 0.46875,-0.265625 0.46875,-0.546875 0,-0.265625 -0.21875,-0.34375 -0.359375,-0.34375 -0.3125,0 -0.546875,0.25 -0.546875,0.578125 0,0.453125 0.484375,0.65625 0.921875,0.65625 0.671875,0 1.03125,-0.703125 1.046875,-0.75 0.125,0.359375 0.484375,0.75 1.078125,0.75 1.03125,0 1.59375,-1.28125 1.59375,-1.53125 0,-0.109375 -0.078125,-0.109375 -0.109375,-0.109375 -0.09375,0 -0.109375,0.046875 -0.140625,0.109375 -0.328125,1.078125 -1,1.3125 -1.3125,1.3125 -0.390625,0 -0.546875,-0.3125 -0.546875,-0.65625 0,-0.21875 0.046875,-0.4375 0.15625,-0.875 z m 0,0"
   id="path458" />
      </g><g
   transform="translate(154.406,134.765)"
   id="g459"
   style="fill:#00aaaa;fill-opacity:1;stroke-width:0"><path
   style="fill:#00aaaa;fill-opacity:1;stroke:#00aaaa;stroke-width:0"
   d="m 4.375,-7.09375 c 0.046875,-0.140625 0.046875,-0.171875 0.046875,-0.1875 0,-0.109375 -0.078125,-0.203125 -0.1875,-0.203125 -0.078125,0 -0.140625,0.03125 -0.171875,0.09375 l -3.46875,9.5 C 0.546875,2.25 0.546875,2.28125 0.546875,2.296875 0.546875,2.40625 0.640625,2.5 0.75,2.5 0.875,2.5 0.90625,2.421875 0.96875,2.25 Z m 0,0"
   id="path459" />
      </g></g>
    <g
   style="fill:#00aaaa;fill-opacity:1;stroke-width:0"
   id="g462">
      <g
   transform="translate(159.388,134.765)"
   id="g461"
   style="fill:#00aaaa;fill-opacity:1;stroke-width:0"><path
   style="fill:#00aaaa;fill-opacity:1;stroke:#00aaaa;stroke-width:0"
   d="m 4.46875,-2 c 0,-1.1875 -0.8125,-2.1875 -1.890625,-2.1875 -0.46875,0 -0.90625,0.15625 -1.265625,0.515625 V -5.625 c 0.203125,0.0625 0.53125,0.125 0.84375,0.125 1.234375,0 1.9375,-0.90625 1.9375,-1.03125 0,-0.0625 -0.03125,-0.109375 -0.109375,-0.109375 0,0 -0.03125,0 -0.078125,0.03125 C 3.703125,-6.515625 3.21875,-6.3125 2.546875,-6.3125 2.15625,-6.3125 1.6875,-6.390625 1.21875,-6.59375 1.140625,-6.625 1.125,-6.625 1.109375,-6.625 1,-6.625 1,-6.546875 1,-6.390625 V -3.4375 c 0,0.171875 0,0.25 0.140625,0.25 0.078125,0 0.09375,-0.015625 0.140625,-0.078125 C 1.390625,-3.421875 1.75,-3.96875 2.5625,-3.96875 c 0.515625,0 0.765625,0.453125 0.84375,0.640625 0.15625,0.375 0.1875,0.75 0.1875,1.25 0,0.359375 0,0.953125 -0.25,1.375 C 3.109375,-0.3125 2.734375,-0.0625 2.28125,-0.0625 c -0.71875,0 -1.296875,-0.53125 -1.46875,-1.109375 0.03125,0 0.0625,0.015625 0.171875,0.015625 0.328125,0 0.5,-0.25 0.5,-0.484375 0,-0.25 -0.171875,-0.5 -0.5,-0.5 C 0.84375,-2.140625 0.5,-2.0625 0.5,-1.609375 0.5,-0.75 1.1875,0.21875 2.296875,0.21875 3.453125,0.21875 4.46875,-0.734375 4.46875,-2 Z m 0,0"
   id="path460" />
      </g></g>
  </g>
</g><g
       transform="matrix(0.521729,0,0,0.521729,42.603494,886.99592)"
       ns1:version="1.10.0"
       ns1:texconverter="pdflatex"
       ns1:pdfconverter="inkscape"
       ns1:text="$x/5$"
       ns1:preamble="/home/hayastl/.config/inkscape/extensions/textext"
       ns1:scale="1.478915215614537"
       ns1:alignment="middle center"
       ns1:stroke-to-path="0"
       ns1:inkscapeversion="1.3.2"
       id="g475"
       ns1:jacobian_sqrt="0.521729"
       style="fill:#00aaaa;fill-opacity:1;stroke-width:0"><defs
   id="defs468"
   style="fill:#00aaaa;fill-opacity:1;stroke-width:0" />
  <g
   id="g474"
   transform="translate(-149.009,-127.281)"
   style="fill:#00aaaa;fill-opacity:1;stroke-width:0">
    <g
   style="fill:#00aaaa;fill-opacity:1;stroke-width:0"
   id="g471">
      <g
   transform="translate(148.712,134.765)"
   id="g469"
   style="fill:#00aaaa;fill-opacity:1;stroke-width:0"><path
   style="fill:#00aaaa;fill-opacity:1;stroke:#00aaaa;stroke-width:0"
   d="M 3.328125,-3.015625 C 3.390625,-3.265625 3.625,-4.1875 4.3125,-4.1875 c 0.046875,0 0.296875,0 0.5,0.125 C 4.53125,-4 4.34375,-3.765625 4.34375,-3.515625 c 0,0.15625 0.109375,0.34375 0.375,0.34375 0.21875,0 0.53125,-0.171875 0.53125,-0.578125 0,-0.515625 -0.578125,-0.65625 -0.921875,-0.65625 -0.578125,0 -0.921875,0.53125 -1.046875,0.75 -0.25,-0.65625 -0.78125,-0.75 -1.078125,-0.75 -1.03125,0 -1.609375,1.28125 -1.609375,1.53125 0,0.109375 0.109375,0.109375 0.125,0.109375 0.078125,0 0.109375,-0.03125 0.125,-0.109375 0.34375,-1.0625 1,-1.3125 1.34375,-1.3125 0.1875,0 0.53125,0.09375 0.53125,0.671875 0,0.3125 -0.171875,0.96875 -0.53125,2.375 -0.15625,0.609375 -0.515625,1.03125 -0.953125,1.03125 -0.0625,0 -0.28125,0 -0.5,-0.125 0.25,-0.0625 0.46875,-0.265625 0.46875,-0.546875 0,-0.265625 -0.21875,-0.34375 -0.359375,-0.34375 -0.3125,0 -0.546875,0.25 -0.546875,0.578125 0,0.453125 0.484375,0.65625 0.921875,0.65625 0.671875,0 1.03125,-0.703125 1.046875,-0.75 0.125,0.359375 0.484375,0.75 1.078125,0.75 1.03125,0 1.59375,-1.28125 1.59375,-1.53125 0,-0.109375 -0.078125,-0.109375 -0.109375,-0.109375 -0.09375,0 -0.109375,0.046875 -0.140625,0.109375 -0.328125,1.078125 -1,1.3125 -1.3125,1.3125 -0.390625,0 -0.546875,-0.3125 -0.546875,-0.65625 0,-0.21875 0.046875,-0.4375 0.15625,-0.875 z m 0,0"
   id="path469" />
      </g><g
   transform="translate(154.406,134.765)"
   id="g470"
   style="fill:#00aaaa;fill-opacity:1;stroke-width:0"><path
   style="fill:#00aaaa;fill-opacity:1;stroke:#00aaaa;stroke-width:0"
   d="m 4.375,-7.09375 c 0.046875,-0.140625 0.046875,-0.171875 0.046875,-0.1875 0,-0.109375 -0.078125,-0.203125 -0.1875,-0.203125 -0.078125,0 -0.140625,0.03125 -0.171875,0.09375 l -3.46875,9.5 C 0.546875,2.25 0.546875,2.28125 0.546875,2.296875 0.546875,2.40625 0.640625,2.5 0.75,2.5 0.875,2.5 0.90625,2.421875 0.96875,2.25 Z m 0,0"
   id="path470" />
      </g></g>
    <g
   style="fill:#00aaaa;fill-opacity:1;stroke-width:0"
   id="g473">
      <g
   transform="translate(159.388,134.765)"
   id="g472"
   style="fill:#00aaaa;fill-opacity:1;stroke-width:0"><path
   style="fill:#00aaaa;fill-opacity:1;stroke:#00aaaa;stroke-width:0"
   d="m 4.46875,-2 c 0,-1.1875 -0.8125,-2.1875 -1.890625,-2.1875 -0.46875,0 -0.90625,0.15625 -1.265625,0.515625 V -5.625 c 0.203125,0.0625 0.53125,0.125 0.84375,0.125 1.234375,0 1.9375,-0.90625 1.9375,-1.03125 0,-0.0625 -0.03125,-0.109375 -0.109375,-0.109375 0,0 -0.03125,0 -0.078125,0.03125 C 3.703125,-6.515625 3.21875,-6.3125 2.546875,-6.3125 2.15625,-6.3125 1.6875,-6.390625 1.21875,-6.59375 1.140625,-6.625 1.125,-6.625 1.109375,-6.625 1,-6.625 1,-6.546875 1,-6.390625 V -3.4375 c 0,0.171875 0,0.25 0.140625,0.25 0.078125,0 0.09375,-0.015625 0.140625,-0.078125 C 1.390625,-3.421875 1.75,-3.96875 2.5625,-3.96875 c 0.515625,0 0.765625,0.453125 0.84375,0.640625 0.15625,0.375 0.1875,0.75 0.1875,1.25 0,0.359375 0,0.953125 -0.25,1.375 C 3.109375,-0.3125 2.734375,-0.0625 2.28125,-0.0625 c -0.71875,0 -1.296875,-0.53125 -1.46875,-1.109375 0.03125,0 0.0625,0.015625 0.171875,0.015625 0.328125,0 0.5,-0.25 0.5,-0.484375 0,-0.25 -0.171875,-0.5 -0.5,-0.5 C 0.84375,-2.140625 0.5,-2.0625 0.5,-1.609375 0.5,-0.75 1.1875,0.21875 2.296875,0.21875 3.453125,0.21875 4.46875,-0.734375 4.46875,-2 Z m 0,0"
   id="path471" />
      </g></g>
  </g>
</g><g
       transform="matrix(0.521729,0,0,0.521729,55.572922,886.99592)"
       ns1:version="1.10.0"
       ns1:texconverter="pdflatex"
       ns1:pdfconverter="inkscape"
       ns1:text="$x/5$"
       ns1:preamble="/home/hayastl/.config/inkscape/extensions/textext"
       ns1:scale="1.478915215614537"
       ns1:alignment="middle center"
       ns1:stroke-to-path="0"
       ns1:inkscapeversion="1.3.2"
       id="g486"
       ns1:jacobian_sqrt="0.521729"
       style="fill:#00aaaa;fill-opacity:1;stroke-width:0"><defs
   id="defs479"
   style="fill:#00aaaa;fill-opacity:1;stroke-width:0" />
  <g
   id="g485"
   transform="translate(-149.009,-127.281)"
   style="fill:#00aaaa;fill-opacity:1;stroke-width:0">
    <g
   style="fill:#00aaaa;fill-opacity:1;stroke-width:0"
   id="g482">
      <g
   transform="translate(148.712,134.765)"
   id="g480"
   style="fill:#00aaaa;fill-opacity:1;stroke-width:0"><path
   style="fill:#00aaaa;fill-opacity:1;stroke:#00aaaa;stroke-width:0"
   d="M 3.328125,-3.015625 C 3.390625,-3.265625 3.625,-4.1875 4.3125,-4.1875 c 0.046875,0 0.296875,0 0.5,0.125 C 4.53125,-4 4.34375,-3.765625 4.34375,-3.515625 c 0,0.15625 0.109375,0.34375 0.375,0.34375 0.21875,0 0.53125,-0.171875 0.53125,-0.578125 0,-0.515625 -0.578125,-0.65625 -0.921875,-0.65625 -0.578125,0 -0.921875,0.53125 -1.046875,0.75 -0.25,-0.65625 -0.78125,-0.75 -1.078125,-0.75 -1.03125,0 -1.609375,1.28125 -1.609375,1.53125 0,0.109375 0.109375,0.109375 0.125,0.109375 0.078125,0 0.109375,-0.03125 0.125,-0.109375 0.34375,-1.0625 1,-1.3125 1.34375,-1.3125 0.1875,0 0.53125,0.09375 0.53125,0.671875 0,0.3125 -0.171875,0.96875 -0.53125,2.375 -0.15625,0.609375 -0.515625,1.03125 -0.953125,1.03125 -0.0625,0 -0.28125,0 -0.5,-0.125 0.25,-0.0625 0.46875,-0.265625 0.46875,-0.546875 0,-0.265625 -0.21875,-0.34375 -0.359375,-0.34375 -0.3125,0 -0.546875,0.25 -0.546875,0.578125 0,0.453125 0.484375,0.65625 0.921875,0.65625 0.671875,0 1.03125,-0.703125 1.046875,-0.75 0.125,0.359375 0.484375,0.75 1.078125,0.75 1.03125,0 1.59375,-1.28125 1.59375,-1.53125 0,-0.109375 -0.078125,-0.109375 -0.109375,-0.109375 -0.09375,0 -0.109375,0.046875 -0.140625,0.109375 -0.328125,1.078125 -1,1.3125 -1.3125,1.3125 -0.390625,0 -0.546875,-0.3125 -0.546875,-0.65625 0,-0.21875 0.046875,-0.4375 0.15625,-0.875 z m 0,0"
   id="path480" />
      </g><g
   transform="translate(154.406,134.765)"
   id="g481"
   style="fill:#00aaaa;fill-opacity:1;stroke-width:0"><path
   style="fill:#00aaaa;fill-opacity:1;stroke:#00aaaa;stroke-width:0"
   d="m 4.375,-7.09375 c 0.046875,-0.140625 0.046875,-0.171875 0.046875,-0.1875 0,-0.109375 -0.078125,-0.203125 -0.1875,-0.203125 -0.078125,0 -0.140625,0.03125 -0.171875,0.09375 l -3.46875,9.5 C 0.546875,2.25 0.546875,2.28125 0.546875,2.296875 0.546875,2.40625 0.640625,2.5 0.75,2.5 0.875,2.5 0.90625,2.421875 0.96875,2.25 Z m 0,0"
   id="path481" />
      </g></g>
    <g
   style="fill:#00aaaa;fill-opacity:1;stroke-width:0"
   id="g484">
      <g
   transform="translate(159.388,134.765)"
   id="g483"
   style="fill:#00aaaa;fill-opacity:1;stroke-width:0"><path
   style="fill:#00aaaa;fill-opacity:1;stroke:#00aaaa;stroke-width:0"
   d="m 4.46875,-2 c 0,-1.1875 -0.8125,-2.1875 -1.890625,-2.1875 -0.46875,0 -0.90625,0.15625 -1.265625,0.515625 V -5.625 c 0.203125,0.0625 0.53125,0.125 0.84375,0.125 1.234375,0 1.9375,-0.90625 1.9375,-1.03125 0,-0.0625 -0.03125,-0.109375 -0.109375,-0.109375 0,0 -0.03125,0 -0.078125,0.03125 C 3.703125,-6.515625 3.21875,-6.3125 2.546875,-6.3125 2.15625,-6.3125 1.6875,-6.390625 1.21875,-6.59375 1.140625,-6.625 1.125,-6.625 1.109375,-6.625 1,-6.625 1,-6.546875 1,-6.390625 V -3.4375 c 0,0.171875 0,0.25 0.140625,0.25 0.078125,0 0.09375,-0.015625 0.140625,-0.078125 C 1.390625,-3.421875 1.75,-3.96875 2.5625,-3.96875 c 0.515625,0 0.765625,0.453125 0.84375,0.640625 0.15625,0.375 0.1875,0.75 0.1875,1.25 0,0.359375 0,0.953125 -0.25,1.375 C 3.109375,-0.3125 2.734375,-0.0625 2.28125,-0.0625 c -0.71875,0 -1.296875,-0.53125 -1.46875,-1.109375 0.03125,0 0.0625,0.015625 0.171875,0.015625 0.328125,0 0.5,-0.25 0.5,-0.484375 0,-0.25 -0.171875,-0.5 -0.5,-0.5 C 0.84375,-2.140625 0.5,-2.0625 0.5,-1.609375 0.5,-0.75 1.1875,0.21875 2.296875,0.21875 3.453125,0.21875 4.46875,-0.734375 4.46875,-2 Z m 0,0"
   id="path482" />
      </g></g>
  </g>
</g><g
       transform="matrix(0.521729,0,0,0.521729,68.707004,886.99592)"
       ns1:version="1.10.0"
       ns1:texconverter="pdflatex"
       ns1:pdfconverter="inkscape"
       ns1:text="$x/5$"
       ns1:preamble="/home/hayastl/.config/inkscape/extensions/textext"
       ns1:scale="1.478915215614537"
       ns1:alignment="middle center"
       ns1:stroke-to-path="0"
       ns1:inkscapeversion="1.3.2"
       id="g497"
       ns1:jacobian_sqrt="0.521729"
       style="fill:#00aaaa;fill-opacity:1;stroke-width:0"><defs
   id="defs490"
   style="fill:#00aaaa;fill-opacity:1;stroke-width:0" />
  <g
   id="g496"
   transform="translate(-149.009,-127.281)"
   style="fill:#00aaaa;fill-opacity:1;stroke-width:0">
    <g
   style="fill:#00aaaa;fill-opacity:1;stroke-width:0"
   id="g493">
      <g
   transform="translate(148.712,134.765)"
   id="g491"
   style="fill:#00aaaa;fill-opacity:1;stroke-width:0"><path
   style="fill:#00aaaa;fill-opacity:1;stroke:#00aaaa;stroke-width:0"
   d="M 3.328125,-3.015625 C 3.390625,-3.265625 3.625,-4.1875 4.3125,-4.1875 c 0.046875,0 0.296875,0 0.5,0.125 C 4.53125,-4 4.34375,-3.765625 4.34375,-3.515625 c 0,0.15625 0.109375,0.34375 0.375,0.34375 0.21875,0 0.53125,-0.171875 0.53125,-0.578125 0,-0.515625 -0.578125,-0.65625 -0.921875,-0.65625 -0.578125,0 -0.921875,0.53125 -1.046875,0.75 -0.25,-0.65625 -0.78125,-0.75 -1.078125,-0.75 -1.03125,0 -1.609375,1.28125 -1.609375,1.53125 0,0.109375 0.109375,0.109375 0.125,0.109375 0.078125,0 0.109375,-0.03125 0.125,-0.109375 0.34375,-1.0625 1,-1.3125 1.34375,-1.3125 0.1875,0 0.53125,0.09375 0.53125,0.671875 0,0.3125 -0.171875,0.96875 -0.53125,2.375 -0.15625,0.609375 -0.515625,1.03125 -0.953125,1.03125 -0.0625,0 -0.28125,0 -0.5,-0.125 0.25,-0.0625 0.46875,-0.265625 0.46875,-0.546875 0,-0.265625 -0.21875,-0.34375 -0.359375,-0.34375 -0.3125,0 -0.546875,0.25 -0.546875,0.578125 0,0.453125 0.484375,0.65625 0.921875,0.65625 0.671875,0 1.03125,-0.703125 1.046875,-0.75 0.125,0.359375 0.484375,0.75 1.078125,0.75 1.03125,0 1.59375,-1.28125 1.59375,-1.53125 0,-0.109375 -0.078125,-0.109375 -0.109375,-0.109375 -0.09375,0 -0.109375,0.046875 -0.140625,0.109375 -0.328125,1.078125 -1,1.3125 -1.3125,1.3125 -0.390625,0 -0.546875,-0.3125 -0.546875,-0.65625 0,-0.21875 0.046875,-0.4375 0.15625,-0.875 z m 0,0"
   id="path491" />
      </g><g
   transform="translate(154.406,134.765)"
   id="g492"
   style="fill:#00aaaa;fill-opacity:1;stroke-width:0"><path
   style="fill:#00aaaa;fill-opacity:1;stroke:#00aaaa;stroke-width:0"
   d="m 4.375,-7.09375 c 0.046875,-0.140625 0.046875,-0.171875 0.046875,-0.1875 0,-0.109375 -0.078125,-0.203125 -0.1875,-0.203125 -0.078125,0 -0.140625,0.03125 -0.171875,0.09375 l -3.46875,9.5 C 0.546875,2.25 0.546875,2.28125 0.546875,2.296875 0.546875,2.40625 0.640625,2.5 0.75,2.5 0.875,2.5 0.90625,2.421875 0.96875,2.25 Z m 0,0"
   id="path492" />
      </g></g>
    <g
   style="fill:#00aaaa;fill-opacity:1;stroke-width:0"
   id="g495">
      <g
   transform="translate(159.388,134.765)"
   id="g494"
   style="fill:#00aaaa;fill-opacity:1;stroke-width:0"><path
   style="fill:#00aaaa;fill-opacity:1;stroke:#00aaaa;stroke-width:0"
   d="m 4.46875,-2 c 0,-1.1875 -0.8125,-2.1875 -1.890625,-2.1875 -0.46875,0 -0.90625,0.15625 -1.265625,0.515625 V -5.625 c 0.203125,0.0625 0.53125,0.125 0.84375,0.125 1.234375,0 1.9375,-0.90625 1.9375,-1.03125 0,-0.0625 -0.03125,-0.109375 -0.109375,-0.109375 0,0 -0.03125,0 -0.078125,0.03125 C 3.703125,-6.515625 3.21875,-6.3125 2.546875,-6.3125 2.15625,-6.3125 1.6875,-6.390625 1.21875,-6.59375 1.140625,-6.625 1.125,-6.625 1.109375,-6.625 1,-6.625 1,-6.546875 1,-6.390625 V -3.4375 c 0,0.171875 0,0.25 0.140625,0.25 0.078125,0 0.09375,-0.015625 0.140625,-0.078125 C 1.390625,-3.421875 1.75,-3.96875 2.5625,-3.96875 c 0.515625,0 0.765625,0.453125 0.84375,0.640625 0.15625,0.375 0.1875,0.75 0.1875,1.25 0,0.359375 0,0.953125 -0.25,1.375 C 3.109375,-0.3125 2.734375,-0.0625 2.28125,-0.0625 c -0.71875,0 -1.296875,-0.53125 -1.46875,-1.109375 0.03125,0 0.0625,0.015625 0.171875,0.015625 0.328125,0 0.5,-0.25 0.5,-0.484375 0,-0.25 -0.171875,-0.5 -0.5,-0.5 C 0.84375,-2.140625 0.5,-2.0625 0.5,-1.609375 0.5,-0.75 1.1875,0.21875 2.296875,0.21875 3.453125,0.21875 4.46875,-0.734375 4.46875,-2 Z m 0,0"
   id="path493" />
      </g></g>
  </g>
</g></g></svg>
