<?xml version="1.0" encoding="UTF-8" standalone="no"?>
<svg
   width="7.9780817in"
   height="5.0909576in"
   viewBox="0 0 202.64328 129.31033"
   version="1.1"
   id="svg8"
   inkscape:version="0.92.5 (2060ec1f9f, 2020-04-08)"
   sodipodi:docname="Red-Hot Cog Rolling.svg"
   xmlns:inkscape="http://www.inkscape.org/namespaces/inkscape"
   xmlns:sodipodi="http://sodipodi.sourceforge.net/DTD/sodipodi-0.dtd"
   xmlns="http://www.w3.org/2000/svg"
   xmlns:svg="http://www.w3.org/2000/svg"
   xmlns:rdf="http://www.w3.org/1999/02/22-rdf-syntax-ns#"
   xmlns:cc="http://creativecommons.org/ns#"
   xmlns:dc="http://purl.org/dc/elements/1.1/">
  <defs
     id="defs2" />
  <sodipodi:namedview
     id="base"
     pagecolor="#444444"
     bordercolor="#666666"
     borderopacity="1.0"
     inkscape:pageopacity="0"
     inkscape:pageshadow="2"
     inkscape:zoom="1"
     inkscape:cx="1030.865"
     inkscape:cy="594.76762"
     inkscape:document-units="in"
     inkscape:current-layer="layer1"
     inkscape:document-rotation="0"
     showgrid="false"
     inkscape:snap-page="true"
     inkscape:snap-midpoints="true"
     units="in"
     inkscape:object-paths="false"
     inkscape:snap-global="true"
     inkscape:window-width="1848"
     inkscape:window-height="1016"
     inkscape:window-x="72"
     inkscape:window-y="27"
     inkscape:window-maximized="1"
     showguides="true"
     inkscape:guide-bbox="true"
     inkscape:snap-bbox="false"
     inkscape:snap-bbox-midpoints="true"
     inkscape:snap-object-midpoints="true"
     inkscape:snap-others="true"
     inkscape:snap-intersection-paths="false"
     inkscape:snap-smooth-nodes="false"
     inkscape:object-nodes="true"
     inkscape:showpageshadow="2"
     inkscape:pagecheckerboard="0"
     inkscape:deskcolor="#d1d1d1">
    <sodipodi:guide
       id="guide925"
       orientation="1,0"
       position="101.50632,271.65947"
       inkscape:locked="false" />
    <sodipodi:guide
       inkscape:locked="false"
       id="guide3283"
       orientation="1,0"
       position="304.55212,326.31426" />
    <sodipodi:guide
       inkscape:locked="false"
       id="guide3285"
       orientation="0,1"
       position="-0.24788939,319.3028" />
    <sodipodi:guide
       position="202.95212,326.31426"
       orientation="1,0"
       id="guide1659"
       inkscape:locked="false" />
  </sodipodi:namedview>
  <metadata
     id="metadata5">
    <rdf:RDF>
      <cc:Work
         rdf:about="">
        <dc:format>image/svg+xml</dc:format>
        <dc:type
           rdf:resource="http://purl.org/dc/dcmitype/StillImage" />
        <dc:title />
      </cc:Work>
    </rdf:RDF>
  </metadata>
  <g
     inkscape:label="Layer 1"
     inkscape:groupmode="layer"
     id="layer1"
     transform="translate(-0.24788939,-59.614245)">
    <g
       id="g3391"
       inkscape:label="Gear128"
       transform="matrix(0.20120333,0,0,0.20120333,72.943435,82.092854)"
       style="fill:#00ffff;stroke-width:4.9701"
       inkscape:export-filename="../../../jekyll/website/hunts/puzzle-tour-in-the-volcano/red-hot-cog.svg"
       inkscape:export-xdpi="95.9"
       inkscape:export-ydpi="95.9">
      <path
         id="path3387"
         style="fill:#00ffff;stroke:#000000;stroke-width:1.315;stroke-opacity:1"
         d="m 106.10012,-1.86788 1.69271,0.545 1.69036,0.63681 v 1.37214 l -1.69036,0.63681 -1.69271,0.545 -0.0362,1.47257 1.66393,0.6274 1.65707,0.719 -0.0673,1.37048 -1.71957,0.5531 -1.71742,0.46129 -0.10836,1.46902 1.63114,0.70829 1.6198,0.79944 -0.13449,1.36552 -1.74464,0.46807 -1.73798,0.37646 -0.18031,1.46193 1.59442,0.78748 1.57863,0.87795 -0.20134,1.35728 -1.7655,0.3819 -1.75436,0.29073 -0.25183,1.45132 1.55386,0.86476 1.53364,0.95436 -0.26769,1.34576 -1.78211,0.29481 -1.76651,0.2043 -0.32274,1.43722 1.50956,0.93996 1.48497,1.02846 -0.33341,1.33101 -1.79443,0.20701 -1.77441,0.11737 -0.39287,1.41965 1.46162,1.01291 1.43271,1.10008 -0.39831,1.31305 -1.80243,0.11871 -1.77803,0.03016 -0.46205,1.39867 1.41016,1.0834 1.37701,1.16905 -0.46226,1.29193 -1.80609,0.03012 -1.77737,-0.05711 -0.53012,1.37431 1.3553,1.15129 1.31798,1.23521 -0.52509,1.26769 -1.80539,-0.05853 -1.77242,-0.14426 -0.59693,1.34664 1.29718,1.2164 1.25579,1.2984 -0.58666,1.24039 -1.80034,-0.14704 -1.76321,-0.23106 -0.66229,1.31573 1.23593,1.27859 1.19057,1.35845 -0.64682,1.21011 -1.79095,-0.2352 -1.74975,-0.31729 -0.72605,1.28164 1.1717,1.3377 1.12248,1.41523 -0.70542,1.17692 -1.77725,-0.3228 -1.73208,-0.40277 -0.78806,1.24448 1.10466,1.39357 1.05168,1.46861 -0.76231,1.14088 -1.75928,-0.40961 -1.71023,-0.48727 -0.84817,1.20431 1.03494,1.44609 0.97836,1.51845 -0.81738,1.1021 -1.73706,-0.49545 -1.68425,-0.5706 -0.90625,1.16125 0.96274,1.49514 0.90268,1.56461 -0.87048,1.06068 -1.71065,-0.58009 -1.65423,-0.65255 -0.96213,1.11537 0.88821,1.54058 0.82482,1.60702 -0.92147,1.01669 -1.68013,-0.66333 -1.62022,-0.73294 -1.0157,1.06683 0.81155,1.5823 0.74497,1.64556 -0.97025,0.97025 -1.64556,-0.74497 -1.5823,-0.81155 -1.06683,1.0157 0.73294,1.62022 0.66333,1.68013 -1.01669,0.92147 -1.60702,-0.82482 -1.54058,-0.88821 -1.11537,0.96213 0.65255,1.65423 0.58009,1.71065 -1.06068,0.87048 -1.56461,-0.90268 -1.49514,-0.96274 -1.16125,0.90625 0.5706,1.68425 0.49545,1.73706 -1.1021,0.81738 -1.51845,-0.97836 -1.44609,-1.03494 -1.20431,0.84817 0.48727,1.71023 0.40961,1.75928 -1.14088,0.76231 -1.46861,-1.05168 -1.39357,-1.10466 -1.24448,0.78806 0.40277,1.73208 0.3228,1.77725 -1.17692,0.70542 -1.41523,-1.12248 -1.3377,-1.1717 -1.28164,0.72605 0.31729,1.74975 0.2352,1.79095 -1.21011,0.64682 -1.35845,-1.19057 -1.27859,-1.23593 -1.31573,0.66229 0.23106,1.76321 0.14704,1.80034 -1.24039,0.58666 -1.2984,-1.25579 -1.2164,-1.29718 -1.34664,0.59693 0.14426,1.77242 0.05853,1.80539 -1.26769,0.52509 -1.23521,-1.31798 -1.15129,-1.3553 -1.37431,0.53012 0.05711,1.77737 -0.03012,1.80609 -1.29193,0.46226 -1.16905,-1.37701 -1.0834,-1.41016 -1.39867,0.46205 -0.03016,1.77803 -0.11871,1.80243 -1.31305,0.39831 -1.10008,-1.43271 -1.01291,-1.46162 -1.41965,0.39287 -0.11737,1.77441 -0.20701,1.79443 -1.33101,0.33341 -1.02846,-1.48497 -0.93996,-1.50956 -1.43722,0.32274 -0.2043,1.76651 -0.29481,1.78211 -1.34576,0.26769 -0.95436,-1.53364 -0.86476,-1.55386 -1.45132,0.25183 -0.29073,1.75436 -0.3819,1.7655 -1.35728,0.20134 -0.87795,-1.57863 -0.78748,-1.59442 -1.46193,0.18031 -0.37646,1.73798 -0.46807,1.74464 -1.36552,0.13449 -0.79944,-1.6198 -0.70829,-1.63114 -1.46902,0.10836 -0.46129,1.71742 -0.5531,1.71957 -1.37048,0.0673 -0.719,-1.65707 -0.6274,-1.66393 -1.47257,0.0362 -0.545,1.69271 -0.63681,1.69036 H -0.6861 l -0.63681,-1.69036 -0.545,-1.69271 -1.47257,-0.0362 -0.6274,1.66393 -0.719,1.65707 -1.37048,-0.0673 -0.5531,-1.71957 -0.46129,-1.71742 -1.46902,-0.10836 -0.70829,1.63114 -0.79944,1.6198 -1.36552,-0.13449 -0.46807,-1.74464 -0.37646,-1.73798 -1.46193,-0.18031 -0.78748,1.59442 -0.87795,1.57863 -1.35728,-0.20134 -0.3819,-1.7655 -0.29073,-1.75436 -1.45132,-0.25183 -0.86476,1.55386 -0.95436,1.53364 -1.34576,-0.26769 -0.29481,-1.78211 -0.2043,-1.76651 -1.43722,-0.32274 -0.93996,1.50956 -1.02846,1.48497 -1.33101,-0.33341 -0.20701,-1.79443 -0.11737,-1.77441 -1.41965,-0.39287 -1.01291,1.46162 -1.10008,1.43271 -1.31305,-0.39831 -0.11871,-1.80243 -0.03016,-1.77803 -1.39867,-0.46205 -1.0834,1.41016 -1.16905,1.37701 -1.29193,-0.46226 -0.03012,-1.80609 0.05711,-1.77737 -1.37431,-0.53012 -1.15129,1.3553 -1.23521,1.31798 -1.26769,-0.52509 0.05853,-1.80539 0.14426,-1.77242 -1.34664,-0.59693 -1.2164,1.29718 -1.2984,1.25579 -1.24039,-0.58666 0.14704,-1.80034 0.23106,-1.76321 -1.31573,-0.66229 -1.27859,1.23593 -1.35845,1.19057 -1.21011,-0.64682 0.2352,-1.79095 0.31729,-1.74975 -1.28164,-0.72605 -1.3377,1.1717 -1.41523,1.12248 -1.17692,-0.70542 0.3228,-1.77725 0.40277,-1.73208 -1.24448,-0.78806 -1.39357,1.10466 -1.46861,1.05168 -1.14088,-0.76231 0.40961,-1.75928 0.48727,-1.71023 -1.20431,-0.84817 -1.44609,1.03494 -1.51845,0.97836 -1.1021,-0.81738 0.49545,-1.73706 0.5706,-1.68425 -1.16125,-0.90625 -1.49514,0.96274 -1.56461,0.90268 -1.06068,-0.87048 0.58009,-1.71065 0.65255,-1.65423 -1.11537,-0.96213 -1.54058,0.88821 -1.60702,0.82482 -1.01669,-0.92147 0.66333,-1.68013 0.73294,-1.62022 -1.06683,-1.0157 -1.5823,0.81155 -1.64556,0.74497 -0.97025,-0.97025 0.74497,-1.64556 0.81155,-1.5823 -1.0157,-1.06683 -1.62022,0.73294 -1.68013,0.66333 -0.92147,-1.01669 0.82482,-1.60702 0.88821,-1.54058 -0.96213,-1.11537 -1.65423,0.65255 -1.71065,0.58009 -0.87048,-1.06068 0.90268,-1.56461 0.96274,-1.49514 -0.90625,-1.16125 -1.68425,0.5706 -1.73706,0.49545 -0.81738,-1.1021 0.97836,-1.51845 1.03494,-1.44609 -0.84817,-1.20431 -1.71023,0.48727 -1.75928,0.40961 -0.76231,-1.14088 1.05168,-1.46861 1.10466,-1.39357 -0.78806,-1.24448 -1.73208,0.40277 -1.77725,0.3228 -0.70542,-1.17692 1.12248,-1.41523 1.1717,-1.3377 -0.72605,-1.28164 -1.74975,0.31729 -1.79095,0.2352 -0.64682,-1.21011 1.19057,-1.35845 1.23593,-1.27859 -0.66229,-1.31573 -1.76321,0.23106 -1.80034,0.14704 -0.58666,-1.24039 1.25579,-1.2984 1.29718,-1.2164 -0.59693,-1.34664 -1.77242,0.14426 -1.80539,0.05853 -0.52509,-1.26769 1.31798,-1.23521 1.3553,-1.15129 -0.53012,-1.37431 -1.77737,0.05711 -1.80609,-0.03012 -0.46226,-1.29193 1.37701,-1.16905 1.41016,-1.0834 -0.46205,-1.39867 -1.77803,-0.03016 -1.80243,-0.11871 -0.39831,-1.31305 1.43271,-1.10008 1.46162,-1.01291 -0.39287,-1.41965 -1.77441,-0.11737 -1.79443,-0.20701 -0.33341,-1.33101 1.48497,-1.02846 1.50956,-0.93996 -0.32274,-1.43722 -1.76651,-0.2043 -1.78211,-0.29481 -0.26769,-1.34576 1.53364,-0.95436 1.55386,-0.86476 -0.25183,-1.45132 -1.75436,-0.29073 -1.7655,-0.3819 -0.20134,-1.35728 1.57863,-0.87795 1.59442,-0.78748 -0.18031,-1.46193 -1.73798,-0.37646 -1.74464,-0.46807 -0.13449,-1.36552 1.6198,-0.79944 1.63114,-0.70829 -0.10836,-1.46902 -1.71742,-0.46129 -1.71957,-0.5531 -0.0673,-1.37048 1.65707,-0.719 1.66393,-0.6274 -0.0362,-1.47257 -1.69271,-0.545 -1.69036,-0.63681 v -1.37214 l 1.69036,-0.63681 1.69271,-0.545 0.0362,-1.47257 -1.66393,-0.6274 -1.65707,-0.719 0.0673,-1.37048 1.71957,-0.5531 1.71742,-0.46129 0.10836,-1.46902 -1.63114,-0.70829 -1.6198,-0.79944 0.13449,-1.36552 1.74464,-0.46807 1.73798,-0.37646 0.18031,-1.46193 -1.59442,-0.78748 -1.57863,-0.87795 0.20134,-1.35728 1.7655,-0.3819 1.75436,-0.29073 0.25183,-1.45132 -1.55386,-0.86476 -1.53364,-0.95436 0.26769,-1.34576 1.78211,-0.29481 1.76651,-0.2043 0.32274,-1.43722 -1.50956,-0.93996 -1.48497,-1.02846 0.33341,-1.33101 1.79443,-0.20701 1.77441,-0.11737 0.39287,-1.41965 -1.46162,-1.01291 -1.43271,-1.10008 0.39831,-1.31305 1.80243,-0.11871 1.77803,-0.03016 0.46205,-1.39867 -1.41016,-1.0834 -1.37701,-1.16905 0.46226,-1.29193 1.80609,-0.03012 1.77737,0.05711 0.53012,-1.37431 -1.3553,-1.15129 -1.31798,-1.23521 0.52509,-1.26769 1.80539,0.05853 1.77242,0.14426 0.59693,-1.34664 -1.29718,-1.2164 -1.25579,-1.2984 0.58666,-1.24039 1.80034,0.14704 1.76321,0.23106 0.66229,-1.31573 -1.23593,-1.27859 -1.19057,-1.35845 0.64682,-1.21011 1.79095,0.2352 1.74975,0.31729 0.72605,-1.28164 -1.1717,-1.3377 -1.12248,-1.41523 0.70542,-1.17692 1.77725,0.3228 1.73208,0.40277 0.78806,-1.24448 -1.10466,-1.39357 -1.05168,-1.46861 0.76231,-1.14088 1.75928,0.40961 1.71023,0.48727 0.84817,-1.20431 -1.03494,-1.44609 -0.97836,-1.51845 0.81738,-1.1021 1.73706,0.49545 1.68425,0.5706 0.90625,-1.16125 -0.96274,-1.49514 -0.90268,-1.56461 0.87048,-1.06068 1.71065,0.58009 1.65423,0.65255 0.96213,-1.11537 -0.88821,-1.54058 -0.82482,-1.60702 0.92147,-1.01669 1.68013,0.66333 1.62022,0.73294 1.0157,-1.06683 -0.81155,-1.5823 -0.74497,-1.64556 0.97025,-0.97025 1.64556,0.74497 1.5823,0.81155 1.06683,-1.0157 -0.73294,-1.62022 -0.66333,-1.68013 1.01669,-0.92147 1.60702,0.82482 1.54058,0.88821 1.11537,-0.96213 -0.65255,-1.65423 -0.58009,-1.71065 1.06068,-0.87048 1.56461,0.90268 1.49514,0.96274 1.16125,-0.90625 -0.5706,-1.68425 -0.49545,-1.73706 1.1021,-0.81738 1.51845,0.97836 1.44609,1.03494 1.20431,-0.84817 -0.48727,-1.71023 -0.40961,-1.75928 1.14088,-0.76231 1.46861,1.05168 1.39357,1.10466 1.24448,-0.78806 -0.40277,-1.73208 -0.3228,-1.77725 1.17692,-0.70542 1.41523,1.12248 1.3377,1.1717 1.28164,-0.72605 -0.31729,-1.74975 -0.2352,-1.79095 1.21011,-0.64682 1.35845,1.19057 1.27859,1.23593 1.31573,-0.66229 -0.23106,-1.76321 -0.14704,-1.80034 1.24039,-0.58666 1.2984,1.25579 1.2164,1.29718 1.34664,-0.59693 -0.14426,-1.77242 -0.05853,-1.80539 1.26769,-0.52509 1.23521,1.31798 1.15129,1.3553 1.37431,-0.53012 -0.05711,-1.77737 0.03012,-1.80609 1.29193,-0.46226 1.16905,1.37701 1.0834,1.41016 1.39867,-0.46205 0.03016,-1.77803 0.11871,-1.80243 1.31305,-0.39831 1.10008,1.43271 1.01291,1.46162 1.41965,-0.39287 0.11737,-1.77441 0.20701,-1.79443 1.33101,-0.33341 1.02846,1.48497 0.93996,1.50956 1.43722,-0.32274 0.2043,-1.76651 0.29481,-1.78211 1.34576,-0.26769 0.95436,1.53364 0.86476,1.55386 1.45132,-0.25183 0.29073,-1.75436 0.3819,-1.7655 1.35728,-0.20134 0.87795,1.57863 0.78748,1.59442 1.46193,-0.18031 0.37646,-1.73798 0.46807,-1.74464 1.36552,-0.13449 0.79944,1.6198 0.70829,1.63114 1.46902,-0.10836 0.46129,-1.71742 0.5531,-1.71957 1.37048,-0.0673 0.719,1.65707 0.6274,1.66393 1.47257,-0.0362 0.545,-1.69271 0.63681,-1.69036 h 1.37214 l 0.63681,1.69036 0.545,1.69271 1.47257,0.0362 0.6274,-1.66393 0.719,-1.65707 1.37048,0.0673 0.5531,1.71957 0.46129,1.71742 1.46902,0.10836 0.70829,-1.63114 0.79944,-1.6198 1.36552,0.13449 0.46807,1.74464 0.37646,1.73798 1.46193,0.18031 0.78748,-1.59442 0.87795,-1.57863 1.35728,0.20134 0.3819,1.7655 0.29073,1.75436 1.45132,0.25183 0.86476,-1.55386 0.95436,-1.53364 1.34576,0.26769 0.29481,1.78211 0.2043,1.76651 1.43722,0.32274 0.93996,-1.50956 1.02846,-1.48497 1.33101,0.33341 0.20701,1.79443 0.11737,1.77441 1.41965,0.39287 1.01291,-1.46162 1.10008,-1.43271 1.31305,0.39831 0.11871,1.80243 0.03016,1.77803 1.39867,0.46205 1.0834,-1.41016 1.16905,-1.37701 1.29193,0.46226 0.03012,1.80609 -0.05711,1.77737 1.37431,0.53012 1.15129,-1.3553 1.23521,-1.31798 1.26769,0.52509 -0.05853,1.80539 -0.14426,1.77242 1.34664,0.59693 1.2164,-1.29718 1.2984,-1.25579 1.24039,0.58666 -0.14704,1.80034 -0.23106,1.76321 1.31573,0.66229 1.27859,-1.23593 1.35845,-1.19057 1.21011,0.64682 -0.2352,1.79095 -0.31729,1.74975 1.28164,0.72605 1.3377,-1.1717 1.41523,-1.12248 1.17692,0.70542 -0.3228,1.77725 -0.40277,1.73208 1.24448,0.78806 1.39357,-1.10466 1.46861,-1.05168 1.14088,0.76231 -0.40961,1.75928 -0.48727,1.71023 1.20431,0.84817 1.44609,-1.03494 1.51845,-0.97836 1.1021,0.81738 -0.49545,1.73706 -0.5706,1.68425 1.16125,0.90625 1.49514,-0.96274 1.56461,-0.90268 1.06068,0.87048 -0.58009,1.71065 -0.65255,1.65423 1.11537,0.96213 1.54058,-0.88821 1.60702,-0.82482 1.01669,0.92147 -0.66333,1.68013 -0.73294,1.62022 1.06683,1.0157 1.5823,-0.81155 1.64556,-0.74497 0.97025,0.97025 -0.74497,1.64556 -0.81155,1.5823 1.0157,1.06683 1.62022,-0.73294 1.68013,-0.66333 0.92147,1.01669 -0.82482,1.60702 -0.88821,1.54058 0.96213,1.11537 1.65423,-0.65255 1.71065,-0.58009 0.87048,1.06068 -0.90268,1.56461 -0.96274,1.49514 0.90625,1.16125 1.68425,-0.5706 1.73706,-0.49545 0.81738,1.1021 -0.97836,1.51845 -1.03494,1.44609 0.84817,1.20431 1.71023,-0.48727 1.75928,-0.40961 0.76231,1.14088 -1.05168,1.46861 -1.10466,1.39357 0.78806,1.24448 1.73208,-0.40277 1.77725,-0.3228 0.70542,1.17692 -1.12248,1.41523 -1.1717,1.3377 0.72605,1.28164 1.74975,-0.31729 1.79095,-0.2352 0.64682,1.21011 -1.19057,1.35845 -1.23593,1.27859 0.66229,1.31573 1.76321,-0.23106 1.80034,-0.14704 0.58666,1.24039 -1.25579,1.2984 -1.29718,1.2164 0.59693,1.34664 1.77242,-0.14426 1.80539,-0.05853 0.52509,1.26769 -1.31798,1.23521 -1.3553,1.15129 0.53012,1.37431 1.77737,-0.05711 1.80609,0.03012 0.46226,1.29193 -1.37701,1.16905 -1.41016,1.0834 0.46205,1.39867 1.77803,0.03016 1.80243,0.11871 0.39831,1.31305 -1.43271,1.10008 -1.46162,1.01291 0.39287,1.41965 1.77441,0.11737 1.79443,0.20701 0.33341,1.33101 -1.48497,1.02846 -1.50956,0.93996 0.32274,1.43722 1.76651,0.2043 1.78211,0.29481 0.26769,1.34576 -1.53364,0.95436 -1.55386,0.86476 0.25183,1.45132 1.75436,0.29073 1.7655,0.3819 0.20134,1.35728 -1.57863,0.87795 -1.59442,0.78748 0.18031,1.46193 1.73798,0.37646 1.74464,0.46807 0.13449,1.36552 -1.6198,0.79944 -1.63114,0.70829 0.10836,1.46902 1.71742,0.46129 1.71957,0.5531 0.0673,1.37048 -1.65707,0.719 -1.66393,0.6274 z"
         inkscape:connector-curvature="0" />
      <circle
         id="path3389"
         style="fill:#00ffff;stroke:#000000;stroke-width:1.315;stroke-opacity:1"
         cx="0"
         cy="0"
         r="2.6458333" />
    </g>
    <g
       id="g3451"
       inkscape:label="Gear128"
       transform="matrix(0.20120333,0,0,0.20120333,131.31491,81.774923)"
       style="fill:#00ffff;stroke-width:4.9701">
      <path
         id="path3447"
         style="fill:#00ffff;stroke:#000000;stroke-width:1.315;stroke-opacity:1"
         d="m 106.10012,-1.86788 1.69271,0.545 1.69036,0.63681 v 1.37214 l -1.69036,0.63681 -1.69271,0.545 -0.0362,1.47257 1.66393,0.6274 1.65707,0.719 -0.0673,1.37048 -1.71957,0.5531 -1.71742,0.46129 -0.10836,1.46902 1.63114,0.70829 1.6198,0.79944 -0.13449,1.36552 -1.74464,0.46807 -1.73798,0.37646 -0.18031,1.46193 1.59442,0.78748 1.57863,0.87795 -0.20134,1.35728 -1.7655,0.3819 -1.75436,0.29073 -0.25183,1.45132 1.55386,0.86476 1.53364,0.95436 -0.26769,1.34576 -1.78211,0.29481 -1.76651,0.2043 -0.32274,1.43722 1.50956,0.93996 1.48497,1.02846 -0.33341,1.33101 -1.79443,0.20701 -1.77441,0.11737 -0.39287,1.41965 1.46162,1.01291 1.43271,1.10008 -0.39831,1.31305 -1.80243,0.11871 -1.77803,0.03016 -0.46205,1.39867 1.41016,1.0834 1.37701,1.16905 -0.46226,1.29193 -1.80609,0.03012 -1.77737,-0.05711 -0.53012,1.37431 1.3553,1.15129 1.31798,1.23521 -0.52509,1.26769 -1.80539,-0.05853 -1.77242,-0.14426 -0.59693,1.34664 1.29718,1.2164 1.25579,1.2984 -0.58666,1.24039 -1.80034,-0.14704 -1.76321,-0.23106 -0.66229,1.31573 1.23593,1.27859 1.19057,1.35845 -0.64682,1.21011 -1.79095,-0.2352 -1.74975,-0.31729 -0.72605,1.28164 1.1717,1.3377 1.12248,1.41523 -0.70542,1.17692 -1.77725,-0.3228 -1.73208,-0.40277 -0.78806,1.24448 1.10466,1.39357 1.05168,1.46861 -0.76231,1.14088 -1.75928,-0.40961 -1.71023,-0.48727 -0.84817,1.20431 1.03494,1.44609 0.97836,1.51845 -0.81738,1.1021 -1.73706,-0.49545 -1.68425,-0.5706 -0.90625,1.16125 0.96274,1.49514 0.90268,1.56461 -0.87048,1.06068 -1.71065,-0.58009 -1.65423,-0.65255 -0.96213,1.11537 0.88821,1.54058 0.82482,1.60702 -0.92147,1.01669 -1.68013,-0.66333 -1.62022,-0.73294 -1.0157,1.06683 0.81155,1.5823 0.74497,1.64556 -0.97025,0.97025 -1.64556,-0.74497 -1.5823,-0.81155 -1.06683,1.0157 0.73294,1.62022 0.66333,1.68013 -1.01669,0.92147 -1.60702,-0.82482 -1.54058,-0.88821 -1.11537,0.96213 0.65255,1.65423 0.58009,1.71065 -1.06068,0.87048 -1.56461,-0.90268 -1.49514,-0.96274 -1.16125,0.90625 0.5706,1.68425 0.49545,1.73706 -1.1021,0.81738 -1.51845,-0.97836 -1.44609,-1.03494 -1.20431,0.84817 0.48727,1.71023 0.40961,1.75928 -1.14088,0.76231 -1.46861,-1.05168 -1.39357,-1.10466 -1.24448,0.78806 0.40277,1.73208 0.3228,1.77725 -1.17692,0.70542 -1.41523,-1.12248 -1.3377,-1.1717 -1.28164,0.72605 0.31729,1.74975 0.2352,1.79095 -1.21011,0.64682 -1.35845,-1.19057 -1.27859,-1.23593 -1.31573,0.66229 0.23106,1.76321 0.14704,1.80034 -1.24039,0.58666 -1.2984,-1.25579 -1.2164,-1.29718 -1.34664,0.59693 0.14426,1.77242 0.05853,1.80539 -1.26769,0.52509 -1.23521,-1.31798 -1.15129,-1.3553 -1.37431,0.53012 0.05711,1.77737 -0.03012,1.80609 -1.29193,0.46226 -1.16905,-1.37701 -1.0834,-1.41016 -1.39867,0.46205 -0.03016,1.77803 -0.11871,1.80243 -1.31305,0.39831 -1.10008,-1.43271 -1.01291,-1.46162 -1.41965,0.39287 -0.11737,1.77441 -0.20701,1.79443 -1.33101,0.33341 -1.02846,-1.48497 -0.93996,-1.50956 -1.43722,0.32274 -0.2043,1.76651 -0.29481,1.78211 -1.34576,0.26769 -0.95436,-1.53364 -0.86476,-1.55386 -1.45132,0.25183 -0.29073,1.75436 -0.3819,1.7655 -1.35728,0.20134 -0.87795,-1.57863 -0.78748,-1.59442 -1.46193,0.18031 -0.37646,1.73798 -0.46807,1.74464 -1.36552,0.13449 -0.79944,-1.6198 -0.70829,-1.63114 -1.46902,0.10836 -0.46129,1.71742 -0.5531,1.71957 -1.37048,0.0673 -0.719,-1.65707 -0.6274,-1.66393 -1.47257,0.0362 -0.545,1.69271 -0.63681,1.69036 H -0.6861 l -0.63681,-1.69036 -0.545,-1.69271 -1.47257,-0.0362 -0.6274,1.66393 -0.719,1.65707 -1.37048,-0.0673 -0.5531,-1.71957 -0.46129,-1.71742 -1.46902,-0.10836 -0.70829,1.63114 -0.79944,1.6198 -1.36552,-0.13449 -0.46807,-1.74464 -0.37646,-1.73798 -1.46193,-0.18031 -0.78748,1.59442 -0.87795,1.57863 -1.35728,-0.20134 -0.3819,-1.7655 -0.29073,-1.75436 -1.45132,-0.25183 -0.86476,1.55386 -0.95436,1.53364 -1.34576,-0.26769 -0.29481,-1.78211 -0.2043,-1.76651 -1.43722,-0.32274 -0.93996,1.50956 -1.02846,1.48497 -1.33101,-0.33341 -0.20701,-1.79443 -0.11737,-1.77441 -1.41965,-0.39287 -1.01291,1.46162 -1.10008,1.43271 -1.31305,-0.39831 -0.11871,-1.80243 -0.03016,-1.77803 -1.39867,-0.46205 -1.0834,1.41016 -1.16905,1.37701 -1.29193,-0.46226 -0.03012,-1.80609 0.05711,-1.77737 -1.37431,-0.53012 -1.15129,1.3553 -1.23521,1.31798 -1.26769,-0.52509 0.05853,-1.80539 0.14426,-1.77242 -1.34664,-0.59693 -1.2164,1.29718 -1.2984,1.25579 -1.24039,-0.58666 0.14704,-1.80034 0.23106,-1.76321 -1.31573,-0.66229 -1.27859,1.23593 -1.35845,1.19057 -1.21011,-0.64682 0.2352,-1.79095 0.31729,-1.74975 -1.28164,-0.72605 -1.3377,1.1717 -1.41523,1.12248 -1.17692,-0.70542 0.3228,-1.77725 0.40277,-1.73208 -1.24448,-0.78806 -1.39357,1.10466 -1.46861,1.05168 -1.14088,-0.76231 0.40961,-1.75928 0.48727,-1.71023 -1.20431,-0.84817 -1.44609,1.03494 -1.51845,0.97836 -1.1021,-0.81738 0.49545,-1.73706 0.5706,-1.68425 -1.16125,-0.90625 -1.49514,0.96274 -1.56461,0.90268 -1.06068,-0.87048 0.58009,-1.71065 0.65255,-1.65423 -1.11537,-0.96213 -1.54058,0.88821 -1.60702,0.82482 -1.01669,-0.92147 0.66333,-1.68013 0.73294,-1.62022 -1.06683,-1.0157 -1.5823,0.81155 -1.64556,0.74497 -0.97025,-0.97025 0.74497,-1.64556 0.81155,-1.5823 -1.0157,-1.06683 -1.62022,0.73294 -1.68013,0.66333 -0.92147,-1.01669 0.82482,-1.60702 0.88821,-1.54058 -0.96213,-1.11537 -1.65423,0.65255 -1.71065,0.58009 -0.87048,-1.06068 0.90268,-1.56461 0.96274,-1.49514 -0.90625,-1.16125 -1.68425,0.5706 -1.73706,0.49545 -0.81738,-1.1021 0.97836,-1.51845 1.03494,-1.44609 -0.84817,-1.20431 -1.71023,0.48727 -1.75928,0.40961 -0.76231,-1.14088 1.05168,-1.46861 1.10466,-1.39357 -0.78806,-1.24448 -1.73208,0.40277 -1.77725,0.3228 -0.70542,-1.17692 1.12248,-1.41523 1.1717,-1.3377 -0.72605,-1.28164 -1.74975,0.31729 -1.79095,0.2352 -0.64682,-1.21011 1.19057,-1.35845 1.23593,-1.27859 -0.66229,-1.31573 -1.76321,0.23106 -1.80034,0.14704 -0.58666,-1.24039 1.25579,-1.2984 1.29718,-1.2164 -0.59693,-1.34664 -1.77242,0.14426 -1.80539,0.05853 -0.52509,-1.26769 1.31798,-1.23521 1.3553,-1.15129 -0.53012,-1.37431 -1.77737,0.05711 -1.80609,-0.03012 -0.46226,-1.29193 1.37701,-1.16905 1.41016,-1.0834 -0.46205,-1.39867 -1.77803,-0.03016 -1.80243,-0.11871 -0.39831,-1.31305 1.43271,-1.10008 1.46162,-1.01291 -0.39287,-1.41965 -1.77441,-0.11737 -1.79443,-0.20701 -0.33341,-1.33101 1.48497,-1.02846 1.50956,-0.93996 -0.32274,-1.43722 -1.76651,-0.2043 -1.78211,-0.29481 -0.26769,-1.34576 1.53364,-0.95436 1.55386,-0.86476 -0.25183,-1.45132 -1.75436,-0.29073 -1.7655,-0.3819 -0.20134,-1.35728 1.57863,-0.87795 1.59442,-0.78748 -0.18031,-1.46193 -1.73798,-0.37646 -1.74464,-0.46807 -0.13449,-1.36552 1.6198,-0.79944 1.63114,-0.70829 -0.10836,-1.46902 -1.71742,-0.46129 -1.71957,-0.5531 -0.0673,-1.37048 1.65707,-0.719 1.66393,-0.6274 -0.0362,-1.47257 -1.69271,-0.545 -1.69036,-0.63681 v -1.37214 l 1.69036,-0.63681 1.69271,-0.545 0.0362,-1.47257 -1.66393,-0.6274 -1.65707,-0.719 0.0673,-1.37048 1.71957,-0.5531 1.71742,-0.46129 0.10836,-1.46902 -1.63114,-0.70829 -1.6198,-0.79944 0.13449,-1.36552 1.74464,-0.46807 1.73798,-0.37646 0.18031,-1.46193 -1.59442,-0.78748 -1.57863,-0.87795 0.20134,-1.35728 1.7655,-0.3819 1.75436,-0.29073 0.25183,-1.45132 -1.55386,-0.86476 -1.53364,-0.95436 0.26769,-1.34576 1.78211,-0.29481 1.76651,-0.2043 0.32274,-1.43722 -1.50956,-0.93996 -1.48497,-1.02846 0.33341,-1.33101 1.79443,-0.20701 1.77441,-0.11737 0.39287,-1.41965 -1.46162,-1.01291 -1.43271,-1.10008 0.39831,-1.31305 1.80243,-0.11871 1.77803,-0.03016 0.46205,-1.39867 -1.41016,-1.0834 -1.37701,-1.16905 0.46226,-1.29193 1.80609,-0.03012 1.77737,0.05711 0.53012,-1.37431 -1.3553,-1.15129 -1.31798,-1.23521 0.52509,-1.26769 1.80539,0.05853 1.77242,0.14426 0.59693,-1.34664 -1.29718,-1.2164 -1.25579,-1.2984 0.58666,-1.24039 1.80034,0.14704 1.76321,0.23106 0.66229,-1.31573 -1.23593,-1.27859 -1.19057,-1.35845 0.64682,-1.21011 1.79095,0.2352 1.74975,0.31729 0.72605,-1.28164 -1.1717,-1.3377 -1.12248,-1.41523 0.70542,-1.17692 1.77725,0.3228 1.73208,0.40277 0.78806,-1.24448 -1.10466,-1.39357 -1.05168,-1.46861 0.76231,-1.14088 1.75928,0.40961 1.71023,0.48727 0.84817,-1.20431 -1.03494,-1.44609 -0.97836,-1.51845 0.81738,-1.1021 1.73706,0.49545 1.68425,0.5706 0.90625,-1.16125 -0.96274,-1.49514 -0.90268,-1.56461 0.87048,-1.06068 1.71065,0.58009 1.65423,0.65255 0.96213,-1.11537 -0.88821,-1.54058 -0.82482,-1.60702 0.92147,-1.01669 1.68013,0.66333 1.62022,0.73294 1.0157,-1.06683 -0.81155,-1.5823 -0.74497,-1.64556 0.97025,-0.97025 1.64556,0.74497 1.5823,0.81155 1.06683,-1.0157 -0.73294,-1.62022 -0.66333,-1.68013 1.01669,-0.92147 1.60702,0.82482 1.54058,0.88821 1.11537,-0.96213 -0.65255,-1.65423 -0.58009,-1.71065 1.06068,-0.87048 1.56461,0.90268 1.49514,0.96274 1.16125,-0.90625 -0.5706,-1.68425 -0.49545,-1.73706 1.1021,-0.81738 1.51845,0.97836 1.44609,1.03494 1.20431,-0.84817 -0.48727,-1.71023 -0.40961,-1.75928 1.14088,-0.76231 1.46861,1.05168 1.39357,1.10466 1.24448,-0.78806 -0.40277,-1.73208 -0.3228,-1.77725 1.17692,-0.70542 1.41523,1.12248 1.3377,1.1717 1.28164,-0.72605 -0.31729,-1.74975 -0.2352,-1.79095 1.21011,-0.64682 1.35845,1.19057 1.27859,1.23593 1.31573,-0.66229 -0.23106,-1.76321 -0.14704,-1.80034 1.24039,-0.58666 1.2984,1.25579 1.2164,1.29718 1.34664,-0.59693 -0.14426,-1.77242 -0.05853,-1.80539 1.26769,-0.52509 1.23521,1.31798 1.15129,1.3553 1.37431,-0.53012 -0.05711,-1.77737 0.03012,-1.80609 1.29193,-0.46226 1.16905,1.37701 1.0834,1.41016 1.39867,-0.46205 0.03016,-1.77803 0.11871,-1.80243 1.31305,-0.39831 1.10008,1.43271 1.01291,1.46162 1.41965,-0.39287 0.11737,-1.77441 0.20701,-1.79443 1.33101,-0.33341 1.02846,1.48497 0.93996,1.50956 1.43722,-0.32274 0.2043,-1.76651 0.29481,-1.78211 1.34576,-0.26769 0.95436,1.53364 0.86476,1.55386 1.45132,-0.25183 0.29073,-1.75436 0.3819,-1.7655 1.35728,-0.20134 0.87795,1.57863 0.78748,1.59442 1.46193,-0.18031 0.37646,-1.73798 0.46807,-1.74464 1.36552,-0.13449 0.79944,1.6198 0.70829,1.63114 1.46902,-0.10836 0.46129,-1.71742 0.5531,-1.71957 1.37048,-0.0673 0.719,1.65707 0.6274,1.66393 1.47257,-0.0362 0.545,-1.69271 0.63681,-1.69036 h 1.37214 l 0.63681,1.69036 0.545,1.69271 1.47257,0.0362 0.6274,-1.66393 0.719,-1.65707 1.37048,0.0673 0.5531,1.71957 0.46129,1.71742 1.46902,0.10836 0.70829,-1.63114 0.79944,-1.6198 1.36552,0.13449 0.46807,1.74464 0.37646,1.73798 1.46193,0.18031 0.78748,-1.59442 0.87795,-1.57863 1.35728,0.20134 0.3819,1.7655 0.29073,1.75436 1.45132,0.25183 0.86476,-1.55386 0.95436,-1.53364 1.34576,0.26769 0.29481,1.78211 0.2043,1.76651 1.43722,0.32274 0.93996,-1.50956 1.02846,-1.48497 1.33101,0.33341 0.20701,1.79443 0.11737,1.77441 1.41965,0.39287 1.01291,-1.46162 1.10008,-1.43271 1.31305,0.39831 0.11871,1.80243 0.03016,1.77803 1.39867,0.46205 1.0834,-1.41016 1.16905,-1.37701 1.29193,0.46226 0.03012,1.80609 -0.05711,1.77737 1.37431,0.53012 1.15129,-1.3553 1.23521,-1.31798 1.26769,0.52509 -0.05853,1.80539 -0.14426,1.77242 1.34664,0.59693 1.2164,-1.29718 1.2984,-1.25579 1.24039,0.58666 -0.14704,1.80034 -0.23106,1.76321 1.31573,0.66229 1.27859,-1.23593 1.35845,-1.19057 1.21011,0.64682 -0.2352,1.79095 -0.31729,1.74975 1.28164,0.72605 1.3377,-1.1717 1.41523,-1.12248 1.17692,0.70542 -0.3228,1.77725 -0.40277,1.73208 1.24448,0.78806 1.39357,-1.10466 1.46861,-1.05168 1.14088,0.76231 -0.40961,1.75928 -0.48727,1.71023 1.20431,0.84817 1.44609,-1.03494 1.51845,-0.97836 1.1021,0.81738 -0.49545,1.73706 -0.5706,1.68425 1.16125,0.90625 1.49514,-0.96274 1.56461,-0.90268 1.06068,0.87048 -0.58009,1.71065 -0.65255,1.65423 1.11537,0.96213 1.54058,-0.88821 1.60702,-0.82482 1.01669,0.92147 -0.66333,1.68013 -0.73294,1.62022 1.06683,1.0157 1.5823,-0.81155 1.64556,-0.74497 0.97025,0.97025 -0.74497,1.64556 -0.81155,1.5823 1.0157,1.06683 1.62022,-0.73294 1.68013,-0.66333 0.92147,1.01669 -0.82482,1.60702 -0.88821,1.54058 0.96213,1.11537 1.65423,-0.65255 1.71065,-0.58009 0.87048,1.06068 -0.90268,1.56461 -0.96274,1.49514 0.90625,1.16125 1.68425,-0.5706 1.73706,-0.49545 0.81738,1.1021 -0.97836,1.51845 -1.03494,1.44609 0.84817,1.20431 1.71023,-0.48727 1.75928,-0.40961 0.76231,1.14088 -1.05168,1.46861 -1.10466,1.39357 0.78806,1.24448 1.73208,-0.40277 1.77725,-0.3228 0.70542,1.17692 -1.12248,1.41523 -1.1717,1.3377 0.72605,1.28164 1.74975,-0.31729 1.79095,-0.2352 0.64682,1.21011 -1.19057,1.35845 -1.23593,1.27859 0.66229,1.31573 1.76321,-0.23106 1.80034,-0.14704 0.58666,1.24039 -1.25579,1.2984 -1.29718,1.2164 0.59693,1.34664 1.77242,-0.14426 1.80539,-0.05853 0.52509,1.26769 -1.31798,1.23521 -1.3553,1.15129 0.53012,1.37431 1.77737,-0.05711 1.80609,0.03012 0.46226,1.29193 -1.37701,1.16905 -1.41016,1.0834 0.46205,1.39867 1.77803,0.03016 1.80243,0.11871 0.39831,1.31305 -1.43271,1.10008 -1.46162,1.01291 0.39287,1.41965 1.77441,0.11737 1.79443,0.20701 0.33341,1.33101 -1.48497,1.02846 -1.50956,0.93996 0.32274,1.43722 1.76651,0.2043 1.78211,0.29481 0.26769,1.34576 -1.53364,0.95436 -1.55386,0.86476 0.25183,1.45132 1.75436,0.29073 1.7655,0.3819 0.20134,1.35728 -1.57863,0.87795 -1.59442,0.78748 0.18031,1.46193 1.73798,0.37646 1.74464,0.46807 0.13449,1.36552 -1.6198,0.79944 -1.63114,0.70829 0.10836,1.46902 1.71742,0.46129 1.71957,0.5531 0.0673,1.37048 -1.65707,0.719 -1.66393,0.6274 z"
         inkscape:connector-curvature="0" />
      <circle
         id="path3449"
         style="fill:#00ffff;stroke:#000000;stroke-width:1.315;stroke-opacity:1"
         cx="0"
         cy="0"
         r="2.6458333" />
    </g>
    <g
       id="g3514"
       inkscape:label="Gear256"
       transform="matrix(0.20120333,0,0,0.20120333,101.84227,145.06369)"
       style="fill:#ff0000;stroke-width:4.9701">
      <path
         id="path3510"
         style="fill:#ff0000;stroke:#000000;stroke-width:1.315;stroke-opacity:1"
         d="m 213.90905,-1.90238 1.68879,0.57947 1.68733,0.62526 v 1.3953 l -1.68733,0.62526 -1.68879,0.57947 -0.0177,1.4454 1.67406,0.62075 1.67148,0.66647 -0.0343,1.39489 -1.70216,0.58366 -1.7025,0.53785 -0.0532,1.44453 1.65832,0.66164 1.65462,0.70729 -0.0685,1.39363 -1.71597,0.54171 -1.71519,0.49591 -0.0886,1.44279 1.64159,0.70214 1.63676,0.74769 -0.10265,1.39152 -1.72875,0.49943 -1.72685,0.45367 -0.12402,1.44018 1.62386,0.74222 1.61792,0.78763 -0.13676,1.38858 -1.74049,0.45686 -1.73746,0.41115 -0.15933,1.43671 1.60516,0.78184 1.5981,0.8271 -0.1708,1.38481 -1.75118,0.41401 -1.74702,0.36839 -0.19454,1.43236 1.58549,0.82099 1.57732,0.86607 -0.20473,1.38021 -1.76081,0.3709 -1.75554,0.32541 -0.22963,1.42715 1.56486,0.85966 1.55559,0.90452 -0.23855,1.37476 -1.76938,0.32759 -1.76299,0.28222 -0.26459,1.42109 1.54329,0.8978 1.53293,0.94242 -0.27221,1.3685 -1.77689,0.28406 -1.76939,0.23887 -0.29938,1.41417 1.52079,0.93541 1.50934,0.97976 -0.30572,1.3614 -1.78332,0.24037 -1.77472,0.19537 -0.334,1.4064 1.49738,0.97245 1.48484,1.0165 -0.33903,1.35349 -1.78869,0.19653 -1.77898,0.15177 -0.36841,1.39777 1.47306,1.00891 1.45945,1.05263 -0.37215,1.34477 -1.79297,0.15257 -1.78217,0.10806 -0.4026,1.38831 1.44786,1.04475 1.43317,1.08814 -0.40504,1.33523 -1.79617,0.10852 -1.78429,0.06429 -0.43655,1.37802 1.42178,1.07997 1.40604,1.12298 -0.43768,1.32488 -1.7983,0.06441 -1.78532,0.02049 -0.47024,1.36688 1.39485,1.11454 1.37805,1.15715 -0.47006,1.31374 -1.79934,0.02026 -1.78529,-0.02334 -0.50364,1.35494 1.36708,1.14843 1.34924,1.19062 -0.50217,1.30181 -1.79929,-0.0239 -1.78418,-0.06715 -0.53674,1.34217 1.33848,1.18163 1.31962,1.22338 -0.53396,1.28909 -1.79817,-0.06805 -1.78199,-0.11091 -0.56952,1.32859 1.30908,1.21413 1.2892,1.25538 -0.56544,1.27561 -1.79595,-0.11216 -1.77874,-0.15461 -0.60195,1.31421 1.27889,1.24589 1.258,1.28665 -0.59657,1.26134 -1.79266,-0.1562 -1.7744,-0.19822 -0.63403,1.29905 1.24793,1.2769 1.22604,1.31713 -0.62734,1.24632 -1.78829,-0.20015 -1.769,-0.2417 -0.66572,1.2831 1.21622,1.30714 1.19335,1.34682 -0.65774,1.23055 -1.78284,-0.24397 -1.76254,-0.28504 -0.697,1.26637 1.18377,1.33659 1.15994,1.37571 -0.68775,1.21403 -1.77631,-0.28765 -1.75501,-0.32821 -0.72787,1.24888 1.15061,1.36524 1.12583,1.40376 -0.71733,1.1968 -1.76872,-0.33116 -1.74643,-0.37119 -0.7583,1.23065 1.11676,1.39307 1.09104,1.43096 -0.74649,1.17883 -1.76005,-0.37447 -1.7368,-0.41393 -0.78827,1.21167 1.08224,1.42005 1.05559,1.45731 -0.77519,1.16016 -1.75034,-0.41755 -1.72611,-0.45643 -0.81777,1.19195 1.04706,1.44619 1.01951,1.48278 -0.80343,1.14078 -1.73956,-0.46038 -1.7144,-0.49865 -0.84678,1.17152 1.01126,1.47145 0.98281,1.50735 -0.83118,1.12072 -1.72774,-0.50293 -1.70164,-0.54057 -0.87527,1.15039 0.97484,1.49582 0.94552,1.53102 -0.85843,1.09998 -1.71488,-0.54518 -1.68786,-0.58217 -0.90324,1.12856 0.93784,1.5193 0.90766,1.55376 -0.88517,1.07858 -1.70098,-0.5871 -1.67307,-0.62342 -0.93066,1.10606 0.90027,1.54185 0.86926,1.57557 -0.91138,1.05654 -1.68606,-0.62867 -1.65726,-0.66429 -0.95753,1.08288 0.86216,1.56349 0.83033,1.59642 -0.93703,1.03386 -1.67012,-0.66986 -1.64046,-0.70476 -0.98382,1.05906 0.82353,1.58417 0.79091,1.61632 -0.96212,1.01055 -1.65318,-0.71065 -1.62268,-0.74481 -1.00951,1.0346 0.78441,1.60391 0.751,1.63524 -0.98663,0.98663 -1.63524,-0.751 -1.60391,-0.78441 -1.0346,1.00951 0.74481,1.62268 0.71065,1.65318 -1.01055,0.96212 -1.61632,-0.79091 -1.58417,-0.82353 -1.05906,0.98382 0.70476,1.64046 0.66986,1.67012 -1.03386,0.93703 -1.59642,-0.83033 -1.56349,-0.86216 -1.08288,0.95753 0.66429,1.65726 0.62867,1.68606 -1.05654,0.91138 -1.57557,-0.86926 -1.54185,-0.90027 -1.10606,0.93066 0.62342,1.67307 0.5871,1.70098 -1.07858,0.88517 -1.55376,-0.90766 -1.5193,-0.93784 -1.12856,0.90324 0.58217,1.68786 0.54518,1.71488 -1.09998,0.85843 -1.53102,-0.94552 -1.49582,-0.97484 -1.15039,0.87527 0.54057,1.70164 0.50293,1.72774 -1.12072,0.83118 -1.50735,-0.98281 -1.47145,-1.01126 -1.17152,0.84678 0.49865,1.7144 0.46038,1.73956 -1.14078,0.80343 -1.48278,-1.01951 -1.44619,-1.04706 -1.19195,0.81777 0.45643,1.72611 0.41755,1.75034 -1.16016,0.77519 -1.45731,-1.05559 -1.42005,-1.08224 -1.21167,0.78827 0.41393,1.7368 0.37447,1.76005 -1.17883,0.74649 -1.43096,-1.09104 -1.39307,-1.11676 -1.23065,0.7583 0.37119,1.74643 0.33116,1.76872 -1.1968,0.71733 -1.40376,-1.12583 -1.36524,-1.15061 -1.24888,0.72787 0.32821,1.75501 0.28765,1.77631 -1.21403,0.68775 -1.37571,-1.15994 -1.33659,-1.18377 -1.26637,0.697 0.28504,1.76254 0.24397,1.78284 -1.23055,0.65774 -1.34682,-1.19335 -1.30714,-1.21622 -1.2831,0.66572 0.2417,1.769 0.20015,1.78829 -1.24632,0.62734 -1.31713,-1.22604 -1.2769,-1.24793 -1.29905,0.63403 0.19822,1.7744 0.1562,1.79266 -1.26134,0.59657 -1.28665,-1.258 -1.24589,-1.27889 -1.31421,0.60195 0.15461,1.77874 0.11216,1.79595 -1.27561,0.56544 -1.25538,-1.2892 -1.21413,-1.30908 -1.32859,0.56952 0.11091,1.78199 0.06805,1.79817 -1.28909,0.53396 -1.22338,-1.31962 -1.18163,-1.33848 -1.34217,0.53674 0.06715,1.78418 0.0239,1.79929 -1.30181,0.50217 -1.19062,-1.34924 -1.14843,-1.36708 -1.35494,0.50364 0.02334,1.78529 -0.02026,1.79934 -1.31374,0.47006 -1.15715,-1.37805 -1.11454,-1.39485 -1.36688,0.47024 -0.02049,1.78532 -0.06441,1.7983 -1.32488,0.43768 -1.12298,-1.40604 -1.07997,-1.42178 -1.37802,0.43655 -0.06429,1.78429 -0.10852,1.79617 -1.33523,0.40504 -1.08814,-1.43317 -1.04475,-1.44786 -1.38831,0.4026 -0.10806,1.78217 -0.15257,1.79297 -1.34477,0.37215 -1.05263,-1.45945 -1.00891,-1.47306 -1.39777,0.36841 -0.15177,1.77898 -0.19653,1.78869 -1.35349,0.33903 -1.0165,-1.48484 -0.97245,-1.49738 -1.4064,0.334 -0.19537,1.77472 -0.24037,1.78332 -1.3614,0.30572 -0.97976,-1.50934 -0.93541,-1.52079 -1.41417,0.29938 -0.23887,1.76939 -0.28406,1.77689 -1.3685,0.27221 -0.94242,-1.53293 -0.8978,-1.54329 -1.42109,0.26459 -0.28222,1.76299 -0.32759,1.76938 -1.37476,0.23855 -0.90452,-1.55559 -0.85966,-1.56486 -1.42715,0.22963 -0.32541,1.75554 -0.3709,1.76081 -1.38021,0.20473 -0.86607,-1.57732 -0.82099,-1.58549 -1.43236,0.19454 -0.36839,1.74702 -0.41401,1.75118 -1.38481,0.1708 -0.8271,-1.5981 -0.78184,-1.60516 -1.43671,0.15933 -0.41115,1.73746 -0.45686,1.74049 -1.38858,0.13676 -0.78763,-1.61792 -0.74222,-1.62386 -1.44018,0.12402 -0.45367,1.72685 -0.49943,1.72875 -1.39152,0.10265 -0.74769,-1.63676 -0.70214,-1.64159 -1.44279,0.0886 -0.49591,1.71519 -0.54171,1.71597 -1.39363,0.0685 -0.70729,-1.65462 -0.66164,-1.65832 -1.44453,0.0532 -0.53785,1.7025 -0.58366,1.70216 -1.39489,0.0343 -0.66647,-1.67148 -0.62075,-1.67406 -1.4454,0.0177 -0.57947,1.68879 -0.62526,1.68733 h -1.3953 l -0.62526,-1.68733 -0.57947,-1.68879 -1.4454,-0.0177 -0.62075,1.67406 -0.66647,1.67148 -1.39489,-0.0343 -0.58366,-1.70216 -0.53785,-1.7025 -1.44453,-0.0532 -0.66164,1.65832 -0.70729,1.65462 -1.39363,-0.0685 -0.54171,-1.71597 -0.49591,-1.71519 -1.44279,-0.0886 -0.70214,1.64159 -0.74769,1.63676 -1.39152,-0.10265 -0.49943,-1.72875 -0.45367,-1.72685 -1.44018,-0.12402 -0.74222,1.62386 -0.78763,1.61792 -1.38858,-0.13676 -0.45686,-1.74049 -0.41115,-1.73746 -1.43671,-0.15933 -0.78184,1.60516 -0.8271,1.5981 -1.38481,-0.1708 -0.41401,-1.75118 -0.36839,-1.74702 -1.43236,-0.19454 -0.82099,1.58549 -0.86607,1.57732 -1.38021,-0.20473 -0.3709,-1.76081 -0.32541,-1.75554 -1.42715,-0.22963 -0.85966,1.56486 -0.90452,1.55559 -1.37476,-0.23855 -0.32759,-1.76938 -0.28222,-1.76299 -1.42109,-0.26459 -0.8978,1.54329 -0.94242,1.53293 -1.3685,-0.27221 -0.28406,-1.77689 -0.23887,-1.76939 -1.41417,-0.29938 -0.93541,1.52079 -0.97976,1.50934 -1.3614,-0.30572 -0.24037,-1.78332 -0.19537,-1.77472 -1.4064,-0.334 -0.97245,1.49738 -1.0165,1.48484 -1.35349,-0.33903 -0.19653,-1.78869 -0.15177,-1.77898 -1.39777,-0.36841 -1.00891,1.47306 -1.05263,1.45945 -1.34477,-0.37215 -0.15257,-1.79297 -0.10806,-1.78217 -1.38831,-0.4026 -1.04475,1.44786 -1.08814,1.43317 -1.33523,-0.40504 -0.10852,-1.79617 -0.06429,-1.78429 -1.37802,-0.43655 -1.07997,1.42178 -1.12298,1.40604 -1.32488,-0.43768 -0.06441,-1.7983 -0.02049,-1.78532 -1.36688,-0.47024 -1.11454,1.39485 -1.15715,1.37805 -1.31374,-0.47006 -0.02026,-1.79934 0.02334,-1.78529 -1.35494,-0.50364 -1.14843,1.36708 -1.19062,1.34924 -1.30181,-0.50217 0.0239,-1.79929 0.06715,-1.78418 -1.34217,-0.53674 -1.18163,1.33848 -1.22338,1.31962 -1.28909,-0.53396 0.06805,-1.79817 0.11091,-1.78199 -1.32859,-0.56952 -1.21413,1.30908 -1.25538,1.2892 -1.27561,-0.56544 0.11216,-1.79595 0.15461,-1.77874 -1.31421,-0.60195 -1.24589,1.27889 -1.28665,1.258 -1.26134,-0.59657 0.1562,-1.79266 0.19822,-1.7744 -1.29905,-0.63403 -1.2769,1.24793 -1.31713,1.22604 -1.24632,-0.62734 0.20015,-1.78829 0.2417,-1.769 -1.2831,-0.66572 -1.30714,1.21622 -1.34682,1.19335 -1.23055,-0.65774 0.24397,-1.78284 0.28504,-1.76254 -1.26637,-0.697 -1.33659,1.18377 -1.37571,1.15994 -1.21403,-0.68775 0.28765,-1.77631 0.32821,-1.75501 -1.24888,-0.72787 -1.36524,1.15061 -1.40376,1.12583 -1.1968,-0.71733 0.33116,-1.76872 0.37119,-1.74643 -1.23065,-0.7583 -1.39307,1.11676 -1.43096,1.09104 -1.17883,-0.74649 0.37447,-1.76005 0.41393,-1.7368 -1.21167,-0.78827 -1.42005,1.08224 -1.45731,1.05559 -1.16016,-0.77519 0.41755,-1.75034 0.45643,-1.72611 -1.19195,-0.81777 -1.44619,1.04706 -1.48278,1.01951 -1.14078,-0.80343 0.46038,-1.73956 0.49865,-1.7144 -1.17152,-0.84678 -1.47145,1.01126 -1.50735,0.98281 -1.12072,-0.83118 0.50293,-1.72774 0.54057,-1.70164 -1.15039,-0.87527 -1.49582,0.97484 -1.53102,0.94552 -1.09998,-0.85843 0.54518,-1.71488 0.58217,-1.68786 -1.12856,-0.90324 -1.5193,0.93784 -1.55376,0.90766 -1.07858,-0.88517 0.5871,-1.70098 0.62342,-1.67307 -1.10606,-0.93066 -1.54185,0.90027 -1.57557,0.86926 -1.05654,-0.91138 0.62867,-1.68606 0.66429,-1.65726 -1.08288,-0.95753 -1.56349,0.86216 -1.59642,0.83033 -1.03386,-0.93703 0.66986,-1.67012 0.70476,-1.64046 -1.05906,-0.98382 -1.58417,0.82353 -1.61632,0.79091 -1.01055,-0.96212 0.71065,-1.65318 0.74481,-1.62268 -1.0346,-1.00951 -1.60391,0.78441 -1.63524,0.751 -0.98663,-0.98663 0.751,-1.63524 0.78441,-1.60391 -1.00951,-1.0346 -1.62268,0.74481 -1.65318,0.71065 -0.96212,-1.01055 0.79091,-1.61632 0.82353,-1.58417 -0.98382,-1.05906 -1.64046,0.70476 -1.67012,0.66986 -0.93703,-1.03386 0.83033,-1.59642 0.86216,-1.56349 -0.95753,-1.08288 -1.65726,0.66429 -1.68606,0.62867 -0.91138,-1.05654 0.86926,-1.57557 0.90027,-1.54185 -0.93066,-1.10606 -1.67307,0.62342 -1.70098,0.5871 -0.88517,-1.07858 0.90766,-1.55376 0.93784,-1.5193 -0.90324,-1.12856 -1.68786,0.58217 -1.71488,0.54518 -0.85843,-1.09998 0.94552,-1.53102 0.97484,-1.49582 -0.87527,-1.15039 -1.70164,0.54057 -1.72774,0.50293 -0.83118,-1.12072 0.98281,-1.50735 1.01126,-1.47145 -0.84678,-1.17152 -1.7144,0.49865 -1.73956,0.46038 -0.80343,-1.14078 1.01951,-1.48278 1.04706,-1.44619 -0.81777,-1.19195 -1.72611,0.45643 -1.75034,0.41755 -0.77519,-1.16016 1.05559,-1.45731 1.08224,-1.42005 -0.78827,-1.21167 -1.7368,0.41393 -1.76005,0.37447 -0.74649,-1.17883 1.09104,-1.43096 1.11676,-1.39307 -0.7583,-1.23065 -1.74643,0.37119 -1.76872,0.33116 -0.71733,-1.1968 1.12583,-1.40376 1.15061,-1.36524 -0.72787,-1.24888 -1.75501,0.32821 -1.77631,0.28765 -0.68775,-1.21403 1.15994,-1.37571 1.18377,-1.33659 -0.697,-1.26637 -1.76254,0.28504 -1.78284,0.24397 -0.65774,-1.23055 1.19335,-1.34682 1.21622,-1.30714 -0.66572,-1.2831 -1.769,0.2417 -1.78829,0.20015 -0.62734,-1.24632 1.22604,-1.31713 1.24793,-1.2769 -0.63403,-1.29905 -1.7744,0.19822 -1.79266,0.1562 -0.59657,-1.26134 1.258,-1.28665 1.27889,-1.24589 -0.60195,-1.31421 -1.77874,0.15461 -1.79595,0.11216 -0.56544,-1.27561 1.2892,-1.25538 1.30908,-1.21413 -0.56952,-1.32859 -1.78199,0.11091 -1.79817,0.06805 -0.53396,-1.28909 1.31962,-1.22338 1.33848,-1.18163 -0.53674,-1.34217 -1.78418,0.06715 -1.79929,0.0239 -0.50217,-1.30181 1.34924,-1.19062 1.36708,-1.14843 -0.50364,-1.35494 -1.78529,0.02334 -1.79934,-0.02026 -0.47006,-1.31374 1.37805,-1.15715 1.39485,-1.11454 -0.47024,-1.36688 -1.78532,-0.02049 -1.7983,-0.06441 -0.43768,-1.32488 1.40604,-1.12298 1.42178,-1.07997 -0.43655,-1.37802 -1.78429,-0.06429 -1.79617,-0.10852 -0.40504,-1.33523 1.43317,-1.08814 1.44786,-1.04475 -0.4026,-1.38831 -1.78217,-0.10806 -1.79297,-0.15257 -0.37215,-1.34477 1.45945,-1.05263 1.47306,-1.00891 -0.36841,-1.39777 -1.77898,-0.15177 -1.78869,-0.19653 -0.33903,-1.35349 1.48484,-1.0165 1.49738,-0.97245 -0.334,-1.4064 -1.77472,-0.19537 -1.78332,-0.24037 -0.30572,-1.3614 1.50934,-0.97976 1.52079,-0.93541 -0.29938,-1.41417 -1.76939,-0.23887 -1.77689,-0.28406 -0.27221,-1.3685 1.53293,-0.94242 1.54329,-0.8978 -0.26459,-1.42109 -1.76299,-0.28222 -1.76938,-0.32759 -0.23855,-1.37476 1.55559,-0.90452 1.56486,-0.85966 -0.22963,-1.42715 -1.75554,-0.32541 -1.76081,-0.3709 -0.20473,-1.38021 1.57732,-0.86607 1.58549,-0.82099 -0.19454,-1.43236 -1.74702,-0.36839 -1.75118,-0.41401 -0.1708,-1.38481 1.5981,-0.8271 1.60516,-0.78184 -0.15933,-1.43671 -1.73746,-0.41115 -1.74049,-0.45686 -0.13676,-1.38858 1.61792,-0.78763 1.62386,-0.74222 -0.12402,-1.44018 -1.72685,-0.45367 -1.72875,-0.49943 -0.10265,-1.39152 1.63676,-0.74769 1.64159,-0.70214 -0.0886,-1.44279 -1.71519,-0.49591 -1.71597,-0.54171 -0.0685,-1.39363 1.65462,-0.70729 1.65832,-0.66164 -0.0532,-1.44453 -1.7025,-0.53785 -1.70216,-0.58366 -0.0343,-1.39489 1.67148,-0.66647 1.67406,-0.62075 -0.0177,-1.4454 -1.68879,-0.57947 -1.68733,-0.62526 v -1.3953 l 1.68733,-0.62526 1.68879,-0.57947 0.0177,-1.4454 -1.67406,-0.62075 -1.67148,-0.66647 0.0343,-1.39489 1.70216,-0.58366 1.7025,-0.53785 0.0532,-1.44453 -1.65832,-0.66164 -1.65462,-0.70729 0.0685,-1.39363 1.71597,-0.54171 1.71519,-0.49591 0.0886,-1.44279 -1.64159,-0.70214 -1.63676,-0.74769 0.10265,-1.39152 1.72875,-0.49943 1.72685,-0.45367 0.12402,-1.44018 -1.62386,-0.74222 -1.61792,-0.78763 0.13676,-1.38858 1.74049,-0.45686 1.73746,-0.41115 0.15933,-1.43671 -1.60516,-0.78184 -1.5981,-0.8271 0.1708,-1.38481 1.75118,-0.41401 1.74702,-0.36839 0.19454,-1.43236 -1.58549,-0.82099 -1.57732,-0.86607 0.20473,-1.38021 1.76081,-0.3709 1.75554,-0.32541 0.22963,-1.42715 -1.56486,-0.85966 -1.55559,-0.90452 0.23855,-1.37476 1.76938,-0.32759 1.76299,-0.28222 0.26459,-1.42109 -1.54329,-0.8978 -1.53293,-0.94242 0.27221,-1.3685 1.77689,-0.28406 1.76939,-0.23887 0.29938,-1.41417 -1.52079,-0.93541 -1.50934,-0.97976 0.30572,-1.3614 1.78332,-0.24037 1.77472,-0.19537 0.334,-1.4064 -1.49738,-0.97245 -1.48484,-1.0165 0.33903,-1.35349 1.78869,-0.19653 1.77898,-0.15177 0.36841,-1.39777 -1.47306,-1.00891 -1.45945,-1.05263 0.37215,-1.34477 1.79297,-0.15257 1.78217,-0.10806 0.4026,-1.38831 -1.44786,-1.04475 -1.43317,-1.08814 0.40504,-1.33523 1.79617,-0.10852 1.78429,-0.06429 0.43655,-1.37802 -1.42178,-1.07997 -1.40604,-1.12298 0.43768,-1.32488 1.7983,-0.06441 1.78532,-0.02049 0.47024,-1.36688 -1.39485,-1.11454 -1.37805,-1.15715 0.47006,-1.31374 1.79934,-0.02026 1.78529,0.02334 0.50364,-1.35494 -1.36708,-1.14843 -1.34924,-1.19062 0.50217,-1.30181 1.79929,0.0239 1.78418,0.06715 0.53674,-1.34217 -1.33848,-1.18163 -1.31962,-1.22338 0.53396,-1.28909 1.79817,0.06805 1.78199,0.11091 0.56952,-1.32859 -1.30908,-1.21413 -1.2892,-1.25538 0.56544,-1.27561 1.79595,0.11216 1.77874,0.15461 0.60195,-1.31421 -1.27889,-1.24589 -1.258,-1.28665 0.59657,-1.26134 1.79266,0.1562 1.7744,0.19822 0.63403,-1.29905 -1.24793,-1.2769 -1.22604,-1.31713 0.62734,-1.24632 1.78829,0.20015 1.769,0.2417 0.66572,-1.2831 -1.21622,-1.30714 -1.19335,-1.34682 0.65774,-1.23055 1.78284,0.24397 1.76254,0.28504 0.697,-1.26637 -1.18377,-1.33659 -1.15994,-1.37571 0.68775,-1.21403 1.77631,0.28765 1.75501,0.32821 0.72787,-1.24888 -1.15061,-1.36524 -1.12583,-1.40376 0.71733,-1.1968 1.76872,0.33116 1.74643,0.37119 0.7583,-1.23065 -1.11676,-1.39307 -1.09104,-1.43096 0.74649,-1.17883 1.76005,0.37447 1.7368,0.41393 0.78827,-1.21167 -1.08224,-1.42005 -1.05559,-1.45731 0.77519,-1.16016 1.75034,0.41755 1.72611,0.45643 0.81777,-1.19195 -1.04706,-1.44619 -1.01951,-1.48278 0.80343,-1.14078 1.73956,0.46038 1.7144,0.49865 0.84678,-1.17152 -1.01126,-1.47145 -0.98281,-1.50735 0.83118,-1.12072 1.72774,0.50293 1.70164,0.54057 0.87527,-1.15039 -0.97484,-1.49582 -0.94552,-1.53102 0.85843,-1.09998 1.71488,0.54518 1.68786,0.58217 0.90324,-1.12856 -0.93784,-1.5193 -0.90766,-1.55376 0.88517,-1.07858 1.70098,0.5871 1.67307,0.62342 0.93066,-1.10606 -0.90027,-1.54185 -0.86926,-1.57557 0.91138,-1.05654 1.68606,0.62867 1.65726,0.66429 0.95753,-1.08288 -0.86216,-1.56349 -0.83033,-1.59642 0.93703,-1.03386 1.67012,0.66986 1.64046,0.70476 0.98382,-1.05906 -0.82353,-1.58417 -0.79091,-1.61632 0.96212,-1.01055 1.65318,0.71065 1.62268,0.74481 1.00951,-1.0346 -0.78441,-1.60391 -0.751,-1.63524 0.98663,-0.98663 1.63524,0.751 1.60391,0.78441 1.0346,-1.00951 -0.74481,-1.62268 -0.71065,-1.65318 1.01055,-0.96212 1.61632,0.79091 1.58417,0.82353 1.05906,-0.98382 -0.70476,-1.64046 -0.66986,-1.67012 1.03386,-0.93703 1.59642,0.83033 1.56349,0.86216 1.08288,-0.95753 -0.66429,-1.65726 -0.62867,-1.68606 1.05654,-0.91138 1.57557,0.86926 1.54185,0.90027 1.10606,-0.93066 -0.62342,-1.67307 -0.5871,-1.70098 1.07858,-0.88517 1.55376,0.90766 1.5193,0.93784 1.12856,-0.90324 -0.58217,-1.68786 -0.54518,-1.71488 1.09998,-0.85843 1.53102,0.94552 1.49582,0.97484 1.15039,-0.87527 -0.54057,-1.70164 -0.50293,-1.72774 1.12072,-0.83118 1.50735,0.98281 1.47145,1.01126 1.17152,-0.84678 -0.49865,-1.7144 -0.46038,-1.73956 1.14078,-0.80343 1.48278,1.01951 1.44619,1.04706 1.19195,-0.81777 -0.45643,-1.72611 -0.41755,-1.75034 1.16016,-0.77519 1.45731,1.05559 1.42005,1.08224 1.21167,-0.78827 -0.41393,-1.7368 -0.37447,-1.76005 1.17883,-0.74649 1.43096,1.09104 1.39307,1.11676 1.23065,-0.7583 -0.37119,-1.74643 -0.33116,-1.76872 1.1968,-0.71733 1.40376,1.12583 1.36524,1.15061 1.24888,-0.72787 -0.32821,-1.75501 -0.28765,-1.77631 1.21403,-0.68775 1.37571,1.15994 1.33659,1.18377 1.26637,-0.697 -0.28504,-1.76254 -0.24397,-1.78284 1.23055,-0.65774 1.34682,1.19335 1.30714,1.21622 1.2831,-0.66572 -0.2417,-1.769 -0.20015,-1.78829 1.24632,-0.62734 1.31713,1.22604 1.2769,1.24793 1.29905,-0.63403 -0.19822,-1.7744 -0.1562,-1.79266 1.26134,-0.59657 1.28665,1.258 1.24589,1.27889 1.31421,-0.60195 -0.15461,-1.77874 -0.11216,-1.79595 1.27561,-0.56544 1.25538,1.2892 1.21413,1.30908 1.32859,-0.56952 -0.11091,-1.78199 -0.06805,-1.79817 1.28909,-0.53396 1.22338,1.31962 1.18163,1.33848 1.34217,-0.53674 -0.06715,-1.78418 -0.0239,-1.79929 1.30181,-0.50217 1.19062,1.34924 1.14843,1.36708 1.35494,-0.50364 -0.02334,-1.78529 0.02026,-1.79934 1.31374,-0.47006 1.15715,1.37805 1.11454,1.39485 1.36688,-0.47024 0.02049,-1.78532 0.06441,-1.7983 1.32488,-0.43768 1.12298,1.40604 1.07997,1.42178 1.37802,-0.43655 0.06429,-1.78429 0.10852,-1.79617 1.33523,-0.40504 1.08814,1.43317 1.04475,1.44786 1.38831,-0.4026 0.10806,-1.78217 0.15257,-1.79297 1.34477,-0.37215 1.05263,1.45945 1.00891,1.47306 1.39777,-0.36841 0.15177,-1.77898 0.19653,-1.78869 1.35349,-0.33903 1.0165,1.48484 0.97245,1.49738 1.4064,-0.334 0.19537,-1.77472 0.24037,-1.78332 1.3614,-0.30572 0.97976,1.50934 0.93541,1.52079 1.41417,-0.29938 0.23887,-1.76939 0.28406,-1.77689 1.3685,-0.27221 0.94242,1.53293 0.8978,1.54329 1.42109,-0.26459 0.28222,-1.76299 0.32759,-1.76938 1.37476,-0.23855 0.90452,1.55559 0.85966,1.56486 1.42715,-0.22963 0.32541,-1.75554 0.3709,-1.76081 1.38021,-0.20473 0.86607,1.57732 0.82099,1.58549 1.43236,-0.19454 0.36839,-1.74702 0.41401,-1.75118 1.38481,-0.1708 0.8271,1.5981 0.78184,1.60516 1.43671,-0.15933 0.41115,-1.73746 0.45686,-1.74049 1.38858,-0.13676 0.78763,1.61792 0.74222,1.62386 1.44018,-0.12402 0.45367,-1.72685 0.49943,-1.72875 1.39152,-0.10265 0.74769,1.63676 0.70214,1.64159 1.44279,-0.0886 0.49591,-1.71519 0.54171,-1.71597 1.39363,-0.0685 0.70729,1.65462 0.66164,1.65832 1.44453,-0.0532 0.53785,-1.7025 0.58366,-1.70216 1.39489,-0.0343 0.66647,1.67148 0.62075,1.67406 1.4454,-0.0177 0.57947,-1.68879 0.62526,-1.68733 h 1.3953 l 0.62526,1.68733 0.57947,1.68879 1.4454,0.0177 0.62075,-1.67406 0.66647,-1.67148 1.39489,0.0343 0.58366,1.70216 0.53785,1.7025 1.44453,0.0532 0.66164,-1.65832 0.70729,-1.65462 1.39363,0.0685 0.54171,1.71597 0.49591,1.71519 1.44279,0.0886 0.70214,-1.64159 0.74769,-1.63676 1.39152,0.10265 0.49943,1.72875 0.45367,1.72685 1.44018,0.12402 0.74222,-1.62386 0.78763,-1.61792 1.38858,0.13676 0.45686,1.74049 0.41115,1.73746 1.43671,0.15933 0.78184,-1.60516 0.8271,-1.5981 1.38481,0.1708 0.41401,1.75118 0.36839,1.74702 1.43236,0.19454 0.82099,-1.58549 0.86607,-1.57732 1.38021,0.20473 0.3709,1.76081 0.32541,1.75554 1.42715,0.22963 0.85966,-1.56486 0.90452,-1.55559 1.37476,0.23855 0.32759,1.76938 0.28222,1.76299 1.42109,0.26459 0.8978,-1.54329 0.94242,-1.53293 1.3685,0.27221 0.28406,1.77689 0.23887,1.76939 1.41417,0.29938 0.93541,-1.52079 0.97976,-1.50934 1.3614,0.30572 0.24037,1.78332 0.19537,1.77472 1.4064,0.334 0.97245,-1.49738 1.0165,-1.48484 1.35349,0.33903 0.19653,1.78869 0.15177,1.77898 1.39777,0.36841 1.00891,-1.47306 1.05263,-1.45945 1.34477,0.37215 0.15257,1.79297 0.10806,1.78217 1.38831,0.4026 1.04475,-1.44786 1.08814,-1.43317 1.33523,0.40504 0.10852,1.79617 0.06429,1.78429 1.37802,0.43655 1.07997,-1.42178 1.12298,-1.40604 1.32488,0.43768 0.06441,1.7983 0.02049,1.78532 1.36688,0.47024 1.11454,-1.39485 1.15715,-1.37805 1.31374,0.47006 0.02026,1.79934 -0.02334,1.78529 1.35494,0.50364 1.14843,-1.36708 1.19062,-1.34924 1.30181,0.50217 -0.0239,1.79929 -0.06715,1.78418 1.34217,0.53674 1.18163,-1.33848 1.22338,-1.31962 1.28909,0.53396 -0.06805,1.79817 -0.11091,1.78199 1.32859,0.56952 1.21413,-1.30908 1.25538,-1.2892 1.27561,0.56544 -0.11216,1.79595 -0.15461,1.77874 1.31421,0.60195 1.24589,-1.27889 1.28665,-1.258 1.26134,0.59657 -0.1562,1.79266 -0.19822,1.7744 1.29905,0.63403 1.2769,-1.24793 1.31713,-1.22604 1.24632,0.62734 -0.20015,1.78829 -0.2417,1.769 1.2831,0.66572 1.30714,-1.21622 1.34682,-1.19335 1.23055,0.65774 -0.24397,1.78284 -0.28504,1.76254 1.26637,0.697 1.33659,-1.18377 1.37571,-1.15994 1.21403,0.68775 -0.28765,1.77631 -0.32821,1.75501 1.24888,0.72787 1.36524,-1.15061 1.40376,-1.12583 1.1968,0.71733 -0.33116,1.76872 -0.37119,1.74643 1.23065,0.7583 1.39307,-1.11676 1.43096,-1.09104 1.17883,0.74649 -0.37447,1.76005 -0.41393,1.7368 1.21167,0.78827 1.42005,-1.08224 1.45731,-1.05559 1.16016,0.77519 -0.41755,1.75034 -0.45643,1.72611 1.19195,0.81777 1.44619,-1.04706 1.48278,-1.01951 1.14078,0.80343 -0.46038,1.73956 -0.49865,1.7144 1.17152,0.84678 1.47145,-1.01126 1.50735,-0.98281 1.12072,0.83118 -0.50293,1.72774 -0.54057,1.70164 1.15039,0.87527 1.49582,-0.97484 1.53102,-0.94552 1.09998,0.85843 -0.54518,1.71488 -0.58217,1.68786 1.12856,0.90324 1.5193,-0.93784 1.55376,-0.90766 1.07858,0.88517 -0.5871,1.70098 -0.62342,1.67307 1.10606,0.93066 1.54185,-0.90027 1.57557,-0.86926 1.05654,0.91138 -0.62867,1.68606 -0.66429,1.65726 1.08288,0.95753 1.56349,-0.86216 1.59642,-0.83033 1.03386,0.93703 -0.66986,1.67012 -0.70476,1.64046 1.05906,0.98382 1.58417,-0.82353 1.61632,-0.79091 1.01055,0.96212 -0.71065,1.65318 -0.74481,1.62268 1.0346,1.00951 1.60391,-0.78441 1.63524,-0.751 0.98663,0.98663 -0.751,1.63524 -0.78441,1.60391 1.00951,1.0346 1.62268,-0.74481 1.65318,-0.71065 0.96212,1.01055 -0.79091,1.61632 -0.82353,1.58417 0.98382,1.05906 1.64046,-0.70476 1.67012,-0.66986 0.93703,1.03386 -0.83033,1.59642 -0.86216,1.56349 0.95753,1.08288 1.65726,-0.66429 1.68606,-0.62867 0.91138,1.05654 -0.86926,1.57557 -0.90027,1.54185 0.93066,1.10606 1.67307,-0.62342 1.70098,-0.5871 0.88517,1.07858 -0.90766,1.55376 -0.93784,1.5193 0.90324,1.12856 1.68786,-0.58217 1.71488,-0.54518 0.85843,1.09998 -0.94552,1.53102 -0.97484,1.49582 0.87527,1.15039 1.70164,-0.54057 1.72774,-0.50293 0.83118,1.12072 -0.98281,1.50735 -1.01126,1.47145 0.84678,1.17152 1.7144,-0.49865 1.73956,-0.46038 0.80343,1.14078 -1.01951,1.48278 -1.04706,1.44619 0.81777,1.19195 1.72611,-0.45643 1.75034,-0.41755 0.77519,1.16016 -1.05559,1.45731 -1.08224,1.42005 0.78827,1.21167 1.7368,-0.41393 1.76005,-0.37447 0.74649,1.17883 -1.09104,1.43096 -1.11676,1.39307 0.7583,1.23065 1.74643,-0.37119 1.76872,-0.33116 0.71733,1.1968 -1.12583,1.40376 -1.15061,1.36524 0.72787,1.24888 1.75501,-0.32821 1.77631,-0.28765 0.68775,1.21403 -1.15994,1.37571 -1.18377,1.33659 0.697,1.26637 1.76254,-0.28504 1.78284,-0.24397 0.65774,1.23055 -1.19335,1.34682 -1.21622,1.30714 0.66572,1.2831 1.769,-0.2417 1.78829,-0.20015 0.62734,1.24632 -1.22604,1.31713 -1.24793,1.2769 0.63403,1.29905 1.7744,-0.19822 1.79266,-0.1562 0.59657,1.26134 -1.258,1.28665 -1.27889,1.24589 0.60195,1.31421 1.77874,-0.15461 1.79595,-0.11216 0.56544,1.27561 -1.2892,1.25538 -1.30908,1.21413 0.56952,1.32859 1.78199,-0.11091 1.79817,-0.06805 0.53396,1.28909 -1.31962,1.22338 -1.33848,1.18163 0.53674,1.34217 1.78418,-0.06715 1.79929,-0.0239 0.50217,1.30181 -1.34924,1.19062 -1.36708,1.14843 0.50364,1.35494 1.78529,-0.02334 1.79934,0.02026 0.47006,1.31374 -1.37805,1.15715 -1.39485,1.11454 0.47024,1.36688 1.78532,0.02049 1.7983,0.06441 0.43768,1.32488 -1.40604,1.12298 -1.42178,1.07997 0.43655,1.37802 1.78429,0.06429 1.79617,0.10852 0.40504,1.33523 -1.43317,1.08814 -1.44786,1.04475 0.4026,1.38831 1.78217,0.10806 1.79297,0.15257 0.37215,1.34477 -1.45945,1.05263 -1.47306,1.00891 0.36841,1.39777 1.77898,0.15177 1.78869,0.19653 0.33903,1.35349 -1.48484,1.0165 -1.49738,0.97245 0.334,1.4064 1.77472,0.19537 1.78332,0.24037 0.30572,1.3614 -1.50934,0.97976 -1.52079,0.93541 0.29938,1.41417 1.76939,0.23887 1.77689,0.28406 0.27221,1.3685 -1.53293,0.94242 -1.54329,0.8978 0.26459,1.42109 1.76299,0.28222 1.76938,0.32759 0.23855,1.37476 -1.55559,0.90452 -1.56486,0.85966 0.22963,1.42715 1.75554,0.32541 1.76081,0.3709 0.20473,1.38021 -1.57732,0.86607 -1.58549,0.82099 0.19454,1.43236 1.74702,0.36839 1.75118,0.41401 0.1708,1.38481 -1.5981,0.8271 -1.60516,0.78184 0.15933,1.43671 1.73746,0.41115 1.74049,0.45686 0.13676,1.38858 -1.61792,0.78763 -1.62386,0.74222 0.12402,1.44018 1.72685,0.45367 1.72875,0.49943 0.10265,1.39152 -1.63676,0.74769 -1.64159,0.70214 0.0886,1.44279 1.71519,0.49591 1.71597,0.54171 0.0685,1.39363 -1.65462,0.70729 -1.65832,0.66164 0.0532,1.44453 1.7025,0.53785 1.70216,0.58366 0.0343,1.39489 -1.67148,0.66647 -1.67406,0.62075 z"
         inkscape:connector-curvature="0" />
      <circle
         id="path3512"
         style="fill:#ff0000;stroke:#000000;stroke-width:1.315;stroke-opacity:1"
         cx="0"
         cy="0"
         r="2.6458333" />
    </g>
    <g
       id="g3641"
       inkscape:label="RackGear529.166666656"
       transform="matrix(0.20113374,0,0,0.23301407,85.50545,188.16563)"
       style="stroke:#00aaaa;stroke-width:4.6192;stroke-opacity:1">
      <path
         id="path3639"
         style="fill:none;stroke:#00aaaa;stroke-width:1.22216;stroke-opacity:1"
         d="M 0,0 0.963,2.646 H 2.646 L 3.609,0 H 5.292 L 6.255,2.646 H 7.937 L 8.901,0 h 1.682 l 0.963,2.646 h 1.683 L 14.192,0 h 1.683 l 0.963,2.646 h 1.683 L 19.484,0 h 1.683 l 0.963,2.646 h 1.682 L 24.776,0 h 1.682 l 0.963,2.646 h 1.683 L 30.067,0 h 1.683 l 0.963,2.646 h 1.683 L 35.359,0 h 1.683 l 0.963,2.646 h 1.682 L 40.651,0 h 1.682 l 0.963,2.646 h 1.683 L 45.942,0 h 1.683 l 0.963,2.646 h 1.683 L 51.234,0 h 1.683 l 0.963,2.646 h 1.682 L 56.526,0 h 1.682 l 0.963,2.646 h 1.683 L 61.817,0 H 63.5 l 0.963,2.646 h 1.683 L 67.109,0 h 1.683 l 0.963,2.646 h 1.682 L 72.401,0 h 1.682 l 0.963,2.646 h 1.683 L 77.692,0 h 1.683 l 0.963,2.646 h 1.683 L 82.984,0 h 1.683 l 0.963,2.646 h 1.682 L 88.276,0 h 1.682 l 0.963,2.646 h 1.683 L 93.567,0 h 1.683 l 0.963,2.646 h 1.683 L 98.859,0 h 1.683 l 0.963,2.646 h 1.682 L 104.151,0 h 1.682 l 0.963,2.646 h 1.683 L 109.442,0 h 1.683 l 0.963,2.646 h 1.683 L 114.734,0 h 1.683 l 0.963,2.646 h 1.682 L 120.026,0 h 1.682 l 0.963,2.646 h 1.683 L 125.317,0 H 127 l 0.963,2.646 h 1.683 L 130.609,0 h 1.683 l 0.963,2.646 h 1.682 L 135.901,0 h 1.682 l 0.963,2.646 h 1.683 L 141.192,0 h 1.683 l 0.963,2.646 h 1.683 L 146.484,0 h 1.683 l 0.963,2.646 h 1.682 L 151.776,0 h 1.682 l 0.963,2.646 h 1.683 L 157.067,0 h 1.683 l 0.963,2.646 h 1.683 L 162.359,0 h 1.683 l 0.963,2.646 h 1.682 L 167.651,0 h 1.682 l 0.963,2.646 h 1.683 L 172.942,0 h 1.683 l 0.963,2.646 h 1.683 L 178.234,0 h 1.683 l 0.963,2.646 h 1.682 L 183.526,0 h 1.682 l 0.963,2.646 h 1.683 L 188.817,0 h 1.683 l 0.963,2.646 h 1.683 L 194.109,0 h 1.683 l 0.963,2.646 h 1.682 L 199.401,0 h 1.682 l 0.963,2.646 h 1.683 L 204.692,0 h 1.683 l 0.963,2.646 h 1.683 L 209.984,0 h 1.683 l 0.963,2.646 h 1.682 L 215.276,0 h 1.682 l 0.963,2.646 h 1.683 L 220.567,0 h 1.683 l 0.963,2.646 h 1.683 L 225.859,0 h 1.683 l 0.963,2.646 h 1.682 L 231.151,0 h 1.682 l 0.963,2.646 h 1.683 L 236.442,0 h 1.683 l 0.963,2.646 h 1.683 L 241.734,0 h 1.683 l 0.963,2.646 h 1.682 L 247.026,0 h 1.682 l 0.963,2.646 h 1.683 L 252.317,0 H 254 l 0.963,2.646 h 1.683 L 257.609,0 h 1.683 l 0.963,2.646 h 1.682 L 262.901,0 h 1.682 l 0.963,2.646 h 1.683 L 268.192,0 h 1.683 l 0.963,2.646 h 1.683 L 273.484,0 h 1.683 l 0.963,2.646 h 1.682 L 278.776,0 h 1.682 l 0.963,2.646 h 1.683 L 284.067,0 h 1.683 l 0.963,2.646 h 1.683 L 289.359,0 h 1.683 l 0.963,2.646 h 1.682 L 294.651,0 h 1.682 l 0.963,2.646 h 1.683 L 299.942,0 h 1.683 l 0.963,2.646 h 1.683 L 305.234,0 h 1.683 l 0.963,2.646 h 1.682 L 310.526,0 h 1.682 l 0.963,2.646 h 1.683 L 315.817,0 h 1.683 l 0.963,2.646 h 1.683 L 321.109,0 h 1.683 l 0.963,2.646 h 1.682 L 326.401,0 h 1.682 l 0.963,2.646 h 1.683 L 331.692,0 h 1.683 l 0.963,2.646 h 1.683 L 336.984,0 h 1.683 l 0.963,2.646 h 1.682 L 342.276,0 h 1.682 l 0.963,2.646 h 1.683 L 347.567,0 h 1.683 l 0.963,2.646 h 1.683 L 352.859,0 h 1.683 l 0.963,2.646 h 1.682 L 358.151,0 h 1.682 l 0.963,2.646 h 1.683 L 363.442,0 h 1.683 l 0.963,2.646 h 1.683 L 368.734,0 h 1.683 l 0.963,2.646 h 1.682 L 374.026,0 h 1.682 l 0.963,2.646 h 1.683 L 379.317,0 H 381 l 0.963,2.646 h 1.683 L 384.609,0 h 1.683 l 0.963,2.646 h 1.682 L 389.901,0 h 1.682 l 0.963,2.646 h 1.683 L 395.192,0 h 1.683 l 0.963,2.646 h 1.683 L 400.484,0 h 1.683 l 0.963,2.646 h 1.682 L 405.776,0 h 1.682 l 0.963,2.646 h 1.683 L 411.067,0 h 1.683 l 0.963,2.646 h 1.683 L 416.359,0 h 1.683 l 0.963,2.646 h 1.682 L 421.651,0 h 1.682 l 0.963,2.646 h 1.683 L 426.942,0 h 1.683 l 0.963,2.646 h 1.683 L 432.234,0 h 1.683 l 0.963,2.646 h 1.682 L 437.526,0 h 1.682 l 0.963,2.646 h 1.683 L 442.817,0 h 1.683 l 0.963,2.646 h 1.683 L 448.109,0 h 1.683 l 0.963,2.646 h 1.682 L 453.401,0 h 1.682 l 0.963,2.646 h 1.683 L 458.692,0 h 1.683 l 0.963,2.646 h 1.683 L 463.984,0 h 1.683 l 0.963,2.646 h 1.682 L 469.276,0 h 1.682 l 0.963,2.646 h 1.683 L 474.567,0 h 1.683 l 0.963,2.646 h 1.683 L 479.859,0 h 1.683 l 0.963,2.646 h 1.682 L 485.151,0 h 1.682 l 0.963,2.646 h 1.683 L 490.442,0 h 1.683 l 0.963,2.646 h 1.683 L 495.734,0 h 1.683 l 0.963,2.646 h 1.682 L 501.026,0 h 1.682 l 0.963,2.646 h 1.683 L 506.317,0 H 508 l 0.963,2.646 h 1.683 L 511.609,0 h 1.683 l 0.963,2.646 h 1.682 L 516.901,0 h 1.682 l 0.963,2.646 h 1.683 L 522.192,0 h 1.683 l 0.963,2.646 h 1.683 L 527.484,0 h 1.683 l 0.963,2.646 h 1.682"
         inkscape:connector-curvature="0"
         sodipodi:nodetypes="ccccccccccccccccccccccccccccccccccccccccccccccccccccccccccccccccccccccccccccccccccccccccccccccccccccccccccccccccccccccccccccccccccccccccccccccccccccccccccccccccccccccccccccccccccccccccccccccccccccccccccccccccccccccccccccccccccccccccccccccccccccccccccccccccccccccccccccccccccccccccccccccccccccccccccccccccccccccccccccccccccccccccccccccccccccccccccccccccccccccccccccccccccccccccccccccccccccccccccccccccccc" />
    </g>
    <g
       style="stroke:#00aaaa;stroke-width:4.6192;stroke-opacity:1"
       transform="matrix(0.20113374,0,0,0.23301407,193.32614,188.06641)"
       inkscape:label="RackGear529.166666656"
       id="g3652">
      <path
         inkscape:connector-curvature="0"
         d="m -4.2526603,3.0718112 0.963,-2.646 h 1.683 l 0.96300004,2.646 H 1.0383398 l 0.9639999,-2.646 h 1.682 l 0.963,2.646 h 1.683 l 0.963,-2.646 h 1.683 l 0.963,2.646 H 11.62234 l 0.963,-2.646 h 1.683 l 0.963,2.646 h 1.682 l 0.964,-2.646 h 1.682 l 0.963,2.646 h 1.683 l 0.963,-2.646 h 1.683 l 0.963,2.646 h 1.683 l 0.963,-2.646 h 1.683 l 0.963,2.646 h 1.682 l 0.964,-2.646 h 1.682 l 0.963,2.646 h 1.683 l 0.963,-2.646 h 1.683 l 0.963,2.646 h 1.683 l 0.963,-2.646 h 1.683 l 0.963,2.646"
         style="fill:none;stroke:#00aaaa;stroke-width:1.22216;stroke-opacity:1"
         id="path3650"
         sodipodi:nodetypes="cccccccccccccccccccccccccccccccccccccccc" />
    </g>
    <g
       style="stroke:#00aaaa;stroke-width:4.6192;stroke-opacity:1"
       transform="matrix(0.20113374,0,0,0.23301407,-22.246115,187.96719)"
       inkscape:label="RackGear529.166666656"
       id="g3656">
      <path
         sodipodi:nodetypes="ccccccccccccccccccccccccccccccccccccccccccccccccccccccccccccccccccccccccccccccccccccccccccccccccccccccccccccccccccccccccccccccccccccccccccccccccccccccccccccccccccccccccccccccccccccccccccccccccccccccccccccccccccccccccccccccccccccccccccccccccccccccccccccccccccccccccccccccccccccccccccccccccccccccccccccccccccccccccccccccccc"
         inkscape:connector-curvature="0"
         d="m 112.41029,0.85161197 0.963,2.64599973 h 1.683 l 0.963,-2.64599973 h 1.683 l 0.963,2.64599973 h 1.683 l 0.963,-2.64599973 h 1.683 l 0.963,2.64599973 h 1.682 l 0.964,-2.64599973 h 1.682 l 0.963,2.64599973 h 1.683 l 0.963,-2.64599973 h 1.683 l 0.963,2.64599973 h 1.683 l 0.963,-2.64599973 h 1.683 l 0.963,2.64599973 h 1.682 l 0.964,-2.64599973 h 1.682 l 0.963,2.64599973 h 1.683 l 0.963,-2.64599973 h 1.683 l 0.963,2.64599973 h 1.683 l 0.963,-2.64599973 h 1.683 l 0.963,2.64599973 h 1.682 l 0.964,-2.64599973 h 1.682 l 0.963,2.64599973 h 1.683 l 0.963,-2.64599973 h 1.683 l 0.963,2.64599973 h 1.683 l 0.963,-2.64599973 h 1.683 l 0.963,2.64599973 h 1.682 l 0.964,-2.64599973 h 1.682 l 0.963,2.64599973 h 1.683 l 0.963,-2.64599973 h 1.683 l 0.963,2.64599973 h 1.683 l 0.963,-2.64599973 h 1.683 l 0.963,2.64599973 h 1.682 l 0.964,-2.64599973 h 1.682 l 0.963,2.64599973 h 1.683 l 0.963,-2.64599973 h 1.683 l 0.963,2.64599973 h 1.683 l 0.963,-2.64599973 h 1.683 l 0.963,2.64599973 h 1.682 l 0.964,-2.64599973 h 1.682 l 0.963,2.64599973 h 1.683 l 0.963,-2.64599973 h 1.683 l 0.963,2.64599973 h 1.683 l 0.963,-2.64599973 h 1.683 l 0.963,2.64599973 h 1.682 l 0.964,-2.64599973 h 1.682 l 0.963,2.64599973 h 1.683 l 0.963,-2.64599973 h 1.683 l 0.963,2.64599973 h 1.683 l 0.963,-2.64599973 h 1.683 l 0.963,2.64599973 h 1.682 l 0.964,-2.64599973 h 1.682 l 0.963,2.64599973 h 1.683 l 0.963,-2.64599973 h 1.683 l 0.963,2.64599973 h 1.683 l 0.963,-2.64599973 h 1.683 l 0.963,2.64599973 h 1.682 l 0.964,-2.64599973 h 1.682 l 0.963,2.64599973 h 1.683 l 0.963,-2.64599973 h 1.683 l 0.963,2.64599973 h 1.683 l 0.963,-2.64599973 h 1.683 l 0.963,2.64599973 h 1.682 l 0.964,-2.64599973 h 1.682 l 0.963,2.64599973 h 1.683 l 0.963,-2.64599973 h 1.683 l 0.963,2.64599973 h 1.683 l 0.963,-2.64599973 h 1.683 l 0.963,2.64599973 h 1.682 l 0.964,-2.64599973 h 1.682 l 0.963,2.64599973 h 1.683 l 0.963,-2.64599973 h 1.683 l 0.963,2.64599973 h 1.683 l 0.963,-2.64599973 h 1.683 l 0.963,2.64599973 h 1.682 l 0.964,-2.64599973 h 1.682 l 0.963,2.64599973 h 1.683 l 0.963,-2.64599973 h 1.683 l 0.963,2.64599973 h 1.683 l 0.963,-2.64599973 h 1.683 l 0.963,2.64599973 h 1.682 l 0.964,-2.64599973 h 1.682 l 0.963,2.64599973 h 1.683 l 0.963,-2.64599973 h 1.683 l 0.963,2.64599973 h 1.683 l 0.963,-2.64599973 h 1.683 l 0.963,2.64599973 h 1.682 l 0.964,-2.64599973 h 1.682 l 0.963,2.64599973 h 1.683 l 0.963,-2.64599973 h 1.683 l 0.963,2.64599973 h 1.683 l 0.963,-2.64599973 h 1.683 l 0.963,2.64599973 h 1.682 l 0.964,-2.64599973 h 1.682 l 0.963,2.64599973 h 1.683 l 0.963,-2.64599973 h 1.683 l 0.963,2.64599973 h 1.683 l 0.963,-2.64599973 h 1.683 l 0.963,2.64599973 h 1.682 l 0.964,-2.64599973 h 1.682 l 0.963,2.64599973 h 1.683 l 0.963,-2.64599973 h 1.683 l 0.963,2.64599973 h 1.683 l 0.963,-2.64599973 h 1.683 l 0.963,2.64599973 h 1.682 l 0.964,-2.64599973 h 1.682 l 0.963,2.64599973 h 1.683 l 0.963,-2.64599973 h 1.683 l 0.963,2.64599973 h 1.683 l 0.963,-2.64599973 h 1.683 l 0.963,2.64599973 h 1.682 l 0.964,-2.64599973 h 1.682 l 0.963,2.64599973 h 1.683 l 0.963,-2.64599973 h 1.683 l 0.963,2.64599973 h 1.683 l 0.963,-2.64599973 h 1.683 l 0.963,2.64599973 h 1.682 l 0.964,-2.64599973 h 1.682 l 0.963,2.64599973 h 1.683 l 0.963,-2.64599973 h 1.683 l 0.963,2.64599973 h 1.683 l 0.963,-2.64599973 h 1.683 l 0.963,2.64599973 h 1.682 l 0.964,-2.64599973 h 1.682 l 0.963,2.64599973 h 1.683 l 0.963,-2.64599973 h 1.683 l 0.963,2.64599973 h 1.683 l 0.963,-2.64599973 h 1.683 l 0.963,2.64599973 h 1.682 l 0.964,-2.64599973 h 1.682 l 0.963,2.64599973 h 1.683 l 0.963,-2.64599973 h 1.683 l 0.963,2.64599973 h 1.683 l 0.963,-2.64599973 h 1.683 l 0.963,2.64599973 h 1.682 l 0.964,-2.64599973 h 1.682 l 0.963,2.64599973 h 1.683 l 0.963,-2.64599973 h 1.683 l 0.963,2.64599973 h 1.683 l 0.963,-2.64599973 h 1.683 l 0.963,2.64599973 h 1.682 l 0.964,-2.64599973 h 1.682 l 0.963,2.64599973 h 1.683 l 0.963,-2.64599973 h 1.683 l 0.963,2.64599973 h 1.683 l 0.963,-2.64599973 h 1.683 l 0.963,2.64599973 h 1.682 l 0.964,-2.64599973 h 1.682 l 0.963,2.64599973 h 1.683 l 0.963,-2.64599973 h 1.683 l 0.963,2.64599973 h 1.683 l 0.963,-2.64599973 h 1.683 l 0.963,2.64599973 h 1.682 l 0.964,-2.64599973 h 1.682 l 0.963,2.64599973 h 1.683 l 0.963,-2.64599973 h 1.683 l 0.963,2.64599973 h 1.683 l 0.963,-2.64599973 h 1.683 l 0.963,2.64599973 h 1.682 l 0.964,-2.64599973 h 1.682 l 0.963,2.64599973 h 1.683 l 0.963,-2.64599973 h 1.683 l 0.963,2.64599973 h 1.683 l 0.963,-2.64599973 h 1.683"
         style="fill:none;stroke:#00aaaa;stroke-width:1.22216;stroke-opacity:1"
         id="path3654" />
    </g>
    <rect
       style="opacity:1;fill:none;fill-opacity:1;fill-rule:evenodd;stroke:#00aaaa;stroke-width:0.265;stroke-miterlimit:4;stroke-dasharray:none;stroke-dashoffset:0;stroke-opacity:1"
       id="rect1695"
       width="32.279167"
       height="40.481251"
       x="85.724998"
       y="74.612503" />
  </g>
</svg>
