<?xml version="1.0" encoding="UTF-8" standalone="no"?>
<svg
   xmlns:dc="http://purl.org/dc/elements/1.1/"
   xmlns:cc="http://creativecommons.org/ns#"
   xmlns:rdf="http://www.w3.org/1999/02/22-rdf-syntax-ns#"
   xmlns:svg="http://www.w3.org/2000/svg"
   xmlns="http://www.w3.org/2000/svg"
   xmlns:sodipodi="http://sodipodi.sourceforge.net/DTD/sodipodi-0.dtd"
   xmlns:inkscape="http://www.inkscape.org/namespaces/inkscape"
   width="8cm"
   height="8cm"
   viewBox="0 0 80 80"
   version="1.1"
   id="svg8"
   inkscape:version="1.0.2 (1.0.2+r75+1)"
   sodipodi:docname="board-08.svg">
  <defs
     id="defs2">
    <rect
       x="45.483317"
       y="103.80803"
       width="28.076661"
       height="15.145183"
       id="rect5345" />
  </defs>
  <sodipodi:namedview
     id="base"
     pagecolor="#ffffff"
     bordercolor="#666666"
     borderopacity="1.0"
     inkscape:pageopacity="0.0"
     inkscape:pageshadow="2"
     inkscape:zoom="1"
     inkscape:cx="151.45906"
     inkscape:cy="268.83878"
     inkscape:document-units="cm"
     inkscape:current-layer="layer1"
     inkscape:document-rotation="0"
     showgrid="true"
     units="cm"
     lock-margins="true"
     fit-margin-top="1"
     fit-margin-left="1"
     fit-margin-right="1"
     fit-margin-bottom="1"
     inkscape:snap-object-midpoints="true"
     inkscape:snap-grids="false"
     inkscape:object-nodes="false"
     inkscape:window-width="1853"
     inkscape:window-height="1025"
     inkscape:window-x="67"
     inkscape:window-y="27"
     inkscape:window-maximized="1">
    <inkscape:grid
       type="xygrid"
       id="grid1297"
       empspacing="1"
       units="cm"
       spacingx="9.9999997"
       spacingy="9.9999997" />
  </sodipodi:namedview>
  <metadata
     id="metadata5">
    <rdf:RDF>
      <cc:Work
         rdf:about="">
        <dc:format>image/svg+xml</dc:format>
        <dc:type
           rdf:resource="http://purl.org/dc/dcmitype/StillImage" />
        <dc:title></dc:title>
      </cc:Work>
    </rdf:RDF>
  </metadata>
  <g
     inkscape:label="Layer 1"
     inkscape:groupmode="layer"
     id="layer1">
    <g
       id="g1852"
       sodipodi:insensitive="true">
      <rect
         style="fill:#d28000;fill-opacity:1;fill-rule:evenodd;stroke:none;stroke-width:0.396875"
         id="rect1422"
         width="10"
         height="10"
         x="0"
         y="70" />
      <rect
         style="fill:#ffcb78;fill-opacity:1;fill-rule:evenodd;stroke:none;stroke-width:0.396875"
         id="rect1422-3"
         width="10"
         height="10"
         x="9.999999"
         y="70" />
      <rect
         style="fill:#d28000;fill-opacity:1;fill-rule:evenodd;stroke:none;stroke-width:0.396875"
         id="rect1422-6"
         width="10"
         height="10"
         x="20"
         y="70" />
      <rect
         style="fill:#ffcb78;fill-opacity:1;fill-rule:evenodd;stroke:none;stroke-width:0.396875"
         id="rect1422-3-7"
         width="10"
         height="10"
         x="30"
         y="70" />
      <rect
         style="fill:#d28000;fill-opacity:1;fill-rule:evenodd;stroke:none;stroke-width:0.396875"
         id="rect1422-5"
         width="10"
         height="10"
         x="40"
         y="70" />
      <rect
         style="fill:#ffcb78;fill-opacity:1;fill-rule:evenodd;stroke:none;stroke-width:0.396875"
         id="rect1422-3-3"
         width="10"
         height="10"
         x="49.999996"
         y="70" />
      <rect
         style="fill:#d28000;fill-opacity:1;fill-rule:evenodd;stroke:none;stroke-width:0.396875"
         id="rect1422-6-5"
         width="10"
         height="10"
         x="60"
         y="70" />
      <rect
         style="fill:#ffcb78;fill-opacity:1;fill-rule:evenodd;stroke:none;stroke-width:0.396875"
         id="rect1422-3-7-6"
         width="10"
         height="10"
         x="70"
         y="70" />
      <rect
         style="fill:#ffcb78;fill-opacity:1;fill-rule:evenodd;stroke:none;stroke-width:0.396875"
         id="rect1422-3-2"
         width="10"
         height="10"
         x="-2.807348e-06"
         y="59.999996" />
      <rect
         style="fill:#d28000;fill-opacity:1;fill-rule:evenodd;stroke:none;stroke-width:0.396875"
         id="rect1422-6-9"
         width="10"
         height="10"
         x="9.999999"
         y="59.999996" />
      <rect
         style="fill:#ffcb78;fill-opacity:1;fill-rule:evenodd;stroke:none;stroke-width:0.396875"
         id="rect1422-3-7-1"
         width="10"
         height="10"
         x="20"
         y="59.999996" />
      <rect
         style="fill:#d28000;fill-opacity:1;fill-rule:evenodd;stroke:none;stroke-width:0.396875"
         id="rect1422-5-2"
         width="10"
         height="10"
         x="30"
         y="59.999996" />
      <rect
         style="fill:#ffcb78;fill-opacity:1;fill-rule:evenodd;stroke:none;stroke-width:0.396875"
         id="rect1422-3-3-7"
         width="10"
         height="10"
         x="39.999996"
         y="59.999996" />
      <rect
         style="fill:#d28000;fill-opacity:1;fill-rule:evenodd;stroke:none;stroke-width:0.396875"
         id="rect1422-6-5-0"
         width="10"
         height="10"
         x="50"
         y="59.999996" />
      <rect
         style="fill:#ffcb78;fill-opacity:1;fill-rule:evenodd;stroke:none;stroke-width:0.396875"
         id="rect1422-3-7-6-9"
         width="10"
         height="10"
         x="60"
         y="59.999996" />
      <rect
         style="fill:#d28000;fill-opacity:1;fill-rule:evenodd;stroke:none;stroke-width:0.396875"
         id="rect1422-36"
         width="10"
         height="10"
         x="70"
         y="59.999996" />
      <rect
         style="fill:#d28000;fill-opacity:1;fill-rule:evenodd;stroke:none;stroke-width:0.396875"
         id="rect1422-0"
         width="10"
         height="10"
         x="2.6146968e-06"
         y="50.000008" />
      <rect
         style="fill:#ffcb78;fill-opacity:1;fill-rule:evenodd;stroke:none;stroke-width:0.396875"
         id="rect1422-3-6"
         width="10"
         height="10"
         x="10.000002"
         y="50.000008" />
      <rect
         style="fill:#d28000;fill-opacity:1;fill-rule:evenodd;stroke:none;stroke-width:0.396875"
         id="rect1422-6-2"
         width="10"
         height="10"
         x="20.000002"
         y="50.000008" />
      <rect
         style="fill:#ffcb78;fill-opacity:1;fill-rule:evenodd;stroke:none;stroke-width:0.396875"
         id="rect1422-3-7-61"
         width="10"
         height="10"
         x="30.000002"
         y="50.000008" />
      <rect
         style="fill:#d28000;fill-opacity:1;fill-rule:evenodd;stroke:none;stroke-width:0.396875"
         id="rect1422-5-8"
         width="10"
         height="10"
         x="40.000004"
         y="50.000008" />
      <rect
         style="fill:#ffcb78;fill-opacity:1;fill-rule:evenodd;stroke:none;stroke-width:0.396875"
         id="rect1422-3-3-79"
         width="10"
         height="10"
         x="50"
         y="50.000008" />
      <rect
         style="fill:#d28000;fill-opacity:1;fill-rule:evenodd;stroke:none;stroke-width:0.396875"
         id="rect1422-6-5-2"
         width="10"
         height="10"
         x="60.000004"
         y="50.000008" />
      <rect
         style="fill:#ffcb78;fill-opacity:1;fill-rule:evenodd;stroke:none;stroke-width:0.396875"
         id="rect1422-3-7-6-0"
         width="10"
         height="10"
         x="70"
         y="50.000008" />
      <rect
         style="fill:#ffcb78;fill-opacity:1;fill-rule:evenodd;stroke:none;stroke-width:0.396875"
         id="rect1422-3-2-2"
         width="10"
         height="10"
         x="-2.4632627e-07"
         y="40" />
      <rect
         style="fill:#d28000;fill-opacity:1;fill-rule:evenodd;stroke:none;stroke-width:0.396875"
         id="rect1422-6-9-3"
         width="10"
         height="10"
         x="10.000002"
         y="40" />
      <rect
         style="fill:#ffcb78;fill-opacity:1;fill-rule:evenodd;stroke:none;stroke-width:0.396875"
         id="rect1422-3-7-1-7"
         width="10"
         height="10"
         x="20.000002"
         y="40" />
      <rect
         style="fill:#d28000;fill-opacity:1;fill-rule:evenodd;stroke:none;stroke-width:0.396875"
         id="rect1422-5-2-5"
         width="10"
         height="10"
         x="30.000002"
         y="40" />
      <rect
         style="fill:#ffcb78;fill-opacity:1;fill-rule:evenodd;stroke:none;stroke-width:0.396875"
         id="rect1422-3-3-7-9"
         width="10"
         height="10"
         x="40"
         y="40" />
      <rect
         style="fill:#d28000;fill-opacity:1;fill-rule:evenodd;stroke:none;stroke-width:0.396875"
         id="rect1422-6-5-0-2"
         width="10"
         height="10"
         x="50.000004"
         y="40" />
      <rect
         style="fill:#ffcb78;fill-opacity:1;fill-rule:evenodd;stroke:none;stroke-width:0.396875"
         id="rect1422-3-7-6-9-2"
         width="10"
         height="10"
         x="60.000004"
         y="40" />
      <rect
         style="fill:#d28000;fill-opacity:1;fill-rule:evenodd;stroke:none;stroke-width:0.396875"
         id="rect1422-36-8"
         width="10"
         height="10"
         x="70"
         y="40" />
      <rect
         style="fill:#d28000;fill-opacity:1;fill-rule:evenodd;stroke:none;stroke-width:0.396875"
         id="rect1422-9"
         width="10"
         height="10"
         x="-1.5000001e-06"
         y="29.999992" />
      <rect
         style="fill:#ffcb78;fill-opacity:1;fill-rule:evenodd;stroke:none;stroke-width:0.396875"
         id="rect1422-3-73"
         width="10"
         height="10"
         x="9.9999981"
         y="29.999992" />
      <rect
         style="fill:#d28000;fill-opacity:1;fill-rule:evenodd;stroke:none;stroke-width:0.396875"
         id="rect1422-6-6"
         width="10"
         height="10"
         x="19.999998"
         y="29.999992" />
      <rect
         style="fill:#ffcb78;fill-opacity:1;fill-rule:evenodd;stroke:none;stroke-width:0.396875"
         id="rect1422-3-7-12"
         width="10"
         height="10"
         x="29.999998"
         y="29.999992" />
      <rect
         style="fill:#d28000;fill-opacity:1;fill-rule:evenodd;stroke:none;stroke-width:0.396875"
         id="rect1422-5-9"
         width="10"
         height="10"
         x="40"
         y="29.999992" />
      <rect
         style="fill:#ffcb78;fill-opacity:1;fill-rule:evenodd;stroke:none;stroke-width:0.396875"
         id="rect1422-3-3-3"
         width="10"
         height="10"
         x="49.999996"
         y="29.999992" />
      <rect
         style="fill:#d28000;fill-opacity:1;fill-rule:evenodd;stroke:none;stroke-width:0.396875"
         id="rect1422-6-5-1"
         width="10"
         height="10"
         x="60"
         y="29.999992" />
      <rect
         style="fill:#ffcb78;fill-opacity:1;fill-rule:evenodd;stroke:none;stroke-width:0.396875"
         id="rect1422-3-7-6-94"
         width="10"
         height="10"
         x="70"
         y="29.999992" />
      <rect
         style="fill:#ffcb78;fill-opacity:1;fill-rule:evenodd;stroke:none;stroke-width:0.396875"
         id="rect1422-3-2-7"
         width="10"
         height="10"
         x="-4.361023e-06"
         y="19.999985" />
      <rect
         style="fill:#d28000;fill-opacity:1;fill-rule:evenodd;stroke:none;stroke-width:0.396875"
         id="rect1422-6-9-8"
         width="10"
         height="10"
         x="9.9999981"
         y="19.999985" />
      <rect
         style="fill:#ffcb78;fill-opacity:1;fill-rule:evenodd;stroke:none;stroke-width:0.396875"
         id="rect1422-3-7-1-4"
         width="10"
         height="10"
         x="19.999998"
         y="19.999985" />
      <rect
         style="fill:#d28000;fill-opacity:1;fill-rule:evenodd;stroke:none;stroke-width:0.396875"
         id="rect1422-5-2-50"
         width="10"
         height="10"
         x="29.999998"
         y="19.999985" />
      <rect
         style="fill:#ffcb78;fill-opacity:1;fill-rule:evenodd;stroke:none;stroke-width:0.396875"
         id="rect1422-3-3-7-3"
         width="10"
         height="10"
         x="39.999996"
         y="19.999985" />
      <rect
         style="fill:#d28000;fill-opacity:1;fill-rule:evenodd;stroke:none;stroke-width:0.396875"
         id="rect1422-6-5-0-6"
         width="10"
         height="10"
         x="50"
         y="19.999985" />
      <rect
         style="fill:#ffcb78;fill-opacity:1;fill-rule:evenodd;stroke:none;stroke-width:0.396875"
         id="rect1422-3-7-6-9-1"
         width="10"
         height="10"
         x="60"
         y="19.999985" />
      <rect
         style="fill:#d28000;fill-opacity:1;fill-rule:evenodd;stroke:none;stroke-width:0.396875"
         id="rect1422-36-0"
         width="10"
         height="10"
         x="70"
         y="19.999985" />
      <rect
         style="fill:#d28000;fill-opacity:1;fill-rule:evenodd;stroke:none;stroke-width:0.396875"
         id="rect1422-0-6"
         width="10"
         height="10"
         x="1.3610229e-06"
         y="9.999999" />
      <rect
         style="fill:#ffcb78;fill-opacity:1;fill-rule:evenodd;stroke:none;stroke-width:0.396875"
         id="rect1422-3-6-3"
         width="10"
         height="10"
         x="10.000001"
         y="9.999999" />
      <rect
         style="fill:#d28000;fill-opacity:1;fill-rule:evenodd;stroke:none;stroke-width:0.396875"
         id="rect1422-6-2-2"
         width="10"
         height="10"
         x="20"
         y="9.999999" />
      <rect
         style="fill:#ffcb78;fill-opacity:1;fill-rule:evenodd;stroke:none;stroke-width:0.396875"
         id="rect1422-3-7-61-0"
         width="10"
         height="10"
         x="30"
         y="9.999999" />
      <rect
         style="fill:#d28000;fill-opacity:1;fill-rule:evenodd;stroke:none;stroke-width:0.396875"
         id="rect1422-5-8-6"
         width="10"
         height="10"
         x="40.000004"
         y="9.999999" />
      <rect
         style="fill:#ffcb78;fill-opacity:1;fill-rule:evenodd;stroke:none;stroke-width:0.396875"
         id="rect1422-3-3-79-1"
         width="10"
         height="10"
         x="50"
         y="9.999999" />
      <rect
         style="fill:#d28000;fill-opacity:1;fill-rule:evenodd;stroke:none;stroke-width:0.396875"
         id="rect1422-6-5-2-5"
         width="10"
         height="10"
         x="60.000004"
         y="9.999999" />
      <rect
         style="fill:#ffcb78;fill-opacity:1;fill-rule:evenodd;stroke:none;stroke-width:0.396875"
         id="rect1422-3-7-6-0-5"
         width="10"
         height="10"
         x="70"
         y="9.999999" />
      <rect
         style="fill:#ffcb78;fill-opacity:1;fill-rule:evenodd;stroke:none;stroke-width:0.396875"
         id="rect1422-3-2-2-4"
         width="10"
         height="10"
         x="-1.5000001e-06"
         y="-8.2293946e-06" />
      <rect
         style="fill:#d28000;fill-opacity:1;fill-rule:evenodd;stroke:none;stroke-width:0.396875"
         id="rect1422-6-9-3-7"
         width="10"
         height="10"
         x="10.000001"
         y="-8.2293946e-06" />
      <rect
         style="fill:#ffcb78;fill-opacity:1;fill-rule:evenodd;stroke:none;stroke-width:0.396875"
         id="rect1422-3-7-1-7-6"
         width="10"
         height="10"
         x="20"
         y="-8.2293946e-06" />
      <rect
         style="fill:#d28000;fill-opacity:1;fill-rule:evenodd;stroke:none;stroke-width:0.396875"
         id="rect1422-5-2-5-5"
         width="10"
         height="10"
         x="30"
         y="-8.2293946e-06" />
      <rect
         style="fill:#ffcb78;fill-opacity:1;fill-rule:evenodd;stroke:none;stroke-width:0.396875"
         id="rect1422-3-3-7-9-6"
         width="10"
         height="10"
         x="40"
         y="-8.2293946e-06" />
      <rect
         style="fill:#d28000;fill-opacity:1;fill-rule:evenodd;stroke:none;stroke-width:0.396875"
         id="rect1422-6-5-0-2-9"
         width="10"
         height="10"
         x="50.000004"
         y="-8.2293946e-06" />
      <rect
         style="fill:#ffcb78;fill-opacity:1;fill-rule:evenodd;stroke:none;stroke-width:0.396875"
         id="rect1422-3-7-6-9-2-3"
         width="10"
         height="10"
         x="60.000004"
         y="-8.2293946e-06" />
      <rect
         style="fill:#d28000;fill-opacity:1;fill-rule:evenodd;stroke:none;stroke-width:0.396875"
         id="rect1422-36-8-7"
         width="10"
         height="10"
         x="70"
         y="-8.2293946e-06" />
    </g>
    <g
       aria-label="F"
       id="text1856"
       style="font-size:10.7926px;line-height:1.25;font-family:sans-serif;-inkscape-font-specification:'sans-serif, Normal';letter-spacing:0px;word-spacing:0px;fill:#ffffff;stroke:#000000;stroke-width:0.264582"
       transform="translate(-10.00143,-40.208196)">
      <path
         d="m 42.263757,81.274272 h 5.475347 v 1.533519 H 44.29264 v 1.465011 h 3.240941 V 85.80632 H 44.29264 v 3.335799 h -2.028883 z"
         style="font-weight:bold;fill:#ffffff;stroke:#000000;stroke-width:0.264582"
         id="path1858" />
    </g>
    <g
       aria-label="♚"
       id="text1950"
       style="font-size:11.2889px;line-height:1.25;font-family:sans-serif;-inkscape-font-specification:'sans-serif, Normal';letter-spacing:0px;word-spacing:0px;stroke-width:0.264583"
       transform="translate(54.597267,-81.765952)">
      <path
         d="m 20.016882,85.558781 q 0.0055,-0.01654 0.01654,-0.03307 -0.192925,-0.237023 -0.474046,-0.391363 -0.407899,-0.225999 -0.837848,-0.225999 -0.429948,0 -0.837848,0.225999 -0.402387,0.220486 -0.633898,0.633898 -0.231511,0.4079 -0.231511,0.848872 0,0.446485 0.225999,0.848873 0.225998,0.402387 0.633898,0.622874 0.121268,0.07717 0.248047,0.121267 h 1.890671 z m 0.777214,2.651348 h 1.885158 q 0.132292,-0.0441 0.253559,-0.121267 0.4079,-0.220487 0.628386,-0.622874 0.225999,-0.402388 0.225999,-0.848873 0,-0.440972 -0.231511,-0.848872 -0.225998,-0.413412 -0.633898,-0.633898 -0.402388,-0.225999 -0.837848,-0.225999 -0.424436,0 -0.832336,0.225999 -0.286632,0.15434 -0.474046,0.391363 0.01103,0.01654 0.01654,0.03307 z m -2.474959,0.567752 v 1.670184 h 4.172704 v -1.670184 z m -0.451997,2.111157 v -2.111157 q -0.231511,-0.07166 -0.440973,-0.192925 -0.380339,-0.297657 -0.677995,-0.837848 -0.297657,-0.540192 -0.297657,-1.129993 0,-0.595313 0.303169,-1.135504 0.303169,-0.545704 0.848872,-0.837848 0.545704,-0.292145 1.118968,-0.292145 0.440973,0 0.859897,0.170877 v -0.01102 q 0,-0.198438 0.09922,-0.369315 0.09922,-0.176389 0.275608,-0.275608 0.07166,-0.03858 0.159852,-0.06063 V 83.508258 H 19.520787 V 83.122407 H 20.1161 v -0.479558 h 0.578777 v 0.479558 h 0.595313 v 0.385851 h -0.595313 v 0.297657 q 0.08819,0.02205 0.159853,0.06063 0.170877,0.09922 0.270095,0.275608 0.104731,0.170877 0.104731,0.369315 v 0.01102 q 0.418924,-0.170877 0.854385,-0.170877 0.573264,0 1.118968,0.292145 0.545704,0.292144 0.848873,0.837848 0.303168,0.540191 0.303168,1.135504 0,0.589801 -0.297656,1.129993 -0.297657,0.540191 -0.672484,0.837848 -0.214974,0.121267 -0.440972,0.192925 v 2.111157 z m 2.022962,-6.33347 q 0,0.137804 0.06615,0.259072 0.07166,0.115755 0.192925,0.187413 0.12678,0.06615 0.25356,0.06615 0.132291,0 0.253559,-0.06615 0.12678,-0.07166 0.192925,-0.187413 0.06615,-0.121268 0.06615,-0.259072 0,-0.132292 -0.06615,-0.253559 -0.06614,-0.12678 -0.192925,-0.187414 -0.121268,-0.06614 -0.253559,-0.06614 -0.12678,0 -0.25356,0.06614 -0.121267,0.06063 -0.192925,0.187414 -0.06615,0.121267 -0.06615,0.253559 z m 2.315106,4.508946 v 1.102431 H 18.605769 V 89.064514 Z M 19.741274,87.929009 H 18.197869 Q 18.09865,87.890424 18.004944,87.824278 17.668702,87.642377 17.486801,87.311647 17.3049,86.975406 17.3049,86.606091 q 0,-0.363802 0.187413,-0.700044 0.187413,-0.341754 0.512631,-0.523655 0.330729,-0.187414 0.683507,-0.187414 0.341754,0 0.677996,0.181902 0.225998,0.126779 0.385851,0.325217 -0.01102,0.01654 -0.01102,0.02756 z m 1.32843,-2.199351 q 0,-0.01102 -0.01102,-0.02756 0.159852,-0.198438 0.385851,-0.325217 0.336241,-0.181902 0.672483,-0.181902 0.35829,0 0.683508,0.187414 0.330729,0.181901 0.518142,0.523655 0.187414,0.336242 0.187414,0.700044 0,0.369315 -0.181901,0.705556 -0.181902,0.33073 -0.518143,0.512631 -0.09922,0.06615 -0.198438,0.104731 h -1.537892 z"
         style="font-size:11.2889px;stroke-width:0.264583"
         id="path1952" />
    </g>
    <text
       xml:space="preserve"
       style="font-size:4.9389px;line-height:1.25;font-family:sans-serif;-inkscape-font-specification:'sans-serif, Normal';letter-spacing:0px;word-spacing:0px;stroke-width:0.264583"
       x="10.512391"
       y="97.302765"
       id="text1957"><tspan
         sodipodi:role="line"
         id="tspan1955"
         x="10.512391"
         y="97.302765"
         style="stroke-width:0.264583" /></text>
    <g
       aria-label="♚"
       id="g1968"
       style="font-size:11.2889px;line-height:1.25;font-family:sans-serif;-inkscape-font-specification:'sans-serif, Normal';letter-spacing:0px;word-spacing:0px;fill:#ffffff;stroke:#000000;stroke-width:0.264583"
       transform="translate(4.5972699,8.234078)">
      <path
         d="m 20.016881,45.558767 q 0.0055,-0.01654 0.01654,-0.03307 -0.192924,-0.237023 -0.474046,-0.391363 -0.407899,-0.225999 -0.837848,-0.225999 -0.429948,0 -0.837848,0.225999 -0.402387,0.220486 -0.633898,0.633898 -0.231511,0.4079 -0.231511,0.848872 0,0.446485 0.225999,0.848873 0.225998,0.402387 0.633898,0.622874 0.121268,0.07717 0.248047,0.121267 h 1.890671 z m 0.777215,2.651348 h 1.885158 q 0.132292,-0.0441 0.253559,-0.121267 0.4079,-0.220487 0.628385,-0.622874 0.226,-0.402388 0.226,-0.848873 0,-0.440972 -0.231512,-0.848872 -0.225998,-0.413412 -0.633897,-0.633898 -0.402388,-0.225999 -0.837848,-0.225999 -0.424436,0 -0.832337,0.225999 -0.286632,0.15434 -0.474046,0.391363 0.01103,0.01654 0.01654,0.03307 z m -2.47496,0.567752 v 1.670184 h 4.172704 v -1.670184 z m -0.451996,2.111157 v -2.111157 q -0.231512,-0.07166 -0.440973,-0.192925 -0.380339,-0.297657 -0.677995,-0.837848 -0.297657,-0.540192 -0.297657,-1.129993 0,-0.595313 0.303169,-1.135504 0.303169,-0.545704 0.848872,-0.837848 0.545704,-0.292145 1.118967,-0.292145 0.440973,0 0.859897,0.170877 v -0.01102 q 0,-0.198438 0.09922,-0.369315 0.09922,-0.176389 0.275608,-0.275608 0.07166,-0.03858 0.159852,-0.06063 V 43.508244 H 19.520786 V 43.122393 H 20.1161 v -0.479558 h 0.578776 v 0.479558 h 0.595314 v 0.385851 h -0.595314 v 0.297657 q 0.08819,0.02205 0.159853,0.06063 0.170877,0.09922 0.270095,0.275608 0.104731,0.170877 0.104731,0.369315 v 0.01102 q 0.418925,-0.170877 0.854386,-0.170877 0.573263,0 1.118967,0.292145 0.545704,0.292144 0.848874,0.837848 0.303167,0.540191 0.303167,1.135504 0,0.589801 -0.297656,1.129993 -0.297657,0.540191 -0.672484,0.837848 -0.214974,0.121267 -0.440971,0.192925 v 2.111157 z m 2.022961,-6.33347 q 0,0.137804 0.06615,0.259072 0.07166,0.115755 0.192924,0.187413 0.12678,0.06615 0.25356,0.06615 0.132291,0 0.253559,-0.06615 0.12678,-0.07166 0.192925,-0.187413 0.06615,-0.121268 0.06615,-0.259072 0,-0.132292 -0.06615,-0.253559 -0.06614,-0.12678 -0.192925,-0.187414 -0.121268,-0.06614 -0.253559,-0.06614 -0.12678,0 -0.25356,0.06614 -0.121267,0.06063 -0.192924,0.187414 -0.06615,0.121267 -0.06615,0.253559 z m 2.315106,4.508946 v 1.102431 H 18.605768 V 49.0645 Z m -2.463933,-1.135505 h -1.543405 q -0.09922,-0.03858 -0.192926,-0.104731 -0.336241,-0.181901 -0.518142,-0.512631 -0.181901,-0.336241 -0.181901,-0.705556 0,-0.363802 0.187413,-0.700044 0.187412,-0.341754 0.51263,-0.523655 0.33073,-0.187414 0.683507,-0.187414 0.341754,0 0.677996,0.181902 0.225998,0.126779 0.385851,0.325217 -0.01102,0.01654 -0.01102,0.02756 z m 1.32843,-2.199351 q 0,-0.01102 -0.01102,-0.02756 0.159852,-0.198438 0.385851,-0.325217 0.336241,-0.181902 0.672483,-0.181902 0.35829,0 0.683508,0.187414 0.330729,0.181901 0.518142,0.523655 0.187414,0.336242 0.187414,0.700044 0,0.369315 -0.181901,0.705556 -0.181902,0.33073 -0.518143,0.512631 -0.09922,0.06615 -0.198438,0.104731 h -1.537892 z"
         style="font-size:11.2889px;fill:#ffffff;stroke:#000000;stroke-width:0.264583"
         id="path1966" />
    </g>
    <text
       xml:space="preserve"
       style="font-size:11.2889px;line-height:1.25;font-family:sans-serif;-inkscape-font-specification:'sans-serif, Normal';letter-spacing:0px;word-spacing:0px;stroke-width:0.264583"
       x="75"
       y="45"
       id="text5110"><tspan
         sodipodi:role="line"
         id="tspan5108"
         x="75"
         y="45"
         style="stroke-width:0.264583"></tspan></text>
    <text
       xml:space="preserve"
       id="text5343"
       style="font-family:sans-serif;font-size:11.28888858px;line-height:1.25;letter-spacing:0px;word-spacing:0px;-inkscape-font-specification:'sans-serif, Normal';white-space:pre;shape-inside:url(#rect5345);" />
    <g
       aria-label="♟"
       id="text6001"
       style="font-size:11.2889px;line-height:1.25;font-family:sans-serif;-inkscape-font-specification:'sans-serif, Normal';letter-spacing:0px;word-spacing:0px;fill:#ffffff;stroke:#000000;stroke-width:0.264583"
       transform="translate(-24.058951,-93.01515)">
      <path
         d="m 75.737871,122.13823 q -0.06063,-0.3142 -0.06063,-0.6339 0,-0.88195 0.451997,-1.68672 0.457509,-0.81029 1.262285,-1.24024 0.209462,-0.11575 0.429948,-0.19844 -0.165365,-0.15985 -0.28112,-0.36931 -0.231511,-0.41341 -0.231511,-0.86541 0,-0.45751 0.231511,-0.87092 0.237023,-0.41893 0.661459,-0.65044 0.148828,-0.0772 0.308681,-0.13229 -0.143316,-0.10473 -0.225999,-0.26458 -0.126779,-0.21498 -0.126779,-0.44649 0,-0.23151 0.121267,-0.44097 0.121268,-0.21497 0.336242,-0.33073 0.214974,-0.11575 0.440972,-0.11575 0.220487,0 0.435461,0.11575 0.214974,0.11576 0.336242,0.33073 0.126779,0.20946 0.126779,0.44097 0,0.23151 -0.115755,0.44649 -0.09371,0.15985 -0.231511,0.27009 0.148828,0.0496 0.314193,0.12678 0.413412,0.23151 0.650435,0.65044 0.237023,0.41341 0.237023,0.87092 0,0.452 -0.225999,0.86541 -0.121267,0.20946 -0.286632,0.36931 0.209462,0.0882 0.418924,0.19844 0.810287,0.42995 1.267796,1.24024 0.45751,0.80477 0.45751,1.68672 0,0.3197 -0.06615,0.6339 z"
         style="fill:#ffffff;stroke:#000000;stroke-width:0.264583"
         id="path6003" />
    </g>
    <g
       aria-label="♜"
       id="text6041"
       style="font-size:11.2889px;line-height:1.25;font-family:sans-serif;-inkscape-font-specification:'sans-serif, Normal';letter-spacing:0px;word-spacing:0px;stroke-width:0.264583"
       transform="translate(-33.396988,-44.894629)">
      <path
         d="m 100.16364,47.634636 v -0.518143 h -3.527785 v 0.518143 z m 0.4079,5.385379 v -0.61185 h -4.343585 v 0.61185 z m -2.954521,-7.248489 h 1.526868 v 0.854385 h 0.942583 v -0.854385 h 1.48828 v 0.89297 h -0.6339 v 0.793751 l -0.50712,0.826824 v 3.224612 l 0.50712,0.821312 v 0.788238 h 0.6339 v 0.898482 h -6.35552 v -0.898482 h 0.633899 v -0.788238 l 0.51263,-0.837848 h 0.0055 v -3.202564 h -0.0055 l -0.51263,-0.832336 V 46.664496 H 95.21923 v -0.89297 h 1.460722 v 0.854385 h 0.937067 z m 3.654561,7.937508 v -0.303168 h -5.743669 v 0.303168 z"
         style="stroke-width:0.264583"
         id="path6043" />
    </g>
    <g
       aria-label="♝"
       id="text6048"
       style="font-size:11.2889px;line-height:1.25;font-family:sans-serif;-inkscape-font-specification:'sans-serif, Normal';letter-spacing:0px;word-spacing:0px;stroke-width:0.264583"
       transform="translate(-10.789829,-58.099531)">
      <path
         d="m 84.499984,74.389376 q 0,-0.330729 0.176389,-0.622874 0.0441,-0.09371 0.104731,-0.170876 -0.330729,-0.209463 -0.529167,-0.556728 -0.225999,-0.396876 -0.231511,-0.837849 v -0.02205 q 0.0055,-0.440973 0.231511,-0.84336 0.237023,-0.413412 0.666971,-0.644923 0.15434,-0.07717 0.319705,-0.132292 -0.143316,-0.09922 -0.237023,-0.259071 -0.121267,-0.214974 -0.121267,-0.440973 0,-0.237023 0.121267,-0.440973 0.12678,-0.209462 0.341754,-0.325217 0.214974,-0.115755 0.446485,-0.115755 0.225999,0 0.440973,0.115755 0.214974,0.115755 0.336241,0.325217 0.12678,0.20395 0.12678,0.440973 0,0.225999 -0.115755,0.440973 -0.08819,0.159852 -0.231511,0.264583 0.15434,0.04961 0.314193,0.12678 0.424436,0.231511 0.666971,0.644923 0.231511,0.402387 0.237023,0.84336 v 0.02205 q -0.0055,0.440973 -0.237023,0.837849 -0.20395,0.341753 -0.523655,0.551215 0.06063,0.08268 0.104731,0.176389 0.170877,0.292145 0.170877,0.622874 0,0.319706 -0.176389,0.617362 l 1.53238,2.215888 h -5.291672 l 1.493795,-2.226912 q -0.137804,-0.292145 -0.137804,-0.606338 z m 1.615062,-1.234723 v -0.683508 h 0.948092 v -0.595313 h -0.948092 v -0.683508 h -0.650434 v 0.683508 H 84.51652 v 0.595313 h 0.948092 v 0.683508 z"
         style="stroke-width:0.264583"
         id="path6050" />
    </g>
    <g
       aria-label="♜"
       id="g6055"
       style="font-size:11.2889px;line-height:1.25;font-family:sans-serif;-inkscape-font-specification:'sans-serif, Normal';letter-spacing:0px;word-spacing:0px;stroke-width:0.264583"
       transform="translate(-83.39699,-44.894629)">
      <path
         d="m 100.16364,47.634636 v -0.518143 h -3.527785 v 0.518143 z m 0.4079,5.385379 v -0.61185 h -4.343585 v 0.61185 z m -2.954521,-7.248489 h 1.526868 v 0.854385 h 0.942583 v -0.854385 h 1.48828 v 0.89297 h -0.6339 v 0.793751 l -0.50712,0.826824 v 3.224612 l 0.50712,0.821312 v 0.788238 h 0.6339 v 0.898482 h -6.35552 v -0.898482 h 0.633899 v -0.788238 l 0.51263,-0.837848 h 0.0055 v -3.202564 h -0.0055 l -0.51263,-0.832336 V 46.664496 H 95.21923 v -0.89297 h 1.460722 v 0.854385 h 0.937067 z m 3.654561,7.937508 v -0.303168 h -5.743669 v 0.303168 z"
         style="stroke-width:0.264583"
         id="path6053" />
    </g>
  </g>
</svg>
