<?xml version="1.0" encoding="UTF-8" standalone="no"?>
<!-- Created with Inkscape (http://www.inkscape.org/) -->

<svg
   width="88.42981mm"
   height="91.288841mm"
   viewBox="0 0 88.42981 91.288841"
   version="1.1"
   id="svg1"
   inkscape:version="1.3.2 (1:1.3.2+202311252150+091e20ef0f)"
   sodipodi:docname="state-cutters.svg"
   xmlns:inkscape="http://www.inkscape.org/namespaces/inkscape"
   xmlns:sodipodi="http://sodipodi.sourceforge.net/DTD/sodipodi-0.dtd"
   xmlns="http://www.w3.org/2000/svg"
   xmlns:svg="http://www.w3.org/2000/svg">
  <sodipodi:namedview
     id="namedview1"
     pagecolor="#ffffff"
     bordercolor="#666666"
     borderopacity="1.0"
     inkscape:showpageshadow="2"
     inkscape:pageopacity="0.0"
     inkscape:pagecheckerboard="0"
     inkscape:deskcolor="#d1d1d1"
     inkscape:document-units="mm"
     inkscape:zoom="1"
     inkscape:cx="1975"
     inkscape:cy="1047"
     inkscape:window-width="1848"
     inkscape:window-height="1016"
     inkscape:window-x="72"
     inkscape:window-y="27"
     inkscape:window-maximized="1"
     inkscape:current-layer="layer1"
     showgrid="false" />
  <defs
     id="defs1">
    <marker
       style="overflow:visible"
       id="Triangle"
       refX="2"
       refY="0"
       orient="auto-start-reverse"
       inkscape:stockid="Triangle arrow"
       markerWidth="1"
       markerHeight="1"
       viewBox="0 0 1 1"
       inkscape:isstock="true"
       inkscape:collect="always"
       preserveAspectRatio="xMidYMid">
      <path
         transform="scale(0.5)"
         style="fill:context-stroke;fill-rule:evenodd;stroke:context-stroke;stroke-width:1pt"
         d="M 5.77,0 -2.88,5 V -5 Z"
         id="path135" />
    </marker>
  </defs>
  <g
     inkscape:label="Layer 1"
     inkscape:groupmode="layer"
     id="layer1"
     transform="translate(-507.23777,-228.05723)">
    <path
       style="fill:none;stroke:#00aaaa;stroke-width:0.264583;stroke-dasharray:none;stroke-opacity:1"
       part="scaffold_out"
       us_state="ga"
       class="UnoptimicedTransforms"
       d="m 554.04383,228.19156 a 9.75,9.75 0 0 1 1.14062,0.0918 l 15.43359,2.16406 16.38868,2.07617 a 9.75,9.75 0 0 1 8.16015,12.31445 l -9.30469,33.0332 a 9.75,9.75 0 0 1 -0.58007,1.54492 l -2.0918,4.39844 a 9.75,9.75 0 0 1 -0.51758,0.75391 9.75,9.75 0 0 1 -0.0312,0.24414 9.75,9.75 0 0 1 0.38086,1.95898 l 0.17383,2.14063 0.25976,1.34765 a 9.75,9.75 0 0 1 -0.58789,5.62891 l -0.77734,1.84766 0.19922,2.10156 a 9.75,9.75 0 0 1 -0.52149,4.19141 l -0.35937,1.00976 a 9.75,9.75 0 0 1 -1.7207,2.91211 9.75,9.75 0 0 1 -0.50782,1.18359 l -2.3789,4.32813 a 9.75,9.75 0 0 1 -9.18555,5.03125 l -30.00195,-1.97656 a 9.75,9.75 0 0 1 -9.32031,2.3457 l -1.51368,-0.43164 a 9.75,9.75 0 0 1 -6.47265,-6.24805 9.75,9.75 0 0 1 -8.15821,-10.94922 l 0.41407,-3.01367 -0.68946,-1.85937 a 9.75,9.75 0 0 1 -0.56054,-2.42383 l -0.19727,-1.97266 a 9.75,9.75 0 0 1 -0.83398,-3.24609 l -1.23438,-1.82227 a 9.75,9.75 0 0 1 -1.67773,-5.46679 v -1.00977 a 9.75,9.75 0 0 1 5.80273,-8.91601 l 0.50586,-0.22461 0.85352,-1.63672 a 9.75,9.75 0 0 1 2.96679,-3.28907 9.75,9.75 0 0 1 0.11914,-0.2832 l 2.59571,-4.83203 a 9.75,9.75 0 0 1 4.51758,-4.24609 l 1.125,-0.51758 a 9.75,9.75 0 0 1 1.60737,-2.20508 l 1.94726,-1.94727 a 9.75,9.75 0 0 1 2.47852,-1.73632 9.75,9.75 0 0 1 2.2168,-2.35743 l 1.58789,-1.15429 a 9.75,9.75 0 0 1 2.36523,-1.22852 l 0.50977,-0.61914 a 9.75,9.75 0 0 1 1.35351,-2.51562 l 2.23633,-2.88477 a 9.75,9.75 0 0 1 1.9375,-1.85937 9.75,9.75 0 0 1 9.94727,-9.77539 z"
       id="path49209" />
    <path
       style="fill:none;stroke:#00aaaa;stroke-width:0.264583;stroke-dasharray:none;stroke-opacity:1"
       part="scaffold_in"
       us_state="ga"
       class="UnoptimicedTransforms"
       d="m 554.09656,238.23062 0.0488,0.92578 1.24609,0.6543 c 0.0497,0.0267 0.0889,0.0693 0.11133,0.12109 l 1.00977,2.30859 c 0.0196,0.0434 0.0264,0.0915 0.0195,0.13867 l -0.14453,0.9375 c -0.0113,0.072 -0.0533,0.13544 -0.11524,0.17383 l -4.40039,2.74024 c -0.0485,0.0298 -0.10565,0.0422 -0.16211,0.0352 l -1.73437,-0.20117 -2.11524,2.72851 -0.27539,1.17578 c -0.009,0.0373 -0.0263,0.072 -0.0508,0.10156 l -3.0293,3.67774 c -0.0162,0.0197 -0.0353,0.0368 -0.0566,0.0508 l -1.875,1.22656 c -0.0306,0.0203 -0.0652,0.0337 -0.10156,0.0391 l -0.94727,0.13477 -1.49218,1.08398 -0.76368,1.5293 c -0.0158,0.0325 -0.0385,0.0611 -0.0664,0.084 l -1.44336,1.15429 c -0.0266,0.0209 -0.0572,0.0362 -0.0898,0.0449 l -1.22852,0.34179 -1.83789,1.83789 -0.0664,0.91602 c -0.004,0.0569 -0.0275,0.11062 -0.0664,0.15234 l -1.875,2.01953 c -0.0227,0.024 -0.0499,0.0432 -0.0801,0.0566 l -3.5293,1.62109 -2.53515,4.72071 -0.21094,1.89648 c -0.009,0.0817 -0.0568,0.15401 -0.12891,0.19336 l -2.74414,1.47852 -1.75586,3.36914 -0.57031,2.20703 c -0.0267,0.10169 -0.11408,0.17584 -0.21875,0.18555 l -2.98633,0.28515 -0.46484,0.20508 v 0.76953 l 2.92773,4.32227 0.75781,0.12695 c 0.25354,0.0456 0.28069,0.39854 0.0371,0.48242 l -0.91015,0.30274 v 1.17382 l 0.59375,0.72461 c 0.0308,0.038 0.0498,0.0842 0.0547,0.13282 l 0.42774,4.29296 1.64844,4.44336 c 0.0176,0.0476 0.0203,0.0993 0.008,0.14844 l -0.35547,1.42383 -0.46875,3.4082 2.30664,0.19336 2.81055,-0.49219 1.1914,-0.63085 c 0.0796,-0.0424 0.17588,-0.0387 0.25196,0.01 l 1.58593,1.00977 c 0.0719,0.046 0.11537,0.12556 0.11524,0.21093 v 1.80274 c 2.9e-4,0.0493 -0.014,0.0975 -0.041,0.13867 l -0.95898,1.44141 0.33008,2.84179 1.20312,0.34375 0.57031,-0.625 0.41993,-2.24023 c 0.0234,-0.12409 0.13569,-0.21124 0.26172,-0.20313 l 35.97656,2.3711 2.29101,-4.16602 0.49784,-1.56468 c 0.0118,-0.0382 0.0325,-0.073 0.0605,-0.10156 l 1.04297,-1.04297 0.32226,-0.90625 -0.42573,-4.48438 c -0.004,-0.0412 0.002,-0.0828 0.0176,-0.12109 l 1.70117,-4.04102 -0.34766,-1.80078 c -0.002,-0.009 -0.003,-0.0182 -0.004,-0.0273 l -0.21289,-2.61328 -1.55664,-2.69141 c -0.0296,-0.0514 -0.04,-0.1116 -0.0293,-0.16992 l 0.14453,-0.79297 c 0.0132,-0.0712 0.0567,-0.13322 0.11914,-0.16992 l 1.10352,-0.64844 v -2.16601 c -3e-5,-0.0639 0.0244,-0.12543 0.0684,-0.17188 l 1.26757,-1.33984 2.07032,-4.35157 9.21875,-32.72851 -16.23438,-2.05469 z"
       id="path49211" />
    <path
       style="fill:none;stroke:#aa00aa;stroke-width:0.529167;stroke-linecap:butt;stroke-linejoin:miter;stroke-dasharray:none;stroke-opacity:1"
       d="m 530.61901,250.86591 -11.7817,12.25527"
       id="path3614"
       part="handle_line_r"
       us_state="ga" />
    <path
       style="fill:#cccc00;fill-opacity:1;fill-rule:evenodd;stroke-width:0.00026458;stroke-dasharray:none"
       part="engrave_out"
       id="path2954"
       us_state="ga"
       class="UnoptimicedTransforms"
       d="m 553.70748,236.56982 c 0.10246,-0.009 0.20742,-0.007 0.31445,0.008 l 15.41406,2.16211 0.0195,0.002 16.49804,2.08985 c 0.83416,0.10477 1.37983,0.92697 1.15235,1.73632 l -9.30469,33.03321 c -0.0212,0.0744 -0.0486,0.14697 -0.082,0.21679 l -2.0918,4.39845 c -0.0622,0.13059 -0.14457,0.25055 -0.24414,0.35547 l -0.91992,0.97264 v 1.76173 c 1.6e-4,0.48737 -0.25768,0.9384 -0.67774,1.18554 l -0.5,0.29298 1.20703,2.08592 c 0.10279,0.17682 0.16485,0.37432 0.18165,0.57814 l 0.21093,2.60546 0.34571,1.79102 c 0.0516,0.26663 0.023,0.54255 -0.082,0.79296 l -1.5957,3.79298 0.39844,4.19727 c 0.0189,0.20032 -0.006,0.40233 -0.0742,0.59179 l -0.35937,1.00977 c -0.0681,0.19237 -0.17821,0.36717 -0.32227,0.51172 l -0.8457,0.8457 -0.4043,1.26758 c -0.0272,0.0846 -0.0625,0.16636 -0.10547,0.24413 l -2.37891,4.32812 c -0.25741,0.46767 -0.76225,0.74406 -1.29492,0.709 l -34.91797,-2.30078 -0.20898,1.11132 c -0.0472,0.2499 -0.16284,0.4818 -0.33398,0.66993 l -0.72071,0.79297 c -0.35131,0.3871 -0.89174,0.54151 -1.39453,0.39842 l -1.51367,-0.43163 c -0.53441,-0.15263 -0.92439,-0.61197 -0.98828,-1.16406 l -0.36133,-3.10156 c -0.0376,-0.32311 0.0406,-0.64905 0.2207,-0.91992 l 0.7793,-1.16994 v -0.6328 l -0.27539,-0.17384 -0.51953,0.27345 c -0.12672,0.067 -0.26313,0.1138 -0.4043,0.13866 l -2.88476,0.50587 c -0.11659,0.0211 -0.23542,0.027 -0.35352,0.0176 l -2.59766,-0.2168 c -0.78526,-0.0664 -1.35412,-0.77796 -1.24609,-1.55859 l 0.50586,-3.67774 c 0.007,-0.0486 0.0157,-0.0969 0.0273,-0.14453 l 0.25586,-1.03125 -1.50976,-4.07226 c -0.0412,-0.11003 -0.0681,-0.2249 -0.0801,-0.3418 l -0.39063,-3.91797 -0.38476,-0.46875 c -0.20169,-0.24553 -0.31212,-0.55334 -0.3125,-0.87109 v -1.44336 c 0.002,-0.11283 0.0176,-0.225 0.0469,-0.33398 l -2.62304,-3.8711 c -0.15416,-0.22774 -0.23648,-0.49647 -0.23633,-0.77148 v -1.00977 c -2.1e-4,-0.54429 0.32066,-1.03746 0.81836,-1.25781 l 0.64843,-0.28711 c 0.13503,-0.0597 0.2788,-0.0973 0.42579,-0.11133 l 2.07031,-0.19726 0.33594,-1.30274 c 0.0266,-0.10099 0.0646,-0.19862 0.11328,-0.29101 l 1.80273,-3.46094 c 0.12684,-0.24445 0.32417,-0.44517 0.56641,-0.57617 l 2.17773,-1.17383 0.13672,-1.23046 c 0.0198,-0.17447 0.0728,-0.34354 0.15625,-0.49806 l 2.5957,-4.83203 c 0.14133,-0.26384 0.36488,-0.47436 0.63672,-0.5996 l 3.35938,-1.54493 1.36133,-1.46484 0.0371,-0.52539 c 0.0232,-0.33011 0.16465,-0.64078 0.39843,-0.875 l 1.94727,-1.94727 c 0.16756,-0.16717 0.37544,-0.28827 0.60351,-0.35156 l 1.02344,-0.28515 0.99024,-0.79102 0.6582,-1.31641 c 0.0989,-0.19676 0.24355,-0.36689 0.42187,-0.49609 l 1.58789,-1.1543 c 0.18101,-0.13205 0.39154,-0.21787 0.61329,-0.25 l 0.71093,-0.10156 1.43946,-0.94336 2.69531,-3.26953 0.21289,-0.91211 c 0.045,-0.19249 0.1309,-0.37302 0.25195,-0.5293 l 2.23633,-2.88476 c 0.29465,-0.38003 0.76643,-0.57852 1.24414,-0.52344 l 1.39649,0.16211 3.41992,-2.13086 -0.63086,-1.44336 -0.94531,-0.49609 c -0.42877,-0.2258 -0.70702,-0.66062 -0.73243,-1.14453 l -0.0723,-1.3711 c -0.0396,-0.75553 0.53279,-1.37805 1.25,-1.4414 z m 0.52148,1.80274 14.98242,2.10156 16.0918,2.03711 -9.18164,32.5918 -2.04883,4.30859 -1.25586,1.32812 c -0.0662,0.0695 -0.10329,0.16182 -0.10351,0.25782 v 2.09375 l -1.04102,0.61132 c -0.0948,0.0555 -0.16039,0.14972 -0.17969,0.25782 l -0.14453,0.79297 c -0.0155,0.0873 4.3e-4,0.1772 0.0449,0.2539 l 1.54296,2.66797 0.21094,2.58594 c 0.001,0.0131 0.002,0.0262 0.004,0.0391 l 0.33984,1.76563 -1.68555,4.00585 c -0.0233,0.0567 -0.0333,0.11849 -0.0273,0.17969 l 0.42383,4.45899 -0.30274,0.85156 -1.02343,1.02344 c -0.0424,0.0427 -0.0739,0.0949 -0.0918,0.15234 l -0.49609,1.55469 -2.24414,4.08203 -35.89649,-2.36524 c -0.19037,-0.013 -0.36023,0.11895 -0.39453,0.30665 l -0.41406,2.20507 -0.49024,0.53907 -1.05078,-0.29883 -0.3164,-2.7168 0.93359,-1.40039 c 0.0407,-0.0614 0.0625,-0.13333 0.0625,-0.20703 v -1.80274 c -2e-5,-0.12824 -0.0656,-0.2476 -0.17383,-0.3164 l -1.58594,-1.00977 c -0.11369,-0.0726 -0.25764,-0.0786 -0.37695,-0.0156 l -1.17773,0.62304 -2.77539,0.48633 -2.1543,-0.17968 0.44922,-3.26954 0.35351,-1.42187 c 0.0184,-0.0731 0.0143,-0.15 -0.0117,-0.2207 l -1.64257,-4.42578 -0.42578,-4.2793 c -0.007,-0.0739 -0.0367,-0.14387 -0.084,-0.20117 l -0.56445,-0.6875 v -1.04102 l 0.82617,-0.27344 c 0.36807,-0.12494 0.32634,-0.65841 -0.0566,-0.72461 l -0.70703,-0.11718 -2.875,-4.2461 v -0.64843 l 0.37304,-0.16602 2.96485,-0.2832 c 0.15728,-0.0147 0.28852,-0.12638 0.32812,-0.2793 l 0.56836,-2.19727 1.72852,-3.31836 2.71094,-1.46093 c 0.10871,-0.0584 0.18171,-0.16645 0.19531,-0.28907 l 0.20898,-1.875 2.50196,-4.6582 3.49218,-1.60547 c 0.0448,-0.0199 0.0853,-0.0485 0.11914,-0.084 l 1.875,-2.01953 c 0.0583,-0.0626 0.0936,-0.14321 0.0996,-0.22851 l 0.0625,-0.8711 1.7793,-1.77929 1.20117,-0.33399 c 0.0484,-0.0136 0.0936,-0.0369 0.13281,-0.0684 l 1.44336,-1.1543 c 0.0425,-0.0338 0.0772,-0.0765 0.10157,-0.125 l 0.75195,-1.50586 1.4375,-1.04492 0.91797,-0.13086 c 0.0543,-0.007 0.10634,-0.0269 0.15234,-0.0566 l 1.875,-1.22656 c 0.0317,-0.021 0.06,-0.0467 0.084,-0.0762 l 3.02929,-3.67773 c 0.0368,-0.0443 0.0628,-0.0964 0.0762,-0.15235 l 0.26757,-1.14648 2.0586,-2.6543 1.66406,0.19336 c 0.084,0.009 0.16863,-0.01 0.24023,-0.0547 l 4.40039,-2.74023 c 0.0934,-0.0576 0.15703,-0.15325 0.17383,-0.26172 l 0.14453,-0.9375 c 0.0107,-0.0702 10e-4,-0.14201 -0.0273,-0.20703 l -1.00977,-2.3086 c -0.0343,-0.0781 -0.0942,-0.14219 -0.16992,-0.18164 l -1.18164,-0.62109 z" />
    <path
       style="fill:none;stroke:#aa00aa;stroke-width:0.529167;stroke-linecap:butt;stroke-linejoin:miter;stroke-dasharray:none;stroke-opacity:1"
       d="M 585.28104,279.41545 524.72816,256.99354"
       id="path3510"
       part="handle_line"
       sodipodi:nodetypes="cc"
       us_state="ga" />
    <path
       style="fill:none;stroke:#aa00aa;stroke-width:0.529167;stroke-linecap:butt;stroke-linejoin:miter;stroke-dasharray:none;stroke-opacity:1"
       d="m 587.30044,271.15882 -4.0388,16.51326"
       id="path3612"
       part="handle_line_l"
       us_state="ga" />
    <text
       xml:space="preserve"
       style="font-size:3.52778px;line-height:1.25;font-family:'Noto Sans CJK JP';-inkscape-font-specification:'Noto Sans CJK JP';text-align:center;letter-spacing:0px;word-spacing:0px;writing-mode:lr-tb;text-anchor:middle;fill:#aa00aa;fill-opacity:1;stroke-width:0.264583"
       x="590.90216"
       y="281.62604"
       id="text1"><tspan
         sodipodi:role="line"
         id="tspan1"
         style="font-style:normal;font-variant:normal;font-weight:normal;font-stretch:normal;font-size:3.52778px;font-family:'Noto Sans';-inkscape-font-specification:'Noto Sans';fill:#aa00aa;fill-opacity:1;stroke-width:0.264583"
         x="590.90216"
         y="281.62604">20</tspan></text>
    <path
       style="fill:none;stroke:#aa00aa;stroke-width:0.264583;stroke-linecap:butt;stroke-linejoin:miter;stroke-dasharray:none;stroke-opacity:1;marker-start:url(#Triangle);marker-end:url(#Triangle)"
       d="m 590.02747,271.72149 -4.0388,16.51326"
       id="path1"
       part="handle_line_l"
       us_state="ga" />
    <path
       style="fill:none;fill-rule:evenodd;stroke:#aa00aa;stroke-width:0.529167;stroke-dasharray:none;stroke-opacity:1;paint-order:stroke fill markers"
       id="path6"
       sodipodi:type="arc"
       sodipodi:cx="524.73138"
       sodipodi:cy="256.99234"
       sodipodi:rx="3.3785961"
       sodipodi:ry="3.3705764"
       sodipodi:start="5.4589507"
       sodipodi:end="0.34656033"
       sodipodi:arc-type="arc"
       d="m 527.02585,254.51824 a 3.3785961,3.3705764 0 0 1 0.88326,3.61897"
       sodipodi:open="true" />
    <path
       style="fill:none;fill-rule:evenodd;stroke:#aa00aa;stroke-width:0.529167;stroke-dasharray:none;stroke-opacity:1;paint-order:stroke fill markers"
       id="path7"
       sodipodi:type="arc"
       sodipodi:cx="585.2821"
       sodipodi:cy="279.41617"
       sodipodi:rx="3.3785961"
       sodipodi:ry="3.3705764"
       sodipodi:start="3.4782304"
       sodipodi:end="4.9152634"
       sodipodi:arc-type="arc"
       d="m 582.09315,278.30281 a 3.3785961,3.3705764 0 0 1 3.86969,-2.18809"
       sodipodi:open="true" />
    <text
       xml:space="preserve"
       style="font-size:3.52778px;line-height:1.25;font-family:'Noto Sans CJK JP';-inkscape-font-specification:'Noto Sans CJK JP';text-align:center;letter-spacing:0px;word-spacing:0px;writing-mode:lr-tb;text-anchor:middle;fill:#aa00aa;fill-opacity:1;stroke-width:0.264583"
       x="530.68146"
       y="256.38782"
       id="text9"><tspan
         sodipodi:role="line"
         id="tspan9"
         style="font-style:normal;font-variant:normal;font-weight:normal;font-stretch:normal;font-size:3.52778px;font-family:'Noto Sans';-inkscape-font-specification:'Noto Sans';fill:#aa00aa;fill-opacity:1;stroke-width:0.264583"
         x="530.68146"
         y="256.38782">β</tspan></text>
    <text
       xml:space="preserve"
       style="font-size:3.52778px;line-height:1.25;font-family:'Noto Sans CJK JP';-inkscape-font-specification:'Noto Sans CJK JP';text-align:center;letter-spacing:0px;word-spacing:0px;writing-mode:lr-tb;text-anchor:middle;fill:#aa00aa;fill-opacity:1;stroke-width:0.264583"
       x="583.1568"
       y="274.24091"
       id="text11"><tspan
         sodipodi:role="line"
         id="tspan11"
         style="font-style:normal;font-variant:normal;font-weight:normal;font-stretch:normal;font-size:3.52778px;font-family:'Noto Sans';-inkscape-font-specification:'Noto Sans';fill:#aa00aa;fill-opacity:1;stroke-width:0.264583"
         x="583.1568"
         y="274.24091">α</tspan></text>
  </g>
</svg>
