<?xml version="1.0" encoding="UTF-8" standalone="no"?>
<svg
   width="4.4093018in"
   height="9.8847265in"
   viewBox="0 0 111.99626 251.07206"
   version="1.1"
   id="svg8"
   inkscape:version="1.0.2 (1.0.2+r75+1)"
   sodipodi:docname="Pasta Strands.svg"
   xmlns:inkscape="http://www.inkscape.org/namespaces/inkscape"
   xmlns:sodipodi="http://sodipodi.sourceforge.net/DTD/sodipodi-0.dtd"
   xmlns:xlink="http://www.w3.org/1999/xlink"
   xmlns="http://www.w3.org/2000/svg"
   xmlns:svg="http://www.w3.org/2000/svg"
   xmlns:rdf="http://www.w3.org/1999/02/22-rdf-syntax-ns#"
   xmlns:cc="http://creativecommons.org/ns#"
   xmlns:dc="http://purl.org/dc/elements/1.1/">
  <defs
     id="defs2">
    <linearGradient
       inkscape:collect="always"
       id="linearGradient3843">
      <stop
         style="stop-color:#ff0000;stop-opacity:1;"
         offset="0"
         id="stop3839" />
      <stop
         style="stop-color:#c60000;stop-opacity:1"
         offset="1"
         id="stop3841" />
    </linearGradient>
    <linearGradient
       inkscape:collect="always"
       id="linearGradient3755">
      <stop
         style="stop-color:#ffdb00;stop-opacity:1"
         offset="0"
         id="stop3751" />
      <stop
         style="stop-color:#ffdc00;stop-opacity:1"
         offset="0.42499968"
         id="stop3761" />
      <stop
         style="stop-color:#d2a800;stop-opacity:1"
         offset="1"
         id="stop3753" />
    </linearGradient>
    <linearGradient
       inkscape:collect="always"
       xlink:href="#linearGradient3755"
       id="linearGradient3759"
       x1="437.02869"
       y1="23.787567"
       x2="495.4447"
       y2="23.787567"
       gradientUnits="userSpaceOnUse"
       gradientTransform="matrix(0.12938734,0,0,7.2557598,-42.580045,-845.51912)" />
    <linearGradient
       inkscape:collect="always"
       xlink:href="#linearGradient3755"
       id="linearGradient3773"
       gradientUnits="userSpaceOnUse"
       gradientTransform="matrix(0.12938734,0,0,7.2557598,-29.29375,-876.73426)"
       x1="437.02869"
       y1="23.787567"
       x2="495.4447"
       y2="23.787567" />
    <linearGradient
       inkscape:collect="always"
       xlink:href="#linearGradient3755"
       id="linearGradient3781"
       gradientUnits="userSpaceOnUse"
       gradientTransform="matrix(0.12938734,0,0,7.2557598,-15.333371,-854.11246)"
       x1="437.02869"
       y1="23.787567"
       x2="495.4447"
       y2="23.787567" />
    <linearGradient
       inkscape:collect="always"
       xlink:href="#linearGradient3755"
       id="linearGradient3789"
       gradientUnits="userSpaceOnUse"
       gradientTransform="matrix(0.12938734,0,0,7.2557598,1.2183962,-878.98149)"
       x1="437.02869"
       y1="23.787567"
       x2="495.4447"
       y2="23.787567" />
    <linearGradient
       inkscape:collect="always"
       xlink:href="#linearGradient3755"
       id="linearGradient3797"
       gradientUnits="userSpaceOnUse"
       gradientTransform="matrix(0.12938734,0,0,7.2557598,16.597868,-857.37167)"
       x1="437.02869"
       y1="23.787567"
       x2="495.4447"
       y2="23.787567" />
    <linearGradient
       inkscape:collect="always"
       xlink:href="#linearGradient3755"
       id="linearGradient3805"
       gradientUnits="userSpaceOnUse"
       gradientTransform="matrix(0.12938734,0,0,7.2557598,32.754182,-882.99439)"
       x1="437.02869"
       y1="23.787567"
       x2="495.4447"
       y2="23.787567" />
    <linearGradient
       inkscape:collect="always"
       xlink:href="#linearGradient3755"
       id="linearGradient3813"
       gradientUnits="userSpaceOnUse"
       gradientTransform="matrix(0.12938734,0,0,7.2557598,47.237536,-844.38816)"
       x1="437.02869"
       y1="23.787567"
       x2="495.4447"
       y2="23.787567" />
    <linearGradient
       inkscape:collect="always"
       xlink:href="#linearGradient3755"
       id="linearGradient3821"
       gradientUnits="userSpaceOnUse"
       gradientTransform="matrix(0.12938734,0,0,7.2557598,62.60115,-858.1832)"
       x1="437.02869"
       y1="23.787567"
       x2="495.4447"
       y2="23.787567" />
    <linearGradient
       inkscape:collect="always"
       xlink:href="#linearGradient3755"
       id="linearGradient3829"
       gradientUnits="userSpaceOnUse"
       gradientTransform="matrix(0.12938734,0,0,7.2557598,75.316169,-893.09031)"
       x1="437.02869"
       y1="23.787567"
       x2="495.4447"
       y2="23.787567" />
    <radialGradient
       inkscape:collect="always"
       xlink:href="#linearGradient3843"
       id="radialGradient3845"
       cx="485.15948"
       cy="185.89394"
       fx="485.15948"
       fy="185.89394"
       r="19.08283"
       gradientTransform="matrix(1,0,0,1.0019067,192.61996,0.47865221)"
       gradientUnits="userSpaceOnUse" />
    <radialGradient
       inkscape:collect="always"
       xlink:href="#linearGradient3843"
       id="radialGradient3857"
       gradientUnits="userSpaceOnUse"
       gradientTransform="matrix(1,0,0,1.0019067,234.04135,18.882713)"
       cx="485.15948"
       cy="185.89394"
       fx="485.15948"
       fy="185.89394"
       r="19.08283" />
    <radialGradient
       inkscape:collect="always"
       xlink:href="#linearGradient3843"
       id="radialGradient3865"
       gradientUnits="userSpaceOnUse"
       gradientTransform="matrix(1,0,0,1.0019067,193.80037,45.981334)"
       cx="485.15948"
       cy="185.89394"
       fx="485.15948"
       fy="185.89394"
       r="19.08283" />
    <radialGradient
       inkscape:collect="always"
       xlink:href="#linearGradient3843"
       id="radialGradient3873"
       gradientUnits="userSpaceOnUse"
       gradientTransform="matrix(1,0,0,1.0019067,234.55066,59.802632)"
       cx="485.15948"
       cy="185.89394"
       fx="485.15948"
       fy="185.89394"
       r="19.08283" />
  </defs>
  <sodipodi:namedview
     id="base"
     pagecolor="#444444"
     bordercolor="#666666"
     borderopacity="1.0"
     inkscape:pageopacity="0"
     inkscape:pageshadow="2"
     inkscape:zoom="1"
     inkscape:cx="600.77423"
     inkscape:cy="629.68686"
     inkscape:document-units="in"
     inkscape:current-layer="layer1"
     inkscape:document-rotation="0"
     showgrid="false"
     inkscape:snap-page="false"
     inkscape:snap-midpoints="true"
     units="in"
     inkscape:object-paths="false"
     inkscape:snap-global="false"
     inkscape:window-width="1853"
     inkscape:window-height="1025"
     inkscape:window-x="67"
     inkscape:window-y="27"
     inkscape:window-maximized="1"
     showguides="false"
     inkscape:guide-bbox="true"
     inkscape:snap-bbox="false"
     inkscape:snap-bbox-midpoints="true"
     inkscape:snap-object-midpoints="false"
     inkscape:showpageshadow="2"
     inkscape:pagecheckerboard="0"
     inkscape:deskcolor="#d1d1d1"
     inkscape:export-bgcolor="#ffffff00">
    <sodipodi:guide
       position="-538.54424,13.965926"
       orientation="1,0"
       id="guide925"
       inkscape:locked="false" />
    <sodipodi:guide
       position="-335.34424,280.66593"
       orientation="1,0"
       id="guide2696"
       inkscape:locked="false" />
    <sodipodi:guide
       position="-132.14426,280.66593"
       orientation="1,0"
       id="guide2700"
       inkscape:locked="false" />
  </sodipodi:namedview>
  <metadata
     id="metadata5">
    <rdf:RDF>
      <cc:Work
         rdf:about="">
        <dc:format>image/svg+xml</dc:format>
        <dc:type
           rdf:resource="http://purl.org/dc/dcmitype/StillImage" />
        <dc:title />
      </cc:Work>
    </rdf:RDF>
  </metadata>
  <g
     inkscape:label="Layer 1"
     inkscape:groupmode="layer"
     id="layer1"
     transform="translate(-640.14424,-13.965934)">
    <rect
       style="fill:#ffffff;fill-rule:evenodd;stroke:none;stroke-width:0.26"
       id="rect955"
       width="197.49509"
       height="22.065491"
       x="2.8524535"
       y="41.739216" />
    <text
       xml:space="preserve"
       style="font-size:4.23333px;line-height:1.25;font-family:'Noto Sans';-inkscape-font-specification:'Noto Sans, Normal';text-align:center;letter-spacing:0px;word-spacing:0px;white-space:pre;shape-inside:url(#rect955);stroke-width:0.264583"
       x="136.82317"
       y="44.897907"
       id="text951"><tspan
         x="6.9172214"
         y="45.590083"
         id="tspan6"><tspan
           style="font-style:italic;-inkscape-font-specification:'Noto Sans Italic'"
           id="tspan5">Pasta has been imported from Italy to America. But it seems like this pasta is all mixed up with all the </tspan></tspan><tspan
         x="56.686219"
         y="50.881747"
         id="tspan8"><tspan
           style="font-style:italic;-inkscape-font-specification:'Noto Sans Italic'"
           id="tspan7">sauces, forming a giant tube! What caused this?</tspan></tspan></text>
    <rect
       style="fill:url(#linearGradient3759);fill-opacity:1;fill-rule:evenodd;stroke:none;stroke-width:0.26"
       id="rect3749"
       width="7.5582943"
       height="63.294086"
       x="13.965934"
       y="-704.56934"
       transform="rotate(90)"
       inkscape:export-filename="../../../../jekyll/website/hunts/an-all-american-puzzle-hunt/pasta-and-sauce.svg"
       inkscape:export-xdpi="95.9"
       inkscape:export-ydpi="95.9" />
    <path
       style="font-size:6.35px;line-height:1.25;font-family:'Noto Sans';-inkscape-font-specification:'Noto Sans, Normal';letter-spacing:0px;word-spacing:0px;stroke-width:0.264583"
       d="m 672.83337,17.198981 q 0.6985,0 1.11125,0.34925 0.41275,0.34925 0.41275,0.98425 0,0.70485 -0.45085,1.11125 -0.4445,0.40005 -1.2446,0.40005 -0.34925,0 -0.6604,-0.0635 -0.3048,-0.0635 -0.51435,-0.18415 v -0.52705 q 0.2286,0.1397 0.55245,0.22225 0.3302,0.0762 0.62865,0.0762 0.50165,0 0.80645,-0.23495 0.31115,-0.2413 0.31115,-0.74295 0,-0.4445 -0.27305,-0.67945 -0.27305,-0.2413 -0.8636,-0.2413 -0.1778,0 -0.4064,0.03175 -0.2286,0.03175 -0.3683,0.0635 l -0.2794,-0.1778 0.17145,-2.13995 h 2.2733 v 0.508 h -1.79705 l -0.10795,1.31445 q 0.10795,-0.01905 0.2921,-0.04445 0.18415,-0.0254 0.4064,-0.0254 z"
       id="text3765"
       aria-label="5" />
    <rect
       style="fill:url(#linearGradient3773);fill-opacity:1;fill-rule:evenodd;stroke:none;stroke-width:0.26"
       id="rect3767"
       width="7.5582943"
       height="63.294086"
       x="27.25223"
       y="-735.78448"
       transform="rotate(90)" />
    <path
       style="font-size:6.35px;line-height:1.25;font-family:'Noto Sans';-inkscape-font-specification:'Noto Sans, Normal';letter-spacing:0px;word-spacing:0px;stroke-width:0.264583"
       d="m 704.55655,33.266577 h -0.5461 v -3.16865 q 0,-0.27305 0.006,-0.43815 0.006,-0.1651 0.019,-0.3429 -0.1016,0.1016 -0.18415,0.17145 -0.0826,0.06985 -0.20955,0.1778 l -0.4826,0.3937 -0.2921,-0.37465 1.22555,-0.9525 h 0.46355 z"
       id="text3771"
       aria-label="1" />
    <rect
       style="fill:url(#linearGradient3781);fill-opacity:1;fill-rule:evenodd;stroke:none;stroke-width:0.26"
       id="rect3775"
       width="7.5582943"
       height="63.294086"
       x="41.212608"
       y="-713.16266"
       transform="rotate(90)" />
    <path
       style="font-size:6.35px;line-height:1.25;font-family:'Noto Sans';-inkscape-font-specification:'Noto Sans, Normal';letter-spacing:0px;word-spacing:0px;stroke-width:0.264583"
       d="m 680.5441,47.226956 1.86055,-4.0259 h -2.44475 v -0.508 h 3.04165 v 0.4318 l -1.8415,4.1021 z"
       id="text3779"
       aria-label="7" />
    <rect
       style="fill:url(#linearGradient3789);fill-opacity:1;fill-rule:evenodd;stroke:none;stroke-width:0.26"
       id="rect3783"
       width="7.5582943"
       height="63.294086"
       x="57.764378"
       y="-738.03168"
       transform="rotate(90)" />
    <path
       style="font-size:6.35px;line-height:1.25;font-family:'Noto Sans';-inkscape-font-specification:'Noto Sans, Normal';letter-spacing:0px;word-spacing:0px;stroke-width:0.264583"
       d="m 707.68007,60.305271 q 0,0.4572 -0.254,0.73025 -0.254,0.2667 -0.6858,0.3556 v 0.0254 q 0.5461,0.0635 0.8128,0.3429 0.2667,0.2794 0.2667,0.73025 0,0.3937 -0.18415,0.70485 -0.18415,0.3048 -0.5715,0.47625 -0.381,0.17145 -0.98425,0.17145 -0.3556,0 -0.6604,-0.05715 -0.3048,-0.0508 -0.5842,-0.1905 v -0.5207 q 0.28575,0.1397 0.61595,0.22225 0.3302,0.0762 0.635,0.0762 0.6096,0 0.8763,-0.23495 0.27305,-0.2413 0.27305,-0.6604 0,-0.42545 -0.33655,-0.6096 -0.3302,-0.1905 -0.93345,-0.1905 h -0.43815 v -0.47625 h 0.4445 q 0.5588,0 0.84455,-0.23495 0.2921,-0.23495 0.2921,-0.6223 0,-0.3302 -0.22225,-0.508 -0.22225,-0.18415 -0.60325,-0.18415 -0.3683,0 -0.62865,0.10795 -0.26035,0.10795 -0.51435,0.27305 l -0.2794,-0.381 q 0.2413,-0.1905 0.5969,-0.3302 0.36195,-0.1397 0.81915,-0.1397 0.7112,0 1.0541,0.3175 0.34925,0.3175 0.34925,0.80645 z"
       id="text3787"
       aria-label="3" />
    <rect
       style="fill:url(#linearGradient3797);fill-opacity:1;fill-rule:evenodd;stroke:none;stroke-width:0.26"
       id="rect3791"
       width="7.5582943"
       height="63.294086"
       x="73.143852"
       y="-716.42181"
       transform="rotate(90)" />
    <path
       style="font-size:6.35px;line-height:1.25;font-family:'Noto Sans';-inkscape-font-specification:'Noto Sans, Normal';letter-spacing:0px;word-spacing:0px;stroke-width:0.264583"
       d="m 686.44489,78.129492 h -0.6604 v 1.0287 h -0.53975 v -1.0287 h -2.1717 v -0.47625 l 2.1336,-3.05435 h 0.57785 v 3.02895 h 0.6604 z m -1.20015,-0.50165 v -1.42875 q 0,-0.3302 0.0127,-0.5588 0.0127,-0.23495 0.0191,-0.4445 h -0.0254 q -0.0508,0.12065 -0.127,0.26035 -0.0762,0.1397 -0.14605,0.23495 l -1.3589,1.93675 z"
       id="text3795"
       aria-label="4" />
    <rect
       style="fill:url(#linearGradient3805);fill-opacity:1;fill-rule:evenodd;stroke:none;stroke-width:0.26"
       id="rect3799"
       width="7.5582943"
       height="63.294086"
       x="89.300171"
       y="-742.04456"
       transform="rotate(90)" />
    <path
       style="font-size:6.35px;line-height:1.25;font-family:'Noto Sans';-inkscape-font-specification:'Noto Sans, Normal';letter-spacing:0px;word-spacing:0px;stroke-width:0.264583"
       d="m 711.86437,95.314511 h -2.9972 v -0.46355 l 1.18745,-1.20015 q 0.3429,-0.3429 0.57785,-0.6096 0.23495,-0.2667 0.3556,-0.5207 0.12065,-0.26035 0.12065,-0.56515 0,-0.37465 -0.22225,-0.56515 -0.22225,-0.19685 -0.57785,-0.19685 -0.3302,0 -0.5842,0.1143 -0.24765,0.1143 -0.508,0.3175 l -0.29845,-0.37465 q 0.2667,-0.22225 0.6096,-0.37465 0.34925,-0.15875 0.78105,-0.15875 0.635,0 1.0033,0.32385 0.3683,0.3175 0.3683,0.88265 0,0.3556 -0.14605,0.66675 -0.14605,0.31115 -0.4064,0.61595 -0.26035,0.29845 -0.6096,0.64135 l -0.94615,0.93345 v 0.0254 h 2.29235 z"
       id="text3803"
       aria-label="2" />
    <rect
       style="fill:url(#linearGradient3813);fill-opacity:1;fill-rule:evenodd;stroke:none;stroke-width:0.26"
       id="rect3807"
       width="7.5582943"
       height="63.294086"
       x="103.78352"
       y="-703.43829"
       transform="rotate(90)" />
    <path
       style="font-size:6.35px;line-height:1.25;font-family:'Noto Sans';-inkscape-font-specification:'Noto Sans, Normal';letter-spacing:0px;word-spacing:0px;stroke-width:0.264583"
       d="m 673.08672,106.32442 q 0,0.4572 -0.254,0.73025 -0.254,0.2667 -0.6858,0.3556 v 0.0254 q 0.5461,0.0635 0.8128,0.3429 0.2667,0.2794 0.2667,0.73025 0,0.3937 -0.18415,0.70485 -0.18415,0.3048 -0.5715,0.47625 -0.381,0.17145 -0.98425,0.17145 -0.3556,0 -0.6604,-0.0572 -0.3048,-0.0508 -0.5842,-0.1905 v -0.5207 q 0.28575,0.1397 0.61595,0.22225 0.3302,0.0762 0.635,0.0762 0.6096,0 0.8763,-0.23495 0.27305,-0.2413 0.27305,-0.6604 0,-0.42545 -0.33655,-0.6096 -0.3302,-0.1905 -0.93345,-0.1905 h -0.43815 v -0.47625 h 0.4445 q 0.5588,0 0.84455,-0.23495 0.2921,-0.23495 0.2921,-0.6223 0,-0.3302 -0.22225,-0.508 -0.22225,-0.18415 -0.60325,-0.18415 -0.3683,0 -0.62865,0.10795 -0.26035,0.10795 -0.51435,0.27305 l -0.2794,-0.381 q 0.2413,-0.1905 0.5969,-0.3302 0.36195,-0.1397 0.81915,-0.1397 0.7112,0 1.0541,0.3175 0.34925,0.3175 0.34925,0.80645 z"
       id="text3811"
       aria-label="3" />
    <rect
       style="fill:url(#linearGradient3821);fill-opacity:1;fill-rule:evenodd;stroke:none;stroke-width:0.26"
       id="rect3815"
       width="7.5582943"
       height="63.294086"
       x="119.14713"
       y="-717.23334"
       transform="rotate(90)" />
    <path
       style="font-size:6.35px;line-height:1.25;font-family:'Noto Sans';-inkscape-font-specification:'Noto Sans, Normal';letter-spacing:0px;word-spacing:0px;stroke-width:0.264583"
       d="m 686.88176,121.68802 q 0,0.4572 -0.254,0.73025 -0.254,0.2667 -0.6858,0.3556 v 0.0254 q 0.5461,0.0635 0.8128,0.3429 0.2667,0.2794 0.2667,0.73025 0,0.3937 -0.18415,0.70485 -0.18415,0.3048 -0.5715,0.47625 -0.381,0.17145 -0.98425,0.17145 -0.3556,0 -0.6604,-0.0571 -0.3048,-0.0508 -0.5842,-0.1905 v -0.5207 q 0.28575,0.1397 0.61595,0.22225 0.3302,0.0762 0.635,0.0762 0.6096,0 0.8763,-0.23495 0.27305,-0.2413 0.27305,-0.6604 0,-0.42545 -0.33655,-0.6096 -0.3302,-0.1905 -0.93345,-0.1905 h -0.43815 v -0.47625 h 0.4445 q 0.5588,0 0.84455,-0.23495 0.2921,-0.23495 0.2921,-0.6223 0,-0.3302 -0.22225,-0.508 -0.22225,-0.18415 -0.60325,-0.18415 -0.3683,0 -0.62865,0.10795 -0.26035,0.10795 -0.51435,0.27305 l -0.2794,-0.381 q 0.2413,-0.1905 0.5969,-0.3302 0.36195,-0.1397 0.81915,-0.1397 0.7112,0 1.0541,0.3175 0.34925,0.3175 0.34925,0.80645 z"
       id="text3819"
       aria-label="3" />
    <rect
       style="fill:url(#linearGradient3829);fill-opacity:1;fill-rule:evenodd;stroke:none;stroke-width:0.26"
       id="rect3823"
       width="7.5582943"
       height="63.294086"
       x="131.86214"
       y="-752.1405"
       transform="rotate(90)" />
    <path
       style="font-size:6.35px;line-height:1.25;font-family:'Noto Sans';-inkscape-font-specification:'Noto Sans, Normal';letter-spacing:0px;word-spacing:0px;stroke-width:0.264583"
       d="m 722.16351,136.84779 h -0.6604 v 1.0287 h -0.53975 v -1.0287 h -2.1717 v -0.47625 l 2.1336,-3.05435 h 0.57785 v 3.02895 h 0.6604 z m -1.20015,-0.50165 v -1.42875 q 0,-0.3302 0.0127,-0.5588 0.0127,-0.23495 0.019,-0.4445 h -0.0254 q -0.0508,0.12065 -0.127,0.26035 -0.0762,0.1397 -0.14605,0.23495 l -1.3589,1.93675 z"
       id="text3827"
       aria-label="4" />
    <path
       d="m 693.49993,153.63054 0.635,0.6477 -2.159,2.159 2.1463,2.159 -0.635,0.6477 -2.1717,-2.1463 -2.1209,2.1463 -0.6604,-0.6477 2.1463,-2.159 -2.159,-2.1463 0.6604,-0.6604 2.1463,2.1717 z"
       id="text3833"
       style="font-size:12.7px;line-height:1.25;font-family:'Noto Sans';-inkscape-font-specification:'Noto Sans, Normal';letter-spacing:0px;word-spacing:0px;stroke:#f9f9f9;stroke-width:1.27;stroke-dasharray:none;stroke-opacity:1;paint-order:stroke fill markers"
       aria-label="×" />
    <path
       style="fill:url(#radialGradient3845);fill-opacity:1;stroke:none;stroke-width:0.264583px;stroke-linecap:butt;stroke-linejoin:miter;stroke-opacity:1"
       d="m 685.2168,171.67913 c -2.48256,-1.68814 -3.31194,0.12781 -5.74135,1.82823 -0.88696,0.62082 -1.8614,1.12208 -2.69446,1.81357 -0.7556,0.6272 -0.53695,1.65351 -1.16073,2.27728 -0.13944,0.13945 -0.3714,0.14626 -0.52917,0.26459 -1.0473,0.78549 -0.0169,0.28149 -1.05833,1.32291 -0.34346,0.34347 -0.63915,0.26459 -1.05833,0.26459 -0.88771,0 -1.78562,0.058 -2.64584,-0.26459 -0.56486,-0.21182 -2.54862,-1.96367 -3.175,-2.38125 -2.63617,-1.75746 -5.60541,-1.56175 -7.40833,1.32292 -1.30958,2.09536 -1.03185,5.63569 -0.26458,7.9375 0.47609,1.42824 1.67907,2.44022 2.38125,3.70417 0.49456,0.89017 0.11038,1.72051 0.26458,2.64583 0.13216,0.79288 0.43378,0.33837 0.79375,1.05833 0.16264,0.32525 0.1764,0.70556 0.26458,1.05834 0.7224,0.98697 1.46109,1.96223 2.16718,2.96091 0.67447,0.95397 0.66363,1.59748 1.68733,1.88556 0.28575,0.0804 1.04544,-0.23488 1.17493,0.20748 0.51782,1.76889 -0.65167,3.28915 0.79375,4.73456 0.38574,0.38573 0.93308,1.15621 1.5875,1.32292 0.90699,0.23105 1.84317,-0.11673 2.42935,-0.82522 0.29012,-0.35066 0.33314,-0.86046 0.61061,-1.22121 0.12136,-0.15778 0.3684,-0.15676 0.53411,-0.26706 0.41532,-0.27644 0.66876,-0.74667 1.05834,-1.05833 1.62552,-1.30043 3.93898,-1.55212 5.82083,-2.11667 0.37777,-0.11333 0.68416,-0.40444 1.05833,-0.52916 1.78385,-0.59462 -1.47889,1.26861 1.5875,-0.26459 0.71996,-0.35998 0.26546,-0.6616 1.05834,-0.79375 0.34798,-0.058 0.71035,0.058 1.05833,0 0.0728,-0.0121 2.00242,-1.20868 2.11667,-1.32291 1.43219,-1.43219 -0.16563,-6.17546 0.26458,-8.32652 0.36629,-1.83143 2.94338,-0.67382 3.96875,-1.05833 0.41288,-0.15483 0.69141,-0.54914 1.05833,-0.79375 3.55225,-2.36816 3.43959,-2.1189 3.43959,-6.35 0,-0.43879 0.15716,-2.01712 0,-2.64583 -0.42641,-1.70558 -1.95983,-1.38686 -2.82692,-2.03718 -0.69985,-0.52489 -1.49439,-0.96523 -2.11666,-1.5875 -1.13552,-1.13551 -0.45585,-1.82339 -0.79375,-3.175 -0.38259,-1.53032 -1.97067,-4.03964 -3.89176,-3.43959 -0.38322,0.1197 -0.64913,1.85213 -0.73999,2.22659 -0.1025,0.42245 -1.05963,1.60338 -1.07331,1.62216 z"
       id="path3837" />
    <path
       style="font-size:6.35px;line-height:1.25;font-family:'Noto Sans';-inkscape-font-specification:'Noto Sans, Normal';letter-spacing:0px;word-spacing:0px;fill:#ffffff;stroke-width:0.264583"
       d="m 678.06735,189.39555 h -0.6604 v 1.0287 h -0.53975 v -1.0287 h -2.1717 v -0.47625 l 2.1336,-3.05435 h 0.57785 v 3.02895 h 0.6604 z m -1.20015,-0.50165 v -1.42875 q 0,-0.3302 0.0127,-0.5588 0.0127,-0.23495 0.019,-0.4445 h -0.0254 q -0.0508,0.12065 -0.127,0.26035 -0.0762,0.1397 -0.14605,0.23495 l -1.3589,1.93675 z"
       id="text3849"
       aria-label="4" />
    <path
       style="fill:url(#radialGradient3857);fill-opacity:1;stroke:none;stroke-width:0.264583px;stroke-linecap:butt;stroke-linejoin:miter;stroke-opacity:1"
       d="m 726.63819,190.08319 c -2.48256,-1.68814 -3.31194,0.12781 -5.74135,1.82823 -0.88696,0.62082 -1.8614,1.12208 -2.69446,1.81357 -0.7556,0.6272 -0.53695,1.65351 -1.16073,2.27728 -0.13944,0.13945 -0.3714,0.14626 -0.52917,0.26459 -1.0473,0.78549 -0.0169,0.28149 -1.05833,1.32291 -0.34346,0.34347 -0.63915,0.26459 -1.05833,0.26459 -0.88771,0 -1.78562,0.058 -2.64584,-0.26459 -0.56486,-0.21182 -2.54862,-1.96367 -3.175,-2.38125 -2.63617,-1.75746 -5.60541,-1.56175 -7.40833,1.32292 -1.30958,2.09536 -1.03185,5.63569 -0.26458,7.9375 0.47609,1.42824 1.67907,2.44022 2.38125,3.70417 0.49456,0.89017 0.11038,1.72051 0.26458,2.64583 0.13216,0.79288 0.43378,0.33837 0.79375,1.05833 0.16264,0.32525 0.1764,0.70556 0.26458,1.05834 0.7224,0.98697 1.46109,1.96223 2.16718,2.96091 0.67447,0.95397 0.66363,1.59748 1.68733,1.88556 0.28575,0.0804 1.04544,-0.23488 1.17493,0.20748 0.51782,1.76889 -0.65167,3.28915 0.79375,4.73456 0.38574,0.38573 0.93308,1.15621 1.5875,1.32292 0.90699,0.23105 1.84317,-0.11673 2.42935,-0.82522 0.29012,-0.35066 0.33314,-0.86046 0.61061,-1.22121 0.12136,-0.15778 0.3684,-0.15676 0.53411,-0.26706 0.41532,-0.27644 0.66876,-0.74667 1.05834,-1.05833 1.62552,-1.30043 3.93898,-1.55212 5.82083,-2.11667 0.37777,-0.11333 0.68416,-0.40444 1.05833,-0.52916 1.78385,-0.59462 -1.47889,1.26861 1.5875,-0.26459 0.71996,-0.35998 0.26546,-0.6616 1.05834,-0.79375 0.34798,-0.058 0.71035,0.058 1.05833,0 0.0728,-0.0121 2.00242,-1.20868 2.11667,-1.32291 1.43219,-1.43219 -0.16563,-6.17546 0.26458,-8.32652 0.36629,-1.83143 2.94338,-0.67382 3.96875,-1.05833 0.41288,-0.15483 0.69141,-0.54914 1.05833,-0.79375 3.55225,-2.36816 3.43959,-2.1189 3.43959,-6.35 0,-0.43879 0.15716,-2.01712 0,-2.64583 -0.42641,-1.70558 -1.95983,-1.38686 -2.82692,-2.03718 -0.69985,-0.52489 -1.49439,-0.96523 -2.11666,-1.5875 -1.13552,-1.13551 -0.45585,-1.82339 -0.79375,-3.175 -0.38259,-1.53032 -1.97067,-4.03964 -3.89176,-3.43959 -0.38322,0.1197 -0.64913,1.85213 -0.73999,2.22659 -0.1025,0.42245 -1.05963,1.60338 -1.07331,1.62216 z"
       id="path3851" />
    <path
       style="font-size:6.35px;line-height:1.25;font-family:'Noto Sans';-inkscape-font-specification:'Noto Sans, Normal';letter-spacing:0px;word-spacing:0px;fill:#ffffff;stroke-width:0.264583"
       d="m 716.33282,206.89156 q 0,-0.48895 0.0826,-0.95885 0.0889,-0.47625 0.31115,-0.85725 0.2286,-0.38735 0.635,-0.61595 0.4064,-0.2286 1.04775,-0.2286 0.13335,0 0.2921,0.0127 0.1651,0.0127 0.2667,0.0445 v 0.47625 q -0.1143,-0.0381 -0.26035,-0.0572 -0.1397,-0.019 -0.28575,-0.019 -0.43815,0 -0.73025,0.14605 -0.2921,0.14605 -0.46355,0.40005 -0.1651,0.254 -0.2413,0.5842 -0.0762,0.3302 -0.0952,0.70485 h 0.0381 q 0.14605,-0.22225 0.4064,-0.37465 0.26035,-0.15875 0.66675,-0.15875 0.59055,0 0.9525,0.36195 0.36195,0.3556 0.36195,1.016 0,0.7112 -0.3937,1.1176 -0.38735,0.4064 -1.04775,0.4064 -0.4318,0 -0.78105,-0.2159 -0.34925,-0.2159 -0.5588,-0.6604 -0.2032,-0.4445 -0.2032,-1.12395 z m 1.5367,1.53035 q 0.40005,0 0.6477,-0.254 0.24765,-0.26035 0.24765,-0.8001 0,-0.4318 -0.22225,-0.6858 -0.2159,-0.254 -0.65405,-0.254 -0.29845,0 -0.5207,0.127 -0.22225,0.12065 -0.34925,0.31115 -0.12065,0.1905 -0.12065,0.3937 0,0.27305 0.10795,0.5461 0.10795,0.2667 0.32385,0.4445 0.2159,0.17145 0.53975,0.17145 z"
       id="text3855"
       aria-label="6" />
    <path
       style="fill:url(#radialGradient3865);fill-opacity:1;stroke:none;stroke-width:0.264583px;stroke-linecap:butt;stroke-linejoin:miter;stroke-opacity:1"
       d="m 686.3972,217.18181 c -2.48256,-1.68814 -3.31194,0.12781 -5.74135,1.82823 -0.88696,0.62082 -1.8614,1.12208 -2.69446,1.81357 -0.7556,0.6272 -0.53695,1.65351 -1.16073,2.27728 -0.13944,0.13945 -0.3714,0.14626 -0.52917,0.26459 -1.0473,0.78549 -0.0169,0.28149 -1.05833,1.32291 -0.34346,0.34347 -0.63915,0.26459 -1.05833,0.26459 -0.88771,0 -1.78562,0.058 -2.64584,-0.26459 -0.56486,-0.21182 -2.54862,-1.96367 -3.175,-2.38125 -2.63617,-1.75746 -5.60541,-1.56175 -7.40833,1.32292 -1.30958,2.09536 -1.03185,5.63569 -0.26458,7.9375 0.47609,1.42824 1.67907,2.44022 2.38125,3.70417 0.49456,0.89017 0.11038,1.72051 0.26458,2.64583 0.13216,0.79288 0.43378,0.33837 0.79375,1.05833 0.16264,0.32525 0.1764,0.70556 0.26458,1.05834 0.7224,0.98697 1.46109,1.96223 2.16718,2.96091 0.67447,0.95397 0.66363,1.59748 1.68733,1.88556 0.28575,0.0804 1.04544,-0.23488 1.17493,0.20748 0.51782,1.76889 -0.65167,3.28915 0.79375,4.73456 0.38574,0.38573 0.93308,1.15621 1.5875,1.32292 0.90699,0.23105 1.84317,-0.11673 2.42935,-0.82522 0.29012,-0.35066 0.33314,-0.86046 0.61061,-1.22121 0.12136,-0.15778 0.3684,-0.15676 0.53411,-0.26706 0.41532,-0.27644 0.66876,-0.74667 1.05834,-1.05833 1.62552,-1.30043 3.93898,-1.55212 5.82083,-2.11667 0.37777,-0.11333 0.68416,-0.40444 1.05833,-0.52916 1.78385,-0.59462 -1.47889,1.26861 1.5875,-0.26459 0.71996,-0.35998 0.26546,-0.6616 1.05834,-0.79375 0.34798,-0.058 0.71035,0.058 1.05833,0 0.0728,-0.0121 2.00242,-1.20868 2.11667,-1.32291 1.43219,-1.43219 -0.16563,-6.17546 0.26458,-8.32652 0.36629,-1.83143 2.94338,-0.67382 3.96875,-1.05833 0.41288,-0.15483 0.69141,-0.54914 1.05833,-0.79375 3.55225,-2.36816 3.43959,-2.1189 3.43959,-6.35 0,-0.43879 0.15716,-2.01712 0,-2.64583 -0.42641,-1.70558 -1.95983,-1.38686 -2.82692,-2.03718 -0.69985,-0.52489 -1.49439,-0.96523 -2.11666,-1.5875 -1.13552,-1.13551 -0.45585,-1.82339 -0.79375,-3.175 -0.38259,-1.53032 -1.97067,-4.03964 -3.89176,-3.43959 -0.38322,0.1197 -0.64913,1.85213 -0.73999,2.22659 -0.1025,0.42245 -1.05963,1.60338 -1.07331,1.62216 z"
       id="path3859" />
    <path
       style="font-size:6.35px;line-height:1.25;font-family:'Noto Sans';-inkscape-font-specification:'Noto Sans, Normal';letter-spacing:0px;word-spacing:0px;fill:#ffffff;stroke-width:0.264583"
       d="m 678.87312,232.45348 q 0,0.4572 -0.254,0.73025 -0.254,0.2667 -0.6858,0.3556 v 0.0254 q 0.5461,0.0635 0.8128,0.3429 0.2667,0.2794 0.2667,0.73025 0,0.3937 -0.18415,0.70485 -0.18415,0.3048 -0.5715,0.47625 -0.381,0.17145 -0.98425,0.17145 -0.3556,0 -0.6604,-0.0572 -0.3048,-0.0508 -0.5842,-0.1905 v -0.5207 q 0.28575,0.1397 0.61595,0.22225 0.3302,0.0762 0.635,0.0762 0.6096,0 0.8763,-0.23495 0.27305,-0.2413 0.27305,-0.6604 0,-0.42545 -0.33655,-0.6096 -0.3302,-0.1905 -0.93345,-0.1905 h -0.43815 v -0.47625 h 0.4445 q 0.5588,0 0.84455,-0.23495 0.2921,-0.23495 0.2921,-0.6223 0,-0.3302 -0.22225,-0.508 -0.22225,-0.18415 -0.60325,-0.18415 -0.3683,0 -0.62865,0.10795 -0.26035,0.10795 -0.51435,0.27305 l -0.2794,-0.381 q 0.2413,-0.1905 0.5969,-0.3302 0.36195,-0.1397 0.81915,-0.1397 0.7112,0 1.0541,0.3175 0.34925,0.3175 0.34925,0.80645 z"
       id="text3863"
       aria-label="3" />
    <path
       style="fill:url(#radialGradient3873);fill-opacity:1;stroke:none;stroke-width:0.264583px;stroke-linecap:butt;stroke-linejoin:miter;stroke-opacity:1"
       d="m 727.14749,231.00311 c -2.48256,-1.68814 -3.31194,0.12781 -5.74135,1.82823 -0.88696,0.62082 -1.8614,1.12208 -2.69446,1.81357 -0.7556,0.6272 -0.53695,1.65351 -1.16073,2.27728 -0.13944,0.13945 -0.3714,0.14626 -0.52917,0.26459 -1.0473,0.78549 -0.0169,0.28149 -1.05833,1.32291 -0.34346,0.34347 -0.63915,0.26459 -1.05833,0.26459 -0.88771,0 -1.78562,0.058 -2.64584,-0.26459 -0.56486,-0.21182 -2.54862,-1.96367 -3.175,-2.38125 -2.63617,-1.75746 -5.60541,-1.56175 -7.40833,1.32292 -1.30958,2.09536 -1.03185,5.63569 -0.26458,7.9375 0.47609,1.42824 1.67907,2.44022 2.38125,3.70417 0.49456,0.89017 0.11038,1.72051 0.26458,2.64583 0.13216,0.79288 0.43378,0.33837 0.79375,1.05833 0.16264,0.32525 0.1764,0.70556 0.26458,1.05834 0.7224,0.98697 1.46109,1.96223 2.16718,2.96091 0.67447,0.95397 0.66363,1.59748 1.68733,1.88556 0.28575,0.0804 1.04544,-0.23488 1.17493,0.20748 0.51782,1.76889 -0.65167,3.28915 0.79375,4.73456 0.38574,0.38573 0.93308,1.15621 1.5875,1.32292 0.90699,0.23105 1.84317,-0.11673 2.42935,-0.82522 0.29012,-0.35066 0.33314,-0.86046 0.61061,-1.22121 0.12136,-0.15778 0.3684,-0.15676 0.53411,-0.26706 0.41532,-0.27644 0.66876,-0.74667 1.05834,-1.05833 1.62552,-1.30043 3.93898,-1.55212 5.82083,-2.11667 0.37777,-0.11333 0.68416,-0.40444 1.05833,-0.52916 1.78385,-0.59462 -1.47889,1.26861 1.5875,-0.26459 0.71996,-0.35998 0.26546,-0.6616 1.05834,-0.79375 0.34798,-0.058 0.71035,0.058 1.05833,0 0.0728,-0.0121 2.00242,-1.20868 2.11667,-1.32291 1.43219,-1.43219 -0.16563,-6.17546 0.26458,-8.32652 0.36629,-1.83143 2.94338,-0.67382 3.96875,-1.05833 0.41288,-0.15483 0.69141,-0.54914 1.05833,-0.79375 3.55225,-2.36816 3.43959,-2.1189 3.43959,-6.35 0,-0.43879 0.15716,-2.01712 0,-2.64583 -0.42641,-1.70558 -1.95983,-1.38686 -2.82692,-2.03718 -0.69985,-0.52489 -1.49439,-0.96523 -2.11666,-1.5875 -1.13552,-1.13551 -0.45585,-1.82339 -0.79375,-3.175 -0.38259,-1.53032 -1.97067,-4.03964 -3.89176,-3.43959 -0.38322,0.1197 -0.64913,1.85213 -0.73999,2.22659 -0.1025,0.42245 -1.05963,1.60338 -1.07331,1.62216 z"
       id="path3867" />
    <path
       style="font-size:6.35px;line-height:1.25;font-family:'Noto Sans';-inkscape-font-specification:'Noto Sans, Normal';letter-spacing:0px;word-spacing:0px;fill:#ffffff;stroke-width:0.264583"
       d="m 719.6234,246.27479 q 0,0.4572 -0.254,0.73025 -0.254,0.2667 -0.6858,0.3556 v 0.0254 q 0.5461,0.0635 0.8128,0.3429 0.2667,0.2794 0.2667,0.73025 0,0.3937 -0.18415,0.70485 -0.18415,0.3048 -0.5715,0.47625 -0.381,0.17145 -0.98425,0.17145 -0.3556,0 -0.6604,-0.0572 -0.3048,-0.0508 -0.5842,-0.1905 v -0.5207 q 0.28575,0.1397 0.61595,0.22225 0.3302,0.0762 0.635,0.0762 0.6096,0 0.8763,-0.23495 0.27305,-0.2413 0.27305,-0.6604 0,-0.42545 -0.33655,-0.6096 -0.3302,-0.1905 -0.93345,-0.1905 h -0.43815 v -0.47625 h 0.4445 q 0.5588,0 0.84455,-0.23495 0.2921,-0.23495 0.2921,-0.6223 0,-0.3302 -0.22225,-0.508 -0.22225,-0.18415 -0.60325,-0.18415 -0.3683,0 -0.62865,0.10795 -0.26035,0.10795 -0.51435,0.27305 l -0.2794,-0.381 q 0.2413,-0.1905 0.5969,-0.3302 0.36195,-0.1397 0.81915,-0.1397 0.7112,0 1.0541,0.3175 0.34925,0.3175 0.34925,0.80645 z"
       id="text3871"
       aria-label="3" />
  </g>
</svg>
